M48
; DRILL file {KiCad 9.0.1} date 2025-05-03T16:21:20+0100
; FORMAT={-:-/ absolute / metric / decimal}
; #@! TF.CreationDate,2025-05-03T16:21:20+01:00
; #@! TF.GenerationSoftware,Kicad,Pcbnew,9.0.1
; #@! TF.FileFunction,MixedPlating,1,4
FMAT,2
METRIC
; #@! TA.AperFunction,Plated,PTH,ViaDrill
T1C0.300
; #@! TA.AperFunction,Plated,PTH,ViaDrill
T2C0.400
; #@! TA.AperFunction,Plated,PTH,ComponentDrill
T3C0.500
; #@! TA.AperFunction,Plated,PTH,ComponentDrill
T4C0.800
; #@! TA.AperFunction,Plated,PTH,ComponentDrill
T5C0.900
; #@! TA.AperFunction,Plated,PTH,ComponentDrill
T6C1.000
%
G90
G05
T1
X149.108Y-111.342
X150.033Y-110.962
X154.461Y-107.902
X155.414Y-107.902
T2
X109.535Y-80.169
X109.535Y-85.249
X109.535Y-130.969
X109.535Y-136.049
X119.695Y-80.169
X119.695Y-87.789
X119.695Y-95.409
X119.695Y-103.029
X119.695Y-110.649
X119.695Y-118.269
X119.695Y-127.159
X119.695Y-136.049
X129.855Y-80.169
X129.855Y-87.789
X129.855Y-95.409
X129.855Y-103.029
X129.855Y-110.649
X129.855Y-118.269
X129.855Y-127.159
X129.855Y-136.049
X140.015Y-80.169
X140.015Y-87.789
X140.015Y-95.409
X140.015Y-118.269
X140.015Y-125.062
X140.015Y-127.159
X140.015Y-136.049
X140.883Y-111.842
X147.747Y-116.553
X147.77Y-124.3
X148.441Y-105.031
X149.652Y-121.633
X150.175Y-80.169
X150.175Y-87.784
X150.175Y-95.404
X150.175Y-127.159
X150.175Y-136.049
X153.001Y-103.975
X153.131Y-120.948
X154.126Y-120.857
X155.24Y-120.871
X155.501Y-99.986
X156.24Y-120.871
X156.24Y-122.014
X157.049Y-101.689
X157.938Y-87.784
X159.615Y-112.235
X159.948Y-98.695
X160.335Y-80.169
X160.335Y-127.159
X160.335Y-136.049
X160.597Y-90.693
X161.843Y-89.116
X162.155Y-112.376
X163.537Y-96.858
X164.431Y-89.243
X164.431Y-98.26
X164.695Y-112.365
X165.311Y-90.715
X166.336Y-101.689
X166.463Y-90.132
X168.495Y-95.212
X168.495Y-105.123
X168.876Y-93.815
X169.003Y-99.403
X169.638Y-87.465
X170.019Y-101.689
X170.304Y-90.64
X170.41Y-92.164
X170.495Y-80.169
X170.495Y-127.159
X170.495Y-136.049
X172.315Y-110.451
X173.067Y-90.513
X173.067Y-92.164
X173.448Y-101.689
X173.585Y-105.758
X174.083Y-97.752
X175.353Y-96.99
X175.746Y-106.936
X176.115Y-113.405
X176.576Y-117.188
X177.258Y-101.689
X178.032Y-107.317
X178.147Y-87.211
X178.735Y-116.807
X179.317Y-84.747
X179.798Y-97.752
X180.191Y-107.698
X180.655Y-80.169
X180.655Y-127.159
X180.655Y-136.049
X180.767Y-116.426
X181.068Y-99.276
X182.084Y-93.942
X182.084Y-101.689
X182.35Y-108.079
X182.799Y-115.918
X183.973Y-97.69
X184.509Y-108.46
X184.958Y-115.537
X185.513Y-101.689
X186.541Y-108.841
X186.783Y-88.862
X186.783Y-90.513
X186.873Y-96.645
X186.91Y-86.703
X188.063Y-101.678
X189.208Y-109.222
X189.323Y-101.689
X190.815Y-80.169
X190.815Y-115.729
X190.815Y-127.159
X190.815Y-136.049
X191.365Y-112.365
X191.863Y-87.211
X191.928Y-91.21
X192.371Y-111.595
X194.121Y-93.688
X194.403Y-84.798
X194.403Y-87.211
X194.403Y-90.513
X194.962Y-101.759
X195.673Y-96.863
X197.705Y-98.89
X200.525Y-98.89
X200.975Y-80.169
X200.975Y-87.789
X200.975Y-95.409
X200.975Y-103.029
X200.975Y-110.649
X200.975Y-118.269
X200.975Y-127.159
X200.975Y-136.049
X211.135Y-80.169
X211.135Y-87.789
X211.135Y-95.409
X211.135Y-102.959
X211.135Y-110.649
X211.135Y-118.269
X211.135Y-136.049
X221.295Y-89.059
X221.295Y-95.409
X221.295Y-115.729
X221.295Y-120.809
T3
X206.595Y-109.222
X206.595Y-110.472
X206.595Y-111.722
X206.595Y-112.972
X206.595Y-114.222
T4
X159.615Y-104.107
X159.615Y-119.347
X162.155Y-104.107
X162.155Y-119.347
X164.695Y-104.107
X164.695Y-119.347
X167.235Y-104.107
X167.235Y-119.347
X169.775Y-104.107
X169.775Y-119.347
X172.315Y-104.107
X172.315Y-119.347
X174.855Y-104.107
X174.855Y-119.347
X177.395Y-104.107
X177.395Y-119.347
X179.935Y-104.107
X179.935Y-119.347
X182.475Y-104.107
X182.475Y-119.347
X185.015Y-104.107
X185.015Y-119.347
X187.555Y-104.107
X187.555Y-119.347
X190.095Y-104.107
X190.095Y-119.347
X192.635Y-104.107
X192.635Y-119.347
T5
X135.475Y-103.029
X135.475Y-105.029
X135.475Y-107.029
X135.475Y-109.029
X135.475Y-111.029
X135.475Y-113.029
X135.475Y-115.029
X135.475Y-117.029
X135.475Y-119.029
X135.475Y-121.029
X135.475Y-123.029
X135.475Y-125.029
X135.475Y-127.029
X137.475Y-103.029
X137.475Y-105.029
X137.475Y-107.029
X137.475Y-109.029
X137.475Y-111.029
X137.475Y-113.029
X137.475Y-115.029
X137.475Y-117.029
X137.475Y-119.029
X137.475Y-121.029
X137.475Y-123.029
X137.475Y-125.029
X137.475Y-127.029
X214.669Y-101.845
X214.669Y-108.645
X217.169Y-101.845
X217.169Y-103.945
X217.169Y-106.545
X217.169Y-108.645
T6
G00X219.269Y-98.395
M15
G01X220.769Y-98.395
M16
G05
G00X219.269Y-112.095
M15
G01X220.769Y-112.095
M16
G05
G00X220.819Y-106.245
M15
G01X220.819Y-104.245
M16
G05
M30
