M48
; DRILL file {KiCad 7.0.7-146-g6b43bb8fe3} date Fri Sep 29 14:39:09 2023
; FORMAT={-:-/ absolute / metric / decimal}
; #@! TF.CreationDate,2023-09-29T14:39:09+01:00
; #@! TF.GenerationSoftware,Kicad,Pcbnew,7.0.7-146-g6b43bb8fe3
; #@! TF.FileFunction,MixedPlating,1,4
FMAT,2
METRIC
; #@! TA.AperFunction,Plated,PTH,ViaDrill
T1C0.400
; #@! TA.AperFunction,Plated,PTH,ComponentDrill
T2C0.500
; #@! TA.AperFunction,Plated,PTH,ComponentDrill
T3C0.800
; #@! TA.AperFunction,Plated,PTH,ComponentDrill
T4C0.900
; #@! TA.AperFunction,Plated,PTH,ComponentDrill
T5C1.000
%
G90
G05
T1
X109.535Y-80.169
X109.535Y-85.249
X109.535Y-130.969
X109.535Y-136.049
X119.695Y-80.169
X119.695Y-87.789
X119.695Y-95.409
X119.695Y-103.029
X119.695Y-110.649
X119.695Y-118.269
X119.695Y-127.159
X119.695Y-136.049
X129.855Y-80.169
X129.855Y-87.789
X129.855Y-95.409
X129.855Y-103.029
X129.855Y-110.649
X129.855Y-118.269
X129.855Y-127.159
X129.855Y-136.049
X140.015Y-80.169
X140.015Y-87.789
X140.015Y-95.409
X140.015Y-127.159
X140.015Y-136.049
X140.269Y-118.269
X147.595Y-111.981
X148.441Y-105.031
X149.711Y-114.683
X150.175Y-80.169
X150.175Y-87.789
X150.175Y-95.409
X150.175Y-127.159
X150.175Y-136.049
X150.854Y-104.396
X151.108Y-114.429
X151.242Y-120.172
X151.741Y-118.709
X152.241Y-120.171
X152.975Y-120.871
X153.025Y-118.709
X154.281Y-118.963
X154.975Y-120.871
X159.446Y-101.694
X160.335Y-80.169
X160.335Y-87.789
X160.335Y-127.159
X160.335Y-136.049
X161.264Y-101.849
X161.642Y-94.074
X161.865Y-99.027
X162.792Y-113.54
X162.994Y-90.698
X163.427Y-117.35
X163.676Y-102.673
X164.24Y-89.121
X164.695Y-111.145
X165.837Y-93.943
X166.602Y-113.667
X166.828Y-89.248
X167.07Y-97.757
X167.573Y-99.789
X167.708Y-90.72
X167.745Y-117.477
X168.495Y-105.123
X168.86Y-90.137
X170.412Y-113.794
X170.495Y-80.169
X170.495Y-127.159
X170.495Y-136.049
X170.892Y-95.217
X171.047Y-117.477
X171.273Y-93.82
X171.4Y-99.408
X171.428Y-90.553
X172.035Y-92.169
X172.372Y-83.828
X172.416Y-101.694
X172.701Y-90.645
X172.955Y-110.451
X173.206Y-113.794
X173.46Y-117.477
X173.585Y-105.123
X175.111Y-113.794
X175.464Y-90.518
X175.464Y-92.169
X175.746Y-106.936
X175.845Y-101.694
X176.115Y-116.299
X176.48Y-97.757
X177.27Y-113.794
X177.75Y-96.995
X178.032Y-107.317
X179.226Y-83.533
X179.655Y-101.694
X180.191Y-107.698
X180.655Y-80.169
X180.655Y-115.983
X180.655Y-127.159
X180.655Y-136.049
X181.714Y-84.752
X182.195Y-97.757
X182.35Y-108.079
X183.465Y-99.281
X184.481Y-93.947
X184.481Y-101.694
X184.509Y-108.46
X186.37Y-97.695
X186.541Y-108.841
X187.91Y-101.694
X189.18Y-86.581
X189.18Y-88.867
X189.18Y-90.518
X189.208Y-109.222
X189.815Y-97.249
X190.427Y-101.647
X190.815Y-80.169
X190.815Y-115.729
X190.815Y-127.159
X190.815Y-136.049
X191.365Y-110.711
X191.72Y-86.581
X191.72Y-101.694
X194.26Y-90.518
X195.312Y-87.027
X195.53Y-94.201
X195.812Y-99.57
X195.812Y-101.856
X197.711Y-100.039
X197.754Y-87.11
X200.61Y-88.105
X200.975Y-80.169
X200.975Y-95.409
X200.975Y-105.569
X200.975Y-115.729
X200.975Y-127.159
X200.975Y-136.049
X201.88Y-88.105
X211.135Y-80.169
X211.135Y-87.789
X211.135Y-95.409
X211.135Y-115.729
X211.135Y-136.049
X212.405Y-107.601
X221.295Y-89.059
X221.295Y-95.409
X221.295Y-115.729
X221.295Y-120.809
T2
X206.607Y-102.745
X206.607Y-103.995
X206.607Y-105.245
X206.607Y-106.495
X206.607Y-107.745
T3
X159.615Y-104.107
X159.615Y-119.347
X162.155Y-104.107
X162.155Y-119.347
X164.695Y-104.107
X164.695Y-119.347
X167.235Y-104.107
X167.235Y-119.347
X169.775Y-104.107
X169.775Y-119.347
X172.315Y-104.107
X172.315Y-119.347
X174.855Y-104.107
X174.855Y-119.347
X177.395Y-104.107
X177.395Y-119.347
X179.935Y-104.107
X179.935Y-119.347
X182.475Y-104.107
X182.475Y-119.347
X185.015Y-104.107
X185.015Y-119.347
X187.555Y-104.107
X187.555Y-119.347
X190.095Y-104.107
X190.095Y-119.347
X192.635Y-104.107
X192.635Y-119.347
X214.669Y-101.845
X214.669Y-108.645
X217.169Y-101.845
X217.169Y-103.945
X217.169Y-108.645
T4
X135.475Y-103.029
X135.475Y-105.029
X135.475Y-107.029
X135.475Y-109.029
X135.475Y-111.029
X135.475Y-113.029
X135.475Y-115.029
X135.475Y-117.029
X135.475Y-119.029
X135.475Y-121.029
X135.475Y-123.029
X135.475Y-125.029
X135.475Y-127.029
X137.475Y-103.029
X137.475Y-105.029
X137.475Y-107.029
X137.475Y-109.029
X137.475Y-111.029
X137.475Y-113.029
X137.475Y-115.029
X137.475Y-117.029
X137.475Y-119.029
X137.475Y-121.029
X137.475Y-123.029
X137.475Y-125.029
X137.475Y-127.029
T5
G00X219.269Y-98.395
M15
G01X220.769Y-98.395
M16
G05
G00X219.269Y-112.095
M15
G01X220.769Y-112.095
M16
G05
G00X220.819Y-106.245
M15
G01X220.819Y-104.245
M16
G05
T0
M30
