G04 #@! TF.GenerationSoftware,KiCad,Pcbnew,9.0.1*
G04 #@! TF.CreationDate,2025-05-03T16:21:21+01:00*
G04 #@! TF.ProjectId,Econet_A4,45636f6e-6574-45f4-9134-2e6b69636164,02*
G04 #@! TF.SameCoordinates,Original*
G04 #@! TF.FileFunction,Copper,L4,Bot*
G04 #@! TF.FilePolarity,Positive*
%FSLAX46Y46*%
G04 Gerber Fmt 4.6, Leading zero omitted, Abs format (unit mm)*
G04 Created by KiCad (PCBNEW 9.0.1) date 2025-05-03 16:21:21*
%MOMM*%
%LPD*%
G01*
G04 APERTURE LIST*
G04 Aperture macros list*
%AMRoundRect*
0 Rectangle with rounded corners*
0 $1 Rounding radius*
0 $2 $3 $4 $5 $6 $7 $8 $9 X,Y pos of 4 corners*
0 Add a 4 corners polygon primitive as box body*
4,1,4,$2,$3,$4,$5,$6,$7,$8,$9,$2,$3,0*
0 Add four circle primitives for the rounded corners*
1,1,$1+$1,$2,$3*
1,1,$1+$1,$4,$5*
1,1,$1+$1,$6,$7*
1,1,$1+$1,$8,$9*
0 Add four rect primitives between the rounded corners*
20,1,$1+$1,$2,$3,$4,$5,0*
20,1,$1+$1,$4,$5,$6,$7,0*
20,1,$1+$1,$6,$7,$8,$9,0*
20,1,$1+$1,$8,$9,$2,$3,0*%
G04 Aperture macros list end*
G04 #@! TA.AperFunction,ComponentPad*
%ADD10RoundRect,0.250000X0.550000X-0.550000X0.550000X0.550000X-0.550000X0.550000X-0.550000X-0.550000X0*%
G04 #@! TD*
G04 #@! TA.AperFunction,ComponentPad*
%ADD11C,1.600000*%
G04 #@! TD*
G04 #@! TA.AperFunction,ComponentPad*
%ADD12R,1.350000X1.350000*%
G04 #@! TD*
G04 #@! TA.AperFunction,ComponentPad*
%ADD13C,1.350000*%
G04 #@! TD*
G04 #@! TA.AperFunction,ComponentPad*
%ADD14RoundRect,0.200000X-0.450000X0.200000X-0.450000X-0.200000X0.450000X-0.200000X0.450000X0.200000X0*%
G04 #@! TD*
G04 #@! TA.AperFunction,ComponentPad*
%ADD15O,1.300000X0.800000*%
G04 #@! TD*
G04 #@! TA.AperFunction,ComponentPad*
%ADD16R,1.600000X1.600000*%
G04 #@! TD*
G04 #@! TA.AperFunction,ComponentPad*
%ADD17O,3.500000X2.000000*%
G04 #@! TD*
G04 #@! TA.AperFunction,ComponentPad*
%ADD18O,2.000000X4.000000*%
G04 #@! TD*
G04 #@! TA.AperFunction,ViaPad*
%ADD19C,0.800000*%
G04 #@! TD*
G04 #@! TA.AperFunction,ViaPad*
%ADD20C,0.600000*%
G04 #@! TD*
G04 #@! TA.AperFunction,Conductor*
%ADD21C,0.500000*%
G04 #@! TD*
G04 #@! TA.AperFunction,Conductor*
%ADD22C,0.200000*%
G04 #@! TD*
G04 #@! TA.AperFunction,Conductor*
%ADD23C,0.250000*%
G04 #@! TD*
G04 APERTURE END LIST*
D10*
X159615000Y-119347000D03*
D11*
X162155000Y-119347000D03*
X164695000Y-119347000D03*
X167235000Y-119347000D03*
X169775000Y-119347000D03*
X172315000Y-119347000D03*
X174855000Y-119347000D03*
X177395000Y-119347000D03*
X179935000Y-119347000D03*
X182475000Y-119347000D03*
X185015000Y-119347000D03*
X187555000Y-119347000D03*
X190095000Y-119347000D03*
X192635000Y-119347000D03*
X192635000Y-104107000D03*
X190095000Y-104107000D03*
X187555000Y-104107000D03*
X185015000Y-104107000D03*
X182475000Y-104107000D03*
X179935000Y-104107000D03*
X177395000Y-104107000D03*
X174855000Y-104107000D03*
X172315000Y-104107000D03*
X169775000Y-104107000D03*
X167235000Y-104107000D03*
X164695000Y-104107000D03*
X162155000Y-104107000D03*
X159615000Y-104107000D03*
D12*
X137475000Y-103029000D03*
D13*
X135475000Y-103029000D03*
X137475000Y-105029000D03*
X135475000Y-105029000D03*
X137475000Y-107029000D03*
X135475000Y-107029000D03*
X137475000Y-109029000D03*
X135475000Y-109029000D03*
X137475000Y-111029000D03*
X135475000Y-111029000D03*
X137475000Y-113029000D03*
X135475000Y-113029000D03*
X137475000Y-115029000D03*
X135475000Y-115029000D03*
X137475000Y-117029000D03*
X135475000Y-117029000D03*
X137475000Y-119029000D03*
X135475000Y-119029000D03*
X137475000Y-121029000D03*
X135475000Y-121029000D03*
X137475000Y-123029000D03*
X135475000Y-123029000D03*
X137475000Y-125029000D03*
X135475000Y-125029000D03*
X137475000Y-127029000D03*
X135475000Y-127029000D03*
D14*
X206595000Y-109222000D03*
D15*
X206595000Y-110472000D03*
X206595000Y-111722000D03*
X206595000Y-112972000D03*
X206595000Y-114222000D03*
D16*
X217169000Y-103945000D03*
D11*
X217169000Y-101845000D03*
X217169000Y-108645000D03*
X214669000Y-101845000D03*
X214669000Y-108645000D03*
D17*
X220019000Y-112095000D03*
D11*
X217169000Y-106545000D03*
D18*
X220819000Y-105245000D03*
D17*
X220019000Y-98395000D03*
D19*
X186783000Y-88862000D03*
X185513000Y-101689000D03*
X182084000Y-101689000D03*
X177258000Y-101689000D03*
X173448000Y-101689000D03*
X157049000Y-101689000D03*
X168876000Y-93815000D03*
X170019000Y-101689000D03*
X140015000Y-125062000D03*
X190815000Y-136049000D03*
X165311000Y-90714989D03*
X221295000Y-89059000D03*
X211135000Y-87789000D03*
X200975000Y-95409000D03*
X150175000Y-87784000D03*
X161843000Y-89116000D03*
X176576000Y-117188000D03*
X186910000Y-86703000D03*
X119695000Y-95409000D03*
X150175000Y-127159000D03*
X119695000Y-110649000D03*
X182350000Y-108079000D03*
X157938000Y-87784000D03*
X140015000Y-136049000D03*
X175746000Y-106936000D03*
X129855000Y-127159000D03*
X129855000Y-95409000D03*
X119695000Y-87789000D03*
X129855000Y-80169000D03*
X200975000Y-136049000D03*
X190815000Y-115729000D03*
X180655000Y-80169000D03*
X119695000Y-118269000D03*
X140015000Y-118269000D03*
X180191000Y-107698000D03*
X200975000Y-110649000D03*
X129855000Y-118269000D03*
X180655000Y-136049000D03*
X221295000Y-120809000D03*
X159615000Y-112235000D03*
X186541000Y-108841000D03*
X189323000Y-101689000D03*
X170495000Y-136049000D03*
X200975000Y-80169000D03*
X211135000Y-95409000D03*
X190815000Y-80169000D03*
X184958000Y-115537000D03*
X178032000Y-107317000D03*
X182799000Y-115918000D03*
X160335000Y-80169000D03*
X153001000Y-103975000D03*
X178735000Y-116807000D03*
X170495000Y-127159000D03*
X211135000Y-102959000D03*
X119695000Y-127159000D03*
X160335000Y-136049000D03*
X189208000Y-109222000D03*
X109535000Y-136049000D03*
X148441000Y-105031000D03*
X200975000Y-103029000D03*
X119695000Y-80169000D03*
X109535000Y-130969000D03*
X169638000Y-87465000D03*
X190815000Y-127159000D03*
X140015000Y-95409000D03*
X129855000Y-103029000D03*
X200975000Y-127159000D03*
X129855000Y-110649000D03*
X178147000Y-87211000D03*
X211135000Y-110649000D03*
X200975000Y-87789000D03*
X184509000Y-108460000D03*
X140015000Y-80169000D03*
X150175000Y-136049000D03*
X140015000Y-127159000D03*
X160335000Y-127159000D03*
X119695000Y-103029000D03*
X109535000Y-80169000D03*
X180767000Y-116426000D03*
X180655000Y-127159000D03*
X211135000Y-136049000D03*
X211135000Y-80169000D03*
X170495000Y-80169000D03*
X109535000Y-85249000D03*
X140015000Y-87789000D03*
X129855000Y-136049000D03*
X200975000Y-118269000D03*
X183973000Y-97690000D03*
X166336000Y-101689000D03*
X150175000Y-95404000D03*
X211135000Y-118269000D03*
X129855000Y-87789000D03*
X221295000Y-95409000D03*
X119695000Y-136049000D03*
X221295000Y-115729000D03*
X150175000Y-80169000D03*
X170304500Y-90640000D03*
X147747000Y-116553000D03*
X147769718Y-124300000D03*
X186783000Y-90513000D03*
X191927624Y-91210013D03*
X168495000Y-95212000D03*
X179798000Y-97752000D03*
X164431000Y-98260000D03*
X174083000Y-97752000D03*
X168495000Y-105123000D03*
X172315000Y-110451500D03*
X200525000Y-98890000D03*
X194403000Y-84798000D03*
X162155000Y-112376000D03*
X164431000Y-89243000D03*
X194403000Y-90513000D03*
X192371000Y-111595000D03*
X197705000Y-98890000D03*
X163537347Y-96858347D03*
X173067000Y-92164000D03*
X159948000Y-98695288D03*
X175353000Y-96990000D03*
X169003000Y-99403000D03*
X181068000Y-99276000D03*
X160597000Y-90693001D03*
X194120916Y-93688000D03*
X194962000Y-101759000D03*
X195673000Y-96863000D03*
X182084000Y-93942000D03*
X186873000Y-96645218D03*
X173067000Y-90513000D03*
X166463000Y-90132000D03*
X155501000Y-99986000D03*
X191863000Y-87211000D03*
X179317500Y-84747200D03*
X153130653Y-120948347D03*
X170410000Y-92164489D03*
X173585000Y-105758000D03*
X176115000Y-113405000D03*
X154126436Y-120856584D03*
X140882999Y-111842000D03*
X156240000Y-120871000D03*
X155240000Y-120871000D03*
D20*
X150033000Y-110962000D03*
X154461340Y-107902500D03*
X155414000Y-107902500D03*
X149107936Y-111342000D03*
D19*
X156240000Y-122014000D03*
X149652000Y-121633000D03*
X164695000Y-112365000D03*
X194403000Y-87211000D03*
X188063000Y-101678000D03*
X191365000Y-112365000D03*
D21*
X137475000Y-125029000D02*
X137475000Y-127029000D01*
D22*
X207611000Y-104718000D02*
X206195000Y-106134000D01*
X205645000Y-108814894D02*
X205645000Y-110172000D01*
X206195000Y-106134000D02*
X206195000Y-108264894D01*
X206195000Y-108264894D02*
X205645000Y-108814894D01*
X205945000Y-110472000D02*
X206595000Y-110472000D01*
X205645000Y-110172000D02*
X205945000Y-110472000D01*
X214361000Y-104718000D02*
X207611000Y-104718000D01*
X214669000Y-104410000D02*
X214361000Y-104718000D01*
X214669000Y-101845000D02*
X214669000Y-104410000D01*
X215996000Y-105118000D02*
X207865000Y-105118000D01*
X217169000Y-103945000D02*
X215996000Y-105118000D01*
X207865000Y-105118000D02*
X206595000Y-106388000D01*
X206595000Y-106388000D02*
X206595000Y-109222000D01*
D21*
X156764000Y-124300000D02*
X157576800Y-123487200D01*
X137475000Y-103029000D02*
X142351000Y-103029000D01*
X144318000Y-116553000D02*
X147747000Y-116553000D01*
X156764000Y-116553000D02*
X157576800Y-117365800D01*
X139666000Y-85687000D02*
X165351500Y-85687000D01*
X142351000Y-103029000D02*
X143556000Y-104234000D01*
X137475000Y-87878000D02*
X137475000Y-103029000D01*
X170304500Y-90640000D02*
X165351500Y-85687000D01*
X143556000Y-104234000D02*
X143556000Y-115791000D01*
X139666000Y-85687000D02*
X137475000Y-87878000D01*
X157576800Y-117365800D02*
X157576800Y-123487200D01*
X143556000Y-115791000D02*
X144318000Y-116553000D01*
X147769718Y-124300000D02*
X156764000Y-124300000D01*
X147747000Y-116553000D02*
X156764000Y-116553000D01*
D23*
X186783000Y-90513000D02*
X191230611Y-90513000D01*
X191927624Y-91210013D02*
X191230611Y-90513000D01*
X168495000Y-95212000D02*
X168495000Y-97244000D01*
X168495000Y-97244000D02*
X169003000Y-97752000D01*
X164939000Y-97752000D02*
X169003000Y-97752000D01*
X164431000Y-98260000D02*
X164939000Y-97752000D01*
X179798000Y-97752000D02*
X174083000Y-97752000D01*
X169003000Y-97752000D02*
X174083000Y-97752000D01*
X169775000Y-119347000D02*
X169775000Y-117925000D01*
X168495000Y-105123000D02*
X168495000Y-116645000D01*
X169775000Y-117925000D02*
X168495000Y-116645000D01*
X172315000Y-119347000D02*
X172315000Y-110451500D01*
X200525000Y-98890000D02*
X200250000Y-98615000D01*
X200250000Y-98615000D02*
X200250000Y-85311000D01*
X199737000Y-84798000D02*
X194403000Y-84798000D01*
X200250000Y-85311000D02*
X199737000Y-84798000D01*
X198975000Y-90513000D02*
X199350000Y-90888000D01*
X192691000Y-111915000D02*
X198526604Y-111915000D01*
X198526604Y-111915000D02*
X199350000Y-111091604D01*
X162155000Y-104107000D02*
X162155000Y-103086000D01*
X192371000Y-111595000D02*
X192691000Y-111915000D01*
X163034000Y-89243000D02*
X164431000Y-89243000D01*
X194403000Y-90513000D02*
X198975000Y-90513000D01*
X199350000Y-90888000D02*
X199350000Y-111091604D01*
X161292500Y-102223500D02*
X161292500Y-90984500D01*
X162155000Y-104107000D02*
X162155000Y-112376000D01*
X162155000Y-103086000D02*
X161292500Y-102223500D01*
X161292500Y-90984500D02*
X163034000Y-89243000D01*
X163537347Y-100296347D02*
X164041000Y-100800000D01*
X164041000Y-100800000D02*
X195795000Y-100800000D01*
X163537347Y-96858347D02*
X163537347Y-100296347D01*
X195795000Y-100800000D02*
X197705000Y-98890000D01*
X171045000Y-103786009D02*
X170240991Y-102982000D01*
X163177511Y-91439489D02*
X172342489Y-91439489D01*
X161742500Y-100915500D02*
X161742500Y-92874500D01*
X174855000Y-117507000D02*
X174093000Y-116745000D01*
X161742500Y-92874500D02*
X163177511Y-91439489D01*
X170240991Y-102982000D02*
X163809000Y-102982000D01*
X163809000Y-102982000D02*
X161742500Y-100915500D01*
X174855000Y-119347000D02*
X174855000Y-117507000D01*
X174093000Y-116745000D02*
X174093000Y-109949000D01*
X174093000Y-109949000D02*
X171045000Y-106901000D01*
X171045000Y-106901000D02*
X171045000Y-103786009D01*
X172342489Y-91439489D02*
X173067000Y-92164000D01*
X159948000Y-102413000D02*
X160875000Y-103340000D01*
X159948000Y-102413000D02*
X159948000Y-98695288D01*
X160875000Y-116553000D02*
X160875000Y-103340000D01*
X162155000Y-117833000D02*
X160875000Y-116553000D01*
X162155000Y-119347000D02*
X162155000Y-117833000D01*
X152640306Y-120458000D02*
X148674812Y-120458000D01*
X138745000Y-122579000D02*
X138195000Y-122029000D01*
X134475000Y-111392604D02*
X134475000Y-106029000D01*
X148674812Y-120458000D02*
X146553812Y-122579000D01*
X134025000Y-111842604D02*
X134475000Y-111392604D01*
X138195000Y-122029000D02*
X134975000Y-122029000D01*
X134025000Y-121079000D02*
X134025000Y-111842604D01*
X134975000Y-122029000D02*
X134025000Y-121079000D01*
X134475000Y-106029000D02*
X135475000Y-105029000D01*
X153130653Y-120948347D02*
X152640306Y-120458000D01*
X146553812Y-122579000D02*
X138745000Y-122579000D01*
X163995396Y-102532000D02*
X162192500Y-100729104D01*
X173585000Y-107165000D02*
X176115000Y-109695000D01*
X173585000Y-103594000D02*
X172973000Y-102982000D01*
X163363709Y-91889009D02*
X170134520Y-91889009D01*
X176115000Y-113405000D02*
X176115000Y-109695000D01*
X170134520Y-91889009D02*
X170410000Y-92164489D01*
X162192500Y-100729104D02*
X162192500Y-93060218D01*
X173585000Y-107165000D02*
X173585000Y-105758000D01*
X172973000Y-102982000D02*
X170884999Y-102982000D01*
X173585000Y-105758000D02*
X173585000Y-103594000D01*
X170434999Y-102532000D02*
X163995396Y-102532000D01*
X170884999Y-102982000D02*
X170434999Y-102532000D01*
X162192500Y-93060218D02*
X163363709Y-91889009D01*
X134475000Y-112029000D02*
X135475000Y-111029000D01*
X146367416Y-122129000D02*
X138931396Y-122129000D01*
X134475000Y-119529000D02*
X134475000Y-112029000D01*
X153277852Y-120008000D02*
X148488416Y-120008000D01*
X154126436Y-120856584D02*
X153277852Y-120008000D01*
X134975000Y-120029000D02*
X134475000Y-119529000D01*
X140695999Y-112029000D02*
X140882999Y-111842000D01*
X136475000Y-112029000D02*
X140695999Y-112029000D01*
X138483000Y-120537000D02*
X137975000Y-120029000D01*
X137975000Y-120029000D02*
X134975000Y-120029000D01*
X148488416Y-120008000D02*
X146367416Y-122129000D01*
X138931396Y-122129000D02*
X138483000Y-121680604D01*
X138483000Y-121680604D02*
X138483000Y-120537000D01*
X136470078Y-112024078D02*
X136475000Y-112029000D01*
X135475000Y-111029000D02*
X136470078Y-112024078D01*
X145994624Y-121229000D02*
X139927000Y-121229000D01*
X156240003Y-120871000D02*
X156240003Y-120728003D01*
X156240003Y-120728003D02*
X154620000Y-119108000D01*
X139383000Y-120685000D02*
X139383000Y-119800604D01*
X139383000Y-119800604D02*
X138925000Y-119342604D01*
X136475000Y-114029000D02*
X135475000Y-113029000D01*
X138925000Y-119342604D02*
X138925000Y-114979000D01*
X148115624Y-119108000D02*
X145994624Y-121229000D01*
X154620000Y-119108000D02*
X148115624Y-119108000D01*
X138925000Y-114979000D02*
X137975000Y-114029000D01*
X137975000Y-114029000D02*
X136475000Y-114029000D01*
X139927000Y-121229000D02*
X139383000Y-120685000D01*
X137975000Y-116029000D02*
X136475000Y-116029000D01*
X155240000Y-120871000D02*
X153927000Y-119558000D01*
X138475000Y-116529000D02*
X137975000Y-116029000D01*
X138933000Y-120997000D02*
X138933000Y-119987000D01*
X136475000Y-116029000D02*
X135475000Y-115029000D01*
X138933000Y-119987000D02*
X138475000Y-119529000D01*
X153927000Y-119558000D02*
X148302020Y-119558000D01*
X148302020Y-119558000D02*
X146181020Y-121679000D01*
X139615000Y-121679000D02*
X138933000Y-120997000D01*
X146181020Y-121679000D02*
X139615000Y-121679000D01*
X138475000Y-119529000D02*
X138475000Y-116529000D01*
D22*
X150033000Y-110965000D02*
X150230000Y-111162000D01*
X150230000Y-111162000D02*
X151483350Y-111162000D01*
X150033000Y-110962000D02*
X150033000Y-110965000D01*
X154461340Y-108184010D02*
X154461340Y-107902500D01*
X151483350Y-111162000D02*
X154461340Y-108184010D01*
X151640752Y-111542000D02*
X154704002Y-108478750D01*
X154837750Y-108478750D02*
X155414000Y-107902500D01*
X149307936Y-111542000D02*
X151640752Y-111542000D01*
X149107936Y-111342000D02*
X149307936Y-111542000D01*
X154704002Y-108478750D02*
X154837750Y-108478750D01*
D23*
X155915347Y-121673347D02*
X152830348Y-121673347D01*
X156256000Y-122014000D02*
X155915347Y-121673347D01*
X146740208Y-123029000D02*
X137475000Y-123029000D01*
X152065000Y-120908000D02*
X148861208Y-120908000D01*
X148861208Y-120908000D02*
X146740208Y-123029000D01*
X152830348Y-121673347D02*
X152065000Y-120908000D01*
X136475000Y-124029000D02*
X135475000Y-123029000D01*
X146926604Y-123479000D02*
X138488000Y-123479000D01*
X149652000Y-121633000D02*
X148772604Y-121633000D01*
X138475000Y-123529000D02*
X137975000Y-124029000D01*
X148772604Y-121633000D02*
X146926604Y-123479000D01*
X138475000Y-123492000D02*
X138475000Y-123529000D01*
X137975000Y-124029000D02*
X136475000Y-124029000D01*
X138488000Y-123479000D02*
X138475000Y-123492000D01*
X188063000Y-101678000D02*
X188065624Y-101678000D01*
X199800000Y-87655000D02*
X199800000Y-111278000D01*
X190753000Y-102982000D02*
X191365000Y-103594000D01*
X188065624Y-101678000D02*
X189369624Y-102982000D01*
X189369624Y-102982000D02*
X190753000Y-102982000D01*
X191365000Y-103594000D02*
X191365000Y-112365000D01*
X199800000Y-111278000D02*
X198713000Y-112365000D01*
X199356000Y-87211000D02*
X199800000Y-87655000D01*
X194403000Y-87211000D02*
X199356000Y-87211000D01*
X164695000Y-119347000D02*
X164695000Y-112365000D01*
X198713000Y-112365000D02*
X191365000Y-112365000D01*
G04 #@! TA.AperFunction,Conductor*
G36*
X216749667Y-102018694D02*
G01*
X216808910Y-102121306D01*
X216892694Y-102205090D01*
X216995306Y-102264333D01*
X217080414Y-102287137D01*
X216459370Y-102908181D01*
X216398047Y-102941666D01*
X216371689Y-102944500D01*
X216349247Y-102944500D01*
X216290770Y-102956131D01*
X216290769Y-102956132D01*
X216224447Y-103000447D01*
X216180132Y-103066769D01*
X216180131Y-103066770D01*
X216168500Y-103125247D01*
X216168500Y-104469167D01*
X216148815Y-104536206D01*
X216132181Y-104556848D01*
X215907848Y-104781181D01*
X215846525Y-104814666D01*
X215820167Y-104817500D01*
X214985833Y-104817500D01*
X214918794Y-104797815D01*
X214873039Y-104745011D01*
X214863095Y-104675853D01*
X214892120Y-104612297D01*
X214898152Y-104605819D01*
X214909460Y-104594511D01*
X214949022Y-104525988D01*
X214969500Y-104449562D01*
X214969500Y-104370438D01*
X214969500Y-102886315D01*
X214989185Y-102819276D01*
X215041989Y-102773521D01*
X215046002Y-102771773D01*
X215142914Y-102731632D01*
X215306782Y-102622139D01*
X215446139Y-102482782D01*
X215555632Y-102318914D01*
X215631051Y-102136835D01*
X215642155Y-102081011D01*
X215644766Y-102067888D01*
X215677151Y-102005977D01*
X215737867Y-101971403D01*
X215807636Y-101975142D01*
X215864308Y-102016009D01*
X215888856Y-102072681D01*
X215901009Y-102149417D01*
X215964244Y-102344031D01*
X216057141Y-102526350D01*
X216057147Y-102526359D01*
X216089523Y-102570921D01*
X216089524Y-102570922D01*
X216726861Y-101933584D01*
X216749667Y-102018694D01*
G37*
G04 #@! TD.AperFunction*
G04 #@! TA.AperFunction,Conductor*
G36*
X212137539Y-78265185D02*
G01*
X212183294Y-78317989D01*
X212194500Y-78369500D01*
X212194500Y-87784562D01*
X212203645Y-87818691D01*
X212214979Y-87860990D01*
X212214982Y-87860995D01*
X212254535Y-87929504D01*
X212254539Y-87929509D01*
X212254540Y-87929511D01*
X212310489Y-87985460D01*
X212310491Y-87985461D01*
X212310495Y-87985464D01*
X212379004Y-88025017D01*
X212379011Y-88025021D01*
X212455438Y-88045500D01*
X212534562Y-88045500D01*
X222070500Y-88045500D01*
X222137539Y-88065185D01*
X222183294Y-88117989D01*
X222194500Y-88169500D01*
X222194500Y-94705438D01*
X222194500Y-94784562D01*
X222208152Y-94835513D01*
X222214979Y-94860990D01*
X222214982Y-94860995D01*
X222254535Y-94929504D01*
X222254539Y-94929509D01*
X222254540Y-94929511D01*
X222310489Y-94985460D01*
X222310491Y-94985461D01*
X222310495Y-94985464D01*
X222379004Y-95025017D01*
X222379011Y-95025021D01*
X222455438Y-95045500D01*
X225570500Y-95045500D01*
X225637539Y-95065185D01*
X225683294Y-95117989D01*
X225694500Y-95169500D01*
X225694500Y-106320500D01*
X225674815Y-106387539D01*
X225622011Y-106433294D01*
X225570500Y-106444500D01*
X222447310Y-106444500D01*
X222447310Y-106442156D01*
X222390139Y-106433235D01*
X222337888Y-106386850D01*
X222319000Y-106321067D01*
X222319000Y-105495000D01*
X221319000Y-105495000D01*
X221319000Y-104995000D01*
X222319000Y-104995000D01*
X222319000Y-104126947D01*
X222282065Y-103893752D01*
X222209102Y-103669197D01*
X222101914Y-103458828D01*
X221963133Y-103267813D01*
X221796186Y-103100866D01*
X221605171Y-102962085D01*
X221394802Y-102854897D01*
X221170247Y-102781934D01*
X221069000Y-102765897D01*
X221069000Y-103811988D01*
X221011993Y-103779075D01*
X220884826Y-103745000D01*
X220753174Y-103745000D01*
X220626007Y-103779075D01*
X220569000Y-103811988D01*
X220569000Y-102765897D01*
X220467752Y-102781934D01*
X220243197Y-102854897D01*
X220032828Y-102962085D01*
X219841813Y-103100866D01*
X219674866Y-103267813D01*
X219536085Y-103458828D01*
X219428897Y-103669197D01*
X219355934Y-103893752D01*
X219319000Y-104126947D01*
X219319000Y-104995000D01*
X220319000Y-104995000D01*
X220319000Y-105495000D01*
X219319000Y-105495000D01*
X219319000Y-106363052D01*
X219355934Y-106596247D01*
X219428897Y-106820802D01*
X219536085Y-107031171D01*
X219674866Y-107222186D01*
X219841813Y-107389133D01*
X220032828Y-107527914D01*
X220243195Y-107635102D01*
X220467744Y-107708063D01*
X220467750Y-107708065D01*
X220569000Y-107724101D01*
X220569000Y-106678012D01*
X220626007Y-106710925D01*
X220753174Y-106745000D01*
X220884826Y-106745000D01*
X221011993Y-106710925D01*
X221069000Y-106678012D01*
X221069000Y-107724100D01*
X221170249Y-107708065D01*
X221170255Y-107708063D01*
X221394804Y-107635102D01*
X221605171Y-107527914D01*
X221796186Y-107389133D01*
X221963133Y-107222186D01*
X221963138Y-107222180D01*
X221970182Y-107212486D01*
X222025512Y-107169820D01*
X222095125Y-107163841D01*
X222156920Y-107196446D01*
X222191277Y-107257285D01*
X222194500Y-107285371D01*
X222194500Y-110505438D01*
X222194500Y-110584562D01*
X222197297Y-110595000D01*
X222214979Y-110660990D01*
X222214982Y-110660995D01*
X222254535Y-110729504D01*
X222254539Y-110729509D01*
X222254540Y-110729511D01*
X222310489Y-110785460D01*
X222310491Y-110785461D01*
X222310495Y-110785464D01*
X222356605Y-110812085D01*
X222379011Y-110825021D01*
X222455438Y-110845500D01*
X225570500Y-110845500D01*
X225637539Y-110865185D01*
X225683294Y-110917989D01*
X225694500Y-110969500D01*
X225694500Y-115320500D01*
X225674815Y-115387539D01*
X225622011Y-115433294D01*
X225570500Y-115444500D01*
X222534562Y-115444500D01*
X222455438Y-115444500D01*
X222417224Y-115454739D01*
X222379009Y-115464979D01*
X222379004Y-115464982D01*
X222310495Y-115504535D01*
X222310487Y-115504541D01*
X222254541Y-115560487D01*
X222254535Y-115560495D01*
X222214982Y-115629004D01*
X222214979Y-115629009D01*
X222211788Y-115640918D01*
X222195020Y-115703500D01*
X222194500Y-115705439D01*
X222194500Y-122320500D01*
X222174815Y-122387539D01*
X222122011Y-122433294D01*
X222070500Y-122444500D01*
X212534562Y-122444500D01*
X212455438Y-122444500D01*
X212417224Y-122454739D01*
X212379009Y-122464979D01*
X212379004Y-122464982D01*
X212310495Y-122504535D01*
X212310487Y-122504541D01*
X212254541Y-122560487D01*
X212254535Y-122560495D01*
X212214982Y-122629004D01*
X212214979Y-122629009D01*
X212201326Y-122679962D01*
X212195020Y-122703500D01*
X212194500Y-122705439D01*
X212194500Y-137120500D01*
X212174815Y-137187539D01*
X212122011Y-137233294D01*
X212070500Y-137244500D01*
X105419500Y-137244500D01*
X105352461Y-137224815D01*
X105306706Y-137172011D01*
X105295500Y-137120500D01*
X105295500Y-128169500D01*
X105315185Y-128102461D01*
X105367989Y-128056706D01*
X105419500Y-128045500D01*
X113034560Y-128045500D01*
X113034562Y-128045500D01*
X113110989Y-128025021D01*
X113179511Y-127985460D01*
X113235460Y-127929511D01*
X113275021Y-127860989D01*
X113295500Y-127784562D01*
X113295500Y-111799749D01*
X133699500Y-111799749D01*
X133699500Y-121121852D01*
X133721682Y-121204640D01*
X133740567Y-121237349D01*
X133764535Y-121278862D01*
X133764537Y-121278864D01*
X134775138Y-122289465D01*
X134777017Y-122290907D01*
X134778199Y-122292526D01*
X134780885Y-122295212D01*
X134780466Y-122295630D01*
X134818218Y-122347337D01*
X134822370Y-122417083D01*
X134797383Y-122467941D01*
X134794957Y-122470896D01*
X134699145Y-122614288D01*
X134699138Y-122614301D01*
X134633146Y-122773621D01*
X134633143Y-122773633D01*
X134599500Y-122942766D01*
X134599500Y-123115233D01*
X134633143Y-123284366D01*
X134633146Y-123284378D01*
X134699138Y-123443698D01*
X134699145Y-123443711D01*
X134794954Y-123587098D01*
X134794957Y-123587102D01*
X134916897Y-123709042D01*
X134916901Y-123709045D01*
X135060288Y-123804854D01*
X135060301Y-123804861D01*
X135210534Y-123867089D01*
X135219626Y-123870855D01*
X135328398Y-123892491D01*
X135388766Y-123904499D01*
X135388769Y-123904500D01*
X135388771Y-123904500D01*
X135561231Y-123904500D01*
X135561232Y-123904499D01*
X135730374Y-123870855D01*
X135743030Y-123865612D01*
X135762906Y-123863474D01*
X135781638Y-123856488D01*
X135796931Y-123859814D01*
X135812494Y-123858141D01*
X135830373Y-123867089D01*
X135849911Y-123871340D01*
X135872194Y-123888021D01*
X135874975Y-123889413D01*
X135878140Y-123892467D01*
X135980787Y-123995114D01*
X136051565Y-124065892D01*
X136085050Y-124127215D01*
X136080066Y-124196907D01*
X136038194Y-124252840D01*
X135972730Y-124277257D01*
X135904457Y-124262405D01*
X135894991Y-124256674D01*
X135889707Y-124253143D01*
X135889698Y-124253138D01*
X135730378Y-124187146D01*
X135730366Y-124187143D01*
X135561232Y-124153500D01*
X135561229Y-124153500D01*
X135388771Y-124153500D01*
X135388768Y-124153500D01*
X135219633Y-124187143D01*
X135219621Y-124187146D01*
X135060301Y-124253138D01*
X135060288Y-124253145D01*
X134916901Y-124348954D01*
X134916897Y-124348957D01*
X134794957Y-124470897D01*
X134794954Y-124470901D01*
X134699145Y-124614288D01*
X134699138Y-124614301D01*
X134633146Y-124773621D01*
X134633143Y-124773633D01*
X134599500Y-124942766D01*
X134599500Y-125115233D01*
X134633143Y-125284366D01*
X134633146Y-125284378D01*
X134699138Y-125443698D01*
X134699145Y-125443711D01*
X134794954Y-125587098D01*
X134794957Y-125587102D01*
X134916897Y-125709042D01*
X134916901Y-125709045D01*
X135060288Y-125804854D01*
X135060301Y-125804861D01*
X135219621Y-125870853D01*
X135219626Y-125870855D01*
X135388766Y-125904499D01*
X135388769Y-125904500D01*
X135388771Y-125904500D01*
X135561231Y-125904500D01*
X135561232Y-125904499D01*
X135730374Y-125870855D01*
X135889705Y-125804858D01*
X136033099Y-125709045D01*
X136155045Y-125587099D01*
X136199536Y-125520512D01*
X136253147Y-125475708D01*
X136322472Y-125467001D01*
X136385500Y-125497155D01*
X136413123Y-125533109D01*
X136470050Y-125644834D01*
X136485015Y-125665430D01*
X137032861Y-125117584D01*
X137055667Y-125202694D01*
X137114910Y-125305306D01*
X137198694Y-125389090D01*
X137301306Y-125448333D01*
X137386414Y-125471137D01*
X136838566Y-126018985D01*
X136838589Y-126019270D01*
X136838589Y-126038730D01*
X136838566Y-126039014D01*
X137386415Y-126586861D01*
X137301306Y-126609667D01*
X137198694Y-126668910D01*
X137114910Y-126752694D01*
X137055667Y-126855306D01*
X137032861Y-126940414D01*
X136485015Y-126392568D01*
X136470048Y-126413170D01*
X136413122Y-126524891D01*
X136365147Y-126575686D01*
X136297326Y-126592481D01*
X136231192Y-126569943D01*
X136199536Y-126537486D01*
X136155045Y-126470901D01*
X136155042Y-126470897D01*
X136033102Y-126348957D01*
X136033098Y-126348954D01*
X135889711Y-126253145D01*
X135889702Y-126253140D01*
X135763420Y-126200833D01*
X135763418Y-126200832D01*
X135730378Y-126187146D01*
X135730366Y-126187143D01*
X135561232Y-126153500D01*
X135561229Y-126153500D01*
X135388771Y-126153500D01*
X135388768Y-126153500D01*
X135219633Y-126187143D01*
X135219621Y-126187146D01*
X135060301Y-126253138D01*
X135060288Y-126253145D01*
X134916901Y-126348954D01*
X134916897Y-126348957D01*
X134794957Y-126470897D01*
X134794954Y-126470901D01*
X134699145Y-126614288D01*
X134699138Y-126614301D01*
X134633146Y-126773621D01*
X134633143Y-126773633D01*
X134599500Y-126942766D01*
X134599500Y-127115233D01*
X134633143Y-127284366D01*
X134633146Y-127284378D01*
X134699138Y-127443698D01*
X134699145Y-127443711D01*
X134794954Y-127587098D01*
X134794957Y-127587102D01*
X134916897Y-127709042D01*
X134916901Y-127709045D01*
X135060288Y-127804854D01*
X135060301Y-127804861D01*
X135195822Y-127860995D01*
X135219626Y-127870855D01*
X135388766Y-127904499D01*
X135388769Y-127904500D01*
X135388771Y-127904500D01*
X135561231Y-127904500D01*
X135561232Y-127904499D01*
X135730374Y-127870855D01*
X135889705Y-127804858D01*
X136033099Y-127709045D01*
X136155045Y-127587099D01*
X136199536Y-127520512D01*
X136253147Y-127475708D01*
X136322472Y-127467001D01*
X136385500Y-127497155D01*
X136413123Y-127533109D01*
X136470050Y-127644834D01*
X136485015Y-127665430D01*
X136485016Y-127665431D01*
X137032861Y-127117585D01*
X137055667Y-127202694D01*
X137114910Y-127305306D01*
X137198694Y-127389090D01*
X137301306Y-127448333D01*
X137386414Y-127471137D01*
X136838568Y-128018983D01*
X136838568Y-128018984D01*
X136859165Y-128033949D01*
X137023956Y-128117915D01*
X137023959Y-128117916D01*
X137199852Y-128175066D01*
X137382527Y-128204000D01*
X137567473Y-128204000D01*
X137750147Y-128175066D01*
X137926040Y-128117916D01*
X137926043Y-128117915D01*
X138090836Y-128033947D01*
X138090845Y-128033942D01*
X138111430Y-128018984D01*
X138111431Y-128018983D01*
X137563585Y-127471137D01*
X137648694Y-127448333D01*
X137751306Y-127389090D01*
X137835090Y-127305306D01*
X137894333Y-127202694D01*
X137917138Y-127117585D01*
X138464983Y-127665430D01*
X138464984Y-127665430D01*
X138479942Y-127644845D01*
X138479947Y-127644836D01*
X138563915Y-127480043D01*
X138563916Y-127480040D01*
X138621066Y-127304147D01*
X138650000Y-127121473D01*
X138650000Y-126936526D01*
X138621066Y-126753852D01*
X138563916Y-126577959D01*
X138563915Y-126577956D01*
X138479949Y-126413165D01*
X138464983Y-126392568D01*
X137917137Y-126940414D01*
X137894333Y-126855306D01*
X137835090Y-126752694D01*
X137751306Y-126668910D01*
X137648694Y-126609667D01*
X137563584Y-126586861D01*
X138111430Y-126039015D01*
X138111408Y-126038728D01*
X138111408Y-126019275D01*
X138111430Y-126018983D01*
X137563585Y-125471137D01*
X137648694Y-125448333D01*
X137751306Y-125389090D01*
X137835090Y-125305306D01*
X137894333Y-125202694D01*
X137917138Y-125117585D01*
X138464983Y-125665430D01*
X138464984Y-125665430D01*
X138479942Y-125644845D01*
X138479947Y-125644836D01*
X138563915Y-125480043D01*
X138563916Y-125480040D01*
X138621066Y-125304147D01*
X138650000Y-125121473D01*
X138650000Y-124936526D01*
X138621066Y-124753852D01*
X138563916Y-124577959D01*
X138563915Y-124577956D01*
X138479949Y-124413165D01*
X138464983Y-124392568D01*
X137917137Y-124940414D01*
X137894333Y-124855306D01*
X137835090Y-124752694D01*
X137751306Y-124668910D01*
X137648694Y-124609667D01*
X137563584Y-124586861D01*
X137759628Y-124390819D01*
X137820951Y-124357334D01*
X137847309Y-124354500D01*
X138017851Y-124354500D01*
X138017853Y-124354500D01*
X138100639Y-124332318D01*
X138174862Y-124289465D01*
X138623507Y-123840818D01*
X138684830Y-123807334D01*
X138711188Y-123804500D01*
X146969455Y-123804500D01*
X146969457Y-123804500D01*
X147052243Y-123782318D01*
X147126466Y-123739465D01*
X148871112Y-121994819D01*
X148932435Y-121961334D01*
X148958793Y-121958500D01*
X149077170Y-121958500D01*
X149144209Y-121978185D01*
X149164679Y-121997022D01*
X149165733Y-121995969D01*
X149171480Y-122001716D01*
X149283284Y-122113520D01*
X149283286Y-122113521D01*
X149283290Y-122113524D01*
X149420209Y-122192573D01*
X149420216Y-122192577D01*
X149572943Y-122233500D01*
X149572945Y-122233500D01*
X149731055Y-122233500D01*
X149731057Y-122233500D01*
X149883784Y-122192577D01*
X150020716Y-122113520D01*
X150132520Y-122001716D01*
X150211577Y-121864784D01*
X150252500Y-121712057D01*
X150252500Y-121553943D01*
X150211577Y-121401216D01*
X150211576Y-121401214D01*
X150209473Y-121393365D01*
X150211809Y-121392739D01*
X150205658Y-121335472D01*
X150236939Y-121272996D01*
X150297031Y-121237349D01*
X150327686Y-121233500D01*
X151878811Y-121233500D01*
X151945850Y-121253185D01*
X151966492Y-121269819D01*
X152565542Y-121868867D01*
X152565552Y-121868878D01*
X152569882Y-121873208D01*
X152569883Y-121873209D01*
X152630486Y-121933812D01*
X152630488Y-121933813D01*
X152630492Y-121933816D01*
X152704703Y-121976661D01*
X152704710Y-121976665D01*
X152787496Y-121998848D01*
X152873201Y-121998847D01*
X155519108Y-121998847D01*
X155586147Y-122018532D01*
X155631902Y-122071336D01*
X155638883Y-122090753D01*
X155639500Y-122093055D01*
X155639500Y-122093057D01*
X155644983Y-122113520D01*
X155680423Y-122245785D01*
X155680426Y-122245790D01*
X155759475Y-122382709D01*
X155759479Y-122382714D01*
X155759480Y-122382716D01*
X155871284Y-122494520D01*
X155871286Y-122494521D01*
X155871290Y-122494524D01*
X155985557Y-122560495D01*
X156008216Y-122573577D01*
X156160943Y-122614500D01*
X156160945Y-122614500D01*
X156319055Y-122614500D01*
X156319057Y-122614500D01*
X156471784Y-122573577D01*
X156608716Y-122494520D01*
X156720520Y-122382716D01*
X156799577Y-122245784D01*
X156840500Y-122093057D01*
X156840500Y-121934943D01*
X156799577Y-121782216D01*
X156759071Y-121712057D01*
X156720524Y-121645290D01*
X156720518Y-121645282D01*
X156605417Y-121530181D01*
X156571932Y-121468858D01*
X156576916Y-121399166D01*
X156605417Y-121354819D01*
X156652736Y-121307500D01*
X156720520Y-121239716D01*
X156799577Y-121102784D01*
X156840500Y-120950057D01*
X156840500Y-120791943D01*
X156799577Y-120639216D01*
X156798012Y-120636505D01*
X156720524Y-120502290D01*
X156720518Y-120502282D01*
X156608717Y-120390481D01*
X156608709Y-120390475D01*
X156471790Y-120311426D01*
X156471786Y-120311424D01*
X156471784Y-120311423D01*
X156319057Y-120270500D01*
X156319056Y-120270500D01*
X156294189Y-120270500D01*
X156227150Y-120250815D01*
X156206508Y-120234181D01*
X154819864Y-118847537D01*
X154819862Y-118847535D01*
X154782750Y-118826108D01*
X154745640Y-118804682D01*
X154704246Y-118793591D01*
X154662853Y-118782500D01*
X148158477Y-118782500D01*
X148072771Y-118782500D01*
X147989983Y-118804682D01*
X147915762Y-118847535D01*
X147915759Y-118847537D01*
X145896116Y-120867181D01*
X145834793Y-120900666D01*
X145808435Y-120903500D01*
X140113189Y-120903500D01*
X140046150Y-120883815D01*
X140025508Y-120867181D01*
X139744819Y-120586492D01*
X139711334Y-120525169D01*
X139708500Y-120498811D01*
X139708500Y-119757753D01*
X139708499Y-119757749D01*
X139697237Y-119715716D01*
X139686318Y-119674965D01*
X139664891Y-119637854D01*
X139643465Y-119600742D01*
X139582862Y-119540139D01*
X139582859Y-119540137D01*
X139442383Y-119399661D01*
X139286819Y-119244096D01*
X139253334Y-119182773D01*
X139250500Y-119156415D01*
X139250500Y-114936149D01*
X139250500Y-114936147D01*
X139228318Y-114853362D01*
X139228318Y-114853361D01*
X139185465Y-114779138D01*
X138174862Y-113768535D01*
X138174858Y-113768531D01*
X138172980Y-113767090D01*
X138171797Y-113765470D01*
X138169115Y-113762788D01*
X138169533Y-113762369D01*
X138131780Y-113710660D01*
X138127630Y-113640914D01*
X138152627Y-113590044D01*
X138155035Y-113587108D01*
X138155045Y-113587099D01*
X138250858Y-113443705D01*
X138316855Y-113284374D01*
X138350500Y-113115229D01*
X138350500Y-112942771D01*
X138350500Y-112942768D01*
X138350499Y-112942766D01*
X138346862Y-112924480D01*
X138316855Y-112773626D01*
X138255485Y-112625465D01*
X138250861Y-112614301D01*
X138250854Y-112614288D01*
X138206155Y-112547391D01*
X138185277Y-112480713D01*
X138203762Y-112413333D01*
X138255741Y-112366643D01*
X138309257Y-112354500D01*
X140536448Y-112354500D01*
X140598447Y-112371112D01*
X140651215Y-112401577D01*
X140803942Y-112442500D01*
X140803944Y-112442500D01*
X140962054Y-112442500D01*
X140962056Y-112442500D01*
X141114783Y-112401577D01*
X141251715Y-112322520D01*
X141363519Y-112210716D01*
X141442576Y-112073784D01*
X141483499Y-111921057D01*
X141483499Y-111762943D01*
X141442576Y-111610216D01*
X141400917Y-111538060D01*
X141363523Y-111473290D01*
X141363517Y-111473282D01*
X141251716Y-111361481D01*
X141251708Y-111361475D01*
X141114789Y-111282426D01*
X141114785Y-111282424D01*
X141114783Y-111282423D01*
X140962056Y-111241500D01*
X140803942Y-111241500D01*
X140651215Y-111282423D01*
X140651208Y-111282426D01*
X140514289Y-111361475D01*
X140514281Y-111361481D01*
X140402480Y-111473282D01*
X140402474Y-111473290D01*
X140323425Y-111610209D01*
X140323422Y-111610216D01*
X140323052Y-111611598D01*
X140322421Y-111612632D01*
X140320313Y-111617723D01*
X140319518Y-111617394D01*
X140286685Y-111671257D01*
X140223836Y-111701784D01*
X140203278Y-111703500D01*
X138309257Y-111703500D01*
X138242218Y-111683815D01*
X138196463Y-111631011D01*
X138186519Y-111561853D01*
X138206155Y-111510609D01*
X138250854Y-111443711D01*
X138250854Y-111443710D01*
X138250858Y-111443705D01*
X138316855Y-111284374D01*
X138350500Y-111115229D01*
X138350500Y-110942771D01*
X138350500Y-110942768D01*
X138350499Y-110942766D01*
X138348361Y-110932020D01*
X138316855Y-110773626D01*
X138300075Y-110733115D01*
X138250861Y-110614301D01*
X138250854Y-110614288D01*
X138155045Y-110470901D01*
X138155042Y-110470897D01*
X138033102Y-110348957D01*
X138033098Y-110348954D01*
X137889711Y-110253145D01*
X137889698Y-110253138D01*
X137730378Y-110187146D01*
X137730366Y-110187143D01*
X137561232Y-110153500D01*
X137561229Y-110153500D01*
X137388771Y-110153500D01*
X137388768Y-110153500D01*
X137219633Y-110187143D01*
X137219621Y-110187146D01*
X137060301Y-110253138D01*
X137060288Y-110253145D01*
X136916901Y-110348954D01*
X136916897Y-110348957D01*
X136794957Y-110470897D01*
X136794954Y-110470901D01*
X136699145Y-110614288D01*
X136699138Y-110614301D01*
X136633146Y-110773621D01*
X136633143Y-110773633D01*
X136599500Y-110942766D01*
X136599500Y-111115233D01*
X136633143Y-111284366D01*
X136633146Y-111284378D01*
X136699138Y-111443698D01*
X136699146Y-111443712D01*
X136702677Y-111448997D01*
X136709613Y-111471152D01*
X136720739Y-111491527D01*
X136719856Y-111503867D01*
X136723553Y-111515674D01*
X136717411Y-111538060D01*
X136715755Y-111561219D01*
X136708340Y-111571123D01*
X136705067Y-111583054D01*
X136687795Y-111598567D01*
X136673883Y-111617152D01*
X136662291Y-111621475D01*
X136653087Y-111629743D01*
X136630170Y-111633456D01*
X136608419Y-111641569D01*
X136596329Y-111638939D01*
X136584117Y-111640918D01*
X136562829Y-111631651D01*
X136540146Y-111626717D01*
X136524378Y-111614913D01*
X136520054Y-111613031D01*
X136511892Y-111605566D01*
X136459507Y-111553181D01*
X136338490Y-111432163D01*
X136305006Y-111370842D01*
X136309990Y-111301150D01*
X136311580Y-111297107D01*
X136316855Y-111284374D01*
X136350500Y-111115229D01*
X136350500Y-110942771D01*
X136350500Y-110942768D01*
X136350499Y-110942766D01*
X136348361Y-110932020D01*
X136316855Y-110773626D01*
X136300075Y-110733115D01*
X136250861Y-110614301D01*
X136250854Y-110614288D01*
X136155045Y-110470901D01*
X136155042Y-110470897D01*
X136033102Y-110348957D01*
X136033098Y-110348954D01*
X135889711Y-110253145D01*
X135889698Y-110253138D01*
X135730378Y-110187146D01*
X135730366Y-110187143D01*
X135561232Y-110153500D01*
X135561229Y-110153500D01*
X135388771Y-110153500D01*
X135388768Y-110153500D01*
X135219633Y-110187143D01*
X135219621Y-110187146D01*
X135060301Y-110253138D01*
X135060288Y-110253145D01*
X134993391Y-110297845D01*
X134926713Y-110318723D01*
X134859333Y-110300238D01*
X134812643Y-110248259D01*
X134800500Y-110194743D01*
X134800500Y-109863256D01*
X134820185Y-109796217D01*
X134872989Y-109750462D01*
X134942147Y-109740518D01*
X134993389Y-109760152D01*
X135060295Y-109804858D01*
X135060297Y-109804859D01*
X135060301Y-109804861D01*
X135201280Y-109863256D01*
X135219626Y-109870855D01*
X135388766Y-109904499D01*
X135388769Y-109904500D01*
X135388771Y-109904500D01*
X135561231Y-109904500D01*
X135561232Y-109904499D01*
X135730374Y-109870855D01*
X135889705Y-109804858D01*
X136033099Y-109709045D01*
X136155045Y-109587099D01*
X136250858Y-109443705D01*
X136316855Y-109284374D01*
X136350500Y-109115229D01*
X136350500Y-108942771D01*
X136350500Y-108942768D01*
X136350499Y-108942766D01*
X136599500Y-108942766D01*
X136599500Y-109115233D01*
X136633143Y-109284366D01*
X136633146Y-109284378D01*
X136699138Y-109443698D01*
X136699145Y-109443711D01*
X136794954Y-109587098D01*
X136794957Y-109587102D01*
X136916897Y-109709042D01*
X136916901Y-109709045D01*
X137060288Y-109804854D01*
X137060301Y-109804861D01*
X137201280Y-109863256D01*
X137219626Y-109870855D01*
X137388766Y-109904499D01*
X137388769Y-109904500D01*
X137388771Y-109904500D01*
X137561231Y-109904500D01*
X137561232Y-109904499D01*
X137730374Y-109870855D01*
X137889705Y-109804858D01*
X138033099Y-109709045D01*
X138155045Y-109587099D01*
X138250858Y-109443705D01*
X138316855Y-109284374D01*
X138350500Y-109115229D01*
X138350500Y-108942771D01*
X138350500Y-108942768D01*
X138350499Y-108942766D01*
X138318537Y-108782084D01*
X138316855Y-108773626D01*
X138310702Y-108758771D01*
X138250861Y-108614301D01*
X138250854Y-108614288D01*
X138155045Y-108470901D01*
X138155042Y-108470897D01*
X138033102Y-108348957D01*
X138033098Y-108348954D01*
X137889711Y-108253145D01*
X137889698Y-108253138D01*
X137730378Y-108187146D01*
X137730366Y-108187143D01*
X137561232Y-108153500D01*
X137561229Y-108153500D01*
X137388771Y-108153500D01*
X137388768Y-108153500D01*
X137219633Y-108187143D01*
X137219621Y-108187146D01*
X137060301Y-108253138D01*
X137060288Y-108253145D01*
X136916901Y-108348954D01*
X136916897Y-108348957D01*
X136794957Y-108470897D01*
X136794954Y-108470901D01*
X136699145Y-108614288D01*
X136699138Y-108614301D01*
X136633146Y-108773621D01*
X136633143Y-108773633D01*
X136599500Y-108942766D01*
X136350499Y-108942766D01*
X136318537Y-108782084D01*
X136316855Y-108773626D01*
X136310702Y-108758771D01*
X136250861Y-108614301D01*
X136250854Y-108614288D01*
X136155045Y-108470901D01*
X136155042Y-108470897D01*
X136033102Y-108348957D01*
X136033098Y-108348954D01*
X135889711Y-108253145D01*
X135889698Y-108253138D01*
X135730378Y-108187146D01*
X135730366Y-108187143D01*
X135561232Y-108153500D01*
X135561229Y-108153500D01*
X135388771Y-108153500D01*
X135388768Y-108153500D01*
X135219633Y-108187143D01*
X135219621Y-108187146D01*
X135060301Y-108253138D01*
X135060288Y-108253145D01*
X134993391Y-108297845D01*
X134926713Y-108318723D01*
X134859333Y-108300238D01*
X134812643Y-108248259D01*
X134800500Y-108194743D01*
X134800500Y-107863256D01*
X134820185Y-107796217D01*
X134872989Y-107750462D01*
X134942147Y-107740518D01*
X134993389Y-107760152D01*
X135060295Y-107804858D01*
X135060297Y-107804859D01*
X135060301Y-107804861D01*
X135219621Y-107870853D01*
X135219626Y-107870855D01*
X135388766Y-107904499D01*
X135388769Y-107904500D01*
X135388771Y-107904500D01*
X135561231Y-107904500D01*
X135561232Y-107904499D01*
X135730374Y-107870855D01*
X135889705Y-107804858D01*
X136033099Y-107709045D01*
X136155045Y-107587099D01*
X136250858Y-107443705D01*
X136316855Y-107284374D01*
X136350500Y-107115229D01*
X136350500Y-106942771D01*
X136350500Y-106942768D01*
X136350499Y-106942766D01*
X136348429Y-106932361D01*
X136316855Y-106773626D01*
X136300821Y-106734917D01*
X136250861Y-106614301D01*
X136250854Y-106614288D01*
X136155045Y-106470901D01*
X136155042Y-106470897D01*
X136033102Y-106348957D01*
X136033098Y-106348954D01*
X135889711Y-106253145D01*
X135889698Y-106253138D01*
X135730378Y-106187146D01*
X135730366Y-106187143D01*
X135561232Y-106153500D01*
X135561229Y-106153500D01*
X135388771Y-106153500D01*
X135388768Y-106153500D01*
X135219633Y-106187143D01*
X135219621Y-106187146D01*
X135060301Y-106253138D01*
X135060283Y-106253148D01*
X135054999Y-106256679D01*
X135032845Y-106263614D01*
X135012471Y-106274740D01*
X135000128Y-106273857D01*
X134988321Y-106277554D01*
X134965935Y-106271412D01*
X134942779Y-106269756D01*
X134932873Y-106262340D01*
X134920942Y-106259067D01*
X134905429Y-106241795D01*
X134886846Y-106227884D01*
X134882522Y-106216291D01*
X134874254Y-106207086D01*
X134870541Y-106184169D01*
X134862429Y-106162420D01*
X134865058Y-106150330D01*
X134863080Y-106138115D01*
X134872346Y-106116828D01*
X134877281Y-106094147D01*
X134889086Y-106078376D01*
X134890969Y-106074053D01*
X134898421Y-106065904D01*
X135071836Y-105892489D01*
X135133157Y-105859006D01*
X135202849Y-105863990D01*
X135206917Y-105865590D01*
X135219626Y-105870855D01*
X135383045Y-105903361D01*
X135388766Y-105904499D01*
X135388769Y-105904500D01*
X135388771Y-105904500D01*
X135561231Y-105904500D01*
X135561232Y-105904499D01*
X135730374Y-105870855D01*
X135889705Y-105804858D01*
X136033099Y-105709045D01*
X136155045Y-105587099D01*
X136199536Y-105520512D01*
X136253147Y-105475708D01*
X136322472Y-105467001D01*
X136385500Y-105497155D01*
X136413123Y-105533109D01*
X136470050Y-105644834D01*
X136485015Y-105665430D01*
X136485016Y-105665431D01*
X137032861Y-105117585D01*
X137055667Y-105202694D01*
X137114910Y-105305306D01*
X137198694Y-105389090D01*
X137301306Y-105448333D01*
X137386414Y-105471137D01*
X136838568Y-106018983D01*
X136838568Y-106018984D01*
X136859165Y-106033949D01*
X136970890Y-106090876D01*
X137021686Y-106138850D01*
X137038481Y-106206671D01*
X137015944Y-106272806D01*
X136983487Y-106304463D01*
X136916897Y-106348957D01*
X136794957Y-106470897D01*
X136794954Y-106470901D01*
X136699145Y-106614288D01*
X136699138Y-106614301D01*
X136633146Y-106773621D01*
X136633143Y-106773633D01*
X136599500Y-106942766D01*
X136599500Y-107115233D01*
X136633143Y-107284366D01*
X136633146Y-107284378D01*
X136699138Y-107443698D01*
X136699145Y-107443711D01*
X136794954Y-107587098D01*
X136794957Y-107587102D01*
X136916897Y-107709042D01*
X136916901Y-107709045D01*
X137060288Y-107804854D01*
X137060301Y-107804861D01*
X137219621Y-107870853D01*
X137219626Y-107870855D01*
X137388766Y-107904499D01*
X137388769Y-107904500D01*
X137388771Y-107904500D01*
X137561231Y-107904500D01*
X137561232Y-107904499D01*
X137730374Y-107870855D01*
X137889705Y-107804858D01*
X138033099Y-107709045D01*
X138155045Y-107587099D01*
X138250858Y-107443705D01*
X138316855Y-107284374D01*
X138350500Y-107115229D01*
X138350500Y-106942771D01*
X138350500Y-106942768D01*
X138350499Y-106942766D01*
X138348429Y-106932361D01*
X138316855Y-106773626D01*
X138300821Y-106734917D01*
X138250861Y-106614301D01*
X138250854Y-106614288D01*
X138155045Y-106470901D01*
X138155042Y-106470897D01*
X138033102Y-106348957D01*
X138033098Y-106348954D01*
X137966513Y-106304463D01*
X137921708Y-106250851D01*
X137913001Y-106181526D01*
X137943156Y-106118498D01*
X137979109Y-106090876D01*
X138090837Y-106033947D01*
X138090845Y-106033942D01*
X138111430Y-106018984D01*
X138111431Y-106018983D01*
X137563585Y-105471137D01*
X137648694Y-105448333D01*
X137751306Y-105389090D01*
X137835090Y-105305306D01*
X137894333Y-105202694D01*
X137917138Y-105117585D01*
X138464983Y-105665430D01*
X138464984Y-105665430D01*
X138479942Y-105644845D01*
X138479947Y-105644836D01*
X138563915Y-105480043D01*
X138563916Y-105480040D01*
X138621066Y-105304147D01*
X138650000Y-105121473D01*
X138650000Y-104936526D01*
X138621066Y-104753852D01*
X138563916Y-104577959D01*
X138563915Y-104577956D01*
X138479949Y-104413165D01*
X138464983Y-104392568D01*
X137917137Y-104940414D01*
X137894333Y-104855306D01*
X137835090Y-104752694D01*
X137751306Y-104668910D01*
X137648694Y-104609667D01*
X137563584Y-104586861D01*
X138111430Y-104039016D01*
X138110551Y-104027845D01*
X138124915Y-103959468D01*
X138173965Y-103909710D01*
X138209977Y-103896497D01*
X138228231Y-103892867D01*
X138294552Y-103848552D01*
X138338867Y-103782231D01*
X138338867Y-103782229D01*
X138338868Y-103782229D01*
X138350499Y-103723752D01*
X138350500Y-103723750D01*
X138350500Y-103603500D01*
X138370185Y-103536461D01*
X138422989Y-103490706D01*
X138474500Y-103479500D01*
X142113035Y-103479500D01*
X142180074Y-103499185D01*
X142200716Y-103515819D01*
X143069181Y-104384284D01*
X143102666Y-104445607D01*
X143105500Y-104471965D01*
X143105500Y-115850309D01*
X143119716Y-115903364D01*
X143136199Y-115964884D01*
X143136201Y-115964887D01*
X143195511Y-116067614D01*
X144041386Y-116913490D01*
X144144113Y-116972799D01*
X144168321Y-116979284D01*
X144168324Y-116979286D01*
X144168325Y-116979286D01*
X144198447Y-116987357D01*
X144258691Y-117003500D01*
X147297069Y-117003500D01*
X147364108Y-117023185D01*
X147372557Y-117029125D01*
X147378281Y-117033517D01*
X147378284Y-117033520D01*
X147378287Y-117033521D01*
X147378290Y-117033524D01*
X147474701Y-117089186D01*
X147515216Y-117112577D01*
X147667943Y-117153500D01*
X147667945Y-117153500D01*
X147826055Y-117153500D01*
X147826057Y-117153500D01*
X147978784Y-117112577D01*
X148115716Y-117033520D01*
X148115721Y-117033514D01*
X148121443Y-117029125D01*
X148186612Y-117003930D01*
X148196931Y-117003500D01*
X156526035Y-117003500D01*
X156593074Y-117023185D01*
X156613716Y-117039819D01*
X157089981Y-117516084D01*
X157123466Y-117577407D01*
X157126300Y-117603765D01*
X157126300Y-123249234D01*
X157106615Y-123316273D01*
X157089981Y-123336915D01*
X156613716Y-123813181D01*
X156552393Y-123846666D01*
X156526035Y-123849500D01*
X148219649Y-123849500D01*
X148152610Y-123829815D01*
X148144161Y-123823875D01*
X148138427Y-123819475D01*
X148001508Y-123740426D01*
X148001504Y-123740424D01*
X148001502Y-123740423D01*
X147848775Y-123699500D01*
X147690661Y-123699500D01*
X147537934Y-123740423D01*
X147537927Y-123740426D01*
X147401008Y-123819475D01*
X147401000Y-123819481D01*
X147289199Y-123931282D01*
X147289193Y-123931290D01*
X147210144Y-124068209D01*
X147210141Y-124068216D01*
X147169218Y-124220943D01*
X147169218Y-124379057D01*
X147193828Y-124470901D01*
X147210141Y-124531783D01*
X147210144Y-124531790D01*
X147289193Y-124668709D01*
X147289197Y-124668714D01*
X147289198Y-124668716D01*
X147401002Y-124780520D01*
X147401004Y-124780521D01*
X147401008Y-124780524D01*
X147525196Y-124852223D01*
X147537934Y-124859577D01*
X147690661Y-124900500D01*
X147690663Y-124900500D01*
X147848773Y-124900500D01*
X147848775Y-124900500D01*
X148001502Y-124859577D01*
X148138434Y-124780520D01*
X148138439Y-124780514D01*
X148144161Y-124776125D01*
X148209330Y-124750930D01*
X148219649Y-124750500D01*
X156823308Y-124750500D01*
X156823309Y-124750500D01*
X156913673Y-124726286D01*
X156937887Y-124719799D01*
X157040614Y-124660489D01*
X157937290Y-123763814D01*
X157996599Y-123661087D01*
X158003085Y-123636875D01*
X158003086Y-123636875D01*
X158003086Y-123636871D01*
X158027300Y-123546509D01*
X158027300Y-117306491D01*
X157996599Y-117191914D01*
X157996599Y-117191913D01*
X157996599Y-117191912D01*
X157937292Y-117089189D01*
X157937288Y-117089184D01*
X157040616Y-116192513D01*
X157040614Y-116192511D01*
X156973046Y-116153500D01*
X156937888Y-116133201D01*
X156925780Y-116129957D01*
X156913673Y-116126713D01*
X156913670Y-116126712D01*
X156875478Y-116116478D01*
X156823309Y-116102500D01*
X156823308Y-116102500D01*
X148196931Y-116102500D01*
X148129892Y-116082815D01*
X148121443Y-116076875D01*
X148115709Y-116072475D01*
X147978790Y-115993426D01*
X147978786Y-115993424D01*
X147978784Y-115993423D01*
X147826057Y-115952500D01*
X147667943Y-115952500D01*
X147515216Y-115993423D01*
X147515209Y-115993426D01*
X147378290Y-116072475D01*
X147372557Y-116076875D01*
X147307388Y-116102070D01*
X147297069Y-116102500D01*
X144555966Y-116102500D01*
X144488927Y-116082815D01*
X144468285Y-116066181D01*
X144042819Y-115640715D01*
X144009334Y-115579392D01*
X144006500Y-115553034D01*
X144006500Y-111276108D01*
X148607436Y-111276108D01*
X148607436Y-111407891D01*
X148641544Y-111535187D01*
X148643203Y-111538060D01*
X148707436Y-111649314D01*
X148800622Y-111742500D01*
X148869835Y-111782460D01*
X148909607Y-111805423D01*
X148914750Y-111808392D01*
X149042044Y-111842500D01*
X149042046Y-111842500D01*
X149173826Y-111842500D01*
X149173828Y-111842500D01*
X149189005Y-111838432D01*
X149253191Y-111838432D01*
X149268374Y-111842500D01*
X149268376Y-111842500D01*
X151680312Y-111842500D01*
X151680314Y-111842500D01*
X151756741Y-111822021D01*
X151825263Y-111782460D01*
X151881212Y-111726511D01*
X154792154Y-108815569D01*
X154853477Y-108782084D01*
X154869262Y-108780386D01*
X154869253Y-108780311D01*
X154877309Y-108779250D01*
X154877312Y-108779250D01*
X154953739Y-108758771D01*
X155022261Y-108719210D01*
X155078210Y-108663261D01*
X155302151Y-108439318D01*
X155363474Y-108405834D01*
X155389832Y-108403000D01*
X155479890Y-108403000D01*
X155479892Y-108403000D01*
X155607186Y-108368892D01*
X155721314Y-108303000D01*
X155814500Y-108209814D01*
X155880392Y-108095686D01*
X155914500Y-107968392D01*
X155914500Y-107836608D01*
X155880392Y-107709314D01*
X155814500Y-107595186D01*
X155721314Y-107502000D01*
X155664250Y-107469054D01*
X155607187Y-107436108D01*
X155543539Y-107419054D01*
X155479892Y-107402000D01*
X155348108Y-107402000D01*
X155220812Y-107436108D01*
X155106686Y-107502000D01*
X155106683Y-107502002D01*
X155025351Y-107583335D01*
X154964028Y-107616820D01*
X154894336Y-107611836D01*
X154849989Y-107583335D01*
X154768656Y-107502002D01*
X154768654Y-107502000D01*
X154711590Y-107469054D01*
X154654527Y-107436108D01*
X154590879Y-107419054D01*
X154527232Y-107402000D01*
X154395448Y-107402000D01*
X154268152Y-107436108D01*
X154154026Y-107502000D01*
X154154023Y-107502002D01*
X154060842Y-107595183D01*
X154060840Y-107595186D01*
X153994948Y-107709312D01*
X153966931Y-107813875D01*
X153960840Y-107836608D01*
X153960840Y-107968392D01*
X153971243Y-108007218D01*
X153994949Y-108095688D01*
X153998060Y-108103200D01*
X153996842Y-108103704D01*
X154011336Y-108163433D01*
X153988487Y-108229461D01*
X153975157Y-108245220D01*
X151395198Y-110825181D01*
X151333875Y-110858666D01*
X151307517Y-110861500D01*
X150619375Y-110861500D01*
X150552336Y-110841815D01*
X150506581Y-110789011D01*
X150499599Y-110769588D01*
X150499391Y-110768812D01*
X150466856Y-110712460D01*
X150433500Y-110654686D01*
X150340314Y-110561500D01*
X150283250Y-110528554D01*
X150226187Y-110495608D01*
X150133962Y-110470897D01*
X150098892Y-110461500D01*
X149967108Y-110461500D01*
X149839812Y-110495608D01*
X149725686Y-110561500D01*
X149725683Y-110561502D01*
X149632502Y-110654683D01*
X149632500Y-110654686D01*
X149566609Y-110768811D01*
X149548083Y-110837951D01*
X149511717Y-110897611D01*
X149448870Y-110928139D01*
X149379494Y-110919844D01*
X149366311Y-110913245D01*
X149333991Y-110894585D01*
X149301123Y-110875608D01*
X149188756Y-110845500D01*
X149173828Y-110841500D01*
X149042044Y-110841500D01*
X148914748Y-110875608D01*
X148800622Y-110941500D01*
X148800619Y-110941502D01*
X148707438Y-111034683D01*
X148707436Y-111034686D01*
X148641544Y-111148812D01*
X148607436Y-111276108D01*
X144006500Y-111276108D01*
X144006500Y-104174693D01*
X144006500Y-104174691D01*
X143975799Y-104060114D01*
X143930331Y-103981362D01*
X143930331Y-103981361D01*
X143930329Y-103981359D01*
X143916488Y-103957385D01*
X143916485Y-103957381D01*
X142627616Y-102668513D01*
X142627614Y-102668511D01*
X142572715Y-102636815D01*
X142524888Y-102609201D01*
X142512780Y-102605957D01*
X142500673Y-102602713D01*
X142500670Y-102602712D01*
X142462478Y-102592478D01*
X142410309Y-102578500D01*
X142410308Y-102578500D01*
X138474500Y-102578500D01*
X138407461Y-102558815D01*
X138361706Y-102506011D01*
X138350500Y-102454500D01*
X138350500Y-102334249D01*
X138350499Y-102334247D01*
X138338868Y-102275770D01*
X138338867Y-102275769D01*
X138294552Y-102209447D01*
X138228230Y-102165132D01*
X138228229Y-102165131D01*
X138169752Y-102153500D01*
X138169748Y-102153500D01*
X138049500Y-102153500D01*
X137982461Y-102133815D01*
X137936706Y-102081011D01*
X137925500Y-102029500D01*
X137925500Y-99906943D01*
X154900500Y-99906943D01*
X154900500Y-100065057D01*
X154919648Y-100136516D01*
X154941423Y-100217783D01*
X154941426Y-100217790D01*
X155020475Y-100354709D01*
X155020479Y-100354714D01*
X155020480Y-100354716D01*
X155132284Y-100466520D01*
X155132286Y-100466521D01*
X155132290Y-100466524D01*
X155264605Y-100542915D01*
X155269216Y-100545577D01*
X155421943Y-100586500D01*
X155421945Y-100586500D01*
X155580055Y-100586500D01*
X155580057Y-100586500D01*
X155732784Y-100545577D01*
X155869716Y-100466520D01*
X155981520Y-100354716D01*
X156060577Y-100217784D01*
X156101500Y-100065057D01*
X156101500Y-99906943D01*
X156060577Y-99754216D01*
X156060573Y-99754209D01*
X155981524Y-99617290D01*
X155981518Y-99617282D01*
X155869717Y-99505481D01*
X155869709Y-99505475D01*
X155732790Y-99426426D01*
X155732786Y-99426424D01*
X155732784Y-99426423D01*
X155580057Y-99385500D01*
X155421943Y-99385500D01*
X155269216Y-99426423D01*
X155269209Y-99426426D01*
X155132290Y-99505475D01*
X155132282Y-99505481D01*
X155020481Y-99617282D01*
X155020475Y-99617290D01*
X154941426Y-99754209D01*
X154941423Y-99754216D01*
X154900500Y-99906943D01*
X137925500Y-99906943D01*
X137925500Y-88115965D01*
X137945185Y-88048926D01*
X137961819Y-88028284D01*
X139816284Y-86173819D01*
X139877607Y-86140334D01*
X139903965Y-86137500D01*
X165113535Y-86137500D01*
X165180574Y-86157185D01*
X165201216Y-86173819D01*
X169667799Y-90640402D01*
X169701284Y-90701725D01*
X169703056Y-90711893D01*
X169703998Y-90719050D01*
X169710895Y-90744790D01*
X169735370Y-90836133D01*
X169744923Y-90871783D01*
X169744923Y-90871784D01*
X169777373Y-90927990D01*
X169793844Y-90995891D01*
X169770992Y-91061917D01*
X169716070Y-91105107D01*
X169669985Y-91113989D01*
X163134658Y-91113989D01*
X163051870Y-91136171D01*
X162977649Y-91179024D01*
X162977646Y-91179026D01*
X161829681Y-92326992D01*
X161768358Y-92360477D01*
X161698666Y-92355493D01*
X161642733Y-92313621D01*
X161618316Y-92248157D01*
X161618000Y-92239311D01*
X161618000Y-91170689D01*
X161637685Y-91103650D01*
X161654319Y-91083008D01*
X162684384Y-90052943D01*
X165862500Y-90052943D01*
X165862500Y-90211057D01*
X165892840Y-90324285D01*
X165903423Y-90363783D01*
X165903426Y-90363790D01*
X165982475Y-90500709D01*
X165982479Y-90500714D01*
X165982480Y-90500716D01*
X166094284Y-90612520D01*
X166094286Y-90612521D01*
X166094290Y-90612524D01*
X166142577Y-90640402D01*
X166231216Y-90691577D01*
X166383943Y-90732500D01*
X166383945Y-90732500D01*
X166542055Y-90732500D01*
X166542057Y-90732500D01*
X166694784Y-90691577D01*
X166831716Y-90612520D01*
X166943520Y-90500716D01*
X167022577Y-90363784D01*
X167063500Y-90211057D01*
X167063500Y-90052943D01*
X167022577Y-89900216D01*
X167022573Y-89900209D01*
X166943524Y-89763290D01*
X166943518Y-89763282D01*
X166831717Y-89651481D01*
X166831709Y-89651475D01*
X166694790Y-89572426D01*
X166694786Y-89572424D01*
X166694784Y-89572423D01*
X166542057Y-89531500D01*
X166383943Y-89531500D01*
X166231216Y-89572423D01*
X166231209Y-89572426D01*
X166094290Y-89651475D01*
X166094282Y-89651481D01*
X165982481Y-89763282D01*
X165982475Y-89763290D01*
X165903426Y-89900209D01*
X165903423Y-89900216D01*
X165862500Y-90052943D01*
X162684384Y-90052943D01*
X163132508Y-89604819D01*
X163193831Y-89571334D01*
X163220189Y-89568500D01*
X163856170Y-89568500D01*
X163923209Y-89588185D01*
X163943679Y-89607022D01*
X163944733Y-89605969D01*
X163950480Y-89611716D01*
X164062284Y-89723520D01*
X164062286Y-89723521D01*
X164062290Y-89723524D01*
X164131168Y-89763290D01*
X164199216Y-89802577D01*
X164351943Y-89843500D01*
X164351945Y-89843500D01*
X164510055Y-89843500D01*
X164510057Y-89843500D01*
X164662784Y-89802577D01*
X164799716Y-89723520D01*
X164911520Y-89611716D01*
X164990577Y-89474784D01*
X165031500Y-89322057D01*
X165031500Y-89163943D01*
X164990577Y-89011216D01*
X164974018Y-88982535D01*
X164911524Y-88874290D01*
X164911518Y-88874282D01*
X164799717Y-88762481D01*
X164799709Y-88762475D01*
X164662790Y-88683426D01*
X164662786Y-88683424D01*
X164662784Y-88683423D01*
X164510057Y-88642500D01*
X164351943Y-88642500D01*
X164199216Y-88683423D01*
X164199209Y-88683426D01*
X164062290Y-88762475D01*
X164062282Y-88762481D01*
X163944733Y-88880031D01*
X163942487Y-88877785D01*
X163898145Y-88910179D01*
X163856170Y-88917500D01*
X162991147Y-88917500D01*
X162908359Y-88939682D01*
X162834138Y-88982535D01*
X162834135Y-88982537D01*
X161343640Y-90473032D01*
X161282317Y-90506517D01*
X161212625Y-90501533D01*
X161156692Y-90459661D01*
X161148572Y-90447351D01*
X161077522Y-90324288D01*
X161077518Y-90324283D01*
X160965717Y-90212482D01*
X160965709Y-90212476D01*
X160828790Y-90133427D01*
X160828786Y-90133425D01*
X160828784Y-90133424D01*
X160676057Y-90092501D01*
X160517943Y-90092501D01*
X160365216Y-90133424D01*
X160365209Y-90133427D01*
X160228290Y-90212476D01*
X160228282Y-90212482D01*
X160116481Y-90324283D01*
X160116475Y-90324291D01*
X160037426Y-90461210D01*
X160037423Y-90461217D01*
X159996500Y-90613944D01*
X159996500Y-90772058D01*
X160024945Y-90878214D01*
X160037423Y-90924784D01*
X160037426Y-90924791D01*
X160116475Y-91061710D01*
X160116479Y-91061715D01*
X160116480Y-91061717D01*
X160228284Y-91173521D01*
X160228286Y-91173522D01*
X160228290Y-91173525D01*
X160365209Y-91252574D01*
X160365216Y-91252578D01*
X160517943Y-91293501D01*
X160517945Y-91293501D01*
X160676054Y-91293501D01*
X160676057Y-91293501D01*
X160810910Y-91257367D01*
X160880756Y-91259030D01*
X160938619Y-91298192D01*
X160966123Y-91362420D01*
X160967000Y-91377142D01*
X160967000Y-102180647D01*
X160967000Y-102266353D01*
X160970255Y-102278500D01*
X160989182Y-102349140D01*
X160995163Y-102359499D01*
X161032035Y-102423362D01*
X161032037Y-102423364D01*
X161662938Y-103054265D01*
X161696423Y-103115588D01*
X161691439Y-103185280D01*
X161649567Y-103241213D01*
X161644148Y-103245048D01*
X161517218Y-103329860D01*
X161517214Y-103329863D01*
X161412181Y-103434897D01*
X161400052Y-103441519D01*
X161390942Y-103451913D01*
X161369989Y-103457935D01*
X161350858Y-103468382D01*
X161337074Y-103467396D01*
X161323792Y-103471214D01*
X161302911Y-103464953D01*
X161281166Y-103463398D01*
X161270102Y-103455115D01*
X161256866Y-103451147D01*
X161242684Y-103434590D01*
X161225233Y-103421526D01*
X161219460Y-103407477D01*
X161211413Y-103398082D01*
X161206837Y-103376755D01*
X161201663Y-103364162D01*
X161200500Y-103355731D01*
X161200500Y-103297147D01*
X161185848Y-103242465D01*
X161178318Y-103214361D01*
X161135465Y-103140138D01*
X160309819Y-102314492D01*
X160276334Y-102253169D01*
X160273500Y-102226811D01*
X160273500Y-99270118D01*
X160293185Y-99203079D01*
X160312022Y-99182608D01*
X160310969Y-99181555D01*
X160321315Y-99171209D01*
X160428520Y-99064004D01*
X160507577Y-98927072D01*
X160548500Y-98774345D01*
X160548500Y-98616231D01*
X160507577Y-98463504D01*
X160476384Y-98409475D01*
X160428524Y-98326578D01*
X160428518Y-98326570D01*
X160316717Y-98214769D01*
X160316709Y-98214763D01*
X160179790Y-98135714D01*
X160179786Y-98135712D01*
X160179784Y-98135711D01*
X160027057Y-98094788D01*
X159868943Y-98094788D01*
X159716216Y-98135711D01*
X159716209Y-98135714D01*
X159579290Y-98214763D01*
X159579282Y-98214769D01*
X159467481Y-98326570D01*
X159467475Y-98326578D01*
X159388426Y-98463497D01*
X159388423Y-98463504D01*
X159347500Y-98616231D01*
X159347500Y-98774345D01*
X159387192Y-98922475D01*
X159388423Y-98927071D01*
X159388426Y-98927078D01*
X159467475Y-99063997D01*
X159467481Y-99064005D01*
X159585031Y-99181555D01*
X159582785Y-99183800D01*
X159615179Y-99228143D01*
X159622500Y-99270118D01*
X159622500Y-102370147D01*
X159622500Y-102455853D01*
X159629716Y-102482785D01*
X159644682Y-102538640D01*
X159663320Y-102570921D01*
X159687535Y-102612862D01*
X159687537Y-102612864D01*
X160008241Y-102933568D01*
X160041726Y-102994891D01*
X160036742Y-103064583D01*
X159994870Y-103120516D01*
X159929406Y-103144933D01*
X159896369Y-103142866D01*
X159713545Y-103106500D01*
X159713541Y-103106500D01*
X159516459Y-103106500D01*
X159516457Y-103106500D01*
X159323170Y-103144947D01*
X159323160Y-103144950D01*
X159141092Y-103220364D01*
X159141079Y-103220371D01*
X158977218Y-103329860D01*
X158977214Y-103329863D01*
X158837863Y-103469214D01*
X158837860Y-103469218D01*
X158728371Y-103633079D01*
X158728364Y-103633092D01*
X158652950Y-103815160D01*
X158652947Y-103815170D01*
X158614500Y-104008456D01*
X158614500Y-104008459D01*
X158614500Y-104205541D01*
X158614500Y-104205543D01*
X158614499Y-104205543D01*
X158652947Y-104398829D01*
X158652950Y-104398839D01*
X158728364Y-104580907D01*
X158728371Y-104580920D01*
X158837860Y-104744781D01*
X158837863Y-104744785D01*
X158977214Y-104884136D01*
X158977218Y-104884139D01*
X159141079Y-104993628D01*
X159141092Y-104993635D01*
X159298950Y-105059021D01*
X159323165Y-105069051D01*
X159323169Y-105069051D01*
X159323170Y-105069052D01*
X159516456Y-105107500D01*
X159516459Y-105107500D01*
X159713543Y-105107500D01*
X159843582Y-105081632D01*
X159906835Y-105069051D01*
X160066983Y-105002716D01*
X160088907Y-104993635D01*
X160088907Y-104993634D01*
X160088914Y-104993632D01*
X160252782Y-104884139D01*
X160281615Y-104855306D01*
X160337819Y-104799103D01*
X160399142Y-104765618D01*
X160468834Y-104770602D01*
X160524767Y-104812474D01*
X160549184Y-104877938D01*
X160549500Y-104886784D01*
X160549500Y-116510147D01*
X160549500Y-116595853D01*
X160554443Y-116614301D01*
X160571682Y-116678640D01*
X160585254Y-116702147D01*
X160614535Y-116752862D01*
X160614537Y-116752864D01*
X161793181Y-117931508D01*
X161826666Y-117992831D01*
X161829500Y-118019189D01*
X161829500Y-118316038D01*
X161809815Y-118383077D01*
X161757011Y-118428832D01*
X161752953Y-118430599D01*
X161681089Y-118460366D01*
X161681079Y-118460371D01*
X161517218Y-118569860D01*
X161517214Y-118569863D01*
X161377863Y-118709214D01*
X161377860Y-118709218D01*
X161268371Y-118873079D01*
X161268364Y-118873092D01*
X161192950Y-119055160D01*
X161192947Y-119055170D01*
X161160616Y-119217707D01*
X161128231Y-119279618D01*
X161067515Y-119314192D01*
X160997745Y-119310451D01*
X160941074Y-119269585D01*
X160915492Y-119204567D01*
X160914999Y-119193515D01*
X160914999Y-118747028D01*
X160914998Y-118747012D01*
X160904505Y-118644302D01*
X160849358Y-118477880D01*
X160849354Y-118477872D01*
X160757315Y-118328654D01*
X160633345Y-118204684D01*
X160484124Y-118112643D01*
X160484119Y-118112641D01*
X160317697Y-118057494D01*
X160317690Y-118057493D01*
X160214986Y-118047000D01*
X159865000Y-118047000D01*
X159865000Y-119031314D01*
X159860606Y-119026920D01*
X159769394Y-118974259D01*
X159667661Y-118947000D01*
X159562339Y-118947000D01*
X159460606Y-118974259D01*
X159369394Y-119026920D01*
X159365000Y-119031314D01*
X159365000Y-118047000D01*
X159015028Y-118047000D01*
X159015012Y-118047001D01*
X158912302Y-118057494D01*
X158745880Y-118112641D01*
X158745875Y-118112643D01*
X158596654Y-118204684D01*
X158472684Y-118328654D01*
X158380646Y-118477872D01*
X158380641Y-118477880D01*
X158325494Y-118644302D01*
X158325493Y-118644309D01*
X158315000Y-118747013D01*
X158315000Y-119097000D01*
X159299314Y-119097000D01*
X159294920Y-119101394D01*
X159242259Y-119192606D01*
X159215000Y-119294339D01*
X159215000Y-119399661D01*
X159242259Y-119501394D01*
X159294920Y-119592606D01*
X159299314Y-119597000D01*
X158315001Y-119597000D01*
X158315001Y-119946986D01*
X158325494Y-120049697D01*
X158380641Y-120216119D01*
X158380643Y-120216124D01*
X158472684Y-120365345D01*
X158596654Y-120489315D01*
X158745875Y-120581356D01*
X158745880Y-120581358D01*
X158912302Y-120636505D01*
X158912309Y-120636506D01*
X159015019Y-120646999D01*
X159364999Y-120646999D01*
X159365000Y-120646998D01*
X159365000Y-119662686D01*
X159369394Y-119667080D01*
X159460606Y-119719741D01*
X159562339Y-119747000D01*
X159667661Y-119747000D01*
X159769394Y-119719741D01*
X159860606Y-119667080D01*
X159865000Y-119662686D01*
X159865000Y-120646999D01*
X160214972Y-120646999D01*
X160214986Y-120646998D01*
X160317697Y-120636505D01*
X160484119Y-120581358D01*
X160484124Y-120581356D01*
X160633345Y-120489315D01*
X160757315Y-120365345D01*
X160849356Y-120216124D01*
X160849358Y-120216119D01*
X160904505Y-120049697D01*
X160904506Y-120049690D01*
X160914999Y-119946986D01*
X160914999Y-119500485D01*
X160934683Y-119433446D01*
X160987487Y-119387691D01*
X161056646Y-119377747D01*
X161120202Y-119406772D01*
X161157976Y-119465550D01*
X161160616Y-119476293D01*
X161192947Y-119638829D01*
X161192950Y-119638839D01*
X161268364Y-119820907D01*
X161268371Y-119820920D01*
X161377860Y-119984781D01*
X161377863Y-119984785D01*
X161517214Y-120124136D01*
X161517218Y-120124139D01*
X161681079Y-120233628D01*
X161681092Y-120233635D01*
X161842562Y-120300517D01*
X161863165Y-120309051D01*
X161863169Y-120309051D01*
X161863170Y-120309052D01*
X162056456Y-120347500D01*
X162056459Y-120347500D01*
X162253543Y-120347500D01*
X162383582Y-120321632D01*
X162446835Y-120309051D01*
X162628914Y-120233632D01*
X162792782Y-120124139D01*
X162932139Y-119984782D01*
X163041632Y-119820914D01*
X163117051Y-119638835D01*
X163136683Y-119540139D01*
X163155500Y-119445543D01*
X163694499Y-119445543D01*
X163732947Y-119638829D01*
X163732950Y-119638839D01*
X163808364Y-119820907D01*
X163808371Y-119820920D01*
X163917860Y-119984781D01*
X163917863Y-119984785D01*
X164057214Y-120124136D01*
X164057218Y-120124139D01*
X164221079Y-120233628D01*
X164221092Y-120233635D01*
X164382562Y-120300517D01*
X164403165Y-120309051D01*
X164403169Y-120309051D01*
X164403170Y-120309052D01*
X164596456Y-120347500D01*
X164596459Y-120347500D01*
X164793543Y-120347500D01*
X164923582Y-120321632D01*
X164986835Y-120309051D01*
X165168914Y-120233632D01*
X165332782Y-120124139D01*
X165472139Y-119984782D01*
X165581632Y-119820914D01*
X165657051Y-119638835D01*
X165676683Y-119540139D01*
X165695500Y-119445543D01*
X166234499Y-119445543D01*
X166272947Y-119638829D01*
X166272950Y-119638839D01*
X166348364Y-119820907D01*
X166348371Y-119820920D01*
X166457860Y-119984781D01*
X166457863Y-119984785D01*
X166597214Y-120124136D01*
X166597218Y-120124139D01*
X166761079Y-120233628D01*
X166761092Y-120233635D01*
X166922562Y-120300517D01*
X166943165Y-120309051D01*
X166943169Y-120309051D01*
X166943170Y-120309052D01*
X167136456Y-120347500D01*
X167136459Y-120347500D01*
X167333543Y-120347500D01*
X167463582Y-120321632D01*
X167526835Y-120309051D01*
X167708914Y-120233632D01*
X167872782Y-120124139D01*
X168012139Y-119984782D01*
X168121632Y-119820914D01*
X168197051Y-119638835D01*
X168216683Y-119540139D01*
X168235500Y-119445543D01*
X168235500Y-119248456D01*
X168197052Y-119055170D01*
X168197051Y-119055169D01*
X168197051Y-119055165D01*
X168152248Y-118947000D01*
X168121635Y-118873092D01*
X168121628Y-118873079D01*
X168012139Y-118709218D01*
X168012136Y-118709214D01*
X167872785Y-118569863D01*
X167872781Y-118569860D01*
X167708920Y-118460371D01*
X167708907Y-118460364D01*
X167526839Y-118384950D01*
X167526829Y-118384947D01*
X167333543Y-118346500D01*
X167333541Y-118346500D01*
X167136459Y-118346500D01*
X167136457Y-118346500D01*
X166943170Y-118384947D01*
X166943160Y-118384950D01*
X166761092Y-118460364D01*
X166761079Y-118460371D01*
X166597218Y-118569860D01*
X166597214Y-118569863D01*
X166457863Y-118709214D01*
X166457860Y-118709218D01*
X166348371Y-118873079D01*
X166348364Y-118873092D01*
X166272950Y-119055160D01*
X166272947Y-119055170D01*
X166234500Y-119248456D01*
X166234500Y-119248459D01*
X166234500Y-119445541D01*
X166234500Y-119445543D01*
X166234499Y-119445543D01*
X165695500Y-119445543D01*
X165695500Y-119248456D01*
X165657052Y-119055170D01*
X165657051Y-119055169D01*
X165657051Y-119055165D01*
X165612248Y-118947000D01*
X165581635Y-118873092D01*
X165581628Y-118873079D01*
X165472139Y-118709218D01*
X165472136Y-118709214D01*
X165332785Y-118569863D01*
X165332781Y-118569860D01*
X165168920Y-118460371D01*
X165168910Y-118460366D01*
X165097047Y-118430599D01*
X165042643Y-118386757D01*
X165020579Y-118320463D01*
X165020500Y-118316038D01*
X165020500Y-112939830D01*
X165040185Y-112872791D01*
X165059022Y-112852320D01*
X165057969Y-112851267D01*
X165079067Y-112830169D01*
X165175520Y-112733716D01*
X165254577Y-112596784D01*
X165295500Y-112444057D01*
X165295500Y-112285943D01*
X165254577Y-112133216D01*
X165251112Y-112127215D01*
X165175524Y-111996290D01*
X165175518Y-111996282D01*
X165063717Y-111884481D01*
X165063709Y-111884475D01*
X164926790Y-111805426D01*
X164926786Y-111805424D01*
X164926784Y-111805423D01*
X164774057Y-111764500D01*
X164615943Y-111764500D01*
X164463216Y-111805423D01*
X164463209Y-111805426D01*
X164326290Y-111884475D01*
X164326282Y-111884481D01*
X164214481Y-111996282D01*
X164214475Y-111996290D01*
X164135426Y-112133209D01*
X164135423Y-112133216D01*
X164094500Y-112285943D01*
X164094500Y-112444057D01*
X164122731Y-112549414D01*
X164135423Y-112596783D01*
X164135426Y-112596790D01*
X164214475Y-112733709D01*
X164214481Y-112733717D01*
X164332031Y-112851267D01*
X164329785Y-112853512D01*
X164362179Y-112897855D01*
X164369500Y-112939830D01*
X164369500Y-118316038D01*
X164349815Y-118383077D01*
X164297011Y-118428832D01*
X164292953Y-118430599D01*
X164221089Y-118460366D01*
X164221079Y-118460371D01*
X164057218Y-118569860D01*
X164057214Y-118569863D01*
X163917863Y-118709214D01*
X163917860Y-118709218D01*
X163808371Y-118873079D01*
X163808364Y-118873092D01*
X163732950Y-119055160D01*
X163732947Y-119055170D01*
X163694500Y-119248456D01*
X163694500Y-119248459D01*
X163694500Y-119445541D01*
X163694500Y-119445543D01*
X163694499Y-119445543D01*
X163155500Y-119445543D01*
X163155500Y-119248456D01*
X163117052Y-119055170D01*
X163117051Y-119055169D01*
X163117051Y-119055165D01*
X163072248Y-118947000D01*
X163041635Y-118873092D01*
X163041628Y-118873079D01*
X162932139Y-118709218D01*
X162932136Y-118709214D01*
X162792785Y-118569863D01*
X162792781Y-118569860D01*
X162628920Y-118460371D01*
X162628910Y-118460366D01*
X162557047Y-118430599D01*
X162502643Y-118386757D01*
X162480579Y-118320463D01*
X162480500Y-118316038D01*
X162480500Y-117790149D01*
X162480500Y-117790147D01*
X162458318Y-117707362D01*
X162420481Y-117641826D01*
X162415469Y-117633144D01*
X162415463Y-117633136D01*
X161236819Y-116454492D01*
X161203334Y-116393169D01*
X161200500Y-116366811D01*
X161200500Y-104866784D01*
X161220185Y-104799745D01*
X161272989Y-104753990D01*
X161342147Y-104744046D01*
X161405703Y-104773071D01*
X161412181Y-104779103D01*
X161517217Y-104884139D01*
X161668392Y-104985150D01*
X161681086Y-104993632D01*
X161752953Y-105023399D01*
X161807355Y-105067239D01*
X161829421Y-105133533D01*
X161829500Y-105137960D01*
X161829500Y-111801169D01*
X161809815Y-111868208D01*
X161790982Y-111888684D01*
X161792031Y-111889733D01*
X161674481Y-112007282D01*
X161674475Y-112007290D01*
X161595426Y-112144209D01*
X161595423Y-112144216D01*
X161554500Y-112296943D01*
X161554500Y-112455057D01*
X161592476Y-112596783D01*
X161595423Y-112607783D01*
X161595426Y-112607790D01*
X161674475Y-112744709D01*
X161674479Y-112744714D01*
X161674480Y-112744716D01*
X161786284Y-112856520D01*
X161786286Y-112856521D01*
X161786290Y-112856524D01*
X161904163Y-112924577D01*
X161923216Y-112935577D01*
X162075943Y-112976500D01*
X162075945Y-112976500D01*
X162234055Y-112976500D01*
X162234057Y-112976500D01*
X162386784Y-112935577D01*
X162523716Y-112856520D01*
X162635520Y-112744716D01*
X162714577Y-112607784D01*
X162755500Y-112455057D01*
X162755500Y-112296943D01*
X162714577Y-112144216D01*
X162673917Y-112073790D01*
X162635524Y-112007290D01*
X162635518Y-112007282D01*
X162517969Y-111889733D01*
X162520207Y-111887494D01*
X162487798Y-111843080D01*
X162480500Y-111801169D01*
X162480500Y-105137960D01*
X162500185Y-105070921D01*
X162552989Y-105025166D01*
X162557005Y-105023417D01*
X162628914Y-104993632D01*
X162792782Y-104884139D01*
X162932139Y-104744782D01*
X163041632Y-104580914D01*
X163043798Y-104575686D01*
X163060151Y-104536206D01*
X163117051Y-104398835D01*
X163136471Y-104301206D01*
X163155500Y-104205543D01*
X163155500Y-104008456D01*
X163117052Y-103815170D01*
X163117051Y-103815169D01*
X163117051Y-103815165D01*
X163109500Y-103796935D01*
X163041635Y-103633092D01*
X163041628Y-103633079D01*
X162932139Y-103469218D01*
X162932136Y-103469214D01*
X162792785Y-103329863D01*
X162792781Y-103329860D01*
X162628920Y-103220371D01*
X162628910Y-103220366D01*
X162557047Y-103190599D01*
X162502643Y-103146757D01*
X162480579Y-103080463D01*
X162480500Y-103076038D01*
X162480500Y-103043149D01*
X162480499Y-103043145D01*
X162460819Y-102969694D01*
X162458318Y-102960361D01*
X162455876Y-102956131D01*
X162415465Y-102886138D01*
X161654319Y-102124992D01*
X161620834Y-102063669D01*
X161618000Y-102037311D01*
X161618000Y-101550689D01*
X161637685Y-101483650D01*
X161690489Y-101437895D01*
X161759647Y-101427951D01*
X161823203Y-101456976D01*
X161829681Y-101463008D01*
X163548534Y-103181861D01*
X163548535Y-103181862D01*
X163609138Y-103242465D01*
X163609140Y-103242466D01*
X163609144Y-103242469D01*
X163653042Y-103267813D01*
X163683362Y-103285318D01*
X163766147Y-103307500D01*
X163793929Y-103307500D01*
X163860968Y-103327185D01*
X163906723Y-103379989D01*
X163916667Y-103449147D01*
X163897031Y-103500391D01*
X163808371Y-103633079D01*
X163808364Y-103633092D01*
X163732950Y-103815160D01*
X163732947Y-103815170D01*
X163694500Y-104008456D01*
X163694500Y-104008459D01*
X163694500Y-104205541D01*
X163694500Y-104205543D01*
X163694499Y-104205543D01*
X163732947Y-104398829D01*
X163732950Y-104398839D01*
X163808364Y-104580907D01*
X163808371Y-104580920D01*
X163917860Y-104744781D01*
X163917863Y-104744785D01*
X164057214Y-104884136D01*
X164057218Y-104884139D01*
X164221079Y-104993628D01*
X164221092Y-104993635D01*
X164378950Y-105059021D01*
X164403165Y-105069051D01*
X164403169Y-105069051D01*
X164403170Y-105069052D01*
X164596456Y-105107500D01*
X164596459Y-105107500D01*
X164793543Y-105107500D01*
X164923582Y-105081632D01*
X164986835Y-105069051D01*
X165146983Y-105002716D01*
X165168907Y-104993635D01*
X165168907Y-104993634D01*
X165168914Y-104993632D01*
X165332782Y-104884139D01*
X165472139Y-104744782D01*
X165581632Y-104580914D01*
X165583798Y-104575686D01*
X165600151Y-104536206D01*
X165657051Y-104398835D01*
X165676471Y-104301206D01*
X165695500Y-104205543D01*
X165695500Y-104008456D01*
X165657052Y-103815170D01*
X165657051Y-103815169D01*
X165657051Y-103815165D01*
X165649500Y-103796935D01*
X165581635Y-103633092D01*
X165581628Y-103633079D01*
X165492969Y-103500391D01*
X165472091Y-103433713D01*
X165490576Y-103366333D01*
X165542555Y-103319643D01*
X165596071Y-103307500D01*
X166333929Y-103307500D01*
X166400968Y-103327185D01*
X166446723Y-103379989D01*
X166456667Y-103449147D01*
X166437031Y-103500391D01*
X166348371Y-103633079D01*
X166348364Y-103633092D01*
X166272950Y-103815160D01*
X166272947Y-103815170D01*
X166234500Y-104008456D01*
X166234500Y-104008459D01*
X166234500Y-104205541D01*
X166234500Y-104205543D01*
X166234499Y-104205543D01*
X166272947Y-104398829D01*
X166272950Y-104398839D01*
X166348364Y-104580907D01*
X166348371Y-104580920D01*
X166457860Y-104744781D01*
X166457863Y-104744785D01*
X166597214Y-104884136D01*
X166597218Y-104884139D01*
X166761079Y-104993628D01*
X166761092Y-104993635D01*
X166918950Y-105059021D01*
X166943165Y-105069051D01*
X166943169Y-105069051D01*
X166943170Y-105069052D01*
X167136456Y-105107500D01*
X167136459Y-105107500D01*
X167333543Y-105107500D01*
X167463582Y-105081632D01*
X167526835Y-105069051D01*
X167708914Y-104993632D01*
X167712047Y-104991958D01*
X167713876Y-104991577D01*
X167714543Y-104991301D01*
X167714595Y-104991427D01*
X167780450Y-104977716D01*
X167845694Y-105002716D01*
X167887064Y-105059021D01*
X167894500Y-105101316D01*
X167894500Y-105202057D01*
X167922166Y-105305306D01*
X167935423Y-105354783D01*
X167935426Y-105354790D01*
X168014475Y-105491709D01*
X168014481Y-105491717D01*
X168132031Y-105609267D01*
X168129785Y-105611512D01*
X168162179Y-105655855D01*
X168169500Y-105697830D01*
X168169500Y-116687852D01*
X168191682Y-116770640D01*
X168213108Y-116807750D01*
X168234535Y-116844862D01*
X168234537Y-116844864D01*
X169413181Y-118023508D01*
X169427884Y-118050435D01*
X169444477Y-118076254D01*
X169445368Y-118082454D01*
X169446666Y-118084831D01*
X169449500Y-118111189D01*
X169449500Y-118316038D01*
X169429815Y-118383077D01*
X169377011Y-118428832D01*
X169372953Y-118430599D01*
X169301089Y-118460366D01*
X169301079Y-118460371D01*
X169137218Y-118569860D01*
X169137214Y-118569863D01*
X168997863Y-118709214D01*
X168997860Y-118709218D01*
X168888371Y-118873079D01*
X168888364Y-118873092D01*
X168812950Y-119055160D01*
X168812947Y-119055170D01*
X168774500Y-119248456D01*
X168774500Y-119248459D01*
X168774500Y-119445541D01*
X168774500Y-119445543D01*
X168774499Y-119445543D01*
X168812947Y-119638829D01*
X168812950Y-119638839D01*
X168888364Y-119820907D01*
X168888371Y-119820920D01*
X168997860Y-119984781D01*
X168997863Y-119984785D01*
X169137214Y-120124136D01*
X169137218Y-120124139D01*
X169301079Y-120233628D01*
X169301092Y-120233635D01*
X169462562Y-120300517D01*
X169483165Y-120309051D01*
X169483169Y-120309051D01*
X169483170Y-120309052D01*
X169676456Y-120347500D01*
X169676459Y-120347500D01*
X169873543Y-120347500D01*
X170003582Y-120321632D01*
X170066835Y-120309051D01*
X170248914Y-120233632D01*
X170412782Y-120124139D01*
X170552139Y-119984782D01*
X170661632Y-119820914D01*
X170737051Y-119638835D01*
X170756683Y-119540139D01*
X170775500Y-119445543D01*
X171314499Y-119445543D01*
X171352947Y-119638829D01*
X171352950Y-119638839D01*
X171428364Y-119820907D01*
X171428371Y-119820920D01*
X171537860Y-119984781D01*
X171537863Y-119984785D01*
X171677214Y-120124136D01*
X171677218Y-120124139D01*
X171841079Y-120233628D01*
X171841092Y-120233635D01*
X172002562Y-120300517D01*
X172023165Y-120309051D01*
X172023169Y-120309051D01*
X172023170Y-120309052D01*
X172216456Y-120347500D01*
X172216459Y-120347500D01*
X172413543Y-120347500D01*
X172543582Y-120321632D01*
X172606835Y-120309051D01*
X172788914Y-120233632D01*
X172952782Y-120124139D01*
X173092139Y-119984782D01*
X173201632Y-119820914D01*
X173277051Y-119638835D01*
X173296683Y-119540139D01*
X173315500Y-119445543D01*
X173315500Y-119248456D01*
X173277052Y-119055170D01*
X173277051Y-119055169D01*
X173277051Y-119055165D01*
X173232248Y-118947000D01*
X173201635Y-118873092D01*
X173201628Y-118873079D01*
X173092139Y-118709218D01*
X173092136Y-118709214D01*
X172952785Y-118569863D01*
X172952781Y-118569860D01*
X172788920Y-118460371D01*
X172788910Y-118460366D01*
X172717047Y-118430599D01*
X172662643Y-118386757D01*
X172640579Y-118320463D01*
X172640500Y-118316038D01*
X172640500Y-111026330D01*
X172660185Y-110959291D01*
X172679022Y-110938820D01*
X172677969Y-110937767D01*
X172721151Y-110894585D01*
X172795520Y-110820216D01*
X172874577Y-110683284D01*
X172915500Y-110530557D01*
X172915500Y-110372443D01*
X172874577Y-110219716D01*
X172825776Y-110135189D01*
X172795524Y-110082790D01*
X172795518Y-110082782D01*
X172683717Y-109970981D01*
X172683709Y-109970975D01*
X172546790Y-109891926D01*
X172546786Y-109891924D01*
X172546784Y-109891923D01*
X172394057Y-109851000D01*
X172235943Y-109851000D01*
X172083216Y-109891923D01*
X172083209Y-109891926D01*
X171946290Y-109970975D01*
X171946282Y-109970981D01*
X171834481Y-110082782D01*
X171834475Y-110082790D01*
X171755426Y-110219709D01*
X171755423Y-110219716D01*
X171714500Y-110372443D01*
X171714500Y-110530557D01*
X171749450Y-110660990D01*
X171755423Y-110683283D01*
X171755426Y-110683290D01*
X171834475Y-110820209D01*
X171834481Y-110820217D01*
X171952031Y-110937767D01*
X171949785Y-110940012D01*
X171982179Y-110984355D01*
X171989500Y-111026330D01*
X171989500Y-118316038D01*
X171969815Y-118383077D01*
X171917011Y-118428832D01*
X171912953Y-118430599D01*
X171841089Y-118460366D01*
X171841079Y-118460371D01*
X171677218Y-118569860D01*
X171677214Y-118569863D01*
X171537863Y-118709214D01*
X171537860Y-118709218D01*
X171428371Y-118873079D01*
X171428364Y-118873092D01*
X171352950Y-119055160D01*
X171352947Y-119055170D01*
X171314500Y-119248456D01*
X171314500Y-119248459D01*
X171314500Y-119445541D01*
X171314500Y-119445543D01*
X171314499Y-119445543D01*
X170775500Y-119445543D01*
X170775500Y-119248456D01*
X170737052Y-119055170D01*
X170737051Y-119055169D01*
X170737051Y-119055165D01*
X170692248Y-118947000D01*
X170661635Y-118873092D01*
X170661628Y-118873079D01*
X170552139Y-118709218D01*
X170552136Y-118709214D01*
X170412785Y-118569863D01*
X170412781Y-118569860D01*
X170248920Y-118460371D01*
X170248910Y-118460366D01*
X170177047Y-118430599D01*
X170122643Y-118386757D01*
X170100579Y-118320463D01*
X170100500Y-118316038D01*
X170100500Y-117882149D01*
X170100500Y-117882147D01*
X170078318Y-117799362D01*
X170072998Y-117790147D01*
X170035469Y-117725144D01*
X170035463Y-117725136D01*
X168856819Y-116546492D01*
X168823334Y-116485169D01*
X168820500Y-116458811D01*
X168820500Y-105697830D01*
X168840185Y-105630791D01*
X168859022Y-105610320D01*
X168857969Y-105609267D01*
X168880137Y-105587099D01*
X168975520Y-105491716D01*
X169054577Y-105354784D01*
X169095500Y-105202057D01*
X169095500Y-105088252D01*
X169115185Y-105021213D01*
X169167989Y-104975458D01*
X169237147Y-104965514D01*
X169288391Y-104985150D01*
X169297597Y-104991301D01*
X169301086Y-104993632D01*
X169301088Y-104993633D01*
X169301092Y-104993635D01*
X169458950Y-105059021D01*
X169483165Y-105069051D01*
X169483169Y-105069051D01*
X169483170Y-105069052D01*
X169676456Y-105107500D01*
X169676459Y-105107500D01*
X169873543Y-105107500D01*
X170003582Y-105081632D01*
X170066835Y-105069051D01*
X170226983Y-105002716D01*
X170248907Y-104993635D01*
X170248907Y-104993634D01*
X170248914Y-104993632D01*
X170412782Y-104884139D01*
X170441615Y-104855306D01*
X170507819Y-104789103D01*
X170569142Y-104755618D01*
X170638834Y-104760602D01*
X170694767Y-104802474D01*
X170719184Y-104867938D01*
X170719500Y-104876784D01*
X170719500Y-106858147D01*
X170719500Y-106943853D01*
X170728867Y-106978811D01*
X170741682Y-107026640D01*
X170751723Y-107044031D01*
X170784535Y-107100862D01*
X170784537Y-107100864D01*
X173731181Y-110047508D01*
X173764666Y-110108831D01*
X173767500Y-110135189D01*
X173767500Y-116787852D01*
X173789682Y-116870640D01*
X173811108Y-116907750D01*
X173832535Y-116944862D01*
X174172051Y-117284378D01*
X174493181Y-117605507D01*
X174526666Y-117666830D01*
X174529500Y-117693188D01*
X174529500Y-118316038D01*
X174509815Y-118383077D01*
X174457011Y-118428832D01*
X174452953Y-118430599D01*
X174381089Y-118460366D01*
X174381079Y-118460371D01*
X174217218Y-118569860D01*
X174217214Y-118569863D01*
X174077863Y-118709214D01*
X174077860Y-118709218D01*
X173968371Y-118873079D01*
X173968364Y-118873092D01*
X173892950Y-119055160D01*
X173892947Y-119055170D01*
X173854500Y-119248456D01*
X173854500Y-119248459D01*
X173854500Y-119445541D01*
X173854500Y-119445543D01*
X173854499Y-119445543D01*
X173892947Y-119638829D01*
X173892950Y-119638839D01*
X173968364Y-119820907D01*
X173968371Y-119820920D01*
X174077860Y-119984781D01*
X174077863Y-119984785D01*
X174217214Y-120124136D01*
X174217218Y-120124139D01*
X174381079Y-120233628D01*
X174381092Y-120233635D01*
X174542562Y-120300517D01*
X174563165Y-120309051D01*
X174563169Y-120309051D01*
X174563170Y-120309052D01*
X174756456Y-120347500D01*
X174756459Y-120347500D01*
X174953543Y-120347500D01*
X175083582Y-120321632D01*
X175146835Y-120309051D01*
X175328914Y-120233632D01*
X175492782Y-120124139D01*
X175632139Y-119984782D01*
X175741632Y-119820914D01*
X175817051Y-119638835D01*
X175836683Y-119540139D01*
X175855500Y-119445543D01*
X176394499Y-119445543D01*
X176432947Y-119638829D01*
X176432950Y-119638839D01*
X176508364Y-119820907D01*
X176508371Y-119820920D01*
X176617860Y-119984781D01*
X176617863Y-119984785D01*
X176757214Y-120124136D01*
X176757218Y-120124139D01*
X176921079Y-120233628D01*
X176921092Y-120233635D01*
X177082562Y-120300517D01*
X177103165Y-120309051D01*
X177103169Y-120309051D01*
X177103170Y-120309052D01*
X177296456Y-120347500D01*
X177296459Y-120347500D01*
X177493543Y-120347500D01*
X177623582Y-120321632D01*
X177686835Y-120309051D01*
X177868914Y-120233632D01*
X178032782Y-120124139D01*
X178172139Y-119984782D01*
X178281632Y-119820914D01*
X178357051Y-119638835D01*
X178376683Y-119540139D01*
X178395500Y-119445543D01*
X178934499Y-119445543D01*
X178972947Y-119638829D01*
X178972950Y-119638839D01*
X179048364Y-119820907D01*
X179048371Y-119820920D01*
X179157860Y-119984781D01*
X179157863Y-119984785D01*
X179297214Y-120124136D01*
X179297218Y-120124139D01*
X179461079Y-120233628D01*
X179461092Y-120233635D01*
X179622562Y-120300517D01*
X179643165Y-120309051D01*
X179643169Y-120309051D01*
X179643170Y-120309052D01*
X179836456Y-120347500D01*
X179836459Y-120347500D01*
X180033543Y-120347500D01*
X180163582Y-120321632D01*
X180226835Y-120309051D01*
X180408914Y-120233632D01*
X180572782Y-120124139D01*
X180712139Y-119984782D01*
X180821632Y-119820914D01*
X180897051Y-119638835D01*
X180916683Y-119540139D01*
X180935500Y-119445543D01*
X181474499Y-119445543D01*
X181512947Y-119638829D01*
X181512950Y-119638839D01*
X181588364Y-119820907D01*
X181588371Y-119820920D01*
X181697860Y-119984781D01*
X181697863Y-119984785D01*
X181837214Y-120124136D01*
X181837218Y-120124139D01*
X182001079Y-120233628D01*
X182001092Y-120233635D01*
X182162562Y-120300517D01*
X182183165Y-120309051D01*
X182183169Y-120309051D01*
X182183170Y-120309052D01*
X182376456Y-120347500D01*
X182376459Y-120347500D01*
X182573543Y-120347500D01*
X182703582Y-120321632D01*
X182766835Y-120309051D01*
X182948914Y-120233632D01*
X183112782Y-120124139D01*
X183252139Y-119984782D01*
X183361632Y-119820914D01*
X183437051Y-119638835D01*
X183456683Y-119540139D01*
X183475500Y-119445543D01*
X184014499Y-119445543D01*
X184052947Y-119638829D01*
X184052950Y-119638839D01*
X184128364Y-119820907D01*
X184128371Y-119820920D01*
X184237860Y-119984781D01*
X184237863Y-119984785D01*
X184377214Y-120124136D01*
X184377218Y-120124139D01*
X184541079Y-120233628D01*
X184541092Y-120233635D01*
X184702562Y-120300517D01*
X184723165Y-120309051D01*
X184723169Y-120309051D01*
X184723170Y-120309052D01*
X184916456Y-120347500D01*
X184916459Y-120347500D01*
X185113543Y-120347500D01*
X185243582Y-120321632D01*
X185306835Y-120309051D01*
X185488914Y-120233632D01*
X185652782Y-120124139D01*
X185792139Y-119984782D01*
X185901632Y-119820914D01*
X185977051Y-119638835D01*
X185996683Y-119540139D01*
X186015500Y-119445543D01*
X186554499Y-119445543D01*
X186592947Y-119638829D01*
X186592950Y-119638839D01*
X186668364Y-119820907D01*
X186668371Y-119820920D01*
X186777860Y-119984781D01*
X186777863Y-119984785D01*
X186917214Y-120124136D01*
X186917218Y-120124139D01*
X187081079Y-120233628D01*
X187081092Y-120233635D01*
X187242562Y-120300517D01*
X187263165Y-120309051D01*
X187263169Y-120309051D01*
X187263170Y-120309052D01*
X187456456Y-120347500D01*
X187456459Y-120347500D01*
X187653543Y-120347500D01*
X187783582Y-120321632D01*
X187846835Y-120309051D01*
X188028914Y-120233632D01*
X188192782Y-120124139D01*
X188332139Y-119984782D01*
X188441632Y-119820914D01*
X188517051Y-119638835D01*
X188536683Y-119540139D01*
X188555500Y-119445543D01*
X189094499Y-119445543D01*
X189132947Y-119638829D01*
X189132950Y-119638839D01*
X189208364Y-119820907D01*
X189208371Y-119820920D01*
X189317860Y-119984781D01*
X189317863Y-119984785D01*
X189457214Y-120124136D01*
X189457218Y-120124139D01*
X189621079Y-120233628D01*
X189621092Y-120233635D01*
X189782562Y-120300517D01*
X189803165Y-120309051D01*
X189803169Y-120309051D01*
X189803170Y-120309052D01*
X189996456Y-120347500D01*
X189996459Y-120347500D01*
X190193543Y-120347500D01*
X190323582Y-120321632D01*
X190386835Y-120309051D01*
X190568914Y-120233632D01*
X190732782Y-120124139D01*
X190872139Y-119984782D01*
X190981632Y-119820914D01*
X191057051Y-119638835D01*
X191076683Y-119540139D01*
X191095500Y-119445543D01*
X191634499Y-119445543D01*
X191672947Y-119638829D01*
X191672950Y-119638839D01*
X191748364Y-119820907D01*
X191748371Y-119820920D01*
X191857860Y-119984781D01*
X191857863Y-119984785D01*
X191997214Y-120124136D01*
X191997218Y-120124139D01*
X192161079Y-120233628D01*
X192161092Y-120233635D01*
X192322562Y-120300517D01*
X192343165Y-120309051D01*
X192343169Y-120309051D01*
X192343170Y-120309052D01*
X192536456Y-120347500D01*
X192536459Y-120347500D01*
X192733543Y-120347500D01*
X192863582Y-120321632D01*
X192926835Y-120309051D01*
X193108914Y-120233632D01*
X193272782Y-120124139D01*
X193412139Y-119984782D01*
X193521632Y-119820914D01*
X193597051Y-119638835D01*
X193616683Y-119540139D01*
X193635500Y-119445543D01*
X193635500Y-119248456D01*
X193597052Y-119055170D01*
X193597051Y-119055169D01*
X193597051Y-119055165D01*
X193552248Y-118947000D01*
X193521635Y-118873092D01*
X193521628Y-118873079D01*
X193412139Y-118709218D01*
X193412136Y-118709214D01*
X193272785Y-118569863D01*
X193272781Y-118569860D01*
X193108920Y-118460371D01*
X193108907Y-118460364D01*
X192926839Y-118384950D01*
X192926829Y-118384947D01*
X192733543Y-118346500D01*
X192733541Y-118346500D01*
X192536459Y-118346500D01*
X192536457Y-118346500D01*
X192343170Y-118384947D01*
X192343160Y-118384950D01*
X192161092Y-118460364D01*
X192161079Y-118460371D01*
X191997218Y-118569860D01*
X191997214Y-118569863D01*
X191857863Y-118709214D01*
X191857860Y-118709218D01*
X191748371Y-118873079D01*
X191748364Y-118873092D01*
X191672950Y-119055160D01*
X191672947Y-119055170D01*
X191634500Y-119248456D01*
X191634500Y-119248459D01*
X191634500Y-119445541D01*
X191634500Y-119445543D01*
X191634499Y-119445543D01*
X191095500Y-119445543D01*
X191095500Y-119248456D01*
X191057052Y-119055170D01*
X191057051Y-119055169D01*
X191057051Y-119055165D01*
X191012248Y-118947000D01*
X190981635Y-118873092D01*
X190981628Y-118873079D01*
X190872139Y-118709218D01*
X190872136Y-118709214D01*
X190732785Y-118569863D01*
X190732781Y-118569860D01*
X190568920Y-118460371D01*
X190568907Y-118460364D01*
X190386839Y-118384950D01*
X190386829Y-118384947D01*
X190193543Y-118346500D01*
X190193541Y-118346500D01*
X189996459Y-118346500D01*
X189996457Y-118346500D01*
X189803170Y-118384947D01*
X189803160Y-118384950D01*
X189621092Y-118460364D01*
X189621079Y-118460371D01*
X189457218Y-118569860D01*
X189457214Y-118569863D01*
X189317863Y-118709214D01*
X189317860Y-118709218D01*
X189208371Y-118873079D01*
X189208364Y-118873092D01*
X189132950Y-119055160D01*
X189132947Y-119055170D01*
X189094500Y-119248456D01*
X189094500Y-119248459D01*
X189094500Y-119445541D01*
X189094500Y-119445543D01*
X189094499Y-119445543D01*
X188555500Y-119445543D01*
X188555500Y-119248456D01*
X188517052Y-119055170D01*
X188517051Y-119055169D01*
X188517051Y-119055165D01*
X188472248Y-118947000D01*
X188441635Y-118873092D01*
X188441628Y-118873079D01*
X188332139Y-118709218D01*
X188332136Y-118709214D01*
X188192785Y-118569863D01*
X188192781Y-118569860D01*
X188028920Y-118460371D01*
X188028907Y-118460364D01*
X187846839Y-118384950D01*
X187846829Y-118384947D01*
X187653543Y-118346500D01*
X187653541Y-118346500D01*
X187456459Y-118346500D01*
X187456457Y-118346500D01*
X187263170Y-118384947D01*
X187263160Y-118384950D01*
X187081092Y-118460364D01*
X187081079Y-118460371D01*
X186917218Y-118569860D01*
X186917214Y-118569863D01*
X186777863Y-118709214D01*
X186777860Y-118709218D01*
X186668371Y-118873079D01*
X186668364Y-118873092D01*
X186592950Y-119055160D01*
X186592947Y-119055170D01*
X186554500Y-119248456D01*
X186554500Y-119248459D01*
X186554500Y-119445541D01*
X186554500Y-119445543D01*
X186554499Y-119445543D01*
X186015500Y-119445543D01*
X186015500Y-119248456D01*
X185977052Y-119055170D01*
X185977051Y-119055169D01*
X185977051Y-119055165D01*
X185932248Y-118947000D01*
X185901635Y-118873092D01*
X185901628Y-118873079D01*
X185792139Y-118709218D01*
X185792136Y-118709214D01*
X185652785Y-118569863D01*
X185652781Y-118569860D01*
X185488920Y-118460371D01*
X185488907Y-118460364D01*
X185306839Y-118384950D01*
X185306829Y-118384947D01*
X185113543Y-118346500D01*
X185113541Y-118346500D01*
X184916459Y-118346500D01*
X184916457Y-118346500D01*
X184723170Y-118384947D01*
X184723160Y-118384950D01*
X184541092Y-118460364D01*
X184541079Y-118460371D01*
X184377218Y-118569860D01*
X184377214Y-118569863D01*
X184237863Y-118709214D01*
X184237860Y-118709218D01*
X184128371Y-118873079D01*
X184128364Y-118873092D01*
X184052950Y-119055160D01*
X184052947Y-119055170D01*
X184014500Y-119248456D01*
X184014500Y-119248459D01*
X184014500Y-119445541D01*
X184014500Y-119445543D01*
X184014499Y-119445543D01*
X183475500Y-119445543D01*
X183475500Y-119248456D01*
X183437052Y-119055170D01*
X183437051Y-119055169D01*
X183437051Y-119055165D01*
X183392248Y-118947000D01*
X183361635Y-118873092D01*
X183361628Y-118873079D01*
X183252139Y-118709218D01*
X183252136Y-118709214D01*
X183112785Y-118569863D01*
X183112781Y-118569860D01*
X182948920Y-118460371D01*
X182948907Y-118460364D01*
X182766839Y-118384950D01*
X182766829Y-118384947D01*
X182573543Y-118346500D01*
X182573541Y-118346500D01*
X182376459Y-118346500D01*
X182376457Y-118346500D01*
X182183170Y-118384947D01*
X182183160Y-118384950D01*
X182001092Y-118460364D01*
X182001079Y-118460371D01*
X181837218Y-118569860D01*
X181837214Y-118569863D01*
X181697863Y-118709214D01*
X181697860Y-118709218D01*
X181588371Y-118873079D01*
X181588364Y-118873092D01*
X181512950Y-119055160D01*
X181512947Y-119055170D01*
X181474500Y-119248456D01*
X181474500Y-119248459D01*
X181474500Y-119445541D01*
X181474500Y-119445543D01*
X181474499Y-119445543D01*
X180935500Y-119445543D01*
X180935500Y-119248456D01*
X180897052Y-119055170D01*
X180897051Y-119055169D01*
X180897051Y-119055165D01*
X180852248Y-118947000D01*
X180821635Y-118873092D01*
X180821628Y-118873079D01*
X180712139Y-118709218D01*
X180712136Y-118709214D01*
X180572785Y-118569863D01*
X180572781Y-118569860D01*
X180408920Y-118460371D01*
X180408907Y-118460364D01*
X180226839Y-118384950D01*
X180226829Y-118384947D01*
X180033543Y-118346500D01*
X180033541Y-118346500D01*
X179836459Y-118346500D01*
X179836457Y-118346500D01*
X179643170Y-118384947D01*
X179643160Y-118384950D01*
X179461092Y-118460364D01*
X179461079Y-118460371D01*
X179297218Y-118569860D01*
X179297214Y-118569863D01*
X179157863Y-118709214D01*
X179157860Y-118709218D01*
X179048371Y-118873079D01*
X179048364Y-118873092D01*
X178972950Y-119055160D01*
X178972947Y-119055170D01*
X178934500Y-119248456D01*
X178934500Y-119248459D01*
X178934500Y-119445541D01*
X178934500Y-119445543D01*
X178934499Y-119445543D01*
X178395500Y-119445543D01*
X178395500Y-119248456D01*
X178357052Y-119055170D01*
X178357051Y-119055169D01*
X178357051Y-119055165D01*
X178312248Y-118947000D01*
X178281635Y-118873092D01*
X178281628Y-118873079D01*
X178172139Y-118709218D01*
X178172136Y-118709214D01*
X178032785Y-118569863D01*
X178032781Y-118569860D01*
X177868920Y-118460371D01*
X177868907Y-118460364D01*
X177686839Y-118384950D01*
X177686829Y-118384947D01*
X177493543Y-118346500D01*
X177493541Y-118346500D01*
X177296459Y-118346500D01*
X177296457Y-118346500D01*
X177103170Y-118384947D01*
X177103160Y-118384950D01*
X176921092Y-118460364D01*
X176921079Y-118460371D01*
X176757218Y-118569860D01*
X176757214Y-118569863D01*
X176617863Y-118709214D01*
X176617860Y-118709218D01*
X176508371Y-118873079D01*
X176508364Y-118873092D01*
X176432950Y-119055160D01*
X176432947Y-119055170D01*
X176394500Y-119248456D01*
X176394500Y-119248459D01*
X176394500Y-119445541D01*
X176394500Y-119445543D01*
X176394499Y-119445543D01*
X175855500Y-119445543D01*
X175855500Y-119248456D01*
X175817052Y-119055170D01*
X175817051Y-119055169D01*
X175817051Y-119055165D01*
X175772248Y-118947000D01*
X175741635Y-118873092D01*
X175741628Y-118873079D01*
X175632139Y-118709218D01*
X175632136Y-118709214D01*
X175492785Y-118569863D01*
X175492781Y-118569860D01*
X175328920Y-118460371D01*
X175328910Y-118460366D01*
X175257047Y-118430599D01*
X175202643Y-118386757D01*
X175180579Y-118320463D01*
X175180500Y-118316038D01*
X175180500Y-117559855D01*
X175180501Y-117559842D01*
X175180501Y-117464148D01*
X175175022Y-117443698D01*
X175158318Y-117381361D01*
X175132779Y-117337127D01*
X175115465Y-117307138D01*
X175054862Y-117246535D01*
X175054859Y-117246533D01*
X174454819Y-116646492D01*
X174421334Y-116585169D01*
X174418500Y-116558811D01*
X174418500Y-109906148D01*
X174418500Y-109906147D01*
X174414689Y-109891923D01*
X174396318Y-109823361D01*
X174353465Y-109749138D01*
X171406819Y-106802492D01*
X171373334Y-106741169D01*
X171370500Y-106714811D01*
X171370500Y-104876784D01*
X171390185Y-104809745D01*
X171442989Y-104763990D01*
X171512147Y-104754046D01*
X171575703Y-104783071D01*
X171582181Y-104789103D01*
X171677214Y-104884136D01*
X171677218Y-104884139D01*
X171841079Y-104993628D01*
X171841092Y-104993635D01*
X171998950Y-105059021D01*
X172023165Y-105069051D01*
X172023169Y-105069051D01*
X172023170Y-105069052D01*
X172216456Y-105107500D01*
X172216459Y-105107500D01*
X172413543Y-105107500D01*
X172543582Y-105081632D01*
X172606835Y-105069051D01*
X172766983Y-105002716D01*
X172788907Y-104993635D01*
X172788907Y-104993634D01*
X172788914Y-104993632D01*
X172952782Y-104884139D01*
X172981615Y-104855306D01*
X173047819Y-104789103D01*
X173109142Y-104755618D01*
X173178834Y-104760602D01*
X173234767Y-104802474D01*
X173259184Y-104867938D01*
X173259500Y-104876784D01*
X173259500Y-105183169D01*
X173239815Y-105250208D01*
X173220982Y-105270684D01*
X173222031Y-105271733D01*
X173104481Y-105389282D01*
X173104475Y-105389290D01*
X173025426Y-105526209D01*
X173025423Y-105526216D01*
X172984500Y-105678943D01*
X172984500Y-105837057D01*
X173024449Y-105986147D01*
X173025423Y-105989783D01*
X173025426Y-105989790D01*
X173104475Y-106126709D01*
X173104481Y-106126717D01*
X173222031Y-106244267D01*
X173219785Y-106246512D01*
X173252179Y-106290855D01*
X173259500Y-106332830D01*
X173259500Y-107122147D01*
X173259500Y-107207853D01*
X173264456Y-107226349D01*
X173281682Y-107290640D01*
X173303108Y-107327750D01*
X173324535Y-107364862D01*
X173324537Y-107364864D01*
X175753181Y-109793508D01*
X175786666Y-109854831D01*
X175789500Y-109881189D01*
X175789500Y-112830169D01*
X175769815Y-112897208D01*
X175750982Y-112917684D01*
X175752031Y-112918733D01*
X175634481Y-113036282D01*
X175634475Y-113036290D01*
X175555426Y-113173209D01*
X175555423Y-113173216D01*
X175514500Y-113325943D01*
X175514500Y-113484057D01*
X175554532Y-113633456D01*
X175555423Y-113636783D01*
X175555426Y-113636790D01*
X175634475Y-113773709D01*
X175634479Y-113773714D01*
X175634480Y-113773716D01*
X175746284Y-113885520D01*
X175746286Y-113885521D01*
X175746290Y-113885524D01*
X175883209Y-113964573D01*
X175883216Y-113964577D01*
X176035943Y-114005500D01*
X176035945Y-114005500D01*
X176194055Y-114005500D01*
X176194057Y-114005500D01*
X176346784Y-113964577D01*
X176483716Y-113885520D01*
X176595520Y-113773716D01*
X176674577Y-113636784D01*
X176715500Y-113484057D01*
X176715500Y-113325943D01*
X176674577Y-113173216D01*
X176641100Y-113115231D01*
X176595524Y-113036290D01*
X176595518Y-113036282D01*
X176477969Y-112918733D01*
X176480207Y-112916494D01*
X176447798Y-112872080D01*
X176440500Y-112830169D01*
X176440500Y-109652149D01*
X176440500Y-109652147D01*
X176418318Y-109569362D01*
X176405581Y-109547301D01*
X176375469Y-109495144D01*
X176375463Y-109495136D01*
X173946819Y-107066492D01*
X173913334Y-107005169D01*
X173910500Y-106978811D01*
X173910500Y-106332830D01*
X173930185Y-106265791D01*
X173949022Y-106245320D01*
X173947969Y-106244267D01*
X174005093Y-106187143D01*
X174065520Y-106126716D01*
X174144577Y-105989784D01*
X174185500Y-105837057D01*
X174185500Y-105678943D01*
X174144577Y-105526216D01*
X174117317Y-105479000D01*
X174065524Y-105389290D01*
X174065518Y-105389282D01*
X173947969Y-105271733D01*
X173950207Y-105269494D01*
X173917798Y-105225080D01*
X173910500Y-105183169D01*
X173910500Y-104876784D01*
X173930185Y-104809745D01*
X173982989Y-104763990D01*
X174052147Y-104754046D01*
X174115703Y-104783071D01*
X174122181Y-104789103D01*
X174217214Y-104884136D01*
X174217218Y-104884139D01*
X174381079Y-104993628D01*
X174381092Y-104993635D01*
X174538950Y-105059021D01*
X174563165Y-105069051D01*
X174563169Y-105069051D01*
X174563170Y-105069052D01*
X174756456Y-105107500D01*
X174756459Y-105107500D01*
X174953543Y-105107500D01*
X175083582Y-105081632D01*
X175146835Y-105069051D01*
X175306983Y-105002716D01*
X175328907Y-104993635D01*
X175328907Y-104993634D01*
X175328914Y-104993632D01*
X175492782Y-104884139D01*
X175632139Y-104744782D01*
X175741632Y-104580914D01*
X175743798Y-104575686D01*
X175760151Y-104536206D01*
X175817051Y-104398835D01*
X175836471Y-104301206D01*
X175855500Y-104205543D01*
X176394499Y-104205543D01*
X176432947Y-104398829D01*
X176432950Y-104398839D01*
X176508364Y-104580907D01*
X176508371Y-104580920D01*
X176617860Y-104744781D01*
X176617863Y-104744785D01*
X176757214Y-104884136D01*
X176757218Y-104884139D01*
X176921079Y-104993628D01*
X176921092Y-104993635D01*
X177078950Y-105059021D01*
X177103165Y-105069051D01*
X177103169Y-105069051D01*
X177103170Y-105069052D01*
X177296456Y-105107500D01*
X177296459Y-105107500D01*
X177493543Y-105107500D01*
X177623582Y-105081632D01*
X177686835Y-105069051D01*
X177846983Y-105002716D01*
X177868907Y-104993635D01*
X177868907Y-104993634D01*
X177868914Y-104993632D01*
X178032782Y-104884139D01*
X178172139Y-104744782D01*
X178281632Y-104580914D01*
X178283798Y-104575686D01*
X178300151Y-104536206D01*
X178357051Y-104398835D01*
X178376471Y-104301206D01*
X178395500Y-104205543D01*
X178934499Y-104205543D01*
X178972947Y-104398829D01*
X178972950Y-104398839D01*
X179048364Y-104580907D01*
X179048371Y-104580920D01*
X179157860Y-104744781D01*
X179157863Y-104744785D01*
X179297214Y-104884136D01*
X179297218Y-104884139D01*
X179461079Y-104993628D01*
X179461092Y-104993635D01*
X179618950Y-105059021D01*
X179643165Y-105069051D01*
X179643169Y-105069051D01*
X179643170Y-105069052D01*
X179836456Y-105107500D01*
X179836459Y-105107500D01*
X180033543Y-105107500D01*
X180163582Y-105081632D01*
X180226835Y-105069051D01*
X180386983Y-105002716D01*
X180408907Y-104993635D01*
X180408907Y-104993634D01*
X180408914Y-104993632D01*
X180572782Y-104884139D01*
X180712139Y-104744782D01*
X180821632Y-104580914D01*
X180823798Y-104575686D01*
X180840151Y-104536206D01*
X180897051Y-104398835D01*
X180916471Y-104301206D01*
X180935500Y-104205543D01*
X181474499Y-104205543D01*
X181512947Y-104398829D01*
X181512950Y-104398839D01*
X181588364Y-104580907D01*
X181588371Y-104580920D01*
X181697860Y-104744781D01*
X181697863Y-104744785D01*
X181837214Y-104884136D01*
X181837218Y-104884139D01*
X182001079Y-104993628D01*
X182001092Y-104993635D01*
X182158950Y-105059021D01*
X182183165Y-105069051D01*
X182183169Y-105069051D01*
X182183170Y-105069052D01*
X182376456Y-105107500D01*
X182376459Y-105107500D01*
X182573543Y-105107500D01*
X182703582Y-105081632D01*
X182766835Y-105069051D01*
X182926983Y-105002716D01*
X182948907Y-104993635D01*
X182948907Y-104993634D01*
X182948914Y-104993632D01*
X183112782Y-104884139D01*
X183252139Y-104744782D01*
X183361632Y-104580914D01*
X183363798Y-104575686D01*
X183380151Y-104536206D01*
X183437051Y-104398835D01*
X183456471Y-104301206D01*
X183475500Y-104205543D01*
X184014499Y-104205543D01*
X184052947Y-104398829D01*
X184052950Y-104398839D01*
X184128364Y-104580907D01*
X184128371Y-104580920D01*
X184237860Y-104744781D01*
X184237863Y-104744785D01*
X184377214Y-104884136D01*
X184377218Y-104884139D01*
X184541079Y-104993628D01*
X184541092Y-104993635D01*
X184698950Y-105059021D01*
X184723165Y-105069051D01*
X184723169Y-105069051D01*
X184723170Y-105069052D01*
X184916456Y-105107500D01*
X184916459Y-105107500D01*
X185113543Y-105107500D01*
X185243582Y-105081632D01*
X185306835Y-105069051D01*
X185466983Y-105002716D01*
X185488907Y-104993635D01*
X185488907Y-104993634D01*
X185488914Y-104993632D01*
X185652782Y-104884139D01*
X185792139Y-104744782D01*
X185901632Y-104580914D01*
X185903798Y-104575686D01*
X185920151Y-104536206D01*
X185977051Y-104398835D01*
X185996471Y-104301206D01*
X186015500Y-104205543D01*
X186554499Y-104205543D01*
X186592947Y-104398829D01*
X186592950Y-104398839D01*
X186668364Y-104580907D01*
X186668371Y-104580920D01*
X186777860Y-104744781D01*
X186777863Y-104744785D01*
X186917214Y-104884136D01*
X186917218Y-104884139D01*
X187081079Y-104993628D01*
X187081092Y-104993635D01*
X187238950Y-105059021D01*
X187263165Y-105069051D01*
X187263169Y-105069051D01*
X187263170Y-105069052D01*
X187456456Y-105107500D01*
X187456459Y-105107500D01*
X187653543Y-105107500D01*
X187783582Y-105081632D01*
X187846835Y-105069051D01*
X188006983Y-105002716D01*
X188028907Y-104993635D01*
X188028907Y-104993634D01*
X188028914Y-104993632D01*
X188192782Y-104884139D01*
X188332139Y-104744782D01*
X188441632Y-104580914D01*
X188443798Y-104575686D01*
X188460151Y-104536206D01*
X188517051Y-104398835D01*
X188536471Y-104301206D01*
X188555500Y-104205543D01*
X188555500Y-104008456D01*
X188517052Y-103815170D01*
X188517051Y-103815169D01*
X188517051Y-103815165D01*
X188509500Y-103796935D01*
X188441635Y-103633092D01*
X188441628Y-103633079D01*
X188332139Y-103469218D01*
X188332136Y-103469214D01*
X188192785Y-103329863D01*
X188192781Y-103329860D01*
X188028920Y-103220371D01*
X188028907Y-103220364D01*
X187846839Y-103144950D01*
X187846829Y-103144947D01*
X187653543Y-103106500D01*
X187653541Y-103106500D01*
X187456459Y-103106500D01*
X187456457Y-103106500D01*
X187263170Y-103144947D01*
X187263160Y-103144950D01*
X187081092Y-103220364D01*
X187081079Y-103220371D01*
X186917218Y-103329860D01*
X186917214Y-103329863D01*
X186777863Y-103469214D01*
X186777860Y-103469218D01*
X186668371Y-103633079D01*
X186668364Y-103633092D01*
X186592950Y-103815160D01*
X186592947Y-103815170D01*
X186554500Y-104008456D01*
X186554500Y-104008459D01*
X186554500Y-104205541D01*
X186554500Y-104205543D01*
X186554499Y-104205543D01*
X186015500Y-104205543D01*
X186015500Y-104008456D01*
X185977052Y-103815170D01*
X185977051Y-103815169D01*
X185977051Y-103815165D01*
X185969500Y-103796935D01*
X185901635Y-103633092D01*
X185901628Y-103633079D01*
X185792139Y-103469218D01*
X185792136Y-103469214D01*
X185652785Y-103329863D01*
X185652781Y-103329860D01*
X185488920Y-103220371D01*
X185488907Y-103220364D01*
X185306839Y-103144950D01*
X185306829Y-103144947D01*
X185113543Y-103106500D01*
X185113541Y-103106500D01*
X184916459Y-103106500D01*
X184916457Y-103106500D01*
X184723170Y-103144947D01*
X184723160Y-103144950D01*
X184541092Y-103220364D01*
X184541079Y-103220371D01*
X184377218Y-103329860D01*
X184377214Y-103329863D01*
X184237863Y-103469214D01*
X184237860Y-103469218D01*
X184128371Y-103633079D01*
X184128364Y-103633092D01*
X184052950Y-103815160D01*
X184052947Y-103815170D01*
X184014500Y-104008456D01*
X184014500Y-104008459D01*
X184014500Y-104205541D01*
X184014500Y-104205543D01*
X184014499Y-104205543D01*
X183475500Y-104205543D01*
X183475500Y-104008456D01*
X183437052Y-103815170D01*
X183437051Y-103815169D01*
X183437051Y-103815165D01*
X183429500Y-103796935D01*
X183361635Y-103633092D01*
X183361628Y-103633079D01*
X183252139Y-103469218D01*
X183252136Y-103469214D01*
X183112785Y-103329863D01*
X183112781Y-103329860D01*
X182948920Y-103220371D01*
X182948907Y-103220364D01*
X182766839Y-103144950D01*
X182766829Y-103144947D01*
X182573543Y-103106500D01*
X182573541Y-103106500D01*
X182376459Y-103106500D01*
X182376457Y-103106500D01*
X182183170Y-103144947D01*
X182183160Y-103144950D01*
X182001092Y-103220364D01*
X182001079Y-103220371D01*
X181837218Y-103329860D01*
X181837214Y-103329863D01*
X181697863Y-103469214D01*
X181697860Y-103469218D01*
X181588371Y-103633079D01*
X181588364Y-103633092D01*
X181512950Y-103815160D01*
X181512947Y-103815170D01*
X181474500Y-104008456D01*
X181474500Y-104008459D01*
X181474500Y-104205541D01*
X181474500Y-104205543D01*
X181474499Y-104205543D01*
X180935500Y-104205543D01*
X180935500Y-104008456D01*
X180897052Y-103815170D01*
X180897051Y-103815169D01*
X180897051Y-103815165D01*
X180889500Y-103796935D01*
X180821635Y-103633092D01*
X180821628Y-103633079D01*
X180712139Y-103469218D01*
X180712136Y-103469214D01*
X180572785Y-103329863D01*
X180572781Y-103329860D01*
X180408920Y-103220371D01*
X180408907Y-103220364D01*
X180226839Y-103144950D01*
X180226829Y-103144947D01*
X180033543Y-103106500D01*
X180033541Y-103106500D01*
X179836459Y-103106500D01*
X179836457Y-103106500D01*
X179643170Y-103144947D01*
X179643160Y-103144950D01*
X179461092Y-103220364D01*
X179461079Y-103220371D01*
X179297218Y-103329860D01*
X179297214Y-103329863D01*
X179157863Y-103469214D01*
X179157860Y-103469218D01*
X179048371Y-103633079D01*
X179048364Y-103633092D01*
X178972950Y-103815160D01*
X178972947Y-103815170D01*
X178934500Y-104008456D01*
X178934500Y-104008459D01*
X178934500Y-104205541D01*
X178934500Y-104205543D01*
X178934499Y-104205543D01*
X178395500Y-104205543D01*
X178395500Y-104008456D01*
X178357052Y-103815170D01*
X178357051Y-103815169D01*
X178357051Y-103815165D01*
X178349500Y-103796935D01*
X178281635Y-103633092D01*
X178281628Y-103633079D01*
X178172139Y-103469218D01*
X178172136Y-103469214D01*
X178032785Y-103329863D01*
X178032781Y-103329860D01*
X177868920Y-103220371D01*
X177868907Y-103220364D01*
X177686839Y-103144950D01*
X177686829Y-103144947D01*
X177493543Y-103106500D01*
X177493541Y-103106500D01*
X177296459Y-103106500D01*
X177296457Y-103106500D01*
X177103170Y-103144947D01*
X177103160Y-103144950D01*
X176921092Y-103220364D01*
X176921079Y-103220371D01*
X176757218Y-103329860D01*
X176757214Y-103329863D01*
X176617863Y-103469214D01*
X176617860Y-103469218D01*
X176508371Y-103633079D01*
X176508364Y-103633092D01*
X176432950Y-103815160D01*
X176432947Y-103815170D01*
X176394500Y-104008456D01*
X176394500Y-104008459D01*
X176394500Y-104205541D01*
X176394500Y-104205543D01*
X176394499Y-104205543D01*
X175855500Y-104205543D01*
X175855500Y-104008456D01*
X175817052Y-103815170D01*
X175817051Y-103815169D01*
X175817051Y-103815165D01*
X175809500Y-103796935D01*
X175741635Y-103633092D01*
X175741628Y-103633079D01*
X175632139Y-103469218D01*
X175632136Y-103469214D01*
X175492785Y-103329863D01*
X175492781Y-103329860D01*
X175328920Y-103220371D01*
X175328907Y-103220364D01*
X175146839Y-103144950D01*
X175146829Y-103144947D01*
X174953543Y-103106500D01*
X174953541Y-103106500D01*
X174756459Y-103106500D01*
X174756457Y-103106500D01*
X174563170Y-103144947D01*
X174563160Y-103144950D01*
X174381092Y-103220364D01*
X174381079Y-103220371D01*
X174217218Y-103329860D01*
X174217214Y-103329863D01*
X174073553Y-103473525D01*
X174071885Y-103471857D01*
X174022746Y-103505299D01*
X173952901Y-103507139D01*
X173893148Y-103470926D01*
X173887821Y-103464694D01*
X173881982Y-103457388D01*
X173855489Y-103411500D01*
X173845465Y-103394138D01*
X173784862Y-103333535D01*
X173784859Y-103333533D01*
X173172862Y-102721535D01*
X173135750Y-102700108D01*
X173098640Y-102678682D01*
X173057246Y-102667591D01*
X173015853Y-102656500D01*
X173015852Y-102656500D01*
X171071188Y-102656500D01*
X171004149Y-102636815D01*
X170983507Y-102620181D01*
X170634863Y-102271537D01*
X170634861Y-102271535D01*
X170579410Y-102239520D01*
X170560639Y-102228682D01*
X170488854Y-102209448D01*
X170477852Y-102206500D01*
X170477851Y-102206500D01*
X164181585Y-102206500D01*
X164114546Y-102186815D01*
X164093904Y-102170181D01*
X162554319Y-100630596D01*
X162520834Y-100569273D01*
X162518000Y-100542915D01*
X162518000Y-96779290D01*
X162936847Y-96779290D01*
X162936847Y-96937404D01*
X162976173Y-97084169D01*
X162977770Y-97090130D01*
X162977773Y-97090137D01*
X163056822Y-97227056D01*
X163056828Y-97227064D01*
X163174378Y-97344614D01*
X163172132Y-97346859D01*
X163204526Y-97391202D01*
X163211847Y-97433177D01*
X163211847Y-100253494D01*
X163211847Y-100339200D01*
X163216005Y-100354717D01*
X163234029Y-100421987D01*
X163243379Y-100438181D01*
X163276882Y-100496209D01*
X163841138Y-101060465D01*
X163915361Y-101103318D01*
X163998147Y-101125500D01*
X187473813Y-101125500D01*
X187540852Y-101145185D01*
X187586607Y-101197989D01*
X187596551Y-101267147D01*
X187581201Y-101311499D01*
X187503423Y-101446215D01*
X187503423Y-101446216D01*
X187462500Y-101598943D01*
X187462500Y-101757057D01*
X187487905Y-101851868D01*
X187503423Y-101909783D01*
X187503426Y-101909790D01*
X187582475Y-102046709D01*
X187582479Y-102046714D01*
X187582480Y-102046716D01*
X187694284Y-102158520D01*
X187694286Y-102158521D01*
X187694290Y-102158524D01*
X187815809Y-102228682D01*
X187831216Y-102237577D01*
X187983943Y-102278500D01*
X187983945Y-102278500D01*
X188150185Y-102278500D01*
X188150185Y-102281008D01*
X188206771Y-102289823D01*
X188241621Y-102314324D01*
X189109158Y-103181861D01*
X189109159Y-103181862D01*
X189169762Y-103242465D01*
X189169764Y-103242466D01*
X189169768Y-103242469D01*
X189213666Y-103267813D01*
X189243986Y-103285318D01*
X189243993Y-103285320D01*
X189251493Y-103288427D01*
X189250977Y-103289671D01*
X189303375Y-103321609D01*
X189333905Y-103384456D01*
X189325611Y-103453832D01*
X189314724Y-103473910D01*
X189208374Y-103633074D01*
X189208364Y-103633092D01*
X189132950Y-103815160D01*
X189132947Y-103815170D01*
X189094500Y-104008456D01*
X189094500Y-104008459D01*
X189094500Y-104205541D01*
X189094500Y-104205543D01*
X189094499Y-104205543D01*
X189132947Y-104398829D01*
X189132950Y-104398839D01*
X189208364Y-104580907D01*
X189208371Y-104580920D01*
X189317860Y-104744781D01*
X189317863Y-104744785D01*
X189457214Y-104884136D01*
X189457218Y-104884139D01*
X189621079Y-104993628D01*
X189621092Y-104993635D01*
X189778950Y-105059021D01*
X189803165Y-105069051D01*
X189803169Y-105069051D01*
X189803170Y-105069052D01*
X189996456Y-105107500D01*
X189996459Y-105107500D01*
X190193543Y-105107500D01*
X190323582Y-105081632D01*
X190386835Y-105069051D01*
X190546983Y-105002716D01*
X190568907Y-104993635D01*
X190568907Y-104993634D01*
X190568914Y-104993632D01*
X190732782Y-104884139D01*
X190761615Y-104855306D01*
X190827819Y-104789103D01*
X190889142Y-104755618D01*
X190958834Y-104760602D01*
X191014767Y-104802474D01*
X191039184Y-104867938D01*
X191039500Y-104876784D01*
X191039500Y-111790169D01*
X191019815Y-111857208D01*
X191000982Y-111877684D01*
X191002031Y-111878733D01*
X190884481Y-111996282D01*
X190884475Y-111996290D01*
X190805426Y-112133209D01*
X190805423Y-112133216D01*
X190764500Y-112285943D01*
X190764500Y-112444057D01*
X190792731Y-112549414D01*
X190805423Y-112596783D01*
X190805426Y-112596790D01*
X190884475Y-112733709D01*
X190884479Y-112733714D01*
X190884480Y-112733716D01*
X190996284Y-112845520D01*
X190996286Y-112845521D01*
X190996290Y-112845524D01*
X191089831Y-112899529D01*
X191133216Y-112924577D01*
X191285943Y-112965500D01*
X191285945Y-112965500D01*
X191444055Y-112965500D01*
X191444057Y-112965500D01*
X191596784Y-112924577D01*
X191733716Y-112845520D01*
X191845520Y-112733716D01*
X191845520Y-112733715D01*
X191851267Y-112727969D01*
X191853512Y-112730214D01*
X191897855Y-112697821D01*
X191939830Y-112690500D01*
X198755851Y-112690500D01*
X198755853Y-112690500D01*
X198838639Y-112668318D01*
X198912862Y-112625465D01*
X200060465Y-111477862D01*
X200103318Y-111403639D01*
X200125500Y-111320853D01*
X200125500Y-111235147D01*
X200125500Y-108775332D01*
X205344500Y-108775332D01*
X205344500Y-110211562D01*
X205346683Y-110219709D01*
X205364979Y-110287991D01*
X205370825Y-110298115D01*
X205370826Y-110298117D01*
X205404537Y-110356507D01*
X205404539Y-110356510D01*
X205404540Y-110356511D01*
X205704540Y-110656511D01*
X205760489Y-110712460D01*
X205776627Y-110721777D01*
X205787965Y-110733115D01*
X205800198Y-110739422D01*
X205822015Y-110767165D01*
X205856378Y-110826684D01*
X205872851Y-110894585D01*
X205849998Y-110960611D01*
X205817883Y-110991785D01*
X205771285Y-111022921D01*
X205771279Y-111022926D01*
X205645926Y-111148279D01*
X205645923Y-111148283D01*
X205547433Y-111295683D01*
X205547428Y-111295693D01*
X205479587Y-111459476D01*
X205479584Y-111459483D01*
X205477096Y-111472000D01*
X206545272Y-111472000D01*
X206453386Y-111510060D01*
X206383060Y-111580386D01*
X206345000Y-111672272D01*
X206345000Y-111771728D01*
X206383060Y-111863614D01*
X206453386Y-111933940D01*
X206545272Y-111972000D01*
X205477096Y-111972000D01*
X205479584Y-111984516D01*
X205479587Y-111984523D01*
X205547428Y-112148306D01*
X205547433Y-112148316D01*
X205645923Y-112295716D01*
X205645926Y-112295720D01*
X205771279Y-112421073D01*
X205771283Y-112421076D01*
X205817882Y-112452213D01*
X205862687Y-112505825D01*
X205871394Y-112575150D01*
X205856379Y-112617314D01*
X205785423Y-112740215D01*
X205785423Y-112740216D01*
X205744500Y-112892943D01*
X205744500Y-113051057D01*
X205777233Y-113173216D01*
X205785423Y-113203783D01*
X205785426Y-113203790D01*
X205864475Y-113340709D01*
X205864479Y-113340714D01*
X205864480Y-113340716D01*
X205976284Y-113452520D01*
X205976285Y-113452521D01*
X205976287Y-113452522D01*
X206040531Y-113489613D01*
X206088746Y-113540179D01*
X206101970Y-113608786D01*
X206076002Y-113673651D01*
X206040531Y-113704387D01*
X205976287Y-113741477D01*
X205976282Y-113741481D01*
X205864481Y-113853282D01*
X205864475Y-113853290D01*
X205785426Y-113990209D01*
X205785423Y-113990216D01*
X205744500Y-114142943D01*
X205744500Y-114301057D01*
X205778244Y-114426989D01*
X205785423Y-114453783D01*
X205785426Y-114453790D01*
X205864475Y-114590709D01*
X205864479Y-114590714D01*
X205864480Y-114590716D01*
X205976284Y-114702520D01*
X205976286Y-114702521D01*
X205976290Y-114702524D01*
X206099436Y-114773621D01*
X206113216Y-114781577D01*
X206265943Y-114822500D01*
X206265945Y-114822500D01*
X206924055Y-114822500D01*
X206924057Y-114822500D01*
X207076784Y-114781577D01*
X207213716Y-114702520D01*
X207325520Y-114590716D01*
X207404577Y-114453784D01*
X207445500Y-114301057D01*
X207445500Y-114142943D01*
X207404577Y-113990216D01*
X207404573Y-113990209D01*
X207325524Y-113853290D01*
X207325518Y-113853282D01*
X207213715Y-113741479D01*
X207186353Y-113725682D01*
X207149467Y-113704386D01*
X207101253Y-113653821D01*
X207088029Y-113585214D01*
X207113997Y-113520349D01*
X207149468Y-113489613D01*
X207213716Y-113452520D01*
X207325520Y-113340716D01*
X207404577Y-113203784D01*
X207445500Y-113051057D01*
X207445500Y-112892943D01*
X207404577Y-112740216D01*
X207400820Y-112733709D01*
X207333621Y-112617314D01*
X207317148Y-112549414D01*
X207340001Y-112483387D01*
X207372118Y-112452212D01*
X207418719Y-112421074D01*
X207544073Y-112295720D01*
X207544076Y-112295716D01*
X207581943Y-112239046D01*
X207642566Y-112148316D01*
X207642571Y-112148306D01*
X207710412Y-111984523D01*
X207710415Y-111984516D01*
X207712904Y-111972000D01*
X206644728Y-111972000D01*
X206736614Y-111933940D01*
X206806940Y-111863614D01*
X206814650Y-111845000D01*
X217789898Y-111845000D01*
X218835988Y-111845000D01*
X218803075Y-111902007D01*
X218769000Y-112029174D01*
X218769000Y-112160826D01*
X218803075Y-112287993D01*
X218835988Y-112345000D01*
X217789898Y-112345000D01*
X217805934Y-112446247D01*
X217878897Y-112670802D01*
X217986085Y-112881171D01*
X218124866Y-113072186D01*
X218291813Y-113239133D01*
X218482828Y-113377914D01*
X218693197Y-113485102D01*
X218917752Y-113558065D01*
X218917751Y-113558065D01*
X219150948Y-113595000D01*
X219769000Y-113595000D01*
X219769000Y-112595000D01*
X220269000Y-112595000D01*
X220269000Y-113595000D01*
X220887052Y-113595000D01*
X221120247Y-113558065D01*
X221344802Y-113485102D01*
X221555171Y-113377914D01*
X221746186Y-113239133D01*
X221913133Y-113072186D01*
X222051914Y-112881171D01*
X222159102Y-112670802D01*
X222232065Y-112446247D01*
X222248102Y-112345000D01*
X221202012Y-112345000D01*
X221234925Y-112287993D01*
X221269000Y-112160826D01*
X221269000Y-112029174D01*
X221234925Y-111902007D01*
X221202012Y-111845000D01*
X222248102Y-111845000D01*
X222232065Y-111743752D01*
X222159102Y-111519197D01*
X222051914Y-111308828D01*
X221913133Y-111117813D01*
X221746186Y-110950866D01*
X221555171Y-110812085D01*
X221344802Y-110704897D01*
X221120247Y-110631934D01*
X221120248Y-110631934D01*
X220887052Y-110595000D01*
X220269000Y-110595000D01*
X220269000Y-111595000D01*
X219769000Y-111595000D01*
X219769000Y-110595000D01*
X219150948Y-110595000D01*
X218917752Y-110631934D01*
X218693197Y-110704897D01*
X218482828Y-110812085D01*
X218291813Y-110950866D01*
X218124866Y-111117813D01*
X217986085Y-111308828D01*
X217878897Y-111519197D01*
X217805934Y-111743752D01*
X217789898Y-111845000D01*
X206814650Y-111845000D01*
X206845000Y-111771728D01*
X206845000Y-111672272D01*
X206806940Y-111580386D01*
X206736614Y-111510060D01*
X206644728Y-111472000D01*
X207712904Y-111472000D01*
X207710415Y-111459483D01*
X207710412Y-111459476D01*
X207642571Y-111295693D01*
X207642566Y-111295683D01*
X207544076Y-111148283D01*
X207544073Y-111148279D01*
X207418720Y-111022926D01*
X207418716Y-111022923D01*
X207372117Y-110991786D01*
X207327312Y-110938173D01*
X207318605Y-110868848D01*
X207333621Y-110826684D01*
X207334582Y-110825020D01*
X207404577Y-110703784D01*
X207445500Y-110551057D01*
X207445500Y-110392943D01*
X207404577Y-110240216D01*
X207404573Y-110240209D01*
X207325524Y-110103290D01*
X207325518Y-110103282D01*
X207213717Y-109991481D01*
X207208331Y-109987348D01*
X207167130Y-109930919D01*
X207162977Y-109861173D01*
X207197191Y-109800253D01*
X207227522Y-109778491D01*
X207283342Y-109750050D01*
X207373050Y-109660342D01*
X207430646Y-109547304D01*
X207430646Y-109547302D01*
X207430647Y-109547301D01*
X207445499Y-109453524D01*
X207445500Y-109453519D01*
X207445499Y-108990482D01*
X207430646Y-108896696D01*
X207373050Y-108783658D01*
X207373046Y-108783654D01*
X207373045Y-108783652D01*
X207332936Y-108743543D01*
X213668499Y-108743543D01*
X213706947Y-108936829D01*
X213706950Y-108936839D01*
X213782364Y-109118907D01*
X213782371Y-109118920D01*
X213891860Y-109282781D01*
X213891863Y-109282785D01*
X214031214Y-109422136D01*
X214031218Y-109422139D01*
X214195079Y-109531628D01*
X214195092Y-109531635D01*
X214328996Y-109587099D01*
X214377165Y-109607051D01*
X214377169Y-109607051D01*
X214377170Y-109607052D01*
X214570456Y-109645500D01*
X214570459Y-109645500D01*
X214767543Y-109645500D01*
X214897582Y-109619632D01*
X214960835Y-109607051D01*
X215142914Y-109531632D01*
X215306782Y-109422139D01*
X215446139Y-109282782D01*
X215555632Y-109118914D01*
X215631051Y-108936835D01*
X215661520Y-108783658D01*
X215669500Y-108743543D01*
X215669500Y-108546456D01*
X215631052Y-108353170D01*
X215631051Y-108353169D01*
X215631051Y-108353165D01*
X215589622Y-108253145D01*
X215555635Y-108171092D01*
X215555628Y-108171079D01*
X215446139Y-108007218D01*
X215446136Y-108007214D01*
X215306785Y-107867863D01*
X215306781Y-107867860D01*
X215142920Y-107758371D01*
X215142907Y-107758364D01*
X214960839Y-107682950D01*
X214960829Y-107682947D01*
X214767543Y-107644500D01*
X214767541Y-107644500D01*
X214570459Y-107644500D01*
X214570457Y-107644500D01*
X214377170Y-107682947D01*
X214377160Y-107682950D01*
X214195092Y-107758364D01*
X214195079Y-107758371D01*
X214031218Y-107867860D01*
X214031214Y-107867863D01*
X213891863Y-108007214D01*
X213891860Y-108007218D01*
X213782371Y-108171079D01*
X213782364Y-108171092D01*
X213706950Y-108353160D01*
X213706947Y-108353170D01*
X213668500Y-108546456D01*
X213668500Y-108546459D01*
X213668500Y-108743541D01*
X213668500Y-108743543D01*
X213668499Y-108743543D01*
X207332936Y-108743543D01*
X207283347Y-108693954D01*
X207283344Y-108693952D01*
X207283342Y-108693950D01*
X207223112Y-108663261D01*
X207214958Y-108659106D01*
X207214956Y-108659105D01*
X207170304Y-108636354D01*
X207076519Y-108621500D01*
X207008310Y-108621500D01*
X206997298Y-108619496D01*
X206975675Y-108608631D01*
X206952461Y-108601815D01*
X206945021Y-108593229D01*
X206934867Y-108588127D01*
X206922549Y-108567295D01*
X206906706Y-108549011D01*
X206903776Y-108535547D01*
X206899305Y-108527984D01*
X206899718Y-108516889D01*
X206895500Y-108497500D01*
X206895500Y-106563833D01*
X206915185Y-106496794D01*
X206931819Y-106476152D01*
X206965289Y-106442682D01*
X215869000Y-106442682D01*
X215869000Y-106647317D01*
X215901009Y-106849417D01*
X215964244Y-107044031D01*
X216057141Y-107226350D01*
X216057147Y-107226359D01*
X216089523Y-107270921D01*
X216089524Y-107270922D01*
X216726861Y-106633584D01*
X216749667Y-106718694D01*
X216808910Y-106821306D01*
X216892694Y-106905090D01*
X216995306Y-106964333D01*
X217080414Y-106987137D01*
X216443076Y-107624474D01*
X216487653Y-107656861D01*
X216504234Y-107665310D01*
X216555029Y-107713284D01*
X216571824Y-107781105D01*
X216549286Y-107847240D01*
X216534840Y-107862868D01*
X216535525Y-107863553D01*
X216391863Y-108007214D01*
X216391860Y-108007218D01*
X216282371Y-108171079D01*
X216282364Y-108171092D01*
X216206950Y-108353160D01*
X216206947Y-108353170D01*
X216168500Y-108546456D01*
X216168500Y-108546459D01*
X216168500Y-108743541D01*
X216168500Y-108743543D01*
X216168499Y-108743543D01*
X216206947Y-108936829D01*
X216206950Y-108936839D01*
X216282364Y-109118907D01*
X216282371Y-109118920D01*
X216391860Y-109282781D01*
X216391863Y-109282785D01*
X216531214Y-109422136D01*
X216531218Y-109422139D01*
X216695079Y-109531628D01*
X216695092Y-109531635D01*
X216828996Y-109587099D01*
X216877165Y-109607051D01*
X216877169Y-109607051D01*
X216877170Y-109607052D01*
X217070456Y-109645500D01*
X217070459Y-109645500D01*
X217267543Y-109645500D01*
X217397582Y-109619632D01*
X217460835Y-109607051D01*
X217642914Y-109531632D01*
X217806782Y-109422139D01*
X217946139Y-109282782D01*
X218055632Y-109118914D01*
X218131051Y-108936835D01*
X218161520Y-108783658D01*
X218169500Y-108743543D01*
X218169500Y-108546456D01*
X218131052Y-108353170D01*
X218131051Y-108353169D01*
X218131051Y-108353165D01*
X218089622Y-108253145D01*
X218055635Y-108171092D01*
X218055628Y-108171079D01*
X217946139Y-108007218D01*
X217946136Y-108007214D01*
X217802475Y-107863553D01*
X217804498Y-107861529D01*
X217772053Y-107813875D01*
X217770198Y-107744030D01*
X217806399Y-107684270D01*
X217833767Y-107665309D01*
X217850346Y-107656861D01*
X217850347Y-107656861D01*
X217894921Y-107624474D01*
X217257585Y-106987138D01*
X217342694Y-106964333D01*
X217445306Y-106905090D01*
X217529090Y-106821306D01*
X217588333Y-106718694D01*
X217611138Y-106633585D01*
X218248474Y-107270921D01*
X218280859Y-107226349D01*
X218373755Y-107044031D01*
X218436990Y-106849417D01*
X218469000Y-106647317D01*
X218469000Y-106442682D01*
X218436990Y-106240582D01*
X218373755Y-106045968D01*
X218280859Y-105863650D01*
X218248474Y-105819077D01*
X218248474Y-105819076D01*
X217611137Y-106456413D01*
X217588333Y-106371306D01*
X217529090Y-106268694D01*
X217445306Y-106184910D01*
X217342694Y-106125667D01*
X217257584Y-106102861D01*
X217894921Y-105465525D01*
X217894921Y-105465522D01*
X217850359Y-105433147D01*
X217850350Y-105433141D01*
X217668031Y-105340244D01*
X217473417Y-105277009D01*
X217271317Y-105245000D01*
X217066683Y-105245000D01*
X216864582Y-105277009D01*
X216669968Y-105340244D01*
X216487644Y-105433143D01*
X216443077Y-105465523D01*
X216443077Y-105465524D01*
X217080415Y-106102861D01*
X216995306Y-106125667D01*
X216892694Y-106184910D01*
X216808910Y-106268694D01*
X216749667Y-106371306D01*
X216726861Y-106456414D01*
X216089524Y-105819077D01*
X216089523Y-105819077D01*
X216057143Y-105863644D01*
X215964244Y-106045968D01*
X215901009Y-106240582D01*
X215869000Y-106442682D01*
X206965289Y-106442682D01*
X207953152Y-105454819D01*
X208014475Y-105421334D01*
X208040833Y-105418500D01*
X216035560Y-105418500D01*
X216035562Y-105418500D01*
X216111989Y-105398021D01*
X216111992Y-105398019D01*
X216111993Y-105398019D01*
X216180504Y-105358464D01*
X216180503Y-105358464D01*
X216180511Y-105358460D01*
X216236460Y-105302511D01*
X216557152Y-104981819D01*
X216618475Y-104948334D01*
X216644833Y-104945500D01*
X217988750Y-104945500D01*
X217988751Y-104945499D01*
X218003568Y-104942552D01*
X218047229Y-104933868D01*
X218047229Y-104933867D01*
X218047231Y-104933867D01*
X218113552Y-104889552D01*
X218157867Y-104823231D01*
X218157867Y-104823229D01*
X218157868Y-104823229D01*
X218167844Y-104773071D01*
X218169500Y-104764748D01*
X218169500Y-103125252D01*
X218169500Y-103125249D01*
X218169499Y-103125247D01*
X218157868Y-103066770D01*
X218157867Y-103066769D01*
X218113552Y-103000447D01*
X218047230Y-102956132D01*
X218047229Y-102956131D01*
X217988752Y-102944500D01*
X217988748Y-102944500D01*
X217966309Y-102944500D01*
X217899270Y-102924815D01*
X217878628Y-102908181D01*
X217257585Y-102287138D01*
X217342694Y-102264333D01*
X217445306Y-102205090D01*
X217529090Y-102121306D01*
X217588333Y-102018694D01*
X217611138Y-101933585D01*
X218248474Y-102570921D01*
X218280859Y-102526349D01*
X218373755Y-102344031D01*
X218436990Y-102149417D01*
X218469000Y-101947317D01*
X218469000Y-101742682D01*
X218436990Y-101540582D01*
X218373755Y-101345968D01*
X218280859Y-101163650D01*
X218248474Y-101119077D01*
X218248474Y-101119076D01*
X217611137Y-101756413D01*
X217588333Y-101671306D01*
X217529090Y-101568694D01*
X217445306Y-101484910D01*
X217342694Y-101425667D01*
X217257584Y-101402861D01*
X217894922Y-100765524D01*
X217894921Y-100765523D01*
X217850359Y-100733147D01*
X217850350Y-100733141D01*
X217668031Y-100640244D01*
X217473417Y-100577009D01*
X217271317Y-100545000D01*
X217066683Y-100545000D01*
X216864582Y-100577009D01*
X216669968Y-100640244D01*
X216487644Y-100733143D01*
X216443077Y-100765523D01*
X216443077Y-100765524D01*
X217080415Y-101402861D01*
X216995306Y-101425667D01*
X216892694Y-101484910D01*
X216808910Y-101568694D01*
X216749667Y-101671306D01*
X216726861Y-101756414D01*
X216089524Y-101119077D01*
X216089523Y-101119077D01*
X216057143Y-101163644D01*
X215964244Y-101345968D01*
X215901009Y-101540582D01*
X215888856Y-101617318D01*
X215858927Y-101680453D01*
X215799615Y-101717384D01*
X215729752Y-101716386D01*
X215671520Y-101677776D01*
X215644766Y-101622112D01*
X215631052Y-101553170D01*
X215631051Y-101553169D01*
X215631051Y-101553165D01*
X215620300Y-101527209D01*
X215555635Y-101371092D01*
X215555628Y-101371079D01*
X215446139Y-101207218D01*
X215446136Y-101207214D01*
X215306785Y-101067863D01*
X215306781Y-101067860D01*
X215142920Y-100958371D01*
X215142907Y-100958364D01*
X215068016Y-100927344D01*
X214960839Y-100882950D01*
X214960829Y-100882947D01*
X214767543Y-100844500D01*
X214767541Y-100844500D01*
X214570459Y-100844500D01*
X214570457Y-100844500D01*
X214377170Y-100882947D01*
X214377160Y-100882950D01*
X214195092Y-100958364D01*
X214195079Y-100958371D01*
X214031218Y-101067860D01*
X214031214Y-101067863D01*
X213891863Y-101207214D01*
X213891860Y-101207218D01*
X213782371Y-101371079D01*
X213782364Y-101371092D01*
X213706950Y-101553160D01*
X213706947Y-101553170D01*
X213668500Y-101746456D01*
X213668500Y-101746459D01*
X213668500Y-101943541D01*
X213668500Y-101943543D01*
X213668499Y-101943543D01*
X213706947Y-102136829D01*
X213706950Y-102136839D01*
X213782364Y-102318907D01*
X213782371Y-102318920D01*
X213891860Y-102482781D01*
X213891863Y-102482785D01*
X214031217Y-102622139D01*
X214179975Y-102721535D01*
X214195086Y-102731632D01*
X214291953Y-102771755D01*
X214346355Y-102815594D01*
X214368421Y-102881888D01*
X214368500Y-102886315D01*
X214368500Y-104234167D01*
X214359855Y-104263607D01*
X214353332Y-104293594D01*
X214349577Y-104298609D01*
X214348815Y-104301206D01*
X214332181Y-104321848D01*
X214272848Y-104381181D01*
X214211525Y-104414666D01*
X214185167Y-104417500D01*
X207571438Y-104417500D01*
X207533224Y-104427739D01*
X207495009Y-104437979D01*
X207495008Y-104437980D01*
X207437988Y-104470901D01*
X207426492Y-104477538D01*
X207426486Y-104477542D01*
X205954541Y-105949487D01*
X205954535Y-105949495D01*
X205914982Y-106018004D01*
X205914979Y-106018009D01*
X205914718Y-106018984D01*
X205895455Y-106090876D01*
X205894500Y-106094439D01*
X205894500Y-108089061D01*
X205874815Y-108156100D01*
X205858181Y-108176742D01*
X205404541Y-108630381D01*
X205404535Y-108630389D01*
X205364982Y-108698898D01*
X205364979Y-108698903D01*
X205353018Y-108743543D01*
X205344500Y-108775332D01*
X200125500Y-108775332D01*
X200125500Y-99565685D01*
X200145185Y-99498646D01*
X200197989Y-99452891D01*
X200267147Y-99442947D01*
X200285246Y-99447913D01*
X200285365Y-99447473D01*
X200293214Y-99449576D01*
X200293216Y-99449577D01*
X200445943Y-99490500D01*
X200445945Y-99490500D01*
X200604055Y-99490500D01*
X200604057Y-99490500D01*
X200756784Y-99449577D01*
X200893716Y-99370520D01*
X201005520Y-99258716D01*
X201084577Y-99121784D01*
X201125500Y-98969057D01*
X201125500Y-98810943D01*
X201084577Y-98658216D01*
X201084573Y-98658209D01*
X201084572Y-98658206D01*
X201005524Y-98521290D01*
X201005518Y-98521282D01*
X200893717Y-98409481D01*
X200893709Y-98409475D01*
X200756790Y-98330426D01*
X200756786Y-98330424D01*
X200756785Y-98330423D01*
X200756784Y-98330423D01*
X200667405Y-98306474D01*
X200643625Y-98291979D01*
X200618297Y-98280412D01*
X200614206Y-98274046D01*
X200607745Y-98270108D01*
X200595578Y-98245060D01*
X200592474Y-98240231D01*
X200586706Y-98233574D01*
X200585943Y-98230068D01*
X200580523Y-98221634D01*
X200578977Y-98210885D01*
X200577217Y-98207261D01*
X200575500Y-98186699D01*
X200575500Y-98145000D01*
X217789898Y-98145000D01*
X218835988Y-98145000D01*
X218803075Y-98202007D01*
X218769000Y-98329174D01*
X218769000Y-98460826D01*
X218803075Y-98587993D01*
X218835988Y-98645000D01*
X217789898Y-98645000D01*
X217805934Y-98746247D01*
X217878897Y-98970802D01*
X217986085Y-99181171D01*
X218124866Y-99372186D01*
X218291813Y-99539133D01*
X218482828Y-99677914D01*
X218693197Y-99785102D01*
X218917752Y-99858065D01*
X218917751Y-99858065D01*
X219150948Y-99895000D01*
X219769000Y-99895000D01*
X219769000Y-98895000D01*
X220269000Y-98895000D01*
X220269000Y-99895000D01*
X220887052Y-99895000D01*
X221120247Y-99858065D01*
X221344802Y-99785102D01*
X221555171Y-99677914D01*
X221746186Y-99539133D01*
X221913133Y-99372186D01*
X222051914Y-99181171D01*
X222159102Y-98970802D01*
X222232065Y-98746247D01*
X222248102Y-98645000D01*
X221202012Y-98645000D01*
X221234925Y-98587993D01*
X221269000Y-98460826D01*
X221269000Y-98329174D01*
X221234925Y-98202007D01*
X221202012Y-98145000D01*
X222248102Y-98145000D01*
X222232065Y-98043752D01*
X222159102Y-97819197D01*
X222051914Y-97608828D01*
X221913133Y-97417813D01*
X221746186Y-97250866D01*
X221555171Y-97112085D01*
X221344802Y-97004897D01*
X221120247Y-96931934D01*
X221120248Y-96931934D01*
X220887052Y-96895000D01*
X220269000Y-96895000D01*
X220269000Y-97895000D01*
X219769000Y-97895000D01*
X219769000Y-96895000D01*
X219150948Y-96895000D01*
X218917752Y-96931934D01*
X218693197Y-97004897D01*
X218482828Y-97112085D01*
X218291813Y-97250866D01*
X218124866Y-97417813D01*
X217986085Y-97608828D01*
X217878897Y-97819197D01*
X217805934Y-98043752D01*
X217789898Y-98145000D01*
X200575500Y-98145000D01*
X200575500Y-91610602D01*
X210944500Y-91610602D01*
X210944500Y-91879397D01*
X210979582Y-92145880D01*
X210979583Y-92145885D01*
X210979584Y-92145891D01*
X210979585Y-92145893D01*
X211049152Y-92405524D01*
X211152011Y-92653850D01*
X211152019Y-92653866D01*
X211192550Y-92724066D01*
X211286413Y-92886641D01*
X211286415Y-92886644D01*
X211286416Y-92886645D01*
X211450042Y-93099888D01*
X211450048Y-93099895D01*
X211640104Y-93289951D01*
X211640111Y-93289957D01*
X211678331Y-93319284D01*
X211853359Y-93453587D01*
X212002968Y-93539964D01*
X212086133Y-93587980D01*
X212086149Y-93587988D01*
X212241008Y-93652132D01*
X212334474Y-93690847D01*
X212594109Y-93760416D01*
X212782319Y-93785193D01*
X212860602Y-93795500D01*
X212860603Y-93795500D01*
X213129398Y-93795500D01*
X213189905Y-93787534D01*
X213395891Y-93760416D01*
X213655526Y-93690847D01*
X213853260Y-93608943D01*
X213903850Y-93587988D01*
X213903853Y-93587986D01*
X213903859Y-93587984D01*
X214136641Y-93453587D01*
X214349890Y-93289956D01*
X214539956Y-93099890D01*
X214703587Y-92886641D01*
X214837984Y-92653859D01*
X214841853Y-92644520D01*
X214863417Y-92592457D01*
X214940847Y-92405526D01*
X215010416Y-92145891D01*
X215045500Y-91879397D01*
X215045500Y-91610603D01*
X215044686Y-91604423D01*
X215023277Y-91441803D01*
X215010416Y-91344109D01*
X214940847Y-91084474D01*
X214874701Y-90924784D01*
X214837988Y-90836149D01*
X214837980Y-90836133D01*
X214776411Y-90729494D01*
X214703587Y-90603359D01*
X214539956Y-90390110D01*
X214539951Y-90390104D01*
X214349895Y-90200048D01*
X214349888Y-90200042D01*
X214136645Y-90036416D01*
X214136644Y-90036415D01*
X214136641Y-90036413D01*
X213992904Y-89953426D01*
X213903866Y-89902019D01*
X213903850Y-89902011D01*
X213655524Y-89799152D01*
X213521654Y-89763282D01*
X213395891Y-89729584D01*
X213395885Y-89729583D01*
X213395880Y-89729582D01*
X213129398Y-89694500D01*
X213129397Y-89694500D01*
X212860603Y-89694500D01*
X212860602Y-89694500D01*
X212594119Y-89729582D01*
X212594112Y-89729583D01*
X212594109Y-89729584D01*
X212539239Y-89744286D01*
X212334475Y-89799152D01*
X212086149Y-89902011D01*
X212086133Y-89902019D01*
X211898610Y-90010287D01*
X211860170Y-90032481D01*
X211853354Y-90036416D01*
X211640111Y-90200042D01*
X211640104Y-90200048D01*
X211450048Y-90390104D01*
X211450042Y-90390111D01*
X211286416Y-90603354D01*
X211152019Y-90836133D01*
X211152011Y-90836149D01*
X211049152Y-91084475D01*
X210979585Y-91344106D01*
X210979582Y-91344119D01*
X210944500Y-91610602D01*
X200575500Y-91610602D01*
X200575500Y-85363855D01*
X200575501Y-85363842D01*
X200575501Y-85268149D01*
X200575247Y-85267200D01*
X200553318Y-85185362D01*
X200515816Y-85120407D01*
X200510465Y-85111138D01*
X200449862Y-85050535D01*
X200449859Y-85050533D01*
X199936862Y-84537535D01*
X199898539Y-84515409D01*
X199862640Y-84494682D01*
X199821246Y-84483591D01*
X199779853Y-84472500D01*
X199779852Y-84472500D01*
X194977830Y-84472500D01*
X194910791Y-84452815D01*
X194890320Y-84433977D01*
X194889267Y-84435031D01*
X194771717Y-84317481D01*
X194771709Y-84317475D01*
X194634790Y-84238426D01*
X194634786Y-84238424D01*
X194634784Y-84238423D01*
X194482057Y-84197500D01*
X194323943Y-84197500D01*
X194171216Y-84238423D01*
X194171209Y-84238426D01*
X194034290Y-84317475D01*
X194034282Y-84317481D01*
X193922481Y-84429282D01*
X193922475Y-84429290D01*
X193843426Y-84566209D01*
X193843423Y-84566216D01*
X193802500Y-84718943D01*
X193802500Y-84877056D01*
X193843423Y-85029783D01*
X193843426Y-85029790D01*
X193922475Y-85166709D01*
X193922479Y-85166714D01*
X193922480Y-85166716D01*
X194034284Y-85278520D01*
X194034286Y-85278521D01*
X194034290Y-85278524D01*
X194154108Y-85347700D01*
X194171216Y-85357577D01*
X194323943Y-85398500D01*
X194323945Y-85398500D01*
X194482055Y-85398500D01*
X194482057Y-85398500D01*
X194634784Y-85357577D01*
X194771716Y-85278520D01*
X194883520Y-85166716D01*
X194883520Y-85166715D01*
X194889267Y-85160969D01*
X194891512Y-85163214D01*
X194935855Y-85130821D01*
X194977830Y-85123500D01*
X199550811Y-85123500D01*
X199617850Y-85143185D01*
X199638492Y-85159819D01*
X199888181Y-85409507D01*
X199921666Y-85470830D01*
X199924500Y-85497188D01*
X199924500Y-87019811D01*
X199904815Y-87086850D01*
X199852011Y-87132605D01*
X199782853Y-87142549D01*
X199719297Y-87113524D01*
X199712819Y-87107492D01*
X199555864Y-86950537D01*
X199555862Y-86950535D01*
X199518750Y-86929108D01*
X199481640Y-86907682D01*
X199440246Y-86896591D01*
X199398853Y-86885500D01*
X199398852Y-86885500D01*
X194977830Y-86885500D01*
X194910791Y-86865815D01*
X194890320Y-86846977D01*
X194889267Y-86848031D01*
X194771717Y-86730481D01*
X194771709Y-86730475D01*
X194634790Y-86651426D01*
X194634786Y-86651424D01*
X194634784Y-86651423D01*
X194482057Y-86610500D01*
X194323943Y-86610500D01*
X194171216Y-86651423D01*
X194171209Y-86651426D01*
X194034290Y-86730475D01*
X194034282Y-86730481D01*
X193922481Y-86842282D01*
X193922475Y-86842290D01*
X193843426Y-86979209D01*
X193843423Y-86979216D01*
X193802500Y-87131943D01*
X193802500Y-87290057D01*
X193824460Y-87372011D01*
X193843423Y-87442783D01*
X193843426Y-87442790D01*
X193922475Y-87579709D01*
X193922479Y-87579714D01*
X193922480Y-87579716D01*
X194034284Y-87691520D01*
X194034286Y-87691521D01*
X194034290Y-87691524D01*
X194171209Y-87770573D01*
X194171216Y-87770577D01*
X194323943Y-87811500D01*
X194323945Y-87811500D01*
X194482055Y-87811500D01*
X194482057Y-87811500D01*
X194634784Y-87770577D01*
X194771716Y-87691520D01*
X194883520Y-87579716D01*
X194883520Y-87579715D01*
X194889267Y-87573969D01*
X194891512Y-87576214D01*
X194935855Y-87543821D01*
X194977830Y-87536500D01*
X199169811Y-87536500D01*
X199236850Y-87556185D01*
X199257492Y-87572819D01*
X199438181Y-87753507D01*
X199471666Y-87814830D01*
X199474500Y-87841188D01*
X199474500Y-90252811D01*
X199454815Y-90319850D01*
X199402011Y-90365605D01*
X199332853Y-90375549D01*
X199269297Y-90346524D01*
X199262819Y-90340492D01*
X199174864Y-90252537D01*
X199174862Y-90252535D01*
X199137750Y-90231108D01*
X199100640Y-90209682D01*
X199059246Y-90198591D01*
X199017853Y-90187500D01*
X199017852Y-90187500D01*
X194977830Y-90187500D01*
X194910791Y-90167815D01*
X194890320Y-90148977D01*
X194889267Y-90150031D01*
X194771717Y-90032481D01*
X194771709Y-90032475D01*
X194634790Y-89953426D01*
X194634786Y-89953424D01*
X194634784Y-89953423D01*
X194482057Y-89912500D01*
X194323943Y-89912500D01*
X194171216Y-89953423D01*
X194171209Y-89953426D01*
X194034290Y-90032475D01*
X194034282Y-90032481D01*
X193922481Y-90144282D01*
X193922475Y-90144290D01*
X193843426Y-90281209D01*
X193843423Y-90281216D01*
X193802500Y-90433943D01*
X193802500Y-90592057D01*
X193840132Y-90732499D01*
X193843423Y-90744783D01*
X193843426Y-90744790D01*
X193922475Y-90881709D01*
X193922479Y-90881714D01*
X193922480Y-90881716D01*
X194034284Y-90993520D01*
X194034286Y-90993521D01*
X194034290Y-90993524D01*
X194152406Y-91061717D01*
X194171216Y-91072577D01*
X194323943Y-91113500D01*
X194323945Y-91113500D01*
X194482055Y-91113500D01*
X194482057Y-91113500D01*
X194634784Y-91072577D01*
X194771716Y-90993520D01*
X194883520Y-90881716D01*
X194883520Y-90881715D01*
X194889267Y-90875969D01*
X194891512Y-90878214D01*
X194935855Y-90845821D01*
X194977830Y-90838500D01*
X198788811Y-90838500D01*
X198818251Y-90847144D01*
X198848238Y-90853668D01*
X198853253Y-90857422D01*
X198855850Y-90858185D01*
X198876492Y-90874819D01*
X198988181Y-90986508D01*
X199021666Y-91047831D01*
X199024500Y-91074189D01*
X199024500Y-110905415D01*
X199004815Y-110972454D01*
X198988181Y-110993096D01*
X198428096Y-111553181D01*
X198366773Y-111586666D01*
X198340415Y-111589500D01*
X193086358Y-111589500D01*
X193019319Y-111569815D01*
X192973564Y-111517011D01*
X192966583Y-111497594D01*
X192930577Y-111363216D01*
X192906119Y-111320853D01*
X192851524Y-111226290D01*
X192851518Y-111226282D01*
X192739717Y-111114481D01*
X192739709Y-111114475D01*
X192602790Y-111035426D01*
X192602786Y-111035424D01*
X192602784Y-111035423D01*
X192450057Y-110994500D01*
X192291943Y-110994500D01*
X192139216Y-111035423D01*
X192139209Y-111035426D01*
X192002290Y-111114475D01*
X192002282Y-111114481D01*
X191902181Y-111214583D01*
X191840858Y-111248068D01*
X191771166Y-111243084D01*
X191715233Y-111201212D01*
X191690816Y-111135748D01*
X191690500Y-111126902D01*
X191690500Y-104876784D01*
X191710185Y-104809745D01*
X191762989Y-104763990D01*
X191832147Y-104754046D01*
X191895703Y-104783071D01*
X191902181Y-104789103D01*
X191997214Y-104884136D01*
X191997218Y-104884139D01*
X192161079Y-104993628D01*
X192161092Y-104993635D01*
X192318950Y-105059021D01*
X192343165Y-105069051D01*
X192343169Y-105069051D01*
X192343170Y-105069052D01*
X192536456Y-105107500D01*
X192536459Y-105107500D01*
X192733543Y-105107500D01*
X192863582Y-105081632D01*
X192926835Y-105069051D01*
X193086983Y-105002716D01*
X193108907Y-104993635D01*
X193108907Y-104993634D01*
X193108914Y-104993632D01*
X193272782Y-104884139D01*
X193412139Y-104744782D01*
X193521632Y-104580914D01*
X193523798Y-104575686D01*
X193540151Y-104536206D01*
X193597051Y-104398835D01*
X193616471Y-104301206D01*
X193635500Y-104205543D01*
X193635500Y-104008456D01*
X193597052Y-103815170D01*
X193597051Y-103815169D01*
X193597051Y-103815165D01*
X193589500Y-103796935D01*
X193521635Y-103633092D01*
X193521628Y-103633079D01*
X193412139Y-103469218D01*
X193412136Y-103469214D01*
X193272785Y-103329863D01*
X193272781Y-103329860D01*
X193108920Y-103220371D01*
X193108907Y-103220364D01*
X192926839Y-103144950D01*
X192926829Y-103144947D01*
X192733543Y-103106500D01*
X192733541Y-103106500D01*
X192536459Y-103106500D01*
X192536457Y-103106500D01*
X192343170Y-103144947D01*
X192343160Y-103144950D01*
X192161092Y-103220364D01*
X192161079Y-103220371D01*
X191997218Y-103329860D01*
X191997214Y-103329863D01*
X191853553Y-103473525D01*
X191851885Y-103471857D01*
X191802746Y-103505299D01*
X191732901Y-103507139D01*
X191673148Y-103470926D01*
X191667821Y-103464694D01*
X191661982Y-103457388D01*
X191635489Y-103411500D01*
X191625465Y-103394138D01*
X191564862Y-103333535D01*
X191564859Y-103333533D01*
X190952862Y-102721535D01*
X190915750Y-102700108D01*
X190878640Y-102678682D01*
X190837246Y-102667591D01*
X190795853Y-102656500D01*
X190795852Y-102656500D01*
X189555813Y-102656500D01*
X189488774Y-102636815D01*
X189468132Y-102620181D01*
X188699819Y-101851868D01*
X188666334Y-101790545D01*
X188663500Y-101764187D01*
X188663500Y-101598945D01*
X188663500Y-101598943D01*
X188622577Y-101446216D01*
X188544799Y-101311499D01*
X188528327Y-101243599D01*
X188551180Y-101177572D01*
X188606102Y-101134382D01*
X188652187Y-101125500D01*
X194446902Y-101125500D01*
X194513941Y-101145185D01*
X194559696Y-101197989D01*
X194569640Y-101267147D01*
X194540615Y-101330703D01*
X194534583Y-101337181D01*
X194481481Y-101390282D01*
X194481475Y-101390290D01*
X194402426Y-101527209D01*
X194402423Y-101527216D01*
X194361500Y-101679943D01*
X194361500Y-101838057D01*
X194389765Y-101943541D01*
X194402423Y-101990783D01*
X194402426Y-101990790D01*
X194481475Y-102127709D01*
X194481479Y-102127714D01*
X194481480Y-102127716D01*
X194593284Y-102239520D01*
X194593286Y-102239521D01*
X194593290Y-102239524D01*
X194730209Y-102318573D01*
X194730216Y-102318577D01*
X194882943Y-102359500D01*
X194882945Y-102359500D01*
X195041055Y-102359500D01*
X195041057Y-102359500D01*
X195193784Y-102318577D01*
X195330716Y-102239520D01*
X195442520Y-102127716D01*
X195521577Y-101990784D01*
X195562500Y-101838057D01*
X195562500Y-101679943D01*
X195521577Y-101527216D01*
X195521573Y-101527209D01*
X195442524Y-101390290D01*
X195442518Y-101390282D01*
X195389417Y-101337181D01*
X195355932Y-101275858D01*
X195360916Y-101206166D01*
X195402788Y-101150233D01*
X195468252Y-101125816D01*
X195477098Y-101125500D01*
X195837851Y-101125500D01*
X195837853Y-101125500D01*
X195920639Y-101103318D01*
X195994862Y-101060465D01*
X197528698Y-99526627D01*
X197590019Y-99493144D01*
X197617815Y-99491991D01*
X197617815Y-99490500D01*
X197784055Y-99490500D01*
X197784057Y-99490500D01*
X197936784Y-99449577D01*
X198073716Y-99370520D01*
X198185520Y-99258716D01*
X198264577Y-99121784D01*
X198305500Y-98969057D01*
X198305500Y-98810943D01*
X198264577Y-98658216D01*
X198247541Y-98628709D01*
X198185524Y-98521290D01*
X198185518Y-98521282D01*
X198073717Y-98409481D01*
X198073709Y-98409475D01*
X197936790Y-98330426D01*
X197936786Y-98330424D01*
X197936784Y-98330423D01*
X197784057Y-98289500D01*
X197625943Y-98289500D01*
X197473216Y-98330423D01*
X197473209Y-98330426D01*
X197336290Y-98409475D01*
X197336282Y-98409481D01*
X197224481Y-98521282D01*
X197224475Y-98521290D01*
X197145426Y-98658209D01*
X197145423Y-98658216D01*
X197104500Y-98810943D01*
X197104500Y-98977184D01*
X197101329Y-98977184D01*
X197092860Y-99031474D01*
X197068370Y-99066301D01*
X195696492Y-100438181D01*
X195635169Y-100471666D01*
X195608811Y-100474500D01*
X164227189Y-100474500D01*
X164160150Y-100454815D01*
X164139508Y-100438181D01*
X163899166Y-100197839D01*
X163865681Y-100136516D01*
X163862847Y-100110158D01*
X163862847Y-99323943D01*
X168402500Y-99323943D01*
X168402500Y-99482057D01*
X168438734Y-99617282D01*
X168443423Y-99634783D01*
X168443426Y-99634790D01*
X168522475Y-99771709D01*
X168522479Y-99771714D01*
X168522480Y-99771716D01*
X168634284Y-99883520D01*
X168634286Y-99883521D01*
X168634290Y-99883524D01*
X168771209Y-99962573D01*
X168771216Y-99962577D01*
X168923943Y-100003500D01*
X168923945Y-100003500D01*
X169082055Y-100003500D01*
X169082057Y-100003500D01*
X169234784Y-99962577D01*
X169371716Y-99883520D01*
X169483520Y-99771716D01*
X169562577Y-99634784D01*
X169603500Y-99482057D01*
X169603500Y-99323943D01*
X169569471Y-99196943D01*
X180467500Y-99196943D01*
X180467500Y-99355057D01*
X180507805Y-99505475D01*
X180508423Y-99507783D01*
X180508426Y-99507790D01*
X180587475Y-99644709D01*
X180587479Y-99644714D01*
X180587480Y-99644716D01*
X180699284Y-99756520D01*
X180699286Y-99756521D01*
X180699290Y-99756524D01*
X180836209Y-99835573D01*
X180836216Y-99835577D01*
X180988943Y-99876500D01*
X180988945Y-99876500D01*
X181147055Y-99876500D01*
X181147057Y-99876500D01*
X181299784Y-99835577D01*
X181436716Y-99756520D01*
X181548520Y-99644716D01*
X181627577Y-99507784D01*
X181668500Y-99355057D01*
X181668500Y-99196943D01*
X181627577Y-99044216D01*
X181621842Y-99034282D01*
X181548524Y-98907290D01*
X181548518Y-98907282D01*
X181436717Y-98795481D01*
X181436709Y-98795475D01*
X181299790Y-98716426D01*
X181299786Y-98716424D01*
X181299784Y-98716423D01*
X181147057Y-98675500D01*
X180988943Y-98675500D01*
X180836216Y-98716423D01*
X180836209Y-98716426D01*
X180699290Y-98795475D01*
X180699282Y-98795481D01*
X180587481Y-98907282D01*
X180587475Y-98907290D01*
X180508426Y-99044209D01*
X180508423Y-99044216D01*
X180467500Y-99196943D01*
X169569471Y-99196943D01*
X169562577Y-99171216D01*
X169502005Y-99066301D01*
X169483524Y-99034290D01*
X169483518Y-99034282D01*
X169371717Y-98922481D01*
X169371709Y-98922475D01*
X169234790Y-98843426D01*
X169234786Y-98843424D01*
X169234784Y-98843423D01*
X169082057Y-98802500D01*
X168923943Y-98802500D01*
X168771216Y-98843423D01*
X168771209Y-98843426D01*
X168634290Y-98922475D01*
X168634282Y-98922481D01*
X168522481Y-99034282D01*
X168522475Y-99034290D01*
X168443426Y-99171209D01*
X168443424Y-99171214D01*
X168443423Y-99171216D01*
X168402500Y-99323943D01*
X163862847Y-99323943D01*
X163862847Y-98838933D01*
X163882532Y-98771894D01*
X163935336Y-98726139D01*
X164004494Y-98716195D01*
X164054726Y-98737355D01*
X164055245Y-98736457D01*
X164157478Y-98795480D01*
X164199216Y-98819577D01*
X164351943Y-98860500D01*
X164351945Y-98860500D01*
X164510055Y-98860500D01*
X164510057Y-98860500D01*
X164662784Y-98819577D01*
X164799716Y-98740520D01*
X164911520Y-98628716D01*
X164990577Y-98491784D01*
X165031500Y-98339057D01*
X165031500Y-98201500D01*
X165051185Y-98134461D01*
X165103989Y-98088706D01*
X165155500Y-98077500D01*
X168960147Y-98077500D01*
X173508170Y-98077500D01*
X173575209Y-98097185D01*
X173595679Y-98116022D01*
X173596733Y-98114969D01*
X173602480Y-98120716D01*
X173714284Y-98232520D01*
X173714286Y-98232521D01*
X173714290Y-98232524D01*
X173797236Y-98280412D01*
X173851216Y-98311577D01*
X174003943Y-98352500D01*
X174003945Y-98352500D01*
X174162055Y-98352500D01*
X174162057Y-98352500D01*
X174314784Y-98311577D01*
X174451716Y-98232520D01*
X174563520Y-98120716D01*
X174563520Y-98120715D01*
X174569267Y-98114969D01*
X174571512Y-98117214D01*
X174615855Y-98084821D01*
X174657830Y-98077500D01*
X179223170Y-98077500D01*
X179290209Y-98097185D01*
X179310679Y-98116022D01*
X179311733Y-98114969D01*
X179317480Y-98120716D01*
X179429284Y-98232520D01*
X179429286Y-98232521D01*
X179429290Y-98232524D01*
X179512236Y-98280412D01*
X179566216Y-98311577D01*
X179718943Y-98352500D01*
X179718945Y-98352500D01*
X179877055Y-98352500D01*
X179877057Y-98352500D01*
X180029784Y-98311577D01*
X180166716Y-98232520D01*
X180278520Y-98120716D01*
X180357577Y-97983784D01*
X180398500Y-97831057D01*
X180398500Y-97672943D01*
X180357577Y-97520216D01*
X180341015Y-97491530D01*
X180278524Y-97383290D01*
X180278518Y-97383282D01*
X180166717Y-97271481D01*
X180166709Y-97271475D01*
X180029790Y-97192426D01*
X180029786Y-97192424D01*
X180029784Y-97192423D01*
X179877057Y-97151500D01*
X179718943Y-97151500D01*
X179566216Y-97192423D01*
X179566209Y-97192426D01*
X179429290Y-97271475D01*
X179429282Y-97271481D01*
X179311733Y-97389031D01*
X179309487Y-97386785D01*
X179265145Y-97419179D01*
X179223170Y-97426500D01*
X176009159Y-97426500D01*
X175942120Y-97406815D01*
X175896365Y-97354011D01*
X175886421Y-97284853D01*
X175901771Y-97240502D01*
X175907369Y-97230803D01*
X175912577Y-97221784D01*
X175953500Y-97069057D01*
X175953500Y-96910943D01*
X175912577Y-96758216D01*
X175833520Y-96621284D01*
X175778397Y-96566161D01*
X186272500Y-96566161D01*
X186272500Y-96724275D01*
X186288489Y-96783945D01*
X186313423Y-96877001D01*
X186313426Y-96877008D01*
X186392475Y-97013927D01*
X186392479Y-97013932D01*
X186392480Y-97013934D01*
X186504284Y-97125738D01*
X186504286Y-97125739D01*
X186504290Y-97125742D01*
X186619787Y-97192423D01*
X186641216Y-97204795D01*
X186793943Y-97245718D01*
X186793945Y-97245718D01*
X186952055Y-97245718D01*
X186952057Y-97245718D01*
X187104784Y-97204795D01*
X187241716Y-97125738D01*
X187353520Y-97013934D01*
X187432577Y-96877002D01*
X187457512Y-96783943D01*
X195072500Y-96783943D01*
X195072500Y-96942057D01*
X195112177Y-97090131D01*
X195113423Y-97094783D01*
X195113426Y-97094790D01*
X195192475Y-97231709D01*
X195192479Y-97231714D01*
X195192480Y-97231716D01*
X195304284Y-97343520D01*
X195304286Y-97343521D01*
X195304290Y-97343524D01*
X195381286Y-97387977D01*
X195441216Y-97422577D01*
X195593943Y-97463500D01*
X195593945Y-97463500D01*
X195752055Y-97463500D01*
X195752057Y-97463500D01*
X195904784Y-97422577D01*
X196041716Y-97343520D01*
X196153520Y-97231716D01*
X196232577Y-97094784D01*
X196273500Y-96942057D01*
X196273500Y-96783943D01*
X196232577Y-96631216D01*
X196162294Y-96509481D01*
X196153524Y-96494290D01*
X196153518Y-96494282D01*
X196041717Y-96382481D01*
X196041709Y-96382475D01*
X195904790Y-96303426D01*
X195904786Y-96303424D01*
X195904784Y-96303423D01*
X195752057Y-96262500D01*
X195593943Y-96262500D01*
X195441216Y-96303423D01*
X195441209Y-96303426D01*
X195304290Y-96382475D01*
X195304282Y-96382481D01*
X195192481Y-96494282D01*
X195192475Y-96494290D01*
X195113426Y-96631209D01*
X195113423Y-96631216D01*
X195072500Y-96783943D01*
X187457512Y-96783943D01*
X187473500Y-96724275D01*
X187473500Y-96566161D01*
X187432577Y-96413434D01*
X187418759Y-96389500D01*
X187353524Y-96276508D01*
X187353518Y-96276500D01*
X187241717Y-96164699D01*
X187241709Y-96164693D01*
X187104790Y-96085644D01*
X187104786Y-96085642D01*
X187104784Y-96085641D01*
X186952057Y-96044718D01*
X186793943Y-96044718D01*
X186641216Y-96085641D01*
X186641209Y-96085644D01*
X186504290Y-96164693D01*
X186504282Y-96164699D01*
X186392481Y-96276500D01*
X186392475Y-96276508D01*
X186313426Y-96413427D01*
X186313423Y-96413434D01*
X186272500Y-96566161D01*
X175778397Y-96566161D01*
X175721716Y-96509480D01*
X175721714Y-96509479D01*
X175721709Y-96509475D01*
X175584790Y-96430426D01*
X175584786Y-96430424D01*
X175584784Y-96430423D01*
X175432057Y-96389500D01*
X175273943Y-96389500D01*
X175121216Y-96430423D01*
X175121209Y-96430426D01*
X174984290Y-96509475D01*
X174984282Y-96509481D01*
X174872481Y-96621282D01*
X174872475Y-96621290D01*
X174793426Y-96758209D01*
X174793423Y-96758216D01*
X174752500Y-96910943D01*
X174752500Y-97069057D01*
X174787894Y-97201147D01*
X174793423Y-97221783D01*
X174793425Y-97221788D01*
X174804229Y-97240502D01*
X174805660Y-97246401D01*
X174809635Y-97250989D01*
X174813800Y-97279961D01*
X174820700Y-97308403D01*
X174818714Y-97314138D01*
X174819579Y-97320147D01*
X174807419Y-97346773D01*
X174797847Y-97374429D01*
X174793075Y-97378181D01*
X174790554Y-97383703D01*
X174765932Y-97399525D01*
X174742925Y-97417619D01*
X174735575Y-97419035D01*
X174731776Y-97421477D01*
X174696841Y-97426500D01*
X174657830Y-97426500D01*
X174590791Y-97406815D01*
X174570320Y-97387977D01*
X174569267Y-97389031D01*
X174451717Y-97271481D01*
X174451709Y-97271475D01*
X174314790Y-97192426D01*
X174314786Y-97192424D01*
X174314784Y-97192423D01*
X174162057Y-97151500D01*
X174003943Y-97151500D01*
X173851216Y-97192423D01*
X173851209Y-97192426D01*
X173714290Y-97271475D01*
X173714282Y-97271481D01*
X173596733Y-97389031D01*
X173594487Y-97386785D01*
X173550145Y-97419179D01*
X173508170Y-97426500D01*
X169189189Y-97426500D01*
X169122150Y-97406815D01*
X169101508Y-97390181D01*
X168856819Y-97145492D01*
X168823334Y-97084169D01*
X168820500Y-97057811D01*
X168820500Y-95786830D01*
X168840185Y-95719791D01*
X168859022Y-95699320D01*
X168857969Y-95698267D01*
X168863716Y-95692520D01*
X168975520Y-95580716D01*
X169054577Y-95443784D01*
X169095500Y-95291057D01*
X169095500Y-95132943D01*
X169054577Y-94980216D01*
X169054573Y-94980209D01*
X168975524Y-94843290D01*
X168975518Y-94843282D01*
X168863717Y-94731481D01*
X168863709Y-94731475D01*
X168726790Y-94652426D01*
X168726786Y-94652424D01*
X168726784Y-94652423D01*
X168574057Y-94611500D01*
X168415943Y-94611500D01*
X168263216Y-94652423D01*
X168263209Y-94652426D01*
X168126290Y-94731475D01*
X168126282Y-94731481D01*
X168014481Y-94843282D01*
X168014475Y-94843290D01*
X167935426Y-94980209D01*
X167935423Y-94980216D01*
X167894500Y-95132943D01*
X167894500Y-95291056D01*
X167935423Y-95443783D01*
X167935426Y-95443790D01*
X168014475Y-95580709D01*
X168014481Y-95580717D01*
X168132031Y-95698267D01*
X168129785Y-95700512D01*
X168162179Y-95744855D01*
X168169500Y-95786830D01*
X168169500Y-97294980D01*
X168168078Y-97294980D01*
X168158663Y-97355350D01*
X168112283Y-97407606D01*
X168046490Y-97426500D01*
X164896147Y-97426500D01*
X164813362Y-97448682D01*
X164813355Y-97448685D01*
X164739144Y-97491530D01*
X164739140Y-97491533D01*
X164739138Y-97491535D01*
X164607300Y-97623371D01*
X164545979Y-97656855D01*
X164518184Y-97658015D01*
X164518184Y-97659500D01*
X164351943Y-97659500D01*
X164199216Y-97700423D01*
X164199209Y-97700426D01*
X164055245Y-97783543D01*
X164054602Y-97782430D01*
X164049087Y-97784563D01*
X164038358Y-97793860D01*
X164017150Y-97796909D01*
X163997163Y-97804636D01*
X163983254Y-97801783D01*
X163969200Y-97803804D01*
X163949708Y-97794902D01*
X163928718Y-97790597D01*
X163918559Y-97780677D01*
X163905644Y-97774779D01*
X163894058Y-97756751D01*
X163878729Y-97741782D01*
X163874810Y-97726799D01*
X163867870Y-97716001D01*
X163862847Y-97681066D01*
X163862847Y-97433177D01*
X163882532Y-97366138D01*
X163901369Y-97345667D01*
X163900316Y-97344614D01*
X163958077Y-97286853D01*
X164017867Y-97227063D01*
X164096924Y-97090131D01*
X164137847Y-96937404D01*
X164137847Y-96779290D01*
X164096924Y-96626563D01*
X164093875Y-96621282D01*
X164017871Y-96489637D01*
X164017865Y-96489629D01*
X163906064Y-96377828D01*
X163906056Y-96377822D01*
X163769137Y-96298773D01*
X163769133Y-96298771D01*
X163769131Y-96298770D01*
X163616404Y-96257847D01*
X163458290Y-96257847D01*
X163305563Y-96298770D01*
X163305556Y-96298773D01*
X163168637Y-96377822D01*
X163168629Y-96377828D01*
X163056828Y-96489629D01*
X163056822Y-96489637D01*
X162977773Y-96626556D01*
X162977770Y-96626563D01*
X162936847Y-96779290D01*
X162518000Y-96779290D01*
X162518000Y-93862943D01*
X181483500Y-93862943D01*
X181483500Y-94021056D01*
X181524423Y-94173783D01*
X181524426Y-94173790D01*
X181603475Y-94310709D01*
X181603479Y-94310714D01*
X181603480Y-94310716D01*
X181715284Y-94422520D01*
X181715286Y-94422521D01*
X181715290Y-94422524D01*
X181852209Y-94501573D01*
X181852216Y-94501577D01*
X182004943Y-94542500D01*
X182004945Y-94542500D01*
X182163055Y-94542500D01*
X182163057Y-94542500D01*
X182315784Y-94501577D01*
X182452716Y-94422520D01*
X182564520Y-94310716D01*
X182643577Y-94173784D01*
X182684500Y-94021057D01*
X182684500Y-93862943D01*
X182643577Y-93710216D01*
X182643573Y-93710209D01*
X182616211Y-93662815D01*
X182585108Y-93608943D01*
X193520416Y-93608943D01*
X193520416Y-93767057D01*
X193528038Y-93795500D01*
X193561339Y-93919783D01*
X193561342Y-93919790D01*
X193640391Y-94056709D01*
X193640395Y-94056714D01*
X193640396Y-94056716D01*
X193752200Y-94168520D01*
X193752202Y-94168521D01*
X193752206Y-94168524D01*
X193889125Y-94247573D01*
X193889132Y-94247577D01*
X194041859Y-94288500D01*
X194041861Y-94288500D01*
X194199971Y-94288500D01*
X194199973Y-94288500D01*
X194352700Y-94247577D01*
X194489632Y-94168520D01*
X194601436Y-94056716D01*
X194680493Y-93919784D01*
X194721416Y-93767057D01*
X194721416Y-93608943D01*
X194680493Y-93456216D01*
X194637889Y-93382423D01*
X194601440Y-93319290D01*
X194601434Y-93319282D01*
X194489633Y-93207481D01*
X194489625Y-93207475D01*
X194352706Y-93128426D01*
X194352702Y-93128424D01*
X194352700Y-93128423D01*
X194199973Y-93087500D01*
X194041859Y-93087500D01*
X193889132Y-93128423D01*
X193889125Y-93128426D01*
X193752206Y-93207475D01*
X193752198Y-93207481D01*
X193640397Y-93319282D01*
X193640391Y-93319290D01*
X193561342Y-93456209D01*
X193561339Y-93456216D01*
X193520416Y-93608943D01*
X182585108Y-93608943D01*
X182564524Y-93573290D01*
X182564518Y-93573282D01*
X182452717Y-93461481D01*
X182452709Y-93461475D01*
X182315790Y-93382426D01*
X182315786Y-93382424D01*
X182315784Y-93382423D01*
X182163057Y-93341500D01*
X182004943Y-93341500D01*
X181852216Y-93382423D01*
X181852209Y-93382426D01*
X181715290Y-93461475D01*
X181715282Y-93461481D01*
X181603481Y-93573282D01*
X181603475Y-93573290D01*
X181524426Y-93710209D01*
X181524423Y-93710216D01*
X181483500Y-93862943D01*
X162518000Y-93862943D01*
X162518000Y-93246406D01*
X162537685Y-93179367D01*
X162554319Y-93158725D01*
X163462216Y-92250828D01*
X163523539Y-92217343D01*
X163549897Y-92214509D01*
X169706571Y-92214509D01*
X169773610Y-92234194D01*
X169819365Y-92286998D01*
X169826346Y-92306415D01*
X169850423Y-92396274D01*
X169850426Y-92396279D01*
X169929475Y-92533198D01*
X169929479Y-92533203D01*
X169929480Y-92533205D01*
X170041284Y-92645009D01*
X170041286Y-92645010D01*
X170041290Y-92645013D01*
X170177362Y-92723573D01*
X170178216Y-92724066D01*
X170330943Y-92764989D01*
X170330945Y-92764989D01*
X170489055Y-92764989D01*
X170489057Y-92764989D01*
X170641784Y-92724066D01*
X170778716Y-92645009D01*
X170890520Y-92533205D01*
X170969577Y-92396273D01*
X171010500Y-92243546D01*
X171010500Y-92085432D01*
X170969577Y-91932705D01*
X170969576Y-91932703D01*
X170967473Y-91924854D01*
X170969809Y-91924228D01*
X170963658Y-91866961D01*
X170994939Y-91804485D01*
X171055031Y-91768838D01*
X171085686Y-91764989D01*
X172156300Y-91764989D01*
X172223339Y-91784674D01*
X172243981Y-91801308D01*
X172430370Y-91987697D01*
X172463855Y-92049020D01*
X172465017Y-92076816D01*
X172466500Y-92076816D01*
X172466500Y-92084943D01*
X172466500Y-92243057D01*
X172488991Y-92326992D01*
X172507423Y-92395783D01*
X172507426Y-92395790D01*
X172586475Y-92532709D01*
X172586479Y-92532714D01*
X172586480Y-92532716D01*
X172698284Y-92644520D01*
X172698286Y-92644521D01*
X172698290Y-92644524D01*
X172835209Y-92723573D01*
X172835216Y-92723577D01*
X172987943Y-92764500D01*
X172987945Y-92764500D01*
X173146055Y-92764500D01*
X173146057Y-92764500D01*
X173298784Y-92723577D01*
X173435716Y-92644520D01*
X173547520Y-92532716D01*
X173626577Y-92395784D01*
X173667500Y-92243057D01*
X173667500Y-92084943D01*
X173626577Y-91932216D01*
X173596082Y-91879397D01*
X173547524Y-91795290D01*
X173547518Y-91795282D01*
X173435717Y-91683481D01*
X173435709Y-91683475D01*
X173298790Y-91604426D01*
X173298786Y-91604424D01*
X173298784Y-91604423D01*
X173146057Y-91563500D01*
X172987943Y-91563500D01*
X172979816Y-91563500D01*
X172979816Y-91560332D01*
X172925504Y-91551851D01*
X172890697Y-91527370D01*
X172561165Y-91197838D01*
X172542351Y-91179024D01*
X172497183Y-91152946D01*
X172468129Y-91136171D01*
X172405264Y-91119327D01*
X172385342Y-91113989D01*
X172385341Y-91113989D01*
X170939015Y-91113989D01*
X170871976Y-91094304D01*
X170826221Y-91041500D01*
X170816277Y-90972342D01*
X170831627Y-90927990D01*
X170838133Y-90916720D01*
X170864077Y-90871784D01*
X170905000Y-90719057D01*
X170905000Y-90560943D01*
X170870971Y-90433943D01*
X172466500Y-90433943D01*
X172466500Y-90592057D01*
X172504132Y-90732499D01*
X172507423Y-90744783D01*
X172507426Y-90744790D01*
X172586475Y-90881709D01*
X172586479Y-90881714D01*
X172586480Y-90881716D01*
X172698284Y-90993520D01*
X172835216Y-91072577D01*
X172987943Y-91113500D01*
X172987945Y-91113500D01*
X173146055Y-91113500D01*
X173146057Y-91113500D01*
X173298784Y-91072577D01*
X173435716Y-90993520D01*
X173547520Y-90881716D01*
X173626577Y-90744784D01*
X173667500Y-90592057D01*
X173667500Y-90433943D01*
X186182500Y-90433943D01*
X186182500Y-90592057D01*
X186220132Y-90732499D01*
X186223423Y-90744783D01*
X186223426Y-90744790D01*
X186302475Y-90881709D01*
X186302479Y-90881714D01*
X186302480Y-90881716D01*
X186414284Y-90993520D01*
X186414286Y-90993521D01*
X186414290Y-90993524D01*
X186532406Y-91061717D01*
X186551216Y-91072577D01*
X186703943Y-91113500D01*
X186703945Y-91113500D01*
X186862055Y-91113500D01*
X186862057Y-91113500D01*
X187014784Y-91072577D01*
X187151716Y-90993520D01*
X187263520Y-90881716D01*
X187263520Y-90881715D01*
X187269267Y-90875969D01*
X187271512Y-90878214D01*
X187315855Y-90845821D01*
X187357830Y-90838500D01*
X191044422Y-90838500D01*
X191073862Y-90847144D01*
X191103849Y-90853668D01*
X191108864Y-90857422D01*
X191111461Y-90858185D01*
X191132103Y-90874819D01*
X191290994Y-91033710D01*
X191324479Y-91095033D01*
X191325641Y-91122829D01*
X191327124Y-91122829D01*
X191327124Y-91130956D01*
X191327124Y-91289070D01*
X191341875Y-91344119D01*
X191368047Y-91441796D01*
X191368050Y-91441803D01*
X191447099Y-91578722D01*
X191447103Y-91578727D01*
X191447104Y-91578729D01*
X191558908Y-91690533D01*
X191558910Y-91690534D01*
X191558914Y-91690537D01*
X191687871Y-91764989D01*
X191695840Y-91769590D01*
X191848567Y-91810513D01*
X191848569Y-91810513D01*
X192006679Y-91810513D01*
X192006681Y-91810513D01*
X192159408Y-91769590D01*
X192296340Y-91690533D01*
X192408144Y-91578729D01*
X192487201Y-91441797D01*
X192528124Y-91289070D01*
X192528124Y-91130956D01*
X192487201Y-90978229D01*
X192456349Y-90924791D01*
X192408148Y-90841303D01*
X192408142Y-90841295D01*
X192296341Y-90729494D01*
X192296333Y-90729488D01*
X192159414Y-90650439D01*
X192159410Y-90650437D01*
X192159408Y-90650436D01*
X192006681Y-90609513D01*
X191848567Y-90609513D01*
X191840440Y-90609513D01*
X191840440Y-90606345D01*
X191786128Y-90597864D01*
X191751321Y-90573383D01*
X191430475Y-90252537D01*
X191430473Y-90252535D01*
X191393361Y-90231108D01*
X191356251Y-90209682D01*
X191314857Y-90198591D01*
X191273464Y-90187500D01*
X191273463Y-90187500D01*
X187357830Y-90187500D01*
X187290791Y-90167815D01*
X187270320Y-90148977D01*
X187269267Y-90150031D01*
X187151717Y-90032481D01*
X187151709Y-90032475D01*
X187014790Y-89953426D01*
X187014786Y-89953424D01*
X187014784Y-89953423D01*
X186862057Y-89912500D01*
X186703943Y-89912500D01*
X186551216Y-89953423D01*
X186551209Y-89953426D01*
X186414290Y-90032475D01*
X186414282Y-90032481D01*
X186302481Y-90144282D01*
X186302475Y-90144290D01*
X186223426Y-90281209D01*
X186223423Y-90281216D01*
X186182500Y-90433943D01*
X173667500Y-90433943D01*
X173626577Y-90281216D01*
X173586893Y-90212481D01*
X173547524Y-90144290D01*
X173547518Y-90144282D01*
X173435717Y-90032481D01*
X173435709Y-90032475D01*
X173298790Y-89953426D01*
X173298786Y-89953424D01*
X173298784Y-89953423D01*
X173146057Y-89912500D01*
X172987943Y-89912500D01*
X172835216Y-89953423D01*
X172835209Y-89953426D01*
X172698290Y-90032475D01*
X172698282Y-90032481D01*
X172586481Y-90144282D01*
X172586475Y-90144290D01*
X172507426Y-90281209D01*
X172507423Y-90281216D01*
X172466500Y-90433943D01*
X170870971Y-90433943D01*
X170864077Y-90408216D01*
X170864073Y-90408209D01*
X170785024Y-90271290D01*
X170785018Y-90271282D01*
X170673217Y-90159481D01*
X170673209Y-90159475D01*
X170536290Y-90080426D01*
X170536286Y-90080424D01*
X170536284Y-90080423D01*
X170383557Y-90039500D01*
X170383550Y-90039498D01*
X170376393Y-90038556D01*
X170312497Y-90010287D01*
X170304903Y-90003299D01*
X168944104Y-88642500D01*
X167433547Y-87131943D01*
X191262500Y-87131943D01*
X191262500Y-87290057D01*
X191284460Y-87372011D01*
X191303423Y-87442783D01*
X191303426Y-87442790D01*
X191382475Y-87579709D01*
X191382479Y-87579714D01*
X191382480Y-87579716D01*
X191494284Y-87691520D01*
X191494286Y-87691521D01*
X191494290Y-87691524D01*
X191631209Y-87770573D01*
X191631216Y-87770577D01*
X191783943Y-87811500D01*
X191783945Y-87811500D01*
X191942055Y-87811500D01*
X191942057Y-87811500D01*
X192094784Y-87770577D01*
X192231716Y-87691520D01*
X192343520Y-87579716D01*
X192422577Y-87442784D01*
X192463500Y-87290057D01*
X192463500Y-87131943D01*
X192422577Y-86979216D01*
X192406018Y-86950535D01*
X192343524Y-86842290D01*
X192343518Y-86842282D01*
X192231717Y-86730481D01*
X192231709Y-86730475D01*
X192094790Y-86651426D01*
X192094786Y-86651424D01*
X192094784Y-86651423D01*
X191942057Y-86610500D01*
X191783943Y-86610500D01*
X191631216Y-86651423D01*
X191631209Y-86651426D01*
X191494290Y-86730475D01*
X191494282Y-86730481D01*
X191382481Y-86842282D01*
X191382475Y-86842290D01*
X191303426Y-86979209D01*
X191303423Y-86979216D01*
X191262500Y-87131943D01*
X167433547Y-87131943D01*
X165628114Y-85326511D01*
X165544999Y-85278524D01*
X165525388Y-85267201D01*
X165513280Y-85263957D01*
X165501173Y-85260713D01*
X165501170Y-85260712D01*
X165462978Y-85250478D01*
X165410809Y-85236500D01*
X139606691Y-85236500D01*
X139516325Y-85260713D01*
X139516324Y-85260712D01*
X139492116Y-85267199D01*
X139492113Y-85267200D01*
X139389386Y-85326511D01*
X139389383Y-85326513D01*
X137114513Y-87601383D01*
X137114509Y-87601389D01*
X137055201Y-87704112D01*
X137055200Y-87704117D01*
X137024500Y-87818691D01*
X137024500Y-102029500D01*
X137004815Y-102096539D01*
X136952011Y-102142294D01*
X136900500Y-102153500D01*
X136780247Y-102153500D01*
X136721770Y-102165131D01*
X136721769Y-102165132D01*
X136655447Y-102209447D01*
X136611132Y-102275769D01*
X136611131Y-102275770D01*
X136599500Y-102334247D01*
X136599500Y-103723752D01*
X136611131Y-103782229D01*
X136611132Y-103782230D01*
X136655447Y-103848552D01*
X136721769Y-103892867D01*
X136721770Y-103892868D01*
X136740020Y-103896498D01*
X136801931Y-103928882D01*
X136836505Y-103989598D01*
X136839447Y-104027844D01*
X136838567Y-104039014D01*
X137386415Y-104586861D01*
X137301306Y-104609667D01*
X137198694Y-104668910D01*
X137114910Y-104752694D01*
X137055667Y-104855306D01*
X137032861Y-104940414D01*
X136485015Y-104392568D01*
X136470048Y-104413170D01*
X136413122Y-104524891D01*
X136365147Y-104575686D01*
X136297326Y-104592481D01*
X136231192Y-104569943D01*
X136199536Y-104537486D01*
X136155045Y-104470901D01*
X136155042Y-104470897D01*
X136033102Y-104348957D01*
X136033098Y-104348954D01*
X135889711Y-104253145D01*
X135889698Y-104253138D01*
X135730378Y-104187146D01*
X135730366Y-104187143D01*
X135561232Y-104153500D01*
X135561229Y-104153500D01*
X135388771Y-104153500D01*
X135388768Y-104153500D01*
X135219633Y-104187143D01*
X135219621Y-104187146D01*
X135060301Y-104253138D01*
X135060288Y-104253145D01*
X134916901Y-104348954D01*
X134916897Y-104348957D01*
X134794957Y-104470897D01*
X134794954Y-104470901D01*
X134699145Y-104614288D01*
X134699138Y-104614301D01*
X134633146Y-104773621D01*
X134633143Y-104773633D01*
X134599500Y-104942766D01*
X134599500Y-105115233D01*
X134633142Y-105284366D01*
X134633145Y-105284374D01*
X134638389Y-105297035D01*
X134645855Y-105366505D01*
X134614577Y-105428983D01*
X134611507Y-105432164D01*
X134214537Y-105829135D01*
X134214533Y-105829141D01*
X134171681Y-105903361D01*
X134171682Y-105903362D01*
X134149500Y-105986147D01*
X134149500Y-111206415D01*
X134129815Y-111273454D01*
X134113181Y-111294096D01*
X133764537Y-111642739D01*
X133764535Y-111642742D01*
X133721682Y-111716965D01*
X133709183Y-111763613D01*
X133709183Y-111763614D01*
X133709182Y-111763613D01*
X133699500Y-111799749D01*
X113295500Y-111799749D01*
X113295500Y-107622973D01*
X115944500Y-107622973D01*
X115944500Y-107651933D01*
X115944500Y-107867027D01*
X115950435Y-107904499D01*
X115981986Y-108103704D01*
X115982679Y-108108076D01*
X116045116Y-108300238D01*
X116058097Y-108340187D01*
X116168896Y-108557642D01*
X116312339Y-108755076D01*
X116312343Y-108755081D01*
X116484918Y-108927656D01*
X116484923Y-108927660D01*
X116505718Y-108942768D01*
X116682361Y-109071106D01*
X116899815Y-109181904D01*
X117131924Y-109257321D01*
X117372973Y-109295500D01*
X117372974Y-109295500D01*
X117617026Y-109295500D01*
X117617027Y-109295500D01*
X117858076Y-109257321D01*
X118090185Y-109181904D01*
X118307639Y-109071106D01*
X118505083Y-108927655D01*
X118677655Y-108755083D01*
X118821106Y-108557639D01*
X118931904Y-108340185D01*
X119007321Y-108108076D01*
X119045500Y-107867027D01*
X119045500Y-107622973D01*
X119007321Y-107381924D01*
X118931904Y-107149815D01*
X118821106Y-106932361D01*
X118796543Y-106898553D01*
X118677660Y-106734923D01*
X118677656Y-106734918D01*
X118505081Y-106562343D01*
X118505076Y-106562339D01*
X118307642Y-106418896D01*
X118307641Y-106418895D01*
X118307639Y-106418894D01*
X118090185Y-106308096D01*
X117858076Y-106232679D01*
X117858074Y-106232678D01*
X117858072Y-106232678D01*
X117689769Y-106206021D01*
X117617027Y-106194500D01*
X117372973Y-106194500D01*
X117317093Y-106203350D01*
X117131927Y-106232678D01*
X116899812Y-106308097D01*
X116682357Y-106418896D01*
X116484923Y-106562339D01*
X116484918Y-106562343D01*
X116312343Y-106734918D01*
X116312339Y-106734923D01*
X116168896Y-106932357D01*
X116058097Y-107149812D01*
X115982678Y-107381927D01*
X115963660Y-107502002D01*
X115944500Y-107622973D01*
X113295500Y-107622973D01*
X113295500Y-102942766D01*
X134599500Y-102942766D01*
X134599500Y-103115233D01*
X134633143Y-103284366D01*
X134633146Y-103284378D01*
X134699138Y-103443698D01*
X134699145Y-103443711D01*
X134794954Y-103587098D01*
X134794957Y-103587102D01*
X134916897Y-103709042D01*
X134916901Y-103709045D01*
X135060288Y-103804854D01*
X135060301Y-103804861D01*
X135219621Y-103870853D01*
X135219626Y-103870855D01*
X135388766Y-103904499D01*
X135388769Y-103904500D01*
X135388771Y-103904500D01*
X135561231Y-103904500D01*
X135561232Y-103904499D01*
X135730374Y-103870855D01*
X135889705Y-103804858D01*
X136033099Y-103709045D01*
X136155045Y-103587099D01*
X136250858Y-103443705D01*
X136251764Y-103441519D01*
X136277250Y-103379989D01*
X136316855Y-103284374D01*
X136350500Y-103115229D01*
X136350500Y-102942771D01*
X136350500Y-102942768D01*
X136350499Y-102942766D01*
X136339234Y-102886135D01*
X136316855Y-102773626D01*
X136268340Y-102656500D01*
X136250861Y-102614301D01*
X136250854Y-102614288D01*
X136155045Y-102470901D01*
X136155042Y-102470897D01*
X136033102Y-102348957D01*
X136033098Y-102348954D01*
X135889711Y-102253145D01*
X135889698Y-102253138D01*
X135730378Y-102187146D01*
X135730366Y-102187143D01*
X135561232Y-102153500D01*
X135561229Y-102153500D01*
X135388771Y-102153500D01*
X135388768Y-102153500D01*
X135219633Y-102187143D01*
X135219621Y-102187146D01*
X135060301Y-102253138D01*
X135060288Y-102253145D01*
X134916901Y-102348954D01*
X134916897Y-102348957D01*
X134794957Y-102470897D01*
X134794954Y-102470901D01*
X134699145Y-102614288D01*
X134699138Y-102614301D01*
X134633146Y-102773621D01*
X134633143Y-102773633D01*
X134599500Y-102942766D01*
X113295500Y-102942766D01*
X113295500Y-87705438D01*
X113275021Y-87629011D01*
X113259070Y-87601383D01*
X113235464Y-87560495D01*
X113235458Y-87560487D01*
X113179512Y-87504541D01*
X113179504Y-87504535D01*
X113110995Y-87464982D01*
X113110990Y-87464979D01*
X113085513Y-87458152D01*
X113034562Y-87444500D01*
X113034560Y-87444500D01*
X105419500Y-87444500D01*
X105352461Y-87424815D01*
X105306706Y-87372011D01*
X105295500Y-87320500D01*
X105295500Y-84668143D01*
X178717000Y-84668143D01*
X178717000Y-84826256D01*
X178757923Y-84978983D01*
X178757926Y-84978990D01*
X178836975Y-85115909D01*
X178836979Y-85115914D01*
X178836980Y-85115916D01*
X178948784Y-85227720D01*
X178948786Y-85227721D01*
X178948790Y-85227724D01*
X179036773Y-85278520D01*
X179085716Y-85306777D01*
X179238443Y-85347700D01*
X179238445Y-85347700D01*
X179396555Y-85347700D01*
X179396557Y-85347700D01*
X179549284Y-85306777D01*
X179686216Y-85227720D01*
X179798020Y-85115916D01*
X179877077Y-84978984D01*
X179918000Y-84826257D01*
X179918000Y-84668143D01*
X179877077Y-84515416D01*
X179827348Y-84429282D01*
X179798024Y-84378490D01*
X179798018Y-84378482D01*
X179686217Y-84266681D01*
X179686209Y-84266675D01*
X179549290Y-84187626D01*
X179549286Y-84187624D01*
X179549284Y-84187623D01*
X179396557Y-84146700D01*
X179238443Y-84146700D01*
X179085716Y-84187623D01*
X179085709Y-84187626D01*
X178948790Y-84266675D01*
X178948782Y-84266681D01*
X178836981Y-84378482D01*
X178836975Y-84378490D01*
X178757926Y-84515409D01*
X178757923Y-84515416D01*
X178717000Y-84668143D01*
X105295500Y-84668143D01*
X105295500Y-78369500D01*
X105315185Y-78302461D01*
X105367989Y-78256706D01*
X105419500Y-78245500D01*
X212070500Y-78245500D01*
X212137539Y-78265185D01*
G37*
G04 #@! TD.AperFunction*
M02*
