G04 #@! TF.GenerationSoftware,KiCad,Pcbnew,7.0.7-146-g6b43bb8fe3*
G04 #@! TF.CreationDate,2023-09-29T14:39:13+01:00*
G04 #@! TF.ProjectId,Econet_A4,45636f6e-6574-45f4-9134-2e6b69636164,01*
G04 #@! TF.SameCoordinates,Original*
G04 #@! TF.FileFunction,Soldermask,Bot*
G04 #@! TF.FilePolarity,Negative*
%FSLAX46Y46*%
G04 Gerber Fmt 4.6, Leading zero omitted, Abs format (unit mm)*
G04 Created by KiCad (PCBNEW 7.0.7-146-g6b43bb8fe3) date 2023-09-29 14:39:13*
%MOMM*%
%LPD*%
G01*
G04 APERTURE LIST*
G04 Aperture macros list*
%AMRoundRect*
0 Rectangle with rounded corners*
0 $1 Rounding radius*
0 $2 $3 $4 $5 $6 $7 $8 $9 X,Y pos of 4 corners*
0 Add a 4 corners polygon primitive as box body*
4,1,4,$2,$3,$4,$5,$6,$7,$8,$9,$2,$3,0*
0 Add four circle primitives for the rounded corners*
1,1,$1+$1,$2,$3*
1,1,$1+$1,$4,$5*
1,1,$1+$1,$6,$7*
1,1,$1+$1,$8,$9*
0 Add four rect primitives between the rounded corners*
20,1,$1+$1,$2,$3,$4,$5,0*
20,1,$1+$1,$4,$5,$6,$7,0*
20,1,$1+$1,$6,$7,$8,$9,0*
20,1,$1+$1,$8,$9,$2,$3,0*%
G04 Aperture macros list end*
%ADD10RoundRect,0.200000X-0.450000X0.200000X-0.450000X-0.200000X0.450000X-0.200000X0.450000X0.200000X0*%
%ADD11O,1.300000X0.800000*%
%ADD12R,1.350000X1.350000*%
%ADD13C,1.350000*%
%ADD14R,1.600000X1.600000*%
%ADD15O,1.600000X1.600000*%
%ADD16C,1.600000*%
%ADD17O,3.500000X2.000000*%
%ADD18O,2.000000X4.000000*%
G04 APERTURE END LIST*
D10*
X206607000Y-102745000D03*
D11*
X206607000Y-103995000D03*
X206607000Y-105245000D03*
X206607000Y-106495000D03*
X206607000Y-107745000D03*
D12*
X137475000Y-103029000D03*
D13*
X135475000Y-103029000D03*
X137475000Y-105029000D03*
X135475000Y-105029000D03*
X137475000Y-107029000D03*
X135475000Y-107029000D03*
X137475000Y-109029000D03*
X135475000Y-109029000D03*
X137475000Y-111029000D03*
X135475000Y-111029000D03*
X137475000Y-113029000D03*
X135475000Y-113029000D03*
X137475000Y-115029000D03*
X135475000Y-115029000D03*
X137475000Y-117029000D03*
X135475000Y-117029000D03*
X137475000Y-119029000D03*
X135475000Y-119029000D03*
X137475000Y-121029000D03*
X135475000Y-121029000D03*
X137475000Y-123029000D03*
X135475000Y-123029000D03*
X137475000Y-125029000D03*
X135475000Y-125029000D03*
X137475000Y-127029000D03*
X135475000Y-127029000D03*
D14*
X159615000Y-119347000D03*
D15*
X162155000Y-119347000D03*
X164695000Y-119347000D03*
X167235000Y-119347000D03*
X169775000Y-119347000D03*
X172315000Y-119347000D03*
X174855000Y-119347000D03*
X177395000Y-119347000D03*
X179935000Y-119347000D03*
X182475000Y-119347000D03*
X185015000Y-119347000D03*
X187555000Y-119347000D03*
X190095000Y-119347000D03*
X192635000Y-119347000D03*
X192635000Y-104107000D03*
X190095000Y-104107000D03*
X187555000Y-104107000D03*
X185015000Y-104107000D03*
X182475000Y-104107000D03*
X179935000Y-104107000D03*
X177395000Y-104107000D03*
X174855000Y-104107000D03*
X172315000Y-104107000D03*
X169775000Y-104107000D03*
X167235000Y-104107000D03*
X164695000Y-104107000D03*
X162155000Y-104107000D03*
X159615000Y-104107000D03*
D14*
X217169000Y-103945000D03*
D16*
X217169000Y-101845000D03*
X217169000Y-108645000D03*
X214669000Y-101845000D03*
X214669000Y-108645000D03*
D17*
X220019000Y-112095000D03*
D18*
X220819000Y-105245000D03*
D17*
X220019000Y-98395000D03*
M02*
