G04 #@! TF.GenerationSoftware,KiCad,Pcbnew,9.0.1*
G04 #@! TF.CreationDate,2025-05-03T16:21:21+01:00*
G04 #@! TF.ProjectId,Econet_A4,45636f6e-6574-45f4-9134-2e6b69636164,02*
G04 #@! TF.SameCoordinates,Original*
G04 #@! TF.FileFunction,Soldermask,Top*
G04 #@! TF.FilePolarity,Negative*
%FSLAX46Y46*%
G04 Gerber Fmt 4.6, Leading zero omitted, Abs format (unit mm)*
G04 Created by KiCad (PCBNEW 9.0.1) date 2025-05-03 16:21:21*
%MOMM*%
%LPD*%
G01*
G04 APERTURE LIST*
G04 Aperture macros list*
%AMRoundRect*
0 Rectangle with rounded corners*
0 $1 Rounding radius*
0 $2 $3 $4 $5 $6 $7 $8 $9 X,Y pos of 4 corners*
0 Add a 4 corners polygon primitive as box body*
4,1,4,$2,$3,$4,$5,$6,$7,$8,$9,$2,$3,0*
0 Add four circle primitives for the rounded corners*
1,1,$1+$1,$2,$3*
1,1,$1+$1,$4,$5*
1,1,$1+$1,$6,$7*
1,1,$1+$1,$8,$9*
0 Add four rect primitives between the rounded corners*
20,1,$1+$1,$2,$3,$4,$5,0*
20,1,$1+$1,$4,$5,$6,$7,0*
20,1,$1+$1,$6,$7,$8,$9,0*
20,1,$1+$1,$8,$9,$2,$3,0*%
G04 Aperture macros list end*
%ADD10RoundRect,0.150000X0.150000X-0.825000X0.150000X0.825000X-0.150000X0.825000X-0.150000X-0.825000X0*%
%ADD11RoundRect,0.250000X0.625000X-0.312500X0.625000X0.312500X-0.625000X0.312500X-0.625000X-0.312500X0*%
%ADD12RoundRect,0.150000X-0.587500X-0.150000X0.587500X-0.150000X0.587500X0.150000X-0.587500X0.150000X0*%
%ADD13R,1.500000X1.000000*%
%ADD14RoundRect,0.250000X0.550000X-0.550000X0.550000X0.550000X-0.550000X0.550000X-0.550000X-0.550000X0*%
%ADD15C,1.600000*%
%ADD16RoundRect,0.100000X0.100000X-0.637500X0.100000X0.637500X-0.100000X0.637500X-0.100000X-0.637500X0*%
%ADD17RoundRect,0.200000X-0.275000X0.200000X-0.275000X-0.200000X0.275000X-0.200000X0.275000X0.200000X0*%
%ADD18RoundRect,0.200000X0.275000X-0.200000X0.275000X0.200000X-0.275000X0.200000X-0.275000X-0.200000X0*%
%ADD19RoundRect,0.140000X-0.170000X0.140000X-0.170000X-0.140000X0.170000X-0.140000X0.170000X0.140000X0*%
%ADD20RoundRect,0.225000X-0.250000X0.225000X-0.250000X-0.225000X0.250000X-0.225000X0.250000X0.225000X0*%
%ADD21RoundRect,0.250000X0.475000X-0.250000X0.475000X0.250000X-0.475000X0.250000X-0.475000X-0.250000X0*%
%ADD22RoundRect,0.250000X-0.475000X0.250000X-0.475000X-0.250000X0.475000X-0.250000X0.475000X0.250000X0*%
%ADD23RoundRect,0.218750X-0.256250X0.218750X-0.256250X-0.218750X0.256250X-0.218750X0.256250X0.218750X0*%
%ADD24R,1.350000X1.350000*%
%ADD25C,1.350000*%
%ADD26RoundRect,0.200000X-0.600000X0.200000X-0.600000X-0.200000X0.600000X-0.200000X0.600000X0.200000X0*%
%ADD27RoundRect,0.200000X-0.450000X0.200000X-0.450000X-0.200000X0.450000X-0.200000X0.450000X0.200000X0*%
%ADD28O,1.300000X0.800000*%
%ADD29RoundRect,0.250001X-1.249999X0.799999X-1.249999X-0.799999X1.249999X-0.799999X1.249999X0.799999X0*%
%ADD30RoundRect,0.250000X-0.250000X-0.475000X0.250000X-0.475000X0.250000X0.475000X-0.250000X0.475000X0*%
%ADD31RoundRect,0.250000X0.250000X0.475000X-0.250000X0.475000X-0.250000X-0.475000X0.250000X-0.475000X0*%
%ADD32RoundRect,0.140000X0.170000X-0.140000X0.170000X0.140000X-0.170000X0.140000X-0.170000X-0.140000X0*%
%ADD33R,1.600000X1.600000*%
%ADD34O,3.500000X2.000000*%
%ADD35O,2.000000X4.000000*%
G04 APERTURE END LIST*
G36*
X147155000Y-101142000D02*
G01*
X148655000Y-101142000D01*
X148655000Y-100842000D01*
X147155000Y-100842000D01*
X147155000Y-101142000D01*
G37*
D10*
X195673000Y-100227000D03*
X196943000Y-100227000D03*
X198213000Y-100227000D03*
X199483000Y-100227000D03*
X199483000Y-95277000D03*
X198213000Y-95277000D03*
X196943000Y-95277000D03*
X195673000Y-95277000D03*
D11*
X210995000Y-127707500D03*
X210995000Y-124782500D03*
X210995000Y-85707500D03*
X210995000Y-82782500D03*
D12*
X152544000Y-100118000D03*
X152544000Y-102018000D03*
X154419000Y-101068000D03*
D13*
X147905000Y-101642000D03*
X147905000Y-100342000D03*
D14*
X159615000Y-119347000D03*
D15*
X162155000Y-119347000D03*
X164695000Y-119347000D03*
X167235000Y-119347000D03*
X169775000Y-119347000D03*
X172315000Y-119347000D03*
X174855000Y-119347000D03*
X177395000Y-119347000D03*
X179935000Y-119347000D03*
X182475000Y-119347000D03*
X185015000Y-119347000D03*
X187555000Y-119347000D03*
X190095000Y-119347000D03*
X192635000Y-119347000D03*
X192635000Y-104107000D03*
X190095000Y-104107000D03*
X187555000Y-104107000D03*
X185015000Y-104107000D03*
X182475000Y-104107000D03*
X179935000Y-104107000D03*
X177395000Y-104107000D03*
X174855000Y-104107000D03*
X172315000Y-104107000D03*
X169775000Y-104107000D03*
X167235000Y-104107000D03*
X164695000Y-104107000D03*
X162155000Y-104107000D03*
X159615000Y-104107000D03*
D10*
X159351000Y-92353000D03*
X160621000Y-92353000D03*
X161891000Y-92353000D03*
X163161000Y-92353000D03*
X164431000Y-92353000D03*
X165701000Y-92353000D03*
X166971000Y-92353000D03*
X168241000Y-92353000D03*
X168241000Y-87403000D03*
X166971000Y-87403000D03*
X165701000Y-87403000D03*
X164431000Y-87403000D03*
X163161000Y-87403000D03*
X161891000Y-87403000D03*
X160621000Y-87403000D03*
X159351000Y-87403000D03*
X171543000Y-100227000D03*
X172813000Y-100227000D03*
X174083000Y-100227000D03*
X175353000Y-100227000D03*
X176623000Y-100227000D03*
X177893000Y-100227000D03*
X179163000Y-100227000D03*
X179163000Y-95277000D03*
X177893000Y-95277000D03*
X176623000Y-95277000D03*
X175353000Y-95277000D03*
X174083000Y-95277000D03*
X172813000Y-95277000D03*
X171543000Y-95277000D03*
X183608000Y-100227000D03*
X184878000Y-100227000D03*
X186148000Y-100227000D03*
X187418000Y-100227000D03*
X188688000Y-100227000D03*
X189958000Y-100227000D03*
X191228000Y-100227000D03*
X191228000Y-95277000D03*
X189958000Y-95277000D03*
X188688000Y-95277000D03*
X187418000Y-95277000D03*
X186148000Y-95277000D03*
X184878000Y-95277000D03*
X183608000Y-95277000D03*
X159351000Y-100227000D03*
X160621000Y-100227000D03*
X161891000Y-100227000D03*
X163161000Y-100227000D03*
X164431000Y-100227000D03*
X165701000Y-100227000D03*
X166971000Y-100227000D03*
X166971000Y-95277000D03*
X165701000Y-95277000D03*
X164431000Y-95277000D03*
X163161000Y-95277000D03*
X161891000Y-95277000D03*
X160621000Y-95277000D03*
X159351000Y-95277000D03*
D16*
X149775000Y-112179500D03*
X150425000Y-112179500D03*
X151075000Y-112179500D03*
X151725000Y-112179500D03*
X152375000Y-112179500D03*
X153025000Y-112179500D03*
X153675000Y-112179500D03*
X154325000Y-112179500D03*
X154975000Y-112179500D03*
X155625000Y-112179500D03*
X155625000Y-106454500D03*
X154975000Y-106454500D03*
X154325000Y-106454500D03*
X153675000Y-106454500D03*
X153025000Y-106454500D03*
X152375000Y-106454500D03*
X151725000Y-106454500D03*
X151075000Y-106454500D03*
X150425000Y-106454500D03*
X149775000Y-106454500D03*
X149775000Y-123225500D03*
X150425000Y-123225500D03*
X151075000Y-123225500D03*
X151725000Y-123225500D03*
X152375000Y-123225500D03*
X153025000Y-123225500D03*
X153675000Y-123225500D03*
X154325000Y-123225500D03*
X154975000Y-123225500D03*
X155625000Y-123225500D03*
X155625000Y-117500500D03*
X154975000Y-117500500D03*
X154325000Y-117500500D03*
X153675000Y-117500500D03*
X153025000Y-117500500D03*
X152375000Y-117500500D03*
X151725000Y-117500500D03*
X151075000Y-117500500D03*
X150425000Y-117500500D03*
X149775000Y-117500500D03*
D17*
X185513000Y-84735000D03*
X185513000Y-86385000D03*
X180433000Y-88037000D03*
X180433000Y-89687000D03*
D18*
X176877000Y-89687000D03*
X176877000Y-88037000D03*
D17*
X180433000Y-91339000D03*
X180433000Y-92989000D03*
X180433000Y-84735000D03*
X180433000Y-86385000D03*
X182973000Y-84735000D03*
X182973000Y-86385000D03*
X188053000Y-84735000D03*
X188053000Y-86385000D03*
X190593000Y-84735000D03*
X190593000Y-86385000D03*
D18*
X188053000Y-89687000D03*
X188053000Y-88037000D03*
X185513000Y-89687000D03*
X185513000Y-88037000D03*
D19*
X170019000Y-99812000D03*
X170019000Y-100772000D03*
D18*
X182973000Y-92989000D03*
X182973000Y-91339000D03*
X182973000Y-89687000D03*
X182973000Y-88037000D03*
D19*
X157827000Y-92168000D03*
X157827000Y-93128000D03*
D17*
X174337000Y-91339000D03*
X174337000Y-92989000D03*
X171797000Y-91339000D03*
X171797000Y-92989000D03*
X185513000Y-91339000D03*
X185513000Y-92989000D03*
D20*
X193768000Y-95199000D03*
X193768000Y-96749000D03*
D18*
X188053000Y-92989000D03*
X188053000Y-91339000D03*
D19*
X195673000Y-119347000D03*
X195673000Y-120307000D03*
D18*
X169638000Y-96799000D03*
X169638000Y-95149000D03*
X176877000Y-86385000D03*
X176877000Y-84735000D03*
D17*
X176877000Y-91339000D03*
X176877000Y-92989000D03*
D18*
X174337000Y-89687000D03*
X174337000Y-88037000D03*
D21*
X159605000Y-84986000D03*
X159605000Y-83086000D03*
D22*
X165193000Y-83086000D03*
X165193000Y-84986000D03*
D18*
X171797000Y-89687000D03*
X171797000Y-88037000D03*
X174337000Y-86385000D03*
X174337000Y-84735000D03*
D20*
X181703000Y-95199000D03*
X181703000Y-96749000D03*
D17*
X190593000Y-91339000D03*
X190593000Y-92989000D03*
D19*
X182084000Y-99812000D03*
X182084000Y-100772000D03*
D18*
X190593000Y-89687000D03*
X190593000Y-88037000D03*
D21*
X162399000Y-84986000D03*
X162399000Y-83086000D03*
D23*
X195673000Y-91376500D03*
X195673000Y-92951500D03*
D17*
X148270000Y-119984000D03*
X148270000Y-121634000D03*
D24*
X137475000Y-103029000D03*
D25*
X135475000Y-103029000D03*
X137475000Y-105029000D03*
X135475000Y-105029000D03*
X137475000Y-107029000D03*
X135475000Y-107029000D03*
X137475000Y-109029000D03*
X135475000Y-109029000D03*
X137475000Y-111029000D03*
X135475000Y-111029000D03*
X137475000Y-113029000D03*
X135475000Y-113029000D03*
X137475000Y-115029000D03*
X135475000Y-115029000D03*
X137475000Y-117029000D03*
X135475000Y-117029000D03*
X137475000Y-119029000D03*
X135475000Y-119029000D03*
X137475000Y-121029000D03*
X135475000Y-121029000D03*
X137475000Y-123029000D03*
X135475000Y-123029000D03*
X137475000Y-125029000D03*
X135475000Y-125029000D03*
X137475000Y-127029000D03*
X135475000Y-127029000D03*
D26*
X208345000Y-109222000D03*
D27*
X206595000Y-109222000D03*
D26*
X208345000Y-110472000D03*
D28*
X206595000Y-110472000D03*
D26*
X208345000Y-111722000D03*
D28*
X206595000Y-111722000D03*
D26*
X208345000Y-112972000D03*
D28*
X206595000Y-112972000D03*
D26*
X208345000Y-114222000D03*
D28*
X206595000Y-114222000D03*
D29*
X205445000Y-106672000D03*
X205445000Y-116772000D03*
D30*
X149892000Y-103975000D03*
X151792000Y-103975000D03*
D18*
X193133000Y-86385000D03*
X193133000Y-84735000D03*
D19*
X148382000Y-106777000D03*
X148382000Y-107737000D03*
D23*
X195673000Y-88074500D03*
X195673000Y-89649500D03*
D31*
X197131000Y-103594000D03*
X195231000Y-103594000D03*
D18*
X193133000Y-92989000D03*
X193133000Y-91339000D03*
D19*
X148382000Y-117597000D03*
X148382000Y-118557000D03*
D23*
X167987000Y-83248500D03*
X167987000Y-84823500D03*
D19*
X157827000Y-99812000D03*
X157827000Y-100772000D03*
D23*
X195673000Y-84772500D03*
X195673000Y-86347500D03*
D30*
X154464000Y-103975000D03*
X156364000Y-103975000D03*
D18*
X193133000Y-89687000D03*
X193133000Y-88037000D03*
X150445000Y-101817000D03*
X150445000Y-100167000D03*
D17*
X171797000Y-84735000D03*
X171797000Y-86385000D03*
D32*
X194149000Y-100772000D03*
X194149000Y-99812000D03*
D33*
X217169000Y-103945000D03*
D15*
X217169000Y-101845000D03*
X217169000Y-108645000D03*
X214669000Y-101845000D03*
X214669000Y-108645000D03*
D34*
X220019000Y-112095000D03*
D15*
X217169000Y-106545000D03*
D35*
X220819000Y-105245000D03*
D34*
X220019000Y-98395000D03*
M02*
