G04 #@! TF.GenerationSoftware,KiCad,Pcbnew,7.0.7-146-g6b43bb8fe3*
G04 #@! TF.CreationDate,2023-09-29T14:39:13+01:00*
G04 #@! TF.ProjectId,Econet_A4,45636f6e-6574-45f4-9134-2e6b69636164,01*
G04 #@! TF.SameCoordinates,Original*
G04 #@! TF.FileFunction,Profile,NP*
%FSLAX46Y46*%
G04 Gerber Fmt 4.6, Leading zero omitted, Abs format (unit mm)*
G04 Created by KiCad (PCBNEW 7.0.7-146-g6b43bb8fe3) date 2023-09-29 14:39:13*
%MOMM*%
%LPD*%
G01*
G04 APERTURE LIST*
G04 #@! TA.AperFunction,Profile*
%ADD10C,0.250000*%
G04 #@! TD*
G04 APERTURE END LIST*
D10*
X214745000Y-91745000D02*
G75*
G03*
X214745000Y-91745000I-1750000J0D01*
G01*
X212495000Y-137545000D02*
X212495000Y-122745000D01*
X112995000Y-87745000D02*
X112995000Y-127745000D01*
X104995000Y-127745000D02*
X104995000Y-137545000D01*
X112995000Y-127745000D02*
X104995000Y-127745000D01*
X118745000Y-107745000D02*
G75*
G03*
X118745000Y-107745000I-1250000J0D01*
G01*
X222495000Y-87745000D02*
X212495000Y-87745000D01*
X212495000Y-77945000D02*
X104995000Y-77945000D01*
X225995000Y-106745000D02*
X225995000Y-94745000D01*
X222495000Y-122745000D02*
X222495000Y-115745000D01*
X212495000Y-122745000D02*
X222495000Y-122745000D01*
X222495000Y-106745000D02*
X225995000Y-106745000D01*
X104995000Y-87745000D02*
X112995000Y-87745000D01*
X222495000Y-94745000D02*
X222495000Y-87745000D01*
X104995000Y-77945000D02*
X104995000Y-87745000D01*
X222495000Y-110545000D02*
X222495000Y-106745000D01*
X104995000Y-137545000D02*
X212495000Y-137545000D01*
X222495000Y-115745000D02*
X225995000Y-115745000D01*
X212495000Y-87745000D02*
X212495000Y-77945000D01*
X225995000Y-110545000D02*
X222495000Y-110545000D01*
X225995000Y-115745000D02*
X225995000Y-110545000D01*
X225995000Y-94745000D02*
X222495000Y-94745000D01*
M02*
