G04 #@! TF.GenerationSoftware,KiCad,Pcbnew,7.0.7-146-g6b43bb8fe3*
G04 #@! TF.CreationDate,2023-09-29T14:39:13+01:00*
G04 #@! TF.ProjectId,Econet_A4,45636f6e-6574-45f4-9134-2e6b69636164,01*
G04 #@! TF.SameCoordinates,Original*
G04 #@! TF.FileFunction,Legend,Top*
G04 #@! TF.FilePolarity,Positive*
%FSLAX46Y46*%
G04 Gerber Fmt 4.6, Leading zero omitted, Abs format (unit mm)*
G04 Created by KiCad (PCBNEW 7.0.7-146-g6b43bb8fe3) date 2023-09-29 14:39:13*
%MOMM*%
%LPD*%
G01*
G04 APERTURE LIST*
%ADD10C,0.200000*%
%ADD11C,0.120000*%
%ADD12C,0.100000*%
%ADD13C,0.150000*%
G04 APERTURE END LIST*
D10*
X117282000Y-84588600D02*
X133792000Y-84588600D01*
X133792000Y-89922600D01*
X117282000Y-89922600D01*
X117282000Y-84588600D01*
D11*
X117536000Y-84842600D02*
X133538000Y-84842600D01*
X133538000Y-89668600D01*
X117536000Y-89668600D01*
X117536000Y-84842600D01*
D10*
X119894142Y-85805671D02*
X119751285Y-85734242D01*
X119751285Y-85734242D02*
X119465571Y-85734242D01*
X119465571Y-85734242D02*
X119322714Y-85805671D01*
X119322714Y-85805671D02*
X119179856Y-85948528D01*
X119179856Y-85948528D02*
X119108428Y-86091385D01*
X119108428Y-86091385D02*
X119108428Y-86377100D01*
X119108428Y-86377100D02*
X119179856Y-86519957D01*
X119179856Y-86519957D02*
X119322714Y-86662814D01*
X119322714Y-86662814D02*
X119465571Y-86734242D01*
X119465571Y-86734242D02*
X119751285Y-86734242D01*
X119751285Y-86734242D02*
X119894142Y-86662814D01*
X119608428Y-85234242D02*
X119251285Y-85305671D01*
X119251285Y-85305671D02*
X118894142Y-85519957D01*
X118894142Y-85519957D02*
X118679856Y-85877100D01*
X118679856Y-85877100D02*
X118608428Y-86234242D01*
X118608428Y-86234242D02*
X118679856Y-86591385D01*
X118679856Y-86591385D02*
X118894142Y-86948528D01*
X118894142Y-86948528D02*
X119251285Y-87162814D01*
X119251285Y-87162814D02*
X119608428Y-87234242D01*
X119608428Y-87234242D02*
X119965571Y-87162814D01*
X119965571Y-87162814D02*
X120322714Y-86948528D01*
X120322714Y-86948528D02*
X120536999Y-86591385D01*
X120536999Y-86591385D02*
X120608428Y-86234242D01*
X120608428Y-86234242D02*
X120536999Y-85877100D01*
X120536999Y-85877100D02*
X120322714Y-85519957D01*
X120322714Y-85519957D02*
X119965571Y-85305671D01*
X119965571Y-85305671D02*
X119608428Y-85234242D01*
X122394142Y-86948528D02*
X122394142Y-85448528D01*
X123251285Y-86948528D02*
X122608428Y-86091385D01*
X123251285Y-85448528D02*
X122394142Y-86305671D01*
X124465571Y-86877100D02*
X124322714Y-86948528D01*
X124322714Y-86948528D02*
X124037000Y-86948528D01*
X124037000Y-86948528D02*
X123894142Y-86877100D01*
X123894142Y-86877100D02*
X123822714Y-86734242D01*
X123822714Y-86734242D02*
X123822714Y-86162814D01*
X123822714Y-86162814D02*
X123894142Y-86019957D01*
X123894142Y-86019957D02*
X124037000Y-85948528D01*
X124037000Y-85948528D02*
X124322714Y-85948528D01*
X124322714Y-85948528D02*
X124465571Y-86019957D01*
X124465571Y-86019957D02*
X124537000Y-86162814D01*
X124537000Y-86162814D02*
X124537000Y-86305671D01*
X124537000Y-86305671D02*
X123822714Y-86448528D01*
X125179856Y-85948528D02*
X125179856Y-86948528D01*
X125179856Y-86091385D02*
X125251285Y-86019957D01*
X125251285Y-86019957D02*
X125394142Y-85948528D01*
X125394142Y-85948528D02*
X125608428Y-85948528D01*
X125608428Y-85948528D02*
X125751285Y-86019957D01*
X125751285Y-86019957D02*
X125822714Y-86162814D01*
X125822714Y-86162814D02*
X125822714Y-86948528D01*
X128394142Y-86948528D02*
X127679856Y-86948528D01*
X127679856Y-86948528D02*
X127679856Y-85448528D01*
X129108428Y-86948528D02*
X128965571Y-86877100D01*
X128965571Y-86877100D02*
X128894142Y-86805671D01*
X128894142Y-86805671D02*
X128822714Y-86662814D01*
X128822714Y-86662814D02*
X128822714Y-86234242D01*
X128822714Y-86234242D02*
X128894142Y-86091385D01*
X128894142Y-86091385D02*
X128965571Y-86019957D01*
X128965571Y-86019957D02*
X129108428Y-85948528D01*
X129108428Y-85948528D02*
X129322714Y-85948528D01*
X129322714Y-85948528D02*
X129465571Y-86019957D01*
X129465571Y-86019957D02*
X129537000Y-86091385D01*
X129537000Y-86091385D02*
X129608428Y-86234242D01*
X129608428Y-86234242D02*
X129608428Y-86662814D01*
X129608428Y-86662814D02*
X129537000Y-86805671D01*
X129537000Y-86805671D02*
X129465571Y-86877100D01*
X129465571Y-86877100D02*
X129322714Y-86948528D01*
X129322714Y-86948528D02*
X129108428Y-86948528D01*
X130108428Y-85948528D02*
X130394143Y-86948528D01*
X130394143Y-86948528D02*
X130679857Y-86234242D01*
X130679857Y-86234242D02*
X130965571Y-86948528D01*
X130965571Y-86948528D02*
X131251285Y-85948528D01*
X132394143Y-86877100D02*
X132251286Y-86948528D01*
X132251286Y-86948528D02*
X131965572Y-86948528D01*
X131965572Y-86948528D02*
X131822714Y-86877100D01*
X131822714Y-86877100D02*
X131751286Y-86734242D01*
X131751286Y-86734242D02*
X131751286Y-86162814D01*
X131751286Y-86162814D02*
X131822714Y-86019957D01*
X131822714Y-86019957D02*
X131965572Y-85948528D01*
X131965572Y-85948528D02*
X132251286Y-85948528D01*
X132251286Y-85948528D02*
X132394143Y-86019957D01*
X132394143Y-86019957D02*
X132465572Y-86162814D01*
X132465572Y-86162814D02*
X132465572Y-86305671D01*
X132465572Y-86305671D02*
X131751286Y-86448528D01*
D12*
X209589455Y-104313633D02*
X209589455Y-103613633D01*
X209589455Y-103613633D02*
X209756122Y-103613633D01*
X209756122Y-103613633D02*
X209856122Y-103646966D01*
X209856122Y-103646966D02*
X209922789Y-103713633D01*
X209922789Y-103713633D02*
X209956122Y-103780300D01*
X209956122Y-103780300D02*
X209989455Y-103913633D01*
X209989455Y-103913633D02*
X209989455Y-104013633D01*
X209989455Y-104013633D02*
X209956122Y-104146966D01*
X209956122Y-104146966D02*
X209922789Y-104213633D01*
X209922789Y-104213633D02*
X209856122Y-104280300D01*
X209856122Y-104280300D02*
X209756122Y-104313633D01*
X209756122Y-104313633D02*
X209589455Y-104313633D01*
X210289455Y-104046966D02*
X210822789Y-104046966D01*
D13*
X123638666Y-91417819D02*
X123305333Y-90941628D01*
X123067238Y-91417819D02*
X123067238Y-90417819D01*
X123067238Y-90417819D02*
X123448190Y-90417819D01*
X123448190Y-90417819D02*
X123543428Y-90465438D01*
X123543428Y-90465438D02*
X123591047Y-90513057D01*
X123591047Y-90513057D02*
X123638666Y-90608295D01*
X123638666Y-90608295D02*
X123638666Y-90751152D01*
X123638666Y-90751152D02*
X123591047Y-90846390D01*
X123591047Y-90846390D02*
X123543428Y-90894009D01*
X123543428Y-90894009D02*
X123448190Y-90941628D01*
X123448190Y-90941628D02*
X123067238Y-90941628D01*
X124448190Y-91370200D02*
X124352952Y-91417819D01*
X124352952Y-91417819D02*
X124162476Y-91417819D01*
X124162476Y-91417819D02*
X124067238Y-91370200D01*
X124067238Y-91370200D02*
X124019619Y-91274961D01*
X124019619Y-91274961D02*
X124019619Y-90894009D01*
X124019619Y-90894009D02*
X124067238Y-90798771D01*
X124067238Y-90798771D02*
X124162476Y-90751152D01*
X124162476Y-90751152D02*
X124352952Y-90751152D01*
X124352952Y-90751152D02*
X124448190Y-90798771D01*
X124448190Y-90798771D02*
X124495809Y-90894009D01*
X124495809Y-90894009D02*
X124495809Y-90989247D01*
X124495809Y-90989247D02*
X124019619Y-91084485D01*
X124829143Y-90751152D02*
X125067238Y-91417819D01*
X125067238Y-91417819D02*
X125305333Y-90751152D01*
X126638667Y-90417819D02*
X126733905Y-90417819D01*
X126733905Y-90417819D02*
X126829143Y-90465438D01*
X126829143Y-90465438D02*
X126876762Y-90513057D01*
X126876762Y-90513057D02*
X126924381Y-90608295D01*
X126924381Y-90608295D02*
X126972000Y-90798771D01*
X126972000Y-90798771D02*
X126972000Y-91036866D01*
X126972000Y-91036866D02*
X126924381Y-91227342D01*
X126924381Y-91227342D02*
X126876762Y-91322580D01*
X126876762Y-91322580D02*
X126829143Y-91370200D01*
X126829143Y-91370200D02*
X126733905Y-91417819D01*
X126733905Y-91417819D02*
X126638667Y-91417819D01*
X126638667Y-91417819D02*
X126543429Y-91370200D01*
X126543429Y-91370200D02*
X126495810Y-91322580D01*
X126495810Y-91322580D02*
X126448191Y-91227342D01*
X126448191Y-91227342D02*
X126400572Y-91036866D01*
X126400572Y-91036866D02*
X126400572Y-90798771D01*
X126400572Y-90798771D02*
X126448191Y-90608295D01*
X126448191Y-90608295D02*
X126495810Y-90513057D01*
X126495810Y-90513057D02*
X126543429Y-90465438D01*
X126543429Y-90465438D02*
X126638667Y-90417819D01*
X127924381Y-91417819D02*
X127352953Y-91417819D01*
X127638667Y-91417819D02*
X127638667Y-90417819D01*
X127638667Y-90417819D02*
X127543429Y-90560676D01*
X127543429Y-90560676D02*
X127448191Y-90655914D01*
X127448191Y-90655914D02*
X127352953Y-90703533D01*
X122402333Y-80929104D02*
X122878523Y-80929104D01*
X122307095Y-81214819D02*
X122640428Y-80214819D01*
X122640428Y-80214819D02*
X122973761Y-81214819D01*
X123735666Y-81167200D02*
X123640428Y-81214819D01*
X123640428Y-81214819D02*
X123449952Y-81214819D01*
X123449952Y-81214819D02*
X123354714Y-81167200D01*
X123354714Y-81167200D02*
X123307095Y-81119580D01*
X123307095Y-81119580D02*
X123259476Y-81024342D01*
X123259476Y-81024342D02*
X123259476Y-80738628D01*
X123259476Y-80738628D02*
X123307095Y-80643390D01*
X123307095Y-80643390D02*
X123354714Y-80595771D01*
X123354714Y-80595771D02*
X123449952Y-80548152D01*
X123449952Y-80548152D02*
X123640428Y-80548152D01*
X123640428Y-80548152D02*
X123735666Y-80595771D01*
X124307095Y-81214819D02*
X124211857Y-81167200D01*
X124211857Y-81167200D02*
X124164238Y-81119580D01*
X124164238Y-81119580D02*
X124116619Y-81024342D01*
X124116619Y-81024342D02*
X124116619Y-80738628D01*
X124116619Y-80738628D02*
X124164238Y-80643390D01*
X124164238Y-80643390D02*
X124211857Y-80595771D01*
X124211857Y-80595771D02*
X124307095Y-80548152D01*
X124307095Y-80548152D02*
X124449952Y-80548152D01*
X124449952Y-80548152D02*
X124545190Y-80595771D01*
X124545190Y-80595771D02*
X124592809Y-80643390D01*
X124592809Y-80643390D02*
X124640428Y-80738628D01*
X124640428Y-80738628D02*
X124640428Y-81024342D01*
X124640428Y-81024342D02*
X124592809Y-81119580D01*
X124592809Y-81119580D02*
X124545190Y-81167200D01*
X124545190Y-81167200D02*
X124449952Y-81214819D01*
X124449952Y-81214819D02*
X124307095Y-81214819D01*
X125069000Y-81214819D02*
X125069000Y-80548152D01*
X125069000Y-80738628D02*
X125116619Y-80643390D01*
X125116619Y-80643390D02*
X125164238Y-80595771D01*
X125164238Y-80595771D02*
X125259476Y-80548152D01*
X125259476Y-80548152D02*
X125354714Y-80548152D01*
X125688048Y-80548152D02*
X125688048Y-81214819D01*
X125688048Y-80643390D02*
X125735667Y-80595771D01*
X125735667Y-80595771D02*
X125830905Y-80548152D01*
X125830905Y-80548152D02*
X125973762Y-80548152D01*
X125973762Y-80548152D02*
X126069000Y-80595771D01*
X126069000Y-80595771D02*
X126116619Y-80691009D01*
X126116619Y-80691009D02*
X126116619Y-81214819D01*
X127307096Y-80929104D02*
X127783286Y-80929104D01*
X127211858Y-81214819D02*
X127545191Y-80214819D01*
X127545191Y-80214819D02*
X127878524Y-81214819D01*
X128640429Y-80548152D02*
X128640429Y-81214819D01*
X128402334Y-80167200D02*
X128164239Y-80881485D01*
X128164239Y-80881485D02*
X128783286Y-80881485D01*
X120307094Y-82301009D02*
X120640427Y-82301009D01*
X120783284Y-82824819D02*
X120307094Y-82824819D01*
X120307094Y-82824819D02*
X120307094Y-81824819D01*
X120307094Y-81824819D02*
X120783284Y-81824819D01*
X121640427Y-82777200D02*
X121545189Y-82824819D01*
X121545189Y-82824819D02*
X121354713Y-82824819D01*
X121354713Y-82824819D02*
X121259475Y-82777200D01*
X121259475Y-82777200D02*
X121211856Y-82729580D01*
X121211856Y-82729580D02*
X121164237Y-82634342D01*
X121164237Y-82634342D02*
X121164237Y-82348628D01*
X121164237Y-82348628D02*
X121211856Y-82253390D01*
X121211856Y-82253390D02*
X121259475Y-82205771D01*
X121259475Y-82205771D02*
X121354713Y-82158152D01*
X121354713Y-82158152D02*
X121545189Y-82158152D01*
X121545189Y-82158152D02*
X121640427Y-82205771D01*
X122211856Y-82824819D02*
X122116618Y-82777200D01*
X122116618Y-82777200D02*
X122068999Y-82729580D01*
X122068999Y-82729580D02*
X122021380Y-82634342D01*
X122021380Y-82634342D02*
X122021380Y-82348628D01*
X122021380Y-82348628D02*
X122068999Y-82253390D01*
X122068999Y-82253390D02*
X122116618Y-82205771D01*
X122116618Y-82205771D02*
X122211856Y-82158152D01*
X122211856Y-82158152D02*
X122354713Y-82158152D01*
X122354713Y-82158152D02*
X122449951Y-82205771D01*
X122449951Y-82205771D02*
X122497570Y-82253390D01*
X122497570Y-82253390D02*
X122545189Y-82348628D01*
X122545189Y-82348628D02*
X122545189Y-82634342D01*
X122545189Y-82634342D02*
X122497570Y-82729580D01*
X122497570Y-82729580D02*
X122449951Y-82777200D01*
X122449951Y-82777200D02*
X122354713Y-82824819D01*
X122354713Y-82824819D02*
X122211856Y-82824819D01*
X122973761Y-82158152D02*
X122973761Y-82824819D01*
X122973761Y-82253390D02*
X123021380Y-82205771D01*
X123021380Y-82205771D02*
X123116618Y-82158152D01*
X123116618Y-82158152D02*
X123259475Y-82158152D01*
X123259475Y-82158152D02*
X123354713Y-82205771D01*
X123354713Y-82205771D02*
X123402332Y-82301009D01*
X123402332Y-82301009D02*
X123402332Y-82824819D01*
X124259475Y-82777200D02*
X124164237Y-82824819D01*
X124164237Y-82824819D02*
X123973761Y-82824819D01*
X123973761Y-82824819D02*
X123878523Y-82777200D01*
X123878523Y-82777200D02*
X123830904Y-82681961D01*
X123830904Y-82681961D02*
X123830904Y-82301009D01*
X123830904Y-82301009D02*
X123878523Y-82205771D01*
X123878523Y-82205771D02*
X123973761Y-82158152D01*
X123973761Y-82158152D02*
X124164237Y-82158152D01*
X124164237Y-82158152D02*
X124259475Y-82205771D01*
X124259475Y-82205771D02*
X124307094Y-82301009D01*
X124307094Y-82301009D02*
X124307094Y-82396247D01*
X124307094Y-82396247D02*
X123830904Y-82491485D01*
X124592809Y-82158152D02*
X124973761Y-82158152D01*
X124735666Y-81824819D02*
X124735666Y-82681961D01*
X124735666Y-82681961D02*
X124783285Y-82777200D01*
X124783285Y-82777200D02*
X124878523Y-82824819D01*
X124878523Y-82824819D02*
X124973761Y-82824819D01*
X126069000Y-82824819D02*
X126069000Y-81824819D01*
X126069000Y-81824819D02*
X126402333Y-82539104D01*
X126402333Y-82539104D02*
X126735666Y-81824819D01*
X126735666Y-81824819D02*
X126735666Y-82824819D01*
X127354714Y-82824819D02*
X127259476Y-82777200D01*
X127259476Y-82777200D02*
X127211857Y-82729580D01*
X127211857Y-82729580D02*
X127164238Y-82634342D01*
X127164238Y-82634342D02*
X127164238Y-82348628D01*
X127164238Y-82348628D02*
X127211857Y-82253390D01*
X127211857Y-82253390D02*
X127259476Y-82205771D01*
X127259476Y-82205771D02*
X127354714Y-82158152D01*
X127354714Y-82158152D02*
X127497571Y-82158152D01*
X127497571Y-82158152D02*
X127592809Y-82205771D01*
X127592809Y-82205771D02*
X127640428Y-82253390D01*
X127640428Y-82253390D02*
X127688047Y-82348628D01*
X127688047Y-82348628D02*
X127688047Y-82634342D01*
X127688047Y-82634342D02*
X127640428Y-82729580D01*
X127640428Y-82729580D02*
X127592809Y-82777200D01*
X127592809Y-82777200D02*
X127497571Y-82824819D01*
X127497571Y-82824819D02*
X127354714Y-82824819D01*
X128545190Y-82824819D02*
X128545190Y-81824819D01*
X128545190Y-82777200D02*
X128449952Y-82824819D01*
X128449952Y-82824819D02*
X128259476Y-82824819D01*
X128259476Y-82824819D02*
X128164238Y-82777200D01*
X128164238Y-82777200D02*
X128116619Y-82729580D01*
X128116619Y-82729580D02*
X128069000Y-82634342D01*
X128069000Y-82634342D02*
X128069000Y-82348628D01*
X128069000Y-82348628D02*
X128116619Y-82253390D01*
X128116619Y-82253390D02*
X128164238Y-82205771D01*
X128164238Y-82205771D02*
X128259476Y-82158152D01*
X128259476Y-82158152D02*
X128449952Y-82158152D01*
X128449952Y-82158152D02*
X128545190Y-82205771D01*
X129449952Y-82158152D02*
X129449952Y-82824819D01*
X129021381Y-82158152D02*
X129021381Y-82681961D01*
X129021381Y-82681961D02*
X129069000Y-82777200D01*
X129069000Y-82777200D02*
X129164238Y-82824819D01*
X129164238Y-82824819D02*
X129307095Y-82824819D01*
X129307095Y-82824819D02*
X129402333Y-82777200D01*
X129402333Y-82777200D02*
X129449952Y-82729580D01*
X130069000Y-82824819D02*
X129973762Y-82777200D01*
X129973762Y-82777200D02*
X129926143Y-82681961D01*
X129926143Y-82681961D02*
X129926143Y-81824819D01*
X130830905Y-82777200D02*
X130735667Y-82824819D01*
X130735667Y-82824819D02*
X130545191Y-82824819D01*
X130545191Y-82824819D02*
X130449953Y-82777200D01*
X130449953Y-82777200D02*
X130402334Y-82681961D01*
X130402334Y-82681961D02*
X130402334Y-82301009D01*
X130402334Y-82301009D02*
X130449953Y-82205771D01*
X130449953Y-82205771D02*
X130545191Y-82158152D01*
X130545191Y-82158152D02*
X130735667Y-82158152D01*
X130735667Y-82158152D02*
X130830905Y-82205771D01*
X130830905Y-82205771D02*
X130878524Y-82301009D01*
X130878524Y-82301009D02*
X130878524Y-82396247D01*
X130878524Y-82396247D02*
X130402334Y-82491485D01*
D12*
X209989455Y-107996966D02*
X209956122Y-108030300D01*
X209956122Y-108030300D02*
X209856122Y-108063633D01*
X209856122Y-108063633D02*
X209789455Y-108063633D01*
X209789455Y-108063633D02*
X209689455Y-108030300D01*
X209689455Y-108030300D02*
X209622789Y-107963633D01*
X209622789Y-107963633D02*
X209589455Y-107896966D01*
X209589455Y-107896966D02*
X209556122Y-107763633D01*
X209556122Y-107763633D02*
X209556122Y-107663633D01*
X209556122Y-107663633D02*
X209589455Y-107530300D01*
X209589455Y-107530300D02*
X209622789Y-107463633D01*
X209622789Y-107463633D02*
X209689455Y-107396966D01*
X209689455Y-107396966D02*
X209789455Y-107363633D01*
X209789455Y-107363633D02*
X209856122Y-107363633D01*
X209856122Y-107363633D02*
X209956122Y-107396966D01*
X209956122Y-107396966D02*
X209989455Y-107430300D01*
X210389455Y-108063633D02*
X210322789Y-108030300D01*
X210322789Y-108030300D02*
X210289455Y-107963633D01*
X210289455Y-107963633D02*
X210289455Y-107363633D01*
X210656122Y-108063633D02*
X210656122Y-107363633D01*
X210722789Y-107796966D02*
X210922789Y-108063633D01*
X210922789Y-107596966D02*
X210656122Y-107863633D01*
X211222789Y-107796966D02*
X211756123Y-107796966D01*
X160049455Y-116432133D02*
X160049455Y-116932133D01*
X160049455Y-116932133D02*
X160016122Y-117032133D01*
X160016122Y-117032133D02*
X159949455Y-117098800D01*
X159949455Y-117098800D02*
X159849455Y-117132133D01*
X159849455Y-117132133D02*
X159782789Y-117132133D01*
X160716122Y-117132133D02*
X160382788Y-117132133D01*
X160382788Y-117132133D02*
X160382788Y-116432133D01*
X161349455Y-117065466D02*
X161316122Y-117098800D01*
X161316122Y-117098800D02*
X161216122Y-117132133D01*
X161216122Y-117132133D02*
X161149455Y-117132133D01*
X161149455Y-117132133D02*
X161049455Y-117098800D01*
X161049455Y-117098800D02*
X160982789Y-117032133D01*
X160982789Y-117032133D02*
X160949455Y-116965466D01*
X160949455Y-116965466D02*
X160916122Y-116832133D01*
X160916122Y-116832133D02*
X160916122Y-116732133D01*
X160916122Y-116732133D02*
X160949455Y-116598800D01*
X160949455Y-116598800D02*
X160982789Y-116532133D01*
X160982789Y-116532133D02*
X161049455Y-116465466D01*
X161049455Y-116465466D02*
X161149455Y-116432133D01*
X161149455Y-116432133D02*
X161216122Y-116432133D01*
X161216122Y-116432133D02*
X161316122Y-116465466D01*
X161316122Y-116465466D02*
X161349455Y-116498800D01*
X161849455Y-116432133D02*
X161849455Y-116932133D01*
X161849455Y-116932133D02*
X161816122Y-117032133D01*
X161816122Y-117032133D02*
X161749455Y-117098800D01*
X161749455Y-117098800D02*
X161649455Y-117132133D01*
X161649455Y-117132133D02*
X161582789Y-117132133D01*
X162516122Y-117132133D02*
X162182788Y-117132133D01*
X162182788Y-117132133D02*
X162182788Y-116432133D01*
X163149455Y-117065466D02*
X163116122Y-117098800D01*
X163116122Y-117098800D02*
X163016122Y-117132133D01*
X163016122Y-117132133D02*
X162949455Y-117132133D01*
X162949455Y-117132133D02*
X162849455Y-117098800D01*
X162849455Y-117098800D02*
X162782789Y-117032133D01*
X162782789Y-117032133D02*
X162749455Y-116965466D01*
X162749455Y-116965466D02*
X162716122Y-116832133D01*
X162716122Y-116832133D02*
X162716122Y-116732133D01*
X162716122Y-116732133D02*
X162749455Y-116598800D01*
X162749455Y-116598800D02*
X162782789Y-116532133D01*
X162782789Y-116532133D02*
X162849455Y-116465466D01*
X162849455Y-116465466D02*
X162949455Y-116432133D01*
X162949455Y-116432133D02*
X163016122Y-116432133D01*
X163016122Y-116432133D02*
X163116122Y-116465466D01*
X163116122Y-116465466D02*
X163149455Y-116498800D01*
X163649455Y-116432133D02*
X163649455Y-116932133D01*
X163649455Y-116932133D02*
X163616122Y-117032133D01*
X163616122Y-117032133D02*
X163549455Y-117098800D01*
X163549455Y-117098800D02*
X163449455Y-117132133D01*
X163449455Y-117132133D02*
X163382789Y-117132133D01*
X164316122Y-117132133D02*
X163982788Y-117132133D01*
X163982788Y-117132133D02*
X163982788Y-116432133D01*
X164949455Y-117065466D02*
X164916122Y-117098800D01*
X164916122Y-117098800D02*
X164816122Y-117132133D01*
X164816122Y-117132133D02*
X164749455Y-117132133D01*
X164749455Y-117132133D02*
X164649455Y-117098800D01*
X164649455Y-117098800D02*
X164582789Y-117032133D01*
X164582789Y-117032133D02*
X164549455Y-116965466D01*
X164549455Y-116965466D02*
X164516122Y-116832133D01*
X164516122Y-116832133D02*
X164516122Y-116732133D01*
X164516122Y-116732133D02*
X164549455Y-116598800D01*
X164549455Y-116598800D02*
X164582789Y-116532133D01*
X164582789Y-116532133D02*
X164649455Y-116465466D01*
X164649455Y-116465466D02*
X164749455Y-116432133D01*
X164749455Y-116432133D02*
X164816122Y-116432133D01*
X164816122Y-116432133D02*
X164916122Y-116465466D01*
X164916122Y-116465466D02*
X164949455Y-116498800D01*
X165449455Y-116432133D02*
X165449455Y-116932133D01*
X165449455Y-116932133D02*
X165416122Y-117032133D01*
X165416122Y-117032133D02*
X165349455Y-117098800D01*
X165349455Y-117098800D02*
X165249455Y-117132133D01*
X165249455Y-117132133D02*
X165182789Y-117132133D01*
X166116122Y-117132133D02*
X165782788Y-117132133D01*
X165782788Y-117132133D02*
X165782788Y-116432133D01*
X166749455Y-117065466D02*
X166716122Y-117098800D01*
X166716122Y-117098800D02*
X166616122Y-117132133D01*
X166616122Y-117132133D02*
X166549455Y-117132133D01*
X166549455Y-117132133D02*
X166449455Y-117098800D01*
X166449455Y-117098800D02*
X166382789Y-117032133D01*
X166382789Y-117032133D02*
X166349455Y-116965466D01*
X166349455Y-116965466D02*
X166316122Y-116832133D01*
X166316122Y-116832133D02*
X166316122Y-116732133D01*
X166316122Y-116732133D02*
X166349455Y-116598800D01*
X166349455Y-116598800D02*
X166382789Y-116532133D01*
X166382789Y-116532133D02*
X166449455Y-116465466D01*
X166449455Y-116465466D02*
X166549455Y-116432133D01*
X166549455Y-116432133D02*
X166616122Y-116432133D01*
X166616122Y-116432133D02*
X166716122Y-116465466D01*
X166716122Y-116465466D02*
X166749455Y-116498800D01*
X162742761Y-89383895D02*
X162742761Y-89955323D01*
X162742761Y-89955323D02*
X162704666Y-90069609D01*
X162704666Y-90069609D02*
X162628475Y-90145800D01*
X162628475Y-90145800D02*
X162514190Y-90183895D01*
X162514190Y-90183895D02*
X162437999Y-90183895D01*
X163504666Y-90183895D02*
X163123714Y-90183895D01*
X163123714Y-90183895D02*
X163123714Y-89383895D01*
X164228476Y-90107704D02*
X164190380Y-90145800D01*
X164190380Y-90145800D02*
X164076095Y-90183895D01*
X164076095Y-90183895D02*
X163999904Y-90183895D01*
X163999904Y-90183895D02*
X163885618Y-90145800D01*
X163885618Y-90145800D02*
X163809428Y-90069609D01*
X163809428Y-90069609D02*
X163771333Y-89993419D01*
X163771333Y-89993419D02*
X163733237Y-89841038D01*
X163733237Y-89841038D02*
X163733237Y-89726752D01*
X163733237Y-89726752D02*
X163771333Y-89574371D01*
X163771333Y-89574371D02*
X163809428Y-89498180D01*
X163809428Y-89498180D02*
X163885618Y-89421990D01*
X163885618Y-89421990D02*
X163999904Y-89383895D01*
X163999904Y-89383895D02*
X164076095Y-89383895D01*
X164076095Y-89383895D02*
X164190380Y-89421990D01*
X164190380Y-89421990D02*
X164228476Y-89460085D01*
X164799904Y-89383895D02*
X164799904Y-89955323D01*
X164799904Y-89955323D02*
X164761809Y-90069609D01*
X164761809Y-90069609D02*
X164685618Y-90145800D01*
X164685618Y-90145800D02*
X164571333Y-90183895D01*
X164571333Y-90183895D02*
X164495142Y-90183895D01*
X165561809Y-90183895D02*
X165180857Y-90183895D01*
X165180857Y-90183895D02*
X165180857Y-89383895D01*
X166285619Y-90107704D02*
X166247523Y-90145800D01*
X166247523Y-90145800D02*
X166133238Y-90183895D01*
X166133238Y-90183895D02*
X166057047Y-90183895D01*
X166057047Y-90183895D02*
X165942761Y-90145800D01*
X165942761Y-90145800D02*
X165866571Y-90069609D01*
X165866571Y-90069609D02*
X165828476Y-89993419D01*
X165828476Y-89993419D02*
X165790380Y-89841038D01*
X165790380Y-89841038D02*
X165790380Y-89726752D01*
X165790380Y-89726752D02*
X165828476Y-89574371D01*
X165828476Y-89574371D02*
X165866571Y-89498180D01*
X165866571Y-89498180D02*
X165942761Y-89421990D01*
X165942761Y-89421990D02*
X166057047Y-89383895D01*
X166057047Y-89383895D02*
X166133238Y-89383895D01*
X166133238Y-89383895D02*
X166247523Y-89421990D01*
X166247523Y-89421990D02*
X166285619Y-89460085D01*
X166857047Y-89383895D02*
X166857047Y-89955323D01*
X166857047Y-89955323D02*
X166818952Y-90069609D01*
X166818952Y-90069609D02*
X166742761Y-90145800D01*
X166742761Y-90145800D02*
X166628476Y-90183895D01*
X166628476Y-90183895D02*
X166552285Y-90183895D01*
X167618952Y-90183895D02*
X167238000Y-90183895D01*
X167238000Y-90183895D02*
X167238000Y-89383895D01*
X168342762Y-90107704D02*
X168304666Y-90145800D01*
X168304666Y-90145800D02*
X168190381Y-90183895D01*
X168190381Y-90183895D02*
X168114190Y-90183895D01*
X168114190Y-90183895D02*
X167999904Y-90145800D01*
X167999904Y-90145800D02*
X167923714Y-90069609D01*
X167923714Y-90069609D02*
X167885619Y-89993419D01*
X167885619Y-89993419D02*
X167847523Y-89841038D01*
X167847523Y-89841038D02*
X167847523Y-89726752D01*
X167847523Y-89726752D02*
X167885619Y-89574371D01*
X167885619Y-89574371D02*
X167923714Y-89498180D01*
X167923714Y-89498180D02*
X167999904Y-89421990D01*
X167999904Y-89421990D02*
X168114190Y-89383895D01*
X168114190Y-89383895D02*
X168190381Y-89383895D01*
X168190381Y-89383895D02*
X168304666Y-89421990D01*
X168304666Y-89421990D02*
X168342762Y-89460085D01*
X168914190Y-89383895D02*
X168914190Y-89955323D01*
X168914190Y-89955323D02*
X168876095Y-90069609D01*
X168876095Y-90069609D02*
X168799904Y-90145800D01*
X168799904Y-90145800D02*
X168685619Y-90183895D01*
X168685619Y-90183895D02*
X168609428Y-90183895D01*
X169676095Y-90183895D02*
X169295143Y-90183895D01*
X169295143Y-90183895D02*
X169295143Y-89383895D01*
X170399905Y-90107704D02*
X170361809Y-90145800D01*
X170361809Y-90145800D02*
X170247524Y-90183895D01*
X170247524Y-90183895D02*
X170171333Y-90183895D01*
X170171333Y-90183895D02*
X170057047Y-90145800D01*
X170057047Y-90145800D02*
X169980857Y-90069609D01*
X169980857Y-90069609D02*
X169942762Y-89993419D01*
X169942762Y-89993419D02*
X169904666Y-89841038D01*
X169904666Y-89841038D02*
X169904666Y-89726752D01*
X169904666Y-89726752D02*
X169942762Y-89574371D01*
X169942762Y-89574371D02*
X169980857Y-89498180D01*
X169980857Y-89498180D02*
X170057047Y-89421990D01*
X170057047Y-89421990D02*
X170171333Y-89383895D01*
X170171333Y-89383895D02*
X170247524Y-89383895D01*
X170247524Y-89383895D02*
X170361809Y-89421990D01*
X170361809Y-89421990D02*
X170399905Y-89460085D01*
X209989455Y-106746966D02*
X209956122Y-106780300D01*
X209956122Y-106780300D02*
X209856122Y-106813633D01*
X209856122Y-106813633D02*
X209789455Y-106813633D01*
X209789455Y-106813633D02*
X209689455Y-106780300D01*
X209689455Y-106780300D02*
X209622789Y-106713633D01*
X209622789Y-106713633D02*
X209589455Y-106646966D01*
X209589455Y-106646966D02*
X209556122Y-106513633D01*
X209556122Y-106513633D02*
X209556122Y-106413633D01*
X209556122Y-106413633D02*
X209589455Y-106280300D01*
X209589455Y-106280300D02*
X209622789Y-106213633D01*
X209622789Y-106213633D02*
X209689455Y-106146966D01*
X209689455Y-106146966D02*
X209789455Y-106113633D01*
X209789455Y-106113633D02*
X209856122Y-106113633D01*
X209856122Y-106113633D02*
X209956122Y-106146966D01*
X209956122Y-106146966D02*
X209989455Y-106180300D01*
X210389455Y-106813633D02*
X210322789Y-106780300D01*
X210322789Y-106780300D02*
X210289455Y-106713633D01*
X210289455Y-106713633D02*
X210289455Y-106113633D01*
X210656122Y-106813633D02*
X210656122Y-106113633D01*
X210722789Y-106546966D02*
X210922789Y-106813633D01*
X210922789Y-106346966D02*
X210656122Y-106613633D01*
X211222789Y-106546966D02*
X211756123Y-106546966D01*
X211489456Y-106813633D02*
X211489456Y-106280300D01*
X209589455Y-103063633D02*
X209589455Y-102363633D01*
X209589455Y-102363633D02*
X209756122Y-102363633D01*
X209756122Y-102363633D02*
X209856122Y-102396966D01*
X209856122Y-102396966D02*
X209922789Y-102463633D01*
X209922789Y-102463633D02*
X209956122Y-102530300D01*
X209956122Y-102530300D02*
X209989455Y-102663633D01*
X209989455Y-102663633D02*
X209989455Y-102763633D01*
X209989455Y-102763633D02*
X209956122Y-102896966D01*
X209956122Y-102896966D02*
X209922789Y-102963633D01*
X209922789Y-102963633D02*
X209856122Y-103030300D01*
X209856122Y-103030300D02*
X209756122Y-103063633D01*
X209756122Y-103063633D02*
X209589455Y-103063633D01*
X210289455Y-102796966D02*
X210822789Y-102796966D01*
X210556122Y-103063633D02*
X210556122Y-102530300D01*
X209956122Y-104896966D02*
X209889455Y-104863633D01*
X209889455Y-104863633D02*
X209789455Y-104863633D01*
X209789455Y-104863633D02*
X209689455Y-104896966D01*
X209689455Y-104896966D02*
X209622789Y-104963633D01*
X209622789Y-104963633D02*
X209589455Y-105030300D01*
X209589455Y-105030300D02*
X209556122Y-105163633D01*
X209556122Y-105163633D02*
X209556122Y-105263633D01*
X209556122Y-105263633D02*
X209589455Y-105396966D01*
X209589455Y-105396966D02*
X209622789Y-105463633D01*
X209622789Y-105463633D02*
X209689455Y-105530300D01*
X209689455Y-105530300D02*
X209789455Y-105563633D01*
X209789455Y-105563633D02*
X209856122Y-105563633D01*
X209856122Y-105563633D02*
X209956122Y-105530300D01*
X209956122Y-105530300D02*
X209989455Y-105496966D01*
X209989455Y-105496966D02*
X209989455Y-105263633D01*
X209989455Y-105263633D02*
X209856122Y-105263633D01*
X210289455Y-105096966D02*
X210289455Y-105563633D01*
X210289455Y-105163633D02*
X210322789Y-105130300D01*
X210322789Y-105130300D02*
X210389455Y-105096966D01*
X210389455Y-105096966D02*
X210489455Y-105096966D01*
X210489455Y-105096966D02*
X210556122Y-105130300D01*
X210556122Y-105130300D02*
X210589455Y-105196966D01*
X210589455Y-105196966D02*
X210589455Y-105563633D01*
X211222788Y-105563633D02*
X211222788Y-104863633D01*
X211222788Y-105530300D02*
X211156122Y-105563633D01*
X211156122Y-105563633D02*
X211022788Y-105563633D01*
X211022788Y-105563633D02*
X210956122Y-105530300D01*
X210956122Y-105530300D02*
X210922788Y-105496966D01*
X210922788Y-105496966D02*
X210889455Y-105430300D01*
X210889455Y-105430300D02*
X210889455Y-105230300D01*
X210889455Y-105230300D02*
X210922788Y-105163633D01*
X210922788Y-105163633D02*
X210956122Y-105130300D01*
X210956122Y-105130300D02*
X211022788Y-105096966D01*
X211022788Y-105096966D02*
X211156122Y-105096966D01*
X211156122Y-105096966D02*
X211222788Y-105130300D01*
D13*
X119513190Y-89110600D02*
X119656047Y-89158219D01*
X119656047Y-89158219D02*
X119894142Y-89158219D01*
X119894142Y-89158219D02*
X119989380Y-89110600D01*
X119989380Y-89110600D02*
X120036999Y-89062980D01*
X120036999Y-89062980D02*
X120084618Y-88967742D01*
X120084618Y-88967742D02*
X120084618Y-88872504D01*
X120084618Y-88872504D02*
X120036999Y-88777266D01*
X120036999Y-88777266D02*
X119989380Y-88729647D01*
X119989380Y-88729647D02*
X119894142Y-88682028D01*
X119894142Y-88682028D02*
X119703666Y-88634409D01*
X119703666Y-88634409D02*
X119608428Y-88586790D01*
X119608428Y-88586790D02*
X119560809Y-88539171D01*
X119560809Y-88539171D02*
X119513190Y-88443933D01*
X119513190Y-88443933D02*
X119513190Y-88348695D01*
X119513190Y-88348695D02*
X119560809Y-88253457D01*
X119560809Y-88253457D02*
X119608428Y-88205838D01*
X119608428Y-88205838D02*
X119703666Y-88158219D01*
X119703666Y-88158219D02*
X119941761Y-88158219D01*
X119941761Y-88158219D02*
X120084618Y-88205838D01*
X120894142Y-89110600D02*
X120798904Y-89158219D01*
X120798904Y-89158219D02*
X120608428Y-89158219D01*
X120608428Y-89158219D02*
X120513190Y-89110600D01*
X120513190Y-89110600D02*
X120465571Y-89015361D01*
X120465571Y-89015361D02*
X120465571Y-88634409D01*
X120465571Y-88634409D02*
X120513190Y-88539171D01*
X120513190Y-88539171D02*
X120608428Y-88491552D01*
X120608428Y-88491552D02*
X120798904Y-88491552D01*
X120798904Y-88491552D02*
X120894142Y-88539171D01*
X120894142Y-88539171D02*
X120941761Y-88634409D01*
X120941761Y-88634409D02*
X120941761Y-88729647D01*
X120941761Y-88729647D02*
X120465571Y-88824885D01*
X121370333Y-88491552D02*
X121370333Y-89491552D01*
X121370333Y-88539171D02*
X121465571Y-88491552D01*
X121465571Y-88491552D02*
X121656047Y-88491552D01*
X121656047Y-88491552D02*
X121751285Y-88539171D01*
X121751285Y-88539171D02*
X121798904Y-88586790D01*
X121798904Y-88586790D02*
X121846523Y-88682028D01*
X121846523Y-88682028D02*
X121846523Y-88967742D01*
X121846523Y-88967742D02*
X121798904Y-89062980D01*
X121798904Y-89062980D02*
X121751285Y-89110600D01*
X121751285Y-89110600D02*
X121656047Y-89158219D01*
X121656047Y-89158219D02*
X121465571Y-89158219D01*
X121465571Y-89158219D02*
X121370333Y-89110600D01*
X122132238Y-88491552D02*
X122513190Y-88491552D01*
X122275095Y-88158219D02*
X122275095Y-89015361D01*
X122275095Y-89015361D02*
X122322714Y-89110600D01*
X122322714Y-89110600D02*
X122417952Y-89158219D01*
X122417952Y-89158219D02*
X122513190Y-89158219D01*
X123227476Y-89110600D02*
X123132238Y-89158219D01*
X123132238Y-89158219D02*
X122941762Y-89158219D01*
X122941762Y-89158219D02*
X122846524Y-89110600D01*
X122846524Y-89110600D02*
X122798905Y-89015361D01*
X122798905Y-89015361D02*
X122798905Y-88634409D01*
X122798905Y-88634409D02*
X122846524Y-88539171D01*
X122846524Y-88539171D02*
X122941762Y-88491552D01*
X122941762Y-88491552D02*
X123132238Y-88491552D01*
X123132238Y-88491552D02*
X123227476Y-88539171D01*
X123227476Y-88539171D02*
X123275095Y-88634409D01*
X123275095Y-88634409D02*
X123275095Y-88729647D01*
X123275095Y-88729647D02*
X122798905Y-88824885D01*
X123703667Y-89158219D02*
X123703667Y-88491552D01*
X123703667Y-88586790D02*
X123751286Y-88539171D01*
X123751286Y-88539171D02*
X123846524Y-88491552D01*
X123846524Y-88491552D02*
X123989381Y-88491552D01*
X123989381Y-88491552D02*
X124084619Y-88539171D01*
X124084619Y-88539171D02*
X124132238Y-88634409D01*
X124132238Y-88634409D02*
X124132238Y-89158219D01*
X124132238Y-88634409D02*
X124179857Y-88539171D01*
X124179857Y-88539171D02*
X124275095Y-88491552D01*
X124275095Y-88491552D02*
X124417952Y-88491552D01*
X124417952Y-88491552D02*
X124513191Y-88539171D01*
X124513191Y-88539171D02*
X124560810Y-88634409D01*
X124560810Y-88634409D02*
X124560810Y-89158219D01*
X125037000Y-89158219D02*
X125037000Y-88158219D01*
X125037000Y-88539171D02*
X125132238Y-88491552D01*
X125132238Y-88491552D02*
X125322714Y-88491552D01*
X125322714Y-88491552D02*
X125417952Y-88539171D01*
X125417952Y-88539171D02*
X125465571Y-88586790D01*
X125465571Y-88586790D02*
X125513190Y-88682028D01*
X125513190Y-88682028D02*
X125513190Y-88967742D01*
X125513190Y-88967742D02*
X125465571Y-89062980D01*
X125465571Y-89062980D02*
X125417952Y-89110600D01*
X125417952Y-89110600D02*
X125322714Y-89158219D01*
X125322714Y-89158219D02*
X125132238Y-89158219D01*
X125132238Y-89158219D02*
X125037000Y-89110600D01*
X126322714Y-89110600D02*
X126227476Y-89158219D01*
X126227476Y-89158219D02*
X126037000Y-89158219D01*
X126037000Y-89158219D02*
X125941762Y-89110600D01*
X125941762Y-89110600D02*
X125894143Y-89015361D01*
X125894143Y-89015361D02*
X125894143Y-88634409D01*
X125894143Y-88634409D02*
X125941762Y-88539171D01*
X125941762Y-88539171D02*
X126037000Y-88491552D01*
X126037000Y-88491552D02*
X126227476Y-88491552D01*
X126227476Y-88491552D02*
X126322714Y-88539171D01*
X126322714Y-88539171D02*
X126370333Y-88634409D01*
X126370333Y-88634409D02*
X126370333Y-88729647D01*
X126370333Y-88729647D02*
X125894143Y-88824885D01*
X126798905Y-89158219D02*
X126798905Y-88491552D01*
X126798905Y-88682028D02*
X126846524Y-88586790D01*
X126846524Y-88586790D02*
X126894143Y-88539171D01*
X126894143Y-88539171D02*
X126989381Y-88491552D01*
X126989381Y-88491552D02*
X127084619Y-88491552D01*
X128132239Y-88253457D02*
X128179858Y-88205838D01*
X128179858Y-88205838D02*
X128275096Y-88158219D01*
X128275096Y-88158219D02*
X128513191Y-88158219D01*
X128513191Y-88158219D02*
X128608429Y-88205838D01*
X128608429Y-88205838D02*
X128656048Y-88253457D01*
X128656048Y-88253457D02*
X128703667Y-88348695D01*
X128703667Y-88348695D02*
X128703667Y-88443933D01*
X128703667Y-88443933D02*
X128656048Y-88586790D01*
X128656048Y-88586790D02*
X128084620Y-89158219D01*
X128084620Y-89158219D02*
X128703667Y-89158219D01*
X129322715Y-88158219D02*
X129417953Y-88158219D01*
X129417953Y-88158219D02*
X129513191Y-88205838D01*
X129513191Y-88205838D02*
X129560810Y-88253457D01*
X129560810Y-88253457D02*
X129608429Y-88348695D01*
X129608429Y-88348695D02*
X129656048Y-88539171D01*
X129656048Y-88539171D02*
X129656048Y-88777266D01*
X129656048Y-88777266D02*
X129608429Y-88967742D01*
X129608429Y-88967742D02*
X129560810Y-89062980D01*
X129560810Y-89062980D02*
X129513191Y-89110600D01*
X129513191Y-89110600D02*
X129417953Y-89158219D01*
X129417953Y-89158219D02*
X129322715Y-89158219D01*
X129322715Y-89158219D02*
X129227477Y-89110600D01*
X129227477Y-89110600D02*
X129179858Y-89062980D01*
X129179858Y-89062980D02*
X129132239Y-88967742D01*
X129132239Y-88967742D02*
X129084620Y-88777266D01*
X129084620Y-88777266D02*
X129084620Y-88539171D01*
X129084620Y-88539171D02*
X129132239Y-88348695D01*
X129132239Y-88348695D02*
X129179858Y-88253457D01*
X129179858Y-88253457D02*
X129227477Y-88205838D01*
X129227477Y-88205838D02*
X129322715Y-88158219D01*
X130037001Y-88253457D02*
X130084620Y-88205838D01*
X130084620Y-88205838D02*
X130179858Y-88158219D01*
X130179858Y-88158219D02*
X130417953Y-88158219D01*
X130417953Y-88158219D02*
X130513191Y-88205838D01*
X130513191Y-88205838D02*
X130560810Y-88253457D01*
X130560810Y-88253457D02*
X130608429Y-88348695D01*
X130608429Y-88348695D02*
X130608429Y-88443933D01*
X130608429Y-88443933D02*
X130560810Y-88586790D01*
X130560810Y-88586790D02*
X129989382Y-89158219D01*
X129989382Y-89158219D02*
X130608429Y-89158219D01*
X130941763Y-88158219D02*
X131560810Y-88158219D01*
X131560810Y-88158219D02*
X131227477Y-88539171D01*
X131227477Y-88539171D02*
X131370334Y-88539171D01*
X131370334Y-88539171D02*
X131465572Y-88586790D01*
X131465572Y-88586790D02*
X131513191Y-88634409D01*
X131513191Y-88634409D02*
X131560810Y-88729647D01*
X131560810Y-88729647D02*
X131560810Y-88967742D01*
X131560810Y-88967742D02*
X131513191Y-89062980D01*
X131513191Y-89062980D02*
X131465572Y-89110600D01*
X131465572Y-89110600D02*
X131370334Y-89158219D01*
X131370334Y-89158219D02*
X131084620Y-89158219D01*
X131084620Y-89158219D02*
X130989382Y-89110600D01*
X130989382Y-89110600D02*
X130941763Y-89062980D01*
D12*
X209069633Y-110871000D02*
X208369633Y-110871000D01*
X208369633Y-110871000D02*
X208369633Y-110604333D01*
X208369633Y-110604333D02*
X208402966Y-110537667D01*
X208402966Y-110537667D02*
X208436300Y-110504333D01*
X208436300Y-110504333D02*
X208502966Y-110471000D01*
X208502966Y-110471000D02*
X208602966Y-110471000D01*
X208602966Y-110471000D02*
X208669633Y-110504333D01*
X208669633Y-110504333D02*
X208702966Y-110537667D01*
X208702966Y-110537667D02*
X208736300Y-110604333D01*
X208736300Y-110604333D02*
X208736300Y-110871000D01*
X209069633Y-109837667D02*
X209069633Y-110171000D01*
X209069633Y-110171000D02*
X208369633Y-110171000D01*
X208436300Y-109637666D02*
X208402966Y-109604333D01*
X208402966Y-109604333D02*
X208369633Y-109537666D01*
X208369633Y-109537666D02*
X208369633Y-109371000D01*
X208369633Y-109371000D02*
X208402966Y-109304333D01*
X208402966Y-109304333D02*
X208436300Y-109271000D01*
X208436300Y-109271000D02*
X208502966Y-109237666D01*
X208502966Y-109237666D02*
X208569633Y-109237666D01*
X208569633Y-109237666D02*
X208669633Y-109271000D01*
X208669633Y-109271000D02*
X209069633Y-109671000D01*
X209069633Y-109671000D02*
X209069633Y-109237666D01*
X195848633Y-98317666D02*
X195515300Y-98550999D01*
X195848633Y-98717666D02*
X195148633Y-98717666D01*
X195148633Y-98717666D02*
X195148633Y-98450999D01*
X195148633Y-98450999D02*
X195181966Y-98384333D01*
X195181966Y-98384333D02*
X195215300Y-98350999D01*
X195215300Y-98350999D02*
X195281966Y-98317666D01*
X195281966Y-98317666D02*
X195381966Y-98317666D01*
X195381966Y-98317666D02*
X195448633Y-98350999D01*
X195448633Y-98350999D02*
X195481966Y-98384333D01*
X195481966Y-98384333D02*
X195515300Y-98450999D01*
X195515300Y-98450999D02*
X195515300Y-98717666D01*
X195381966Y-97717666D02*
X195848633Y-97717666D01*
X195115300Y-97884333D02*
X195615300Y-98050999D01*
X195615300Y-98050999D02*
X195615300Y-97617666D01*
X175782633Y-89317000D02*
X175449300Y-89550333D01*
X175782633Y-89717000D02*
X175082633Y-89717000D01*
X175082633Y-89717000D02*
X175082633Y-89450333D01*
X175082633Y-89450333D02*
X175115966Y-89383667D01*
X175115966Y-89383667D02*
X175149300Y-89350333D01*
X175149300Y-89350333D02*
X175215966Y-89317000D01*
X175215966Y-89317000D02*
X175315966Y-89317000D01*
X175315966Y-89317000D02*
X175382633Y-89350333D01*
X175382633Y-89350333D02*
X175415966Y-89383667D01*
X175415966Y-89383667D02*
X175449300Y-89450333D01*
X175449300Y-89450333D02*
X175449300Y-89717000D01*
X175782633Y-88650333D02*
X175782633Y-89050333D01*
X175782633Y-88850333D02*
X175082633Y-88850333D01*
X175082633Y-88850333D02*
X175182633Y-88917000D01*
X175182633Y-88917000D02*
X175249300Y-88983667D01*
X175249300Y-88983667D02*
X175282633Y-89050333D01*
X175782633Y-88317000D02*
X175782633Y-88183666D01*
X175782633Y-88183666D02*
X175749300Y-88117000D01*
X175749300Y-88117000D02*
X175715966Y-88083666D01*
X175715966Y-88083666D02*
X175615966Y-88017000D01*
X175615966Y-88017000D02*
X175482633Y-87983666D01*
X175482633Y-87983666D02*
X175215966Y-87983666D01*
X175215966Y-87983666D02*
X175149300Y-88017000D01*
X175149300Y-88017000D02*
X175115966Y-88050333D01*
X175115966Y-88050333D02*
X175082633Y-88117000D01*
X175082633Y-88117000D02*
X175082633Y-88250333D01*
X175082633Y-88250333D02*
X175115966Y-88317000D01*
X175115966Y-88317000D02*
X175149300Y-88350333D01*
X175149300Y-88350333D02*
X175215966Y-88383666D01*
X175215966Y-88383666D02*
X175382633Y-88383666D01*
X175382633Y-88383666D02*
X175449300Y-88350333D01*
X175449300Y-88350333D02*
X175482633Y-88317000D01*
X175482633Y-88317000D02*
X175515966Y-88250333D01*
X175515966Y-88250333D02*
X175515966Y-88117000D01*
X175515966Y-88117000D02*
X175482633Y-88050333D01*
X175482633Y-88050333D02*
X175449300Y-88017000D01*
X175449300Y-88017000D02*
X175382633Y-87983666D01*
X181878633Y-89317000D02*
X181545300Y-89550333D01*
X181878633Y-89717000D02*
X181178633Y-89717000D01*
X181178633Y-89717000D02*
X181178633Y-89450333D01*
X181178633Y-89450333D02*
X181211966Y-89383667D01*
X181211966Y-89383667D02*
X181245300Y-89350333D01*
X181245300Y-89350333D02*
X181311966Y-89317000D01*
X181311966Y-89317000D02*
X181411966Y-89317000D01*
X181411966Y-89317000D02*
X181478633Y-89350333D01*
X181478633Y-89350333D02*
X181511966Y-89383667D01*
X181511966Y-89383667D02*
X181545300Y-89450333D01*
X181545300Y-89450333D02*
X181545300Y-89717000D01*
X181878633Y-88650333D02*
X181878633Y-89050333D01*
X181878633Y-88850333D02*
X181178633Y-88850333D01*
X181178633Y-88850333D02*
X181278633Y-88917000D01*
X181278633Y-88917000D02*
X181345300Y-88983667D01*
X181345300Y-88983667D02*
X181378633Y-89050333D01*
X181178633Y-88417000D02*
X181178633Y-87950333D01*
X181178633Y-87950333D02*
X181878633Y-88250333D01*
X181878633Y-92619000D02*
X181545300Y-92852333D01*
X181878633Y-93019000D02*
X181178633Y-93019000D01*
X181178633Y-93019000D02*
X181178633Y-92752333D01*
X181178633Y-92752333D02*
X181211966Y-92685667D01*
X181211966Y-92685667D02*
X181245300Y-92652333D01*
X181245300Y-92652333D02*
X181311966Y-92619000D01*
X181311966Y-92619000D02*
X181411966Y-92619000D01*
X181411966Y-92619000D02*
X181478633Y-92652333D01*
X181478633Y-92652333D02*
X181511966Y-92685667D01*
X181511966Y-92685667D02*
X181545300Y-92752333D01*
X181545300Y-92752333D02*
X181545300Y-93019000D01*
X181878633Y-91952333D02*
X181878633Y-92352333D01*
X181878633Y-92152333D02*
X181178633Y-92152333D01*
X181178633Y-92152333D02*
X181278633Y-92219000D01*
X181278633Y-92219000D02*
X181345300Y-92285667D01*
X181345300Y-92285667D02*
X181378633Y-92352333D01*
X181178633Y-91352333D02*
X181178633Y-91485666D01*
X181178633Y-91485666D02*
X181211966Y-91552333D01*
X181211966Y-91552333D02*
X181245300Y-91585666D01*
X181245300Y-91585666D02*
X181345300Y-91652333D01*
X181345300Y-91652333D02*
X181478633Y-91685666D01*
X181478633Y-91685666D02*
X181745300Y-91685666D01*
X181745300Y-91685666D02*
X181811966Y-91652333D01*
X181811966Y-91652333D02*
X181845300Y-91619000D01*
X181845300Y-91619000D02*
X181878633Y-91552333D01*
X181878633Y-91552333D02*
X181878633Y-91419000D01*
X181878633Y-91419000D02*
X181845300Y-91352333D01*
X181845300Y-91352333D02*
X181811966Y-91319000D01*
X181811966Y-91319000D02*
X181745300Y-91285666D01*
X181745300Y-91285666D02*
X181578633Y-91285666D01*
X181578633Y-91285666D02*
X181511966Y-91319000D01*
X181511966Y-91319000D02*
X181478633Y-91352333D01*
X181478633Y-91352333D02*
X181445300Y-91419000D01*
X181445300Y-91419000D02*
X181445300Y-91552333D01*
X181445300Y-91552333D02*
X181478633Y-91619000D01*
X181478633Y-91619000D02*
X181511966Y-91652333D01*
X181511966Y-91652333D02*
X181578633Y-91685666D01*
X184418633Y-86015000D02*
X184085300Y-86248333D01*
X184418633Y-86415000D02*
X183718633Y-86415000D01*
X183718633Y-86415000D02*
X183718633Y-86148333D01*
X183718633Y-86148333D02*
X183751966Y-86081667D01*
X183751966Y-86081667D02*
X183785300Y-86048333D01*
X183785300Y-86048333D02*
X183851966Y-86015000D01*
X183851966Y-86015000D02*
X183951966Y-86015000D01*
X183951966Y-86015000D02*
X184018633Y-86048333D01*
X184018633Y-86048333D02*
X184051966Y-86081667D01*
X184051966Y-86081667D02*
X184085300Y-86148333D01*
X184085300Y-86148333D02*
X184085300Y-86415000D01*
X184418633Y-85348333D02*
X184418633Y-85748333D01*
X184418633Y-85548333D02*
X183718633Y-85548333D01*
X183718633Y-85548333D02*
X183818633Y-85615000D01*
X183818633Y-85615000D02*
X183885300Y-85681667D01*
X183885300Y-85681667D02*
X183918633Y-85748333D01*
X184018633Y-84948333D02*
X183985300Y-85015000D01*
X183985300Y-85015000D02*
X183951966Y-85048333D01*
X183951966Y-85048333D02*
X183885300Y-85081666D01*
X183885300Y-85081666D02*
X183851966Y-85081666D01*
X183851966Y-85081666D02*
X183785300Y-85048333D01*
X183785300Y-85048333D02*
X183751966Y-85015000D01*
X183751966Y-85015000D02*
X183718633Y-84948333D01*
X183718633Y-84948333D02*
X183718633Y-84815000D01*
X183718633Y-84815000D02*
X183751966Y-84748333D01*
X183751966Y-84748333D02*
X183785300Y-84715000D01*
X183785300Y-84715000D02*
X183851966Y-84681666D01*
X183851966Y-84681666D02*
X183885300Y-84681666D01*
X183885300Y-84681666D02*
X183951966Y-84715000D01*
X183951966Y-84715000D02*
X183985300Y-84748333D01*
X183985300Y-84748333D02*
X184018633Y-84815000D01*
X184018633Y-84815000D02*
X184018633Y-84948333D01*
X184018633Y-84948333D02*
X184051966Y-85015000D01*
X184051966Y-85015000D02*
X184085300Y-85048333D01*
X184085300Y-85048333D02*
X184151966Y-85081666D01*
X184151966Y-85081666D02*
X184285300Y-85081666D01*
X184285300Y-85081666D02*
X184351966Y-85048333D01*
X184351966Y-85048333D02*
X184385300Y-85015000D01*
X184385300Y-85015000D02*
X184418633Y-84948333D01*
X184418633Y-84948333D02*
X184418633Y-84815000D01*
X184418633Y-84815000D02*
X184385300Y-84748333D01*
X184385300Y-84748333D02*
X184351966Y-84715000D01*
X184351966Y-84715000D02*
X184285300Y-84681666D01*
X184285300Y-84681666D02*
X184151966Y-84681666D01*
X184151966Y-84681666D02*
X184085300Y-84715000D01*
X184085300Y-84715000D02*
X184051966Y-84748333D01*
X184051966Y-84748333D02*
X184018633Y-84815000D01*
X186958633Y-86015000D02*
X186625300Y-86248333D01*
X186958633Y-86415000D02*
X186258633Y-86415000D01*
X186258633Y-86415000D02*
X186258633Y-86148333D01*
X186258633Y-86148333D02*
X186291966Y-86081667D01*
X186291966Y-86081667D02*
X186325300Y-86048333D01*
X186325300Y-86048333D02*
X186391966Y-86015000D01*
X186391966Y-86015000D02*
X186491966Y-86015000D01*
X186491966Y-86015000D02*
X186558633Y-86048333D01*
X186558633Y-86048333D02*
X186591966Y-86081667D01*
X186591966Y-86081667D02*
X186625300Y-86148333D01*
X186625300Y-86148333D02*
X186625300Y-86415000D01*
X186325300Y-85748333D02*
X186291966Y-85715000D01*
X186291966Y-85715000D02*
X186258633Y-85648333D01*
X186258633Y-85648333D02*
X186258633Y-85481667D01*
X186258633Y-85481667D02*
X186291966Y-85415000D01*
X186291966Y-85415000D02*
X186325300Y-85381667D01*
X186325300Y-85381667D02*
X186391966Y-85348333D01*
X186391966Y-85348333D02*
X186458633Y-85348333D01*
X186458633Y-85348333D02*
X186558633Y-85381667D01*
X186558633Y-85381667D02*
X186958633Y-85781667D01*
X186958633Y-85781667D02*
X186958633Y-85348333D01*
X186958633Y-84681666D02*
X186958633Y-85081666D01*
X186958633Y-84881666D02*
X186258633Y-84881666D01*
X186258633Y-84881666D02*
X186358633Y-84948333D01*
X186358633Y-84948333D02*
X186425300Y-85015000D01*
X186425300Y-85015000D02*
X186458633Y-85081666D01*
X189498633Y-86015000D02*
X189165300Y-86248333D01*
X189498633Y-86415000D02*
X188798633Y-86415000D01*
X188798633Y-86415000D02*
X188798633Y-86148333D01*
X188798633Y-86148333D02*
X188831966Y-86081667D01*
X188831966Y-86081667D02*
X188865300Y-86048333D01*
X188865300Y-86048333D02*
X188931966Y-86015000D01*
X188931966Y-86015000D02*
X189031966Y-86015000D01*
X189031966Y-86015000D02*
X189098633Y-86048333D01*
X189098633Y-86048333D02*
X189131966Y-86081667D01*
X189131966Y-86081667D02*
X189165300Y-86148333D01*
X189165300Y-86148333D02*
X189165300Y-86415000D01*
X188865300Y-85748333D02*
X188831966Y-85715000D01*
X188831966Y-85715000D02*
X188798633Y-85648333D01*
X188798633Y-85648333D02*
X188798633Y-85481667D01*
X188798633Y-85481667D02*
X188831966Y-85415000D01*
X188831966Y-85415000D02*
X188865300Y-85381667D01*
X188865300Y-85381667D02*
X188931966Y-85348333D01*
X188931966Y-85348333D02*
X188998633Y-85348333D01*
X188998633Y-85348333D02*
X189098633Y-85381667D01*
X189098633Y-85381667D02*
X189498633Y-85781667D01*
X189498633Y-85781667D02*
X189498633Y-85348333D01*
X189031966Y-84748333D02*
X189498633Y-84748333D01*
X188765300Y-84915000D02*
X189265300Y-85081666D01*
X189265300Y-85081666D02*
X189265300Y-84648333D01*
X192038633Y-86015000D02*
X191705300Y-86248333D01*
X192038633Y-86415000D02*
X191338633Y-86415000D01*
X191338633Y-86415000D02*
X191338633Y-86148333D01*
X191338633Y-86148333D02*
X191371966Y-86081667D01*
X191371966Y-86081667D02*
X191405300Y-86048333D01*
X191405300Y-86048333D02*
X191471966Y-86015000D01*
X191471966Y-86015000D02*
X191571966Y-86015000D01*
X191571966Y-86015000D02*
X191638633Y-86048333D01*
X191638633Y-86048333D02*
X191671966Y-86081667D01*
X191671966Y-86081667D02*
X191705300Y-86148333D01*
X191705300Y-86148333D02*
X191705300Y-86415000D01*
X191405300Y-85748333D02*
X191371966Y-85715000D01*
X191371966Y-85715000D02*
X191338633Y-85648333D01*
X191338633Y-85648333D02*
X191338633Y-85481667D01*
X191338633Y-85481667D02*
X191371966Y-85415000D01*
X191371966Y-85415000D02*
X191405300Y-85381667D01*
X191405300Y-85381667D02*
X191471966Y-85348333D01*
X191471966Y-85348333D02*
X191538633Y-85348333D01*
X191538633Y-85348333D02*
X191638633Y-85381667D01*
X191638633Y-85381667D02*
X192038633Y-85781667D01*
X192038633Y-85781667D02*
X192038633Y-85348333D01*
X191338633Y-84715000D02*
X191338633Y-85048333D01*
X191338633Y-85048333D02*
X191671966Y-85081666D01*
X191671966Y-85081666D02*
X191638633Y-85048333D01*
X191638633Y-85048333D02*
X191605300Y-84981666D01*
X191605300Y-84981666D02*
X191605300Y-84815000D01*
X191605300Y-84815000D02*
X191638633Y-84748333D01*
X191638633Y-84748333D02*
X191671966Y-84715000D01*
X191671966Y-84715000D02*
X191738633Y-84681666D01*
X191738633Y-84681666D02*
X191905300Y-84681666D01*
X191905300Y-84681666D02*
X191971966Y-84715000D01*
X191971966Y-84715000D02*
X192005300Y-84748333D01*
X192005300Y-84748333D02*
X192038633Y-84815000D01*
X192038633Y-84815000D02*
X192038633Y-84981666D01*
X192038633Y-84981666D02*
X192005300Y-85048333D01*
X192005300Y-85048333D02*
X191971966Y-85081666D01*
X189498633Y-88983666D02*
X189165300Y-89216999D01*
X189498633Y-89383666D02*
X188798633Y-89383666D01*
X188798633Y-89383666D02*
X188798633Y-89116999D01*
X188798633Y-89116999D02*
X188831966Y-89050333D01*
X188831966Y-89050333D02*
X188865300Y-89016999D01*
X188865300Y-89016999D02*
X188931966Y-88983666D01*
X188931966Y-88983666D02*
X189031966Y-88983666D01*
X189031966Y-88983666D02*
X189098633Y-89016999D01*
X189098633Y-89016999D02*
X189131966Y-89050333D01*
X189131966Y-89050333D02*
X189165300Y-89116999D01*
X189165300Y-89116999D02*
X189165300Y-89383666D01*
X189098633Y-88583666D02*
X189065300Y-88650333D01*
X189065300Y-88650333D02*
X189031966Y-88683666D01*
X189031966Y-88683666D02*
X188965300Y-88716999D01*
X188965300Y-88716999D02*
X188931966Y-88716999D01*
X188931966Y-88716999D02*
X188865300Y-88683666D01*
X188865300Y-88683666D02*
X188831966Y-88650333D01*
X188831966Y-88650333D02*
X188798633Y-88583666D01*
X188798633Y-88583666D02*
X188798633Y-88450333D01*
X188798633Y-88450333D02*
X188831966Y-88383666D01*
X188831966Y-88383666D02*
X188865300Y-88350333D01*
X188865300Y-88350333D02*
X188931966Y-88316999D01*
X188931966Y-88316999D02*
X188965300Y-88316999D01*
X188965300Y-88316999D02*
X189031966Y-88350333D01*
X189031966Y-88350333D02*
X189065300Y-88383666D01*
X189065300Y-88383666D02*
X189098633Y-88450333D01*
X189098633Y-88450333D02*
X189098633Y-88583666D01*
X189098633Y-88583666D02*
X189131966Y-88650333D01*
X189131966Y-88650333D02*
X189165300Y-88683666D01*
X189165300Y-88683666D02*
X189231966Y-88716999D01*
X189231966Y-88716999D02*
X189365300Y-88716999D01*
X189365300Y-88716999D02*
X189431966Y-88683666D01*
X189431966Y-88683666D02*
X189465300Y-88650333D01*
X189465300Y-88650333D02*
X189498633Y-88583666D01*
X189498633Y-88583666D02*
X189498633Y-88450333D01*
X189498633Y-88450333D02*
X189465300Y-88383666D01*
X189465300Y-88383666D02*
X189431966Y-88350333D01*
X189431966Y-88350333D02*
X189365300Y-88316999D01*
X189365300Y-88316999D02*
X189231966Y-88316999D01*
X189231966Y-88316999D02*
X189165300Y-88350333D01*
X189165300Y-88350333D02*
X189131966Y-88383666D01*
X189131966Y-88383666D02*
X189098633Y-88450333D01*
X186958633Y-89317000D02*
X186625300Y-89550333D01*
X186958633Y-89717000D02*
X186258633Y-89717000D01*
X186258633Y-89717000D02*
X186258633Y-89450333D01*
X186258633Y-89450333D02*
X186291966Y-89383667D01*
X186291966Y-89383667D02*
X186325300Y-89350333D01*
X186325300Y-89350333D02*
X186391966Y-89317000D01*
X186391966Y-89317000D02*
X186491966Y-89317000D01*
X186491966Y-89317000D02*
X186558633Y-89350333D01*
X186558633Y-89350333D02*
X186591966Y-89383667D01*
X186591966Y-89383667D02*
X186625300Y-89450333D01*
X186625300Y-89450333D02*
X186625300Y-89717000D01*
X186325300Y-89050333D02*
X186291966Y-89017000D01*
X186291966Y-89017000D02*
X186258633Y-88950333D01*
X186258633Y-88950333D02*
X186258633Y-88783667D01*
X186258633Y-88783667D02*
X186291966Y-88717000D01*
X186291966Y-88717000D02*
X186325300Y-88683667D01*
X186325300Y-88683667D02*
X186391966Y-88650333D01*
X186391966Y-88650333D02*
X186458633Y-88650333D01*
X186458633Y-88650333D02*
X186558633Y-88683667D01*
X186558633Y-88683667D02*
X186958633Y-89083667D01*
X186958633Y-89083667D02*
X186958633Y-88650333D01*
X186258633Y-88217000D02*
X186258633Y-88150333D01*
X186258633Y-88150333D02*
X186291966Y-88083666D01*
X186291966Y-88083666D02*
X186325300Y-88050333D01*
X186325300Y-88050333D02*
X186391966Y-88017000D01*
X186391966Y-88017000D02*
X186525300Y-87983666D01*
X186525300Y-87983666D02*
X186691966Y-87983666D01*
X186691966Y-87983666D02*
X186825300Y-88017000D01*
X186825300Y-88017000D02*
X186891966Y-88050333D01*
X186891966Y-88050333D02*
X186925300Y-88083666D01*
X186925300Y-88083666D02*
X186958633Y-88150333D01*
X186958633Y-88150333D02*
X186958633Y-88217000D01*
X186958633Y-88217000D02*
X186925300Y-88283666D01*
X186925300Y-88283666D02*
X186891966Y-88317000D01*
X186891966Y-88317000D02*
X186825300Y-88350333D01*
X186825300Y-88350333D02*
X186691966Y-88383666D01*
X186691966Y-88383666D02*
X186525300Y-88383666D01*
X186525300Y-88383666D02*
X186391966Y-88350333D01*
X186391966Y-88350333D02*
X186325300Y-88317000D01*
X186325300Y-88317000D02*
X186291966Y-88283666D01*
X186291966Y-88283666D02*
X186258633Y-88217000D01*
X161131966Y-100874000D02*
X161165300Y-100907333D01*
X161165300Y-100907333D02*
X161198633Y-101007333D01*
X161198633Y-101007333D02*
X161198633Y-101074000D01*
X161198633Y-101074000D02*
X161165300Y-101174000D01*
X161165300Y-101174000D02*
X161098633Y-101240667D01*
X161098633Y-101240667D02*
X161031966Y-101274000D01*
X161031966Y-101274000D02*
X160898633Y-101307333D01*
X160898633Y-101307333D02*
X160798633Y-101307333D01*
X160798633Y-101307333D02*
X160665300Y-101274000D01*
X160665300Y-101274000D02*
X160598633Y-101240667D01*
X160598633Y-101240667D02*
X160531966Y-101174000D01*
X160531966Y-101174000D02*
X160498633Y-101074000D01*
X160498633Y-101074000D02*
X160498633Y-101007333D01*
X160498633Y-101007333D02*
X160531966Y-100907333D01*
X160531966Y-100907333D02*
X160565300Y-100874000D01*
X161198633Y-100207333D02*
X161198633Y-100607333D01*
X161198633Y-100407333D02*
X160498633Y-100407333D01*
X160498633Y-100407333D02*
X160598633Y-100474000D01*
X160598633Y-100474000D02*
X160665300Y-100540667D01*
X160665300Y-100540667D02*
X160698633Y-100607333D01*
X160498633Y-99774000D02*
X160498633Y-99707333D01*
X160498633Y-99707333D02*
X160531966Y-99640666D01*
X160531966Y-99640666D02*
X160565300Y-99607333D01*
X160565300Y-99607333D02*
X160631966Y-99574000D01*
X160631966Y-99574000D02*
X160765300Y-99540666D01*
X160765300Y-99540666D02*
X160931966Y-99540666D01*
X160931966Y-99540666D02*
X161065300Y-99574000D01*
X161065300Y-99574000D02*
X161131966Y-99607333D01*
X161131966Y-99607333D02*
X161165300Y-99640666D01*
X161165300Y-99640666D02*
X161198633Y-99707333D01*
X161198633Y-99707333D02*
X161198633Y-99774000D01*
X161198633Y-99774000D02*
X161165300Y-99840666D01*
X161165300Y-99840666D02*
X161131966Y-99874000D01*
X161131966Y-99874000D02*
X161065300Y-99907333D01*
X161065300Y-99907333D02*
X160931966Y-99940666D01*
X160931966Y-99940666D02*
X160765300Y-99940666D01*
X160765300Y-99940666D02*
X160631966Y-99907333D01*
X160631966Y-99907333D02*
X160565300Y-99874000D01*
X160565300Y-99874000D02*
X160531966Y-99840666D01*
X160531966Y-99840666D02*
X160498633Y-99774000D01*
X171397966Y-100747000D02*
X171431300Y-100780333D01*
X171431300Y-100780333D02*
X171464633Y-100880333D01*
X171464633Y-100880333D02*
X171464633Y-100947000D01*
X171464633Y-100947000D02*
X171431300Y-101047000D01*
X171431300Y-101047000D02*
X171364633Y-101113667D01*
X171364633Y-101113667D02*
X171297966Y-101147000D01*
X171297966Y-101147000D02*
X171164633Y-101180333D01*
X171164633Y-101180333D02*
X171064633Y-101180333D01*
X171064633Y-101180333D02*
X170931300Y-101147000D01*
X170931300Y-101147000D02*
X170864633Y-101113667D01*
X170864633Y-101113667D02*
X170797966Y-101047000D01*
X170797966Y-101047000D02*
X170764633Y-100947000D01*
X170764633Y-100947000D02*
X170764633Y-100880333D01*
X170764633Y-100880333D02*
X170797966Y-100780333D01*
X170797966Y-100780333D02*
X170831300Y-100747000D01*
X171464633Y-100080333D02*
X171464633Y-100480333D01*
X171464633Y-100280333D02*
X170764633Y-100280333D01*
X170764633Y-100280333D02*
X170864633Y-100347000D01*
X170864633Y-100347000D02*
X170931300Y-100413667D01*
X170931300Y-100413667D02*
X170964633Y-100480333D01*
X171464633Y-99413666D02*
X171464633Y-99813666D01*
X171464633Y-99613666D02*
X170764633Y-99613666D01*
X170764633Y-99613666D02*
X170864633Y-99680333D01*
X170864633Y-99680333D02*
X170931300Y-99747000D01*
X170931300Y-99747000D02*
X170964633Y-99813666D01*
X184418633Y-92619000D02*
X184085300Y-92852333D01*
X184418633Y-93019000D02*
X183718633Y-93019000D01*
X183718633Y-93019000D02*
X183718633Y-92752333D01*
X183718633Y-92752333D02*
X183751966Y-92685667D01*
X183751966Y-92685667D02*
X183785300Y-92652333D01*
X183785300Y-92652333D02*
X183851966Y-92619000D01*
X183851966Y-92619000D02*
X183951966Y-92619000D01*
X183951966Y-92619000D02*
X184018633Y-92652333D01*
X184018633Y-92652333D02*
X184051966Y-92685667D01*
X184051966Y-92685667D02*
X184085300Y-92752333D01*
X184085300Y-92752333D02*
X184085300Y-93019000D01*
X184418633Y-91952333D02*
X184418633Y-92352333D01*
X184418633Y-92152333D02*
X183718633Y-92152333D01*
X183718633Y-92152333D02*
X183818633Y-92219000D01*
X183818633Y-92219000D02*
X183885300Y-92285667D01*
X183885300Y-92285667D02*
X183918633Y-92352333D01*
X183951966Y-91352333D02*
X184418633Y-91352333D01*
X183685300Y-91519000D02*
X184185300Y-91685666D01*
X184185300Y-91685666D02*
X184185300Y-91252333D01*
X184418633Y-88983666D02*
X184085300Y-89216999D01*
X184418633Y-89383666D02*
X183718633Y-89383666D01*
X183718633Y-89383666D02*
X183718633Y-89116999D01*
X183718633Y-89116999D02*
X183751966Y-89050333D01*
X183751966Y-89050333D02*
X183785300Y-89016999D01*
X183785300Y-89016999D02*
X183851966Y-88983666D01*
X183851966Y-88983666D02*
X183951966Y-88983666D01*
X183951966Y-88983666D02*
X184018633Y-89016999D01*
X184018633Y-89016999D02*
X184051966Y-89050333D01*
X184051966Y-89050333D02*
X184085300Y-89116999D01*
X184085300Y-89116999D02*
X184085300Y-89383666D01*
X183718633Y-88750333D02*
X183718633Y-88283666D01*
X183718633Y-88283666D02*
X184418633Y-88583666D01*
X172988633Y-99075333D02*
X172288633Y-99075333D01*
X172921966Y-98342000D02*
X172955300Y-98375333D01*
X172955300Y-98375333D02*
X172988633Y-98475333D01*
X172988633Y-98475333D02*
X172988633Y-98542000D01*
X172988633Y-98542000D02*
X172955300Y-98642000D01*
X172955300Y-98642000D02*
X172888633Y-98708667D01*
X172888633Y-98708667D02*
X172821966Y-98742000D01*
X172821966Y-98742000D02*
X172688633Y-98775333D01*
X172688633Y-98775333D02*
X172588633Y-98775333D01*
X172588633Y-98775333D02*
X172455300Y-98742000D01*
X172455300Y-98742000D02*
X172388633Y-98708667D01*
X172388633Y-98708667D02*
X172321966Y-98642000D01*
X172321966Y-98642000D02*
X172288633Y-98542000D01*
X172288633Y-98542000D02*
X172288633Y-98475333D01*
X172288633Y-98475333D02*
X172321966Y-98375333D01*
X172321966Y-98375333D02*
X172355300Y-98342000D01*
X172521966Y-97742000D02*
X172988633Y-97742000D01*
X172255300Y-97908667D02*
X172755300Y-98075333D01*
X172755300Y-98075333D02*
X172755300Y-97642000D01*
X175782633Y-92619000D02*
X175449300Y-92852333D01*
X175782633Y-93019000D02*
X175082633Y-93019000D01*
X175082633Y-93019000D02*
X175082633Y-92752333D01*
X175082633Y-92752333D02*
X175115966Y-92685667D01*
X175115966Y-92685667D02*
X175149300Y-92652333D01*
X175149300Y-92652333D02*
X175215966Y-92619000D01*
X175215966Y-92619000D02*
X175315966Y-92619000D01*
X175315966Y-92619000D02*
X175382633Y-92652333D01*
X175382633Y-92652333D02*
X175415966Y-92685667D01*
X175415966Y-92685667D02*
X175449300Y-92752333D01*
X175449300Y-92752333D02*
X175449300Y-93019000D01*
X175149300Y-92352333D02*
X175115966Y-92319000D01*
X175115966Y-92319000D02*
X175082633Y-92252333D01*
X175082633Y-92252333D02*
X175082633Y-92085667D01*
X175082633Y-92085667D02*
X175115966Y-92019000D01*
X175115966Y-92019000D02*
X175149300Y-91985667D01*
X175149300Y-91985667D02*
X175215966Y-91952333D01*
X175215966Y-91952333D02*
X175282633Y-91952333D01*
X175282633Y-91952333D02*
X175382633Y-91985667D01*
X175382633Y-91985667D02*
X175782633Y-92385667D01*
X175782633Y-92385667D02*
X175782633Y-91952333D01*
X175149300Y-91685666D02*
X175115966Y-91652333D01*
X175115966Y-91652333D02*
X175082633Y-91585666D01*
X175082633Y-91585666D02*
X175082633Y-91419000D01*
X175082633Y-91419000D02*
X175115966Y-91352333D01*
X175115966Y-91352333D02*
X175149300Y-91319000D01*
X175149300Y-91319000D02*
X175215966Y-91285666D01*
X175215966Y-91285666D02*
X175282633Y-91285666D01*
X175282633Y-91285666D02*
X175382633Y-91319000D01*
X175382633Y-91319000D02*
X175782633Y-91719000D01*
X175782633Y-91719000D02*
X175782633Y-91285666D01*
X173242633Y-92619000D02*
X172909300Y-92852333D01*
X173242633Y-93019000D02*
X172542633Y-93019000D01*
X172542633Y-93019000D02*
X172542633Y-92752333D01*
X172542633Y-92752333D02*
X172575966Y-92685667D01*
X172575966Y-92685667D02*
X172609300Y-92652333D01*
X172609300Y-92652333D02*
X172675966Y-92619000D01*
X172675966Y-92619000D02*
X172775966Y-92619000D01*
X172775966Y-92619000D02*
X172842633Y-92652333D01*
X172842633Y-92652333D02*
X172875966Y-92685667D01*
X172875966Y-92685667D02*
X172909300Y-92752333D01*
X172909300Y-92752333D02*
X172909300Y-93019000D01*
X173242633Y-91952333D02*
X173242633Y-92352333D01*
X173242633Y-92152333D02*
X172542633Y-92152333D01*
X172542633Y-92152333D02*
X172642633Y-92219000D01*
X172642633Y-92219000D02*
X172709300Y-92285667D01*
X172709300Y-92285667D02*
X172742633Y-92352333D01*
X172542633Y-91319000D02*
X172542633Y-91652333D01*
X172542633Y-91652333D02*
X172875966Y-91685666D01*
X172875966Y-91685666D02*
X172842633Y-91652333D01*
X172842633Y-91652333D02*
X172809300Y-91585666D01*
X172809300Y-91585666D02*
X172809300Y-91419000D01*
X172809300Y-91419000D02*
X172842633Y-91352333D01*
X172842633Y-91352333D02*
X172875966Y-91319000D01*
X172875966Y-91319000D02*
X172942633Y-91285666D01*
X172942633Y-91285666D02*
X173109300Y-91285666D01*
X173109300Y-91285666D02*
X173175966Y-91319000D01*
X173175966Y-91319000D02*
X173209300Y-91352333D01*
X173209300Y-91352333D02*
X173242633Y-91419000D01*
X173242633Y-91419000D02*
X173242633Y-91585666D01*
X173242633Y-91585666D02*
X173209300Y-91652333D01*
X173209300Y-91652333D02*
X173175966Y-91685666D01*
X185053633Y-99020333D02*
X184353633Y-99020333D01*
X184986966Y-98287000D02*
X185020300Y-98320333D01*
X185020300Y-98320333D02*
X185053633Y-98420333D01*
X185053633Y-98420333D02*
X185053633Y-98487000D01*
X185053633Y-98487000D02*
X185020300Y-98587000D01*
X185020300Y-98587000D02*
X184953633Y-98653667D01*
X184953633Y-98653667D02*
X184886966Y-98687000D01*
X184886966Y-98687000D02*
X184753633Y-98720333D01*
X184753633Y-98720333D02*
X184653633Y-98720333D01*
X184653633Y-98720333D02*
X184520300Y-98687000D01*
X184520300Y-98687000D02*
X184453633Y-98653667D01*
X184453633Y-98653667D02*
X184386966Y-98587000D01*
X184386966Y-98587000D02*
X184353633Y-98487000D01*
X184353633Y-98487000D02*
X184353633Y-98420333D01*
X184353633Y-98420333D02*
X184386966Y-98320333D01*
X184386966Y-98320333D02*
X184420300Y-98287000D01*
X184353633Y-98053667D02*
X184353633Y-97620333D01*
X184353633Y-97620333D02*
X184620300Y-97853667D01*
X184620300Y-97853667D02*
X184620300Y-97753667D01*
X184620300Y-97753667D02*
X184653633Y-97687000D01*
X184653633Y-97687000D02*
X184686966Y-97653667D01*
X184686966Y-97653667D02*
X184753633Y-97620333D01*
X184753633Y-97620333D02*
X184920300Y-97620333D01*
X184920300Y-97620333D02*
X184986966Y-97653667D01*
X184986966Y-97653667D02*
X185020300Y-97687000D01*
X185020300Y-97687000D02*
X185053633Y-97753667D01*
X185053633Y-97753667D02*
X185053633Y-97953667D01*
X185053633Y-97953667D02*
X185020300Y-98020333D01*
X185020300Y-98020333D02*
X184986966Y-98053667D01*
X186958633Y-92285666D02*
X186625300Y-92518999D01*
X186958633Y-92685666D02*
X186258633Y-92685666D01*
X186258633Y-92685666D02*
X186258633Y-92418999D01*
X186258633Y-92418999D02*
X186291966Y-92352333D01*
X186291966Y-92352333D02*
X186325300Y-92318999D01*
X186325300Y-92318999D02*
X186391966Y-92285666D01*
X186391966Y-92285666D02*
X186491966Y-92285666D01*
X186491966Y-92285666D02*
X186558633Y-92318999D01*
X186558633Y-92318999D02*
X186591966Y-92352333D01*
X186591966Y-92352333D02*
X186625300Y-92418999D01*
X186625300Y-92418999D02*
X186625300Y-92685666D01*
X186258633Y-91685666D02*
X186258633Y-91818999D01*
X186258633Y-91818999D02*
X186291966Y-91885666D01*
X186291966Y-91885666D02*
X186325300Y-91918999D01*
X186325300Y-91918999D02*
X186425300Y-91985666D01*
X186425300Y-91985666D02*
X186558633Y-92018999D01*
X186558633Y-92018999D02*
X186825300Y-92018999D01*
X186825300Y-92018999D02*
X186891966Y-91985666D01*
X186891966Y-91985666D02*
X186925300Y-91952333D01*
X186925300Y-91952333D02*
X186958633Y-91885666D01*
X186958633Y-91885666D02*
X186958633Y-91752333D01*
X186958633Y-91752333D02*
X186925300Y-91685666D01*
X186925300Y-91685666D02*
X186891966Y-91652333D01*
X186891966Y-91652333D02*
X186825300Y-91618999D01*
X186825300Y-91618999D02*
X186658633Y-91618999D01*
X186658633Y-91618999D02*
X186591966Y-91652333D01*
X186591966Y-91652333D02*
X186558633Y-91685666D01*
X186558633Y-91685666D02*
X186525300Y-91752333D01*
X186525300Y-91752333D02*
X186525300Y-91885666D01*
X186525300Y-91885666D02*
X186558633Y-91952333D01*
X186558633Y-91952333D02*
X186591966Y-91985666D01*
X186591966Y-91985666D02*
X186658633Y-92018999D01*
X194511966Y-92285666D02*
X194545300Y-92318999D01*
X194545300Y-92318999D02*
X194578633Y-92418999D01*
X194578633Y-92418999D02*
X194578633Y-92485666D01*
X194578633Y-92485666D02*
X194545300Y-92585666D01*
X194545300Y-92585666D02*
X194478633Y-92652333D01*
X194478633Y-92652333D02*
X194411966Y-92685666D01*
X194411966Y-92685666D02*
X194278633Y-92718999D01*
X194278633Y-92718999D02*
X194178633Y-92718999D01*
X194178633Y-92718999D02*
X194045300Y-92685666D01*
X194045300Y-92685666D02*
X193978633Y-92652333D01*
X193978633Y-92652333D02*
X193911966Y-92585666D01*
X193911966Y-92585666D02*
X193878633Y-92485666D01*
X193878633Y-92485666D02*
X193878633Y-92418999D01*
X193878633Y-92418999D02*
X193911966Y-92318999D01*
X193911966Y-92318999D02*
X193945300Y-92285666D01*
X193878633Y-91685666D02*
X193878633Y-91818999D01*
X193878633Y-91818999D02*
X193911966Y-91885666D01*
X193911966Y-91885666D02*
X193945300Y-91918999D01*
X193945300Y-91918999D02*
X194045300Y-91985666D01*
X194045300Y-91985666D02*
X194178633Y-92018999D01*
X194178633Y-92018999D02*
X194445300Y-92018999D01*
X194445300Y-92018999D02*
X194511966Y-91985666D01*
X194511966Y-91985666D02*
X194545300Y-91952333D01*
X194545300Y-91952333D02*
X194578633Y-91885666D01*
X194578633Y-91885666D02*
X194578633Y-91752333D01*
X194578633Y-91752333D02*
X194545300Y-91685666D01*
X194545300Y-91685666D02*
X194511966Y-91652333D01*
X194511966Y-91652333D02*
X194445300Y-91618999D01*
X194445300Y-91618999D02*
X194278633Y-91618999D01*
X194278633Y-91618999D02*
X194211966Y-91652333D01*
X194211966Y-91652333D02*
X194178633Y-91685666D01*
X194178633Y-91685666D02*
X194145300Y-91752333D01*
X194145300Y-91752333D02*
X194145300Y-91885666D01*
X194145300Y-91885666D02*
X194178633Y-91952333D01*
X194178633Y-91952333D02*
X194211966Y-91985666D01*
X194211966Y-91985666D02*
X194278633Y-92018999D01*
X189498633Y-92285666D02*
X189165300Y-92518999D01*
X189498633Y-92685666D02*
X188798633Y-92685666D01*
X188798633Y-92685666D02*
X188798633Y-92418999D01*
X188798633Y-92418999D02*
X188831966Y-92352333D01*
X188831966Y-92352333D02*
X188865300Y-92318999D01*
X188865300Y-92318999D02*
X188931966Y-92285666D01*
X188931966Y-92285666D02*
X189031966Y-92285666D01*
X189031966Y-92285666D02*
X189098633Y-92318999D01*
X189098633Y-92318999D02*
X189131966Y-92352333D01*
X189131966Y-92352333D02*
X189165300Y-92418999D01*
X189165300Y-92418999D02*
X189165300Y-92685666D01*
X189498633Y-91618999D02*
X189498633Y-92018999D01*
X189498633Y-91818999D02*
X188798633Y-91818999D01*
X188798633Y-91818999D02*
X188898633Y-91885666D01*
X188898633Y-91885666D02*
X188965300Y-91952333D01*
X188965300Y-91952333D02*
X188998633Y-92018999D01*
X194971966Y-119844666D02*
X195005300Y-119877999D01*
X195005300Y-119877999D02*
X195038633Y-119977999D01*
X195038633Y-119977999D02*
X195038633Y-120044666D01*
X195038633Y-120044666D02*
X195005300Y-120144666D01*
X195005300Y-120144666D02*
X194938633Y-120211333D01*
X194938633Y-120211333D02*
X194871966Y-120244666D01*
X194871966Y-120244666D02*
X194738633Y-120277999D01*
X194738633Y-120277999D02*
X194638633Y-120277999D01*
X194638633Y-120277999D02*
X194505300Y-120244666D01*
X194505300Y-120244666D02*
X194438633Y-120211333D01*
X194438633Y-120211333D02*
X194371966Y-120144666D01*
X194371966Y-120144666D02*
X194338633Y-120044666D01*
X194338633Y-120044666D02*
X194338633Y-119977999D01*
X194338633Y-119977999D02*
X194371966Y-119877999D01*
X194371966Y-119877999D02*
X194405300Y-119844666D01*
X194638633Y-119444666D02*
X194605300Y-119511333D01*
X194605300Y-119511333D02*
X194571966Y-119544666D01*
X194571966Y-119544666D02*
X194505300Y-119577999D01*
X194505300Y-119577999D02*
X194471966Y-119577999D01*
X194471966Y-119577999D02*
X194405300Y-119544666D01*
X194405300Y-119544666D02*
X194371966Y-119511333D01*
X194371966Y-119511333D02*
X194338633Y-119444666D01*
X194338633Y-119444666D02*
X194338633Y-119311333D01*
X194338633Y-119311333D02*
X194371966Y-119244666D01*
X194371966Y-119244666D02*
X194405300Y-119211333D01*
X194405300Y-119211333D02*
X194471966Y-119177999D01*
X194471966Y-119177999D02*
X194505300Y-119177999D01*
X194505300Y-119177999D02*
X194571966Y-119211333D01*
X194571966Y-119211333D02*
X194605300Y-119244666D01*
X194605300Y-119244666D02*
X194638633Y-119311333D01*
X194638633Y-119311333D02*
X194638633Y-119444666D01*
X194638633Y-119444666D02*
X194671966Y-119511333D01*
X194671966Y-119511333D02*
X194705300Y-119544666D01*
X194705300Y-119544666D02*
X194771966Y-119577999D01*
X194771966Y-119577999D02*
X194905300Y-119577999D01*
X194905300Y-119577999D02*
X194971966Y-119544666D01*
X194971966Y-119544666D02*
X195005300Y-119511333D01*
X195005300Y-119511333D02*
X195038633Y-119444666D01*
X195038633Y-119444666D02*
X195038633Y-119311333D01*
X195038633Y-119311333D02*
X195005300Y-119244666D01*
X195005300Y-119244666D02*
X194971966Y-119211333D01*
X194971966Y-119211333D02*
X194905300Y-119177999D01*
X194905300Y-119177999D02*
X194771966Y-119177999D01*
X194771966Y-119177999D02*
X194705300Y-119211333D01*
X194705300Y-119211333D02*
X194671966Y-119244666D01*
X194671966Y-119244666D02*
X194638633Y-119311333D01*
X183148633Y-96095666D02*
X182815300Y-96328999D01*
X183148633Y-96495666D02*
X182448633Y-96495666D01*
X182448633Y-96495666D02*
X182448633Y-96228999D01*
X182448633Y-96228999D02*
X182481966Y-96162333D01*
X182481966Y-96162333D02*
X182515300Y-96128999D01*
X182515300Y-96128999D02*
X182581966Y-96095666D01*
X182581966Y-96095666D02*
X182681966Y-96095666D01*
X182681966Y-96095666D02*
X182748633Y-96128999D01*
X182748633Y-96128999D02*
X182781966Y-96162333D01*
X182781966Y-96162333D02*
X182815300Y-96228999D01*
X182815300Y-96228999D02*
X182815300Y-96495666D01*
X183148633Y-95762333D02*
X183148633Y-95628999D01*
X183148633Y-95628999D02*
X183115300Y-95562333D01*
X183115300Y-95562333D02*
X183081966Y-95528999D01*
X183081966Y-95528999D02*
X182981966Y-95462333D01*
X182981966Y-95462333D02*
X182848633Y-95428999D01*
X182848633Y-95428999D02*
X182581966Y-95428999D01*
X182581966Y-95428999D02*
X182515300Y-95462333D01*
X182515300Y-95462333D02*
X182481966Y-95495666D01*
X182481966Y-95495666D02*
X182448633Y-95562333D01*
X182448633Y-95562333D02*
X182448633Y-95695666D01*
X182448633Y-95695666D02*
X182481966Y-95762333D01*
X182481966Y-95762333D02*
X182515300Y-95795666D01*
X182515300Y-95795666D02*
X182581966Y-95828999D01*
X182581966Y-95828999D02*
X182748633Y-95828999D01*
X182748633Y-95828999D02*
X182815300Y-95795666D01*
X182815300Y-95795666D02*
X182848633Y-95762333D01*
X182848633Y-95762333D02*
X182881966Y-95695666D01*
X182881966Y-95695666D02*
X182881966Y-95562333D01*
X182881966Y-95562333D02*
X182848633Y-95495666D01*
X182848633Y-95495666D02*
X182815300Y-95462333D01*
X182815300Y-95462333D02*
X182748633Y-95428999D01*
X181878633Y-85681666D02*
X181545300Y-85914999D01*
X181878633Y-86081666D02*
X181178633Y-86081666D01*
X181178633Y-86081666D02*
X181178633Y-85814999D01*
X181178633Y-85814999D02*
X181211966Y-85748333D01*
X181211966Y-85748333D02*
X181245300Y-85714999D01*
X181245300Y-85714999D02*
X181311966Y-85681666D01*
X181311966Y-85681666D02*
X181411966Y-85681666D01*
X181411966Y-85681666D02*
X181478633Y-85714999D01*
X181478633Y-85714999D02*
X181511966Y-85748333D01*
X181511966Y-85748333D02*
X181545300Y-85814999D01*
X181545300Y-85814999D02*
X181545300Y-86081666D01*
X181245300Y-85414999D02*
X181211966Y-85381666D01*
X181211966Y-85381666D02*
X181178633Y-85314999D01*
X181178633Y-85314999D02*
X181178633Y-85148333D01*
X181178633Y-85148333D02*
X181211966Y-85081666D01*
X181211966Y-85081666D02*
X181245300Y-85048333D01*
X181245300Y-85048333D02*
X181311966Y-85014999D01*
X181311966Y-85014999D02*
X181378633Y-85014999D01*
X181378633Y-85014999D02*
X181478633Y-85048333D01*
X181478633Y-85048333D02*
X181878633Y-85448333D01*
X181878633Y-85448333D02*
X181878633Y-85014999D01*
X160923633Y-90566333D02*
X160223633Y-90566333D01*
X160856966Y-89833000D02*
X160890300Y-89866333D01*
X160890300Y-89866333D02*
X160923633Y-89966333D01*
X160923633Y-89966333D02*
X160923633Y-90033000D01*
X160923633Y-90033000D02*
X160890300Y-90133000D01*
X160890300Y-90133000D02*
X160823633Y-90199667D01*
X160823633Y-90199667D02*
X160756966Y-90233000D01*
X160756966Y-90233000D02*
X160623633Y-90266333D01*
X160623633Y-90266333D02*
X160523633Y-90266333D01*
X160523633Y-90266333D02*
X160390300Y-90233000D01*
X160390300Y-90233000D02*
X160323633Y-90199667D01*
X160323633Y-90199667D02*
X160256966Y-90133000D01*
X160256966Y-90133000D02*
X160223633Y-90033000D01*
X160223633Y-90033000D02*
X160223633Y-89966333D01*
X160223633Y-89966333D02*
X160256966Y-89866333D01*
X160256966Y-89866333D02*
X160290300Y-89833000D01*
X160290300Y-89566333D02*
X160256966Y-89533000D01*
X160256966Y-89533000D02*
X160223633Y-89466333D01*
X160223633Y-89466333D02*
X160223633Y-89299667D01*
X160223633Y-89299667D02*
X160256966Y-89233000D01*
X160256966Y-89233000D02*
X160290300Y-89199667D01*
X160290300Y-89199667D02*
X160356966Y-89166333D01*
X160356966Y-89166333D02*
X160423633Y-89166333D01*
X160423633Y-89166333D02*
X160523633Y-89199667D01*
X160523633Y-89199667D02*
X160923633Y-89599667D01*
X160923633Y-89599667D02*
X160923633Y-89166333D01*
X178322633Y-92619000D02*
X177989300Y-92852333D01*
X178322633Y-93019000D02*
X177622633Y-93019000D01*
X177622633Y-93019000D02*
X177622633Y-92752333D01*
X177622633Y-92752333D02*
X177655966Y-92685667D01*
X177655966Y-92685667D02*
X177689300Y-92652333D01*
X177689300Y-92652333D02*
X177755966Y-92619000D01*
X177755966Y-92619000D02*
X177855966Y-92619000D01*
X177855966Y-92619000D02*
X177922633Y-92652333D01*
X177922633Y-92652333D02*
X177955966Y-92685667D01*
X177955966Y-92685667D02*
X177989300Y-92752333D01*
X177989300Y-92752333D02*
X177989300Y-93019000D01*
X178322633Y-91952333D02*
X178322633Y-92352333D01*
X178322633Y-92152333D02*
X177622633Y-92152333D01*
X177622633Y-92152333D02*
X177722633Y-92219000D01*
X177722633Y-92219000D02*
X177789300Y-92285667D01*
X177789300Y-92285667D02*
X177822633Y-92352333D01*
X177622633Y-91719000D02*
X177622633Y-91285666D01*
X177622633Y-91285666D02*
X177889300Y-91519000D01*
X177889300Y-91519000D02*
X177889300Y-91419000D01*
X177889300Y-91419000D02*
X177922633Y-91352333D01*
X177922633Y-91352333D02*
X177955966Y-91319000D01*
X177955966Y-91319000D02*
X178022633Y-91285666D01*
X178022633Y-91285666D02*
X178189300Y-91285666D01*
X178189300Y-91285666D02*
X178255966Y-91319000D01*
X178255966Y-91319000D02*
X178289300Y-91352333D01*
X178289300Y-91352333D02*
X178322633Y-91419000D01*
X178322633Y-91419000D02*
X178322633Y-91619000D01*
X178322633Y-91619000D02*
X178289300Y-91685666D01*
X178289300Y-91685666D02*
X178255966Y-91719000D01*
X173242633Y-88983666D02*
X172909300Y-89216999D01*
X173242633Y-89383666D02*
X172542633Y-89383666D01*
X172542633Y-89383666D02*
X172542633Y-89116999D01*
X172542633Y-89116999D02*
X172575966Y-89050333D01*
X172575966Y-89050333D02*
X172609300Y-89016999D01*
X172609300Y-89016999D02*
X172675966Y-88983666D01*
X172675966Y-88983666D02*
X172775966Y-88983666D01*
X172775966Y-88983666D02*
X172842633Y-89016999D01*
X172842633Y-89016999D02*
X172875966Y-89050333D01*
X172875966Y-89050333D02*
X172909300Y-89116999D01*
X172909300Y-89116999D02*
X172909300Y-89383666D01*
X172542633Y-88750333D02*
X172542633Y-88316999D01*
X172542633Y-88316999D02*
X172809300Y-88550333D01*
X172809300Y-88550333D02*
X172809300Y-88450333D01*
X172809300Y-88450333D02*
X172842633Y-88383666D01*
X172842633Y-88383666D02*
X172875966Y-88350333D01*
X172875966Y-88350333D02*
X172942633Y-88316999D01*
X172942633Y-88316999D02*
X173109300Y-88316999D01*
X173109300Y-88316999D02*
X173175966Y-88350333D01*
X173175966Y-88350333D02*
X173209300Y-88383666D01*
X173209300Y-88383666D02*
X173242633Y-88450333D01*
X173242633Y-88450333D02*
X173242633Y-88650333D01*
X173242633Y-88650333D02*
X173209300Y-88716999D01*
X173209300Y-88716999D02*
X173175966Y-88750333D01*
X173175966Y-86448333D02*
X173209300Y-86481666D01*
X173209300Y-86481666D02*
X173242633Y-86581666D01*
X173242633Y-86581666D02*
X173242633Y-86648333D01*
X173242633Y-86648333D02*
X173209300Y-86748333D01*
X173209300Y-86748333D02*
X173142633Y-86815000D01*
X173142633Y-86815000D02*
X173075966Y-86848333D01*
X173075966Y-86848333D02*
X172942633Y-86881666D01*
X172942633Y-86881666D02*
X172842633Y-86881666D01*
X172842633Y-86881666D02*
X172709300Y-86848333D01*
X172709300Y-86848333D02*
X172642633Y-86815000D01*
X172642633Y-86815000D02*
X172575966Y-86748333D01*
X172575966Y-86748333D02*
X172542633Y-86648333D01*
X172542633Y-86648333D02*
X172542633Y-86581666D01*
X172542633Y-86581666D02*
X172575966Y-86481666D01*
X172575966Y-86481666D02*
X172609300Y-86448333D01*
X172542633Y-85815000D02*
X172542633Y-86148333D01*
X172542633Y-86148333D02*
X172875966Y-86181666D01*
X172875966Y-86181666D02*
X172842633Y-86148333D01*
X172842633Y-86148333D02*
X172809300Y-86081666D01*
X172809300Y-86081666D02*
X172809300Y-85915000D01*
X172809300Y-85915000D02*
X172842633Y-85848333D01*
X172842633Y-85848333D02*
X172875966Y-85815000D01*
X172875966Y-85815000D02*
X172942633Y-85781666D01*
X172942633Y-85781666D02*
X173109300Y-85781666D01*
X173109300Y-85781666D02*
X173175966Y-85815000D01*
X173175966Y-85815000D02*
X173209300Y-85848333D01*
X173209300Y-85848333D02*
X173242633Y-85915000D01*
X173242633Y-85915000D02*
X173242633Y-86081666D01*
X173242633Y-86081666D02*
X173209300Y-86148333D01*
X173209300Y-86148333D02*
X173175966Y-86181666D01*
X172975966Y-85481666D02*
X172975966Y-84948333D01*
X173242633Y-84248332D02*
X173242633Y-84648332D01*
X173242633Y-84448332D02*
X172542633Y-84448332D01*
X172542633Y-84448332D02*
X172642633Y-84514999D01*
X172642633Y-84514999D02*
X172709300Y-84581666D01*
X172709300Y-84581666D02*
X172742633Y-84648332D01*
X178255966Y-85681666D02*
X178289300Y-85714999D01*
X178289300Y-85714999D02*
X178322633Y-85814999D01*
X178322633Y-85814999D02*
X178322633Y-85881666D01*
X178322633Y-85881666D02*
X178289300Y-85981666D01*
X178289300Y-85981666D02*
X178222633Y-86048333D01*
X178222633Y-86048333D02*
X178155966Y-86081666D01*
X178155966Y-86081666D02*
X178022633Y-86114999D01*
X178022633Y-86114999D02*
X177922633Y-86114999D01*
X177922633Y-86114999D02*
X177789300Y-86081666D01*
X177789300Y-86081666D02*
X177722633Y-86048333D01*
X177722633Y-86048333D02*
X177655966Y-85981666D01*
X177655966Y-85981666D02*
X177622633Y-85881666D01*
X177622633Y-85881666D02*
X177622633Y-85814999D01*
X177622633Y-85814999D02*
X177655966Y-85714999D01*
X177655966Y-85714999D02*
X177689300Y-85681666D01*
X177622633Y-85448333D02*
X177622633Y-84981666D01*
X177622633Y-84981666D02*
X178322633Y-85281666D01*
X178322633Y-89317000D02*
X177989300Y-89550333D01*
X178322633Y-89717000D02*
X177622633Y-89717000D01*
X177622633Y-89717000D02*
X177622633Y-89450333D01*
X177622633Y-89450333D02*
X177655966Y-89383667D01*
X177655966Y-89383667D02*
X177689300Y-89350333D01*
X177689300Y-89350333D02*
X177755966Y-89317000D01*
X177755966Y-89317000D02*
X177855966Y-89317000D01*
X177855966Y-89317000D02*
X177922633Y-89350333D01*
X177922633Y-89350333D02*
X177955966Y-89383667D01*
X177955966Y-89383667D02*
X177989300Y-89450333D01*
X177989300Y-89450333D02*
X177989300Y-89717000D01*
X178322633Y-88650333D02*
X178322633Y-89050333D01*
X178322633Y-88850333D02*
X177622633Y-88850333D01*
X177622633Y-88850333D02*
X177722633Y-88917000D01*
X177722633Y-88917000D02*
X177789300Y-88983667D01*
X177789300Y-88983667D02*
X177822633Y-89050333D01*
X177689300Y-88383666D02*
X177655966Y-88350333D01*
X177655966Y-88350333D02*
X177622633Y-88283666D01*
X177622633Y-88283666D02*
X177622633Y-88117000D01*
X177622633Y-88117000D02*
X177655966Y-88050333D01*
X177655966Y-88050333D02*
X177689300Y-88017000D01*
X177689300Y-88017000D02*
X177755966Y-87983666D01*
X177755966Y-87983666D02*
X177822633Y-87983666D01*
X177822633Y-87983666D02*
X177922633Y-88017000D01*
X177922633Y-88017000D02*
X178322633Y-88417000D01*
X178322633Y-88417000D02*
X178322633Y-87983666D01*
X169813633Y-84962000D02*
X169480300Y-85195333D01*
X169813633Y-85362000D02*
X169113633Y-85362000D01*
X169113633Y-85362000D02*
X169113633Y-85095333D01*
X169113633Y-85095333D02*
X169146966Y-85028667D01*
X169146966Y-85028667D02*
X169180300Y-84995333D01*
X169180300Y-84995333D02*
X169246966Y-84962000D01*
X169246966Y-84962000D02*
X169346966Y-84962000D01*
X169346966Y-84962000D02*
X169413633Y-84995333D01*
X169413633Y-84995333D02*
X169446966Y-85028667D01*
X169446966Y-85028667D02*
X169480300Y-85095333D01*
X169480300Y-85095333D02*
X169480300Y-85362000D01*
X169813633Y-84295333D02*
X169813633Y-84695333D01*
X169813633Y-84495333D02*
X169113633Y-84495333D01*
X169113633Y-84495333D02*
X169213633Y-84562000D01*
X169213633Y-84562000D02*
X169280300Y-84628667D01*
X169280300Y-84628667D02*
X169313633Y-84695333D01*
X169813633Y-83628666D02*
X169813633Y-84028666D01*
X169813633Y-83828666D02*
X169113633Y-83828666D01*
X169113633Y-83828666D02*
X169213633Y-83895333D01*
X169213633Y-83895333D02*
X169280300Y-83962000D01*
X169280300Y-83962000D02*
X169313633Y-84028666D01*
X171016966Y-96095666D02*
X171050300Y-96128999D01*
X171050300Y-96128999D02*
X171083633Y-96228999D01*
X171083633Y-96228999D02*
X171083633Y-96295666D01*
X171083633Y-96295666D02*
X171050300Y-96395666D01*
X171050300Y-96395666D02*
X170983633Y-96462333D01*
X170983633Y-96462333D02*
X170916966Y-96495666D01*
X170916966Y-96495666D02*
X170783633Y-96528999D01*
X170783633Y-96528999D02*
X170683633Y-96528999D01*
X170683633Y-96528999D02*
X170550300Y-96495666D01*
X170550300Y-96495666D02*
X170483633Y-96462333D01*
X170483633Y-96462333D02*
X170416966Y-96395666D01*
X170416966Y-96395666D02*
X170383633Y-96295666D01*
X170383633Y-96295666D02*
X170383633Y-96228999D01*
X170383633Y-96228999D02*
X170416966Y-96128999D01*
X170416966Y-96128999D02*
X170450300Y-96095666D01*
X171083633Y-95762333D02*
X171083633Y-95628999D01*
X171083633Y-95628999D02*
X171050300Y-95562333D01*
X171050300Y-95562333D02*
X171016966Y-95528999D01*
X171016966Y-95528999D02*
X170916966Y-95462333D01*
X170916966Y-95462333D02*
X170783633Y-95428999D01*
X170783633Y-95428999D02*
X170516966Y-95428999D01*
X170516966Y-95428999D02*
X170450300Y-95462333D01*
X170450300Y-95462333D02*
X170416966Y-95495666D01*
X170416966Y-95495666D02*
X170383633Y-95562333D01*
X170383633Y-95562333D02*
X170383633Y-95695666D01*
X170383633Y-95695666D02*
X170416966Y-95762333D01*
X170416966Y-95762333D02*
X170450300Y-95795666D01*
X170450300Y-95795666D02*
X170516966Y-95828999D01*
X170516966Y-95828999D02*
X170683633Y-95828999D01*
X170683633Y-95828999D02*
X170750300Y-95795666D01*
X170750300Y-95795666D02*
X170783633Y-95762333D01*
X170783633Y-95762333D02*
X170816966Y-95695666D01*
X170816966Y-95695666D02*
X170816966Y-95562333D01*
X170816966Y-95562333D02*
X170783633Y-95495666D01*
X170783633Y-95495666D02*
X170750300Y-95462333D01*
X170750300Y-95462333D02*
X170683633Y-95428999D01*
X192038633Y-92619000D02*
X191705300Y-92852333D01*
X192038633Y-93019000D02*
X191338633Y-93019000D01*
X191338633Y-93019000D02*
X191338633Y-92752333D01*
X191338633Y-92752333D02*
X191371966Y-92685667D01*
X191371966Y-92685667D02*
X191405300Y-92652333D01*
X191405300Y-92652333D02*
X191471966Y-92619000D01*
X191471966Y-92619000D02*
X191571966Y-92619000D01*
X191571966Y-92619000D02*
X191638633Y-92652333D01*
X191638633Y-92652333D02*
X191671966Y-92685667D01*
X191671966Y-92685667D02*
X191705300Y-92752333D01*
X191705300Y-92752333D02*
X191705300Y-93019000D01*
X191405300Y-92352333D02*
X191371966Y-92319000D01*
X191371966Y-92319000D02*
X191338633Y-92252333D01*
X191338633Y-92252333D02*
X191338633Y-92085667D01*
X191338633Y-92085667D02*
X191371966Y-92019000D01*
X191371966Y-92019000D02*
X191405300Y-91985667D01*
X191405300Y-91985667D02*
X191471966Y-91952333D01*
X191471966Y-91952333D02*
X191538633Y-91952333D01*
X191538633Y-91952333D02*
X191638633Y-91985667D01*
X191638633Y-91985667D02*
X192038633Y-92385667D01*
X192038633Y-92385667D02*
X192038633Y-91952333D01*
X191338633Y-91719000D02*
X191338633Y-91285666D01*
X191338633Y-91285666D02*
X191605300Y-91519000D01*
X191605300Y-91519000D02*
X191605300Y-91419000D01*
X191605300Y-91419000D02*
X191638633Y-91352333D01*
X191638633Y-91352333D02*
X191671966Y-91319000D01*
X191671966Y-91319000D02*
X191738633Y-91285666D01*
X191738633Y-91285666D02*
X191905300Y-91285666D01*
X191905300Y-91285666D02*
X191971966Y-91319000D01*
X191971966Y-91319000D02*
X192005300Y-91352333D01*
X192005300Y-91352333D02*
X192038633Y-91419000D01*
X192038633Y-91419000D02*
X192038633Y-91619000D01*
X192038633Y-91619000D02*
X192005300Y-91685666D01*
X192005300Y-91685666D02*
X191971966Y-91719000D01*
X183462966Y-100775000D02*
X183496300Y-100808333D01*
X183496300Y-100808333D02*
X183529633Y-100908333D01*
X183529633Y-100908333D02*
X183529633Y-100975000D01*
X183529633Y-100975000D02*
X183496300Y-101075000D01*
X183496300Y-101075000D02*
X183429633Y-101141667D01*
X183429633Y-101141667D02*
X183362966Y-101175000D01*
X183362966Y-101175000D02*
X183229633Y-101208333D01*
X183229633Y-101208333D02*
X183129633Y-101208333D01*
X183129633Y-101208333D02*
X182996300Y-101175000D01*
X182996300Y-101175000D02*
X182929633Y-101141667D01*
X182929633Y-101141667D02*
X182862966Y-101075000D01*
X182862966Y-101075000D02*
X182829633Y-100975000D01*
X182829633Y-100975000D02*
X182829633Y-100908333D01*
X182829633Y-100908333D02*
X182862966Y-100808333D01*
X182862966Y-100808333D02*
X182896300Y-100775000D01*
X183529633Y-100108333D02*
X183529633Y-100508333D01*
X183529633Y-100308333D02*
X182829633Y-100308333D01*
X182829633Y-100308333D02*
X182929633Y-100375000D01*
X182929633Y-100375000D02*
X182996300Y-100441667D01*
X182996300Y-100441667D02*
X183029633Y-100508333D01*
X182896300Y-99841666D02*
X182862966Y-99808333D01*
X182862966Y-99808333D02*
X182829633Y-99741666D01*
X182829633Y-99741666D02*
X182829633Y-99575000D01*
X182829633Y-99575000D02*
X182862966Y-99508333D01*
X182862966Y-99508333D02*
X182896300Y-99475000D01*
X182896300Y-99475000D02*
X182962966Y-99441666D01*
X182962966Y-99441666D02*
X183029633Y-99441666D01*
X183029633Y-99441666D02*
X183129633Y-99475000D01*
X183129633Y-99475000D02*
X183529633Y-99875000D01*
X183529633Y-99875000D02*
X183529633Y-99441666D01*
X192038633Y-88983666D02*
X191705300Y-89216999D01*
X192038633Y-89383666D02*
X191338633Y-89383666D01*
X191338633Y-89383666D02*
X191338633Y-89116999D01*
X191338633Y-89116999D02*
X191371966Y-89050333D01*
X191371966Y-89050333D02*
X191405300Y-89016999D01*
X191405300Y-89016999D02*
X191471966Y-88983666D01*
X191471966Y-88983666D02*
X191571966Y-88983666D01*
X191571966Y-88983666D02*
X191638633Y-89016999D01*
X191638633Y-89016999D02*
X191671966Y-89050333D01*
X191671966Y-89050333D02*
X191705300Y-89116999D01*
X191705300Y-89116999D02*
X191705300Y-89383666D01*
X191338633Y-88350333D02*
X191338633Y-88683666D01*
X191338633Y-88683666D02*
X191671966Y-88716999D01*
X191671966Y-88716999D02*
X191638633Y-88683666D01*
X191638633Y-88683666D02*
X191605300Y-88616999D01*
X191605300Y-88616999D02*
X191605300Y-88450333D01*
X191605300Y-88450333D02*
X191638633Y-88383666D01*
X191638633Y-88383666D02*
X191671966Y-88350333D01*
X191671966Y-88350333D02*
X191738633Y-88316999D01*
X191738633Y-88316999D02*
X191905300Y-88316999D01*
X191905300Y-88316999D02*
X191971966Y-88350333D01*
X191971966Y-88350333D02*
X192005300Y-88383666D01*
X192005300Y-88383666D02*
X192038633Y-88450333D01*
X192038633Y-88450333D02*
X192038633Y-88616999D01*
X192038633Y-88616999D02*
X192005300Y-88683666D01*
X192005300Y-88683666D02*
X191971966Y-88716999D01*
X175715966Y-86448333D02*
X175749300Y-86481666D01*
X175749300Y-86481666D02*
X175782633Y-86581666D01*
X175782633Y-86581666D02*
X175782633Y-86648333D01*
X175782633Y-86648333D02*
X175749300Y-86748333D01*
X175749300Y-86748333D02*
X175682633Y-86815000D01*
X175682633Y-86815000D02*
X175615966Y-86848333D01*
X175615966Y-86848333D02*
X175482633Y-86881666D01*
X175482633Y-86881666D02*
X175382633Y-86881666D01*
X175382633Y-86881666D02*
X175249300Y-86848333D01*
X175249300Y-86848333D02*
X175182633Y-86815000D01*
X175182633Y-86815000D02*
X175115966Y-86748333D01*
X175115966Y-86748333D02*
X175082633Y-86648333D01*
X175082633Y-86648333D02*
X175082633Y-86581666D01*
X175082633Y-86581666D02*
X175115966Y-86481666D01*
X175115966Y-86481666D02*
X175149300Y-86448333D01*
X175082633Y-85815000D02*
X175082633Y-86148333D01*
X175082633Y-86148333D02*
X175415966Y-86181666D01*
X175415966Y-86181666D02*
X175382633Y-86148333D01*
X175382633Y-86148333D02*
X175349300Y-86081666D01*
X175349300Y-86081666D02*
X175349300Y-85915000D01*
X175349300Y-85915000D02*
X175382633Y-85848333D01*
X175382633Y-85848333D02*
X175415966Y-85815000D01*
X175415966Y-85815000D02*
X175482633Y-85781666D01*
X175482633Y-85781666D02*
X175649300Y-85781666D01*
X175649300Y-85781666D02*
X175715966Y-85815000D01*
X175715966Y-85815000D02*
X175749300Y-85848333D01*
X175749300Y-85848333D02*
X175782633Y-85915000D01*
X175782633Y-85915000D02*
X175782633Y-86081666D01*
X175782633Y-86081666D02*
X175749300Y-86148333D01*
X175749300Y-86148333D02*
X175715966Y-86181666D01*
X175515966Y-85481666D02*
X175515966Y-84948333D01*
X175149300Y-84648332D02*
X175115966Y-84614999D01*
X175115966Y-84614999D02*
X175082633Y-84548332D01*
X175082633Y-84548332D02*
X175082633Y-84381666D01*
X175082633Y-84381666D02*
X175115966Y-84314999D01*
X175115966Y-84314999D02*
X175149300Y-84281666D01*
X175149300Y-84281666D02*
X175215966Y-84248332D01*
X175215966Y-84248332D02*
X175282633Y-84248332D01*
X175282633Y-84248332D02*
X175382633Y-84281666D01*
X175382633Y-84281666D02*
X175782633Y-84681666D01*
X175782633Y-84681666D02*
X175782633Y-84248332D01*
X147318633Y-120751000D02*
X146985300Y-120984333D01*
X147318633Y-121151000D02*
X146618633Y-121151000D01*
X146618633Y-121151000D02*
X146618633Y-120884333D01*
X146618633Y-120884333D02*
X146651966Y-120817667D01*
X146651966Y-120817667D02*
X146685300Y-120784333D01*
X146685300Y-120784333D02*
X146751966Y-120751000D01*
X146751966Y-120751000D02*
X146851966Y-120751000D01*
X146851966Y-120751000D02*
X146918633Y-120784333D01*
X146918633Y-120784333D02*
X146951966Y-120817667D01*
X146951966Y-120817667D02*
X146985300Y-120884333D01*
X146985300Y-120884333D02*
X146985300Y-121151000D01*
X147318633Y-120084333D02*
X147318633Y-120484333D01*
X147318633Y-120284333D02*
X146618633Y-120284333D01*
X146618633Y-120284333D02*
X146718633Y-120351000D01*
X146718633Y-120351000D02*
X146785300Y-120417667D01*
X146785300Y-120417667D02*
X146818633Y-120484333D01*
X146618633Y-119651000D02*
X146618633Y-119584333D01*
X146618633Y-119584333D02*
X146651966Y-119517666D01*
X146651966Y-119517666D02*
X146685300Y-119484333D01*
X146685300Y-119484333D02*
X146751966Y-119451000D01*
X146751966Y-119451000D02*
X146885300Y-119417666D01*
X146885300Y-119417666D02*
X147051966Y-119417666D01*
X147051966Y-119417666D02*
X147185300Y-119451000D01*
X147185300Y-119451000D02*
X147251966Y-119484333D01*
X147251966Y-119484333D02*
X147285300Y-119517666D01*
X147285300Y-119517666D02*
X147318633Y-119584333D01*
X147318633Y-119584333D02*
X147318633Y-119651000D01*
X147318633Y-119651000D02*
X147285300Y-119717666D01*
X147285300Y-119717666D02*
X147251966Y-119751000D01*
X147251966Y-119751000D02*
X147185300Y-119784333D01*
X147185300Y-119784333D02*
X147051966Y-119817666D01*
X147051966Y-119817666D02*
X146885300Y-119817666D01*
X146885300Y-119817666D02*
X146751966Y-119784333D01*
X146751966Y-119784333D02*
X146685300Y-119751000D01*
X146685300Y-119751000D02*
X146651966Y-119717666D01*
X146651966Y-119717666D02*
X146618633Y-119651000D01*
X156263800Y-98739666D02*
X156230466Y-98806333D01*
X156230466Y-98806333D02*
X156163800Y-98873000D01*
X156163800Y-98873000D02*
X156063800Y-98973000D01*
X156063800Y-98973000D02*
X156030466Y-99039666D01*
X156030466Y-99039666D02*
X156030466Y-99106333D01*
X156197133Y-99073000D02*
X156163800Y-99139666D01*
X156163800Y-99139666D02*
X156097133Y-99206333D01*
X156097133Y-99206333D02*
X155963800Y-99239666D01*
X155963800Y-99239666D02*
X155730466Y-99239666D01*
X155730466Y-99239666D02*
X155597133Y-99206333D01*
X155597133Y-99206333D02*
X155530466Y-99139666D01*
X155530466Y-99139666D02*
X155497133Y-99073000D01*
X155497133Y-99073000D02*
X155497133Y-98939666D01*
X155497133Y-98939666D02*
X155530466Y-98873000D01*
X155530466Y-98873000D02*
X155597133Y-98806333D01*
X155597133Y-98806333D02*
X155730466Y-98773000D01*
X155730466Y-98773000D02*
X155963800Y-98773000D01*
X155963800Y-98773000D02*
X156097133Y-98806333D01*
X156097133Y-98806333D02*
X156163800Y-98873000D01*
X156163800Y-98873000D02*
X156197133Y-98939666D01*
X156197133Y-98939666D02*
X156197133Y-99073000D01*
X156197133Y-98106333D02*
X156197133Y-98506333D01*
X156197133Y-98306333D02*
X155497133Y-98306333D01*
X155497133Y-98306333D02*
X155597133Y-98373000D01*
X155597133Y-98373000D02*
X155663800Y-98439667D01*
X155663800Y-98439667D02*
X155697133Y-98506333D01*
D13*
X139707819Y-116109856D02*
X138707819Y-116109856D01*
X138707819Y-116109856D02*
X138707819Y-115728904D01*
X138707819Y-115728904D02*
X138755438Y-115633666D01*
X138755438Y-115633666D02*
X138803057Y-115586047D01*
X138803057Y-115586047D02*
X138898295Y-115538428D01*
X138898295Y-115538428D02*
X139041152Y-115538428D01*
X139041152Y-115538428D02*
X139136390Y-115586047D01*
X139136390Y-115586047D02*
X139184009Y-115633666D01*
X139184009Y-115633666D02*
X139231628Y-115728904D01*
X139231628Y-115728904D02*
X139231628Y-116109856D01*
X139707819Y-114633666D02*
X139707819Y-115109856D01*
X139707819Y-115109856D02*
X138707819Y-115109856D01*
X139707819Y-113776523D02*
X139707819Y-114347951D01*
X139707819Y-114062237D02*
X138707819Y-114062237D01*
X138707819Y-114062237D02*
X138850676Y-114157475D01*
X138850676Y-114157475D02*
X138945914Y-114252713D01*
X138945914Y-114252713D02*
X138993533Y-114347951D01*
D12*
X157647633Y-118972333D02*
X156947633Y-118972333D01*
X157580966Y-118239000D02*
X157614300Y-118272333D01*
X157614300Y-118272333D02*
X157647633Y-118372333D01*
X157647633Y-118372333D02*
X157647633Y-118439000D01*
X157647633Y-118439000D02*
X157614300Y-118539000D01*
X157614300Y-118539000D02*
X157547633Y-118605667D01*
X157547633Y-118605667D02*
X157480966Y-118639000D01*
X157480966Y-118639000D02*
X157347633Y-118672333D01*
X157347633Y-118672333D02*
X157247633Y-118672333D01*
X157247633Y-118672333D02*
X157114300Y-118639000D01*
X157114300Y-118639000D02*
X157047633Y-118605667D01*
X157047633Y-118605667D02*
X156980966Y-118539000D01*
X156980966Y-118539000D02*
X156947633Y-118439000D01*
X156947633Y-118439000D02*
X156947633Y-118372333D01*
X156947633Y-118372333D02*
X156980966Y-118272333D01*
X156980966Y-118272333D02*
X157014300Y-118239000D01*
X156947633Y-117605667D02*
X156947633Y-117939000D01*
X156947633Y-117939000D02*
X157280966Y-117972333D01*
X157280966Y-117972333D02*
X157247633Y-117939000D01*
X157247633Y-117939000D02*
X157214300Y-117872333D01*
X157214300Y-117872333D02*
X157214300Y-117705667D01*
X157214300Y-117705667D02*
X157247633Y-117639000D01*
X157247633Y-117639000D02*
X157280966Y-117605667D01*
X157280966Y-117605667D02*
X157347633Y-117572333D01*
X157347633Y-117572333D02*
X157514300Y-117572333D01*
X157514300Y-117572333D02*
X157580966Y-117605667D01*
X157580966Y-117605667D02*
X157614300Y-117639000D01*
X157614300Y-117639000D02*
X157647633Y-117705667D01*
X157647633Y-117705667D02*
X157647633Y-117872333D01*
X157647633Y-117872333D02*
X157614300Y-117939000D01*
X157614300Y-117939000D02*
X157580966Y-117972333D01*
D13*
X174292904Y-111154819D02*
X174102428Y-111154819D01*
X174102428Y-111154819D02*
X174007190Y-111202438D01*
X174007190Y-111202438D02*
X173959571Y-111250057D01*
X173959571Y-111250057D02*
X173864333Y-111392914D01*
X173864333Y-111392914D02*
X173816714Y-111583390D01*
X173816714Y-111583390D02*
X173816714Y-111964342D01*
X173816714Y-111964342D02*
X173864333Y-112059580D01*
X173864333Y-112059580D02*
X173911952Y-112107200D01*
X173911952Y-112107200D02*
X174007190Y-112154819D01*
X174007190Y-112154819D02*
X174197666Y-112154819D01*
X174197666Y-112154819D02*
X174292904Y-112107200D01*
X174292904Y-112107200D02*
X174340523Y-112059580D01*
X174340523Y-112059580D02*
X174388142Y-111964342D01*
X174388142Y-111964342D02*
X174388142Y-111726247D01*
X174388142Y-111726247D02*
X174340523Y-111631009D01*
X174340523Y-111631009D02*
X174292904Y-111583390D01*
X174292904Y-111583390D02*
X174197666Y-111535771D01*
X174197666Y-111535771D02*
X174007190Y-111535771D01*
X174007190Y-111535771D02*
X173911952Y-111583390D01*
X173911952Y-111583390D02*
X173864333Y-111631009D01*
X173864333Y-111631009D02*
X173816714Y-111726247D01*
X174959571Y-111583390D02*
X174864333Y-111535771D01*
X174864333Y-111535771D02*
X174816714Y-111488152D01*
X174816714Y-111488152D02*
X174769095Y-111392914D01*
X174769095Y-111392914D02*
X174769095Y-111345295D01*
X174769095Y-111345295D02*
X174816714Y-111250057D01*
X174816714Y-111250057D02*
X174864333Y-111202438D01*
X174864333Y-111202438D02*
X174959571Y-111154819D01*
X174959571Y-111154819D02*
X175150047Y-111154819D01*
X175150047Y-111154819D02*
X175245285Y-111202438D01*
X175245285Y-111202438D02*
X175292904Y-111250057D01*
X175292904Y-111250057D02*
X175340523Y-111345295D01*
X175340523Y-111345295D02*
X175340523Y-111392914D01*
X175340523Y-111392914D02*
X175292904Y-111488152D01*
X175292904Y-111488152D02*
X175245285Y-111535771D01*
X175245285Y-111535771D02*
X175150047Y-111583390D01*
X175150047Y-111583390D02*
X174959571Y-111583390D01*
X174959571Y-111583390D02*
X174864333Y-111631009D01*
X174864333Y-111631009D02*
X174816714Y-111678628D01*
X174816714Y-111678628D02*
X174769095Y-111773866D01*
X174769095Y-111773866D02*
X174769095Y-111964342D01*
X174769095Y-111964342D02*
X174816714Y-112059580D01*
X174816714Y-112059580D02*
X174864333Y-112107200D01*
X174864333Y-112107200D02*
X174959571Y-112154819D01*
X174959571Y-112154819D02*
X175150047Y-112154819D01*
X175150047Y-112154819D02*
X175245285Y-112107200D01*
X175245285Y-112107200D02*
X175292904Y-112059580D01*
X175292904Y-112059580D02*
X175340523Y-111964342D01*
X175340523Y-111964342D02*
X175340523Y-111773866D01*
X175340523Y-111773866D02*
X175292904Y-111678628D01*
X175292904Y-111678628D02*
X175245285Y-111631009D01*
X175245285Y-111631009D02*
X175150047Y-111583390D01*
X176102428Y-111631009D02*
X176245285Y-111678628D01*
X176245285Y-111678628D02*
X176292904Y-111726247D01*
X176292904Y-111726247D02*
X176340523Y-111821485D01*
X176340523Y-111821485D02*
X176340523Y-111964342D01*
X176340523Y-111964342D02*
X176292904Y-112059580D01*
X176292904Y-112059580D02*
X176245285Y-112107200D01*
X176245285Y-112107200D02*
X176150047Y-112154819D01*
X176150047Y-112154819D02*
X175769095Y-112154819D01*
X175769095Y-112154819D02*
X175769095Y-111154819D01*
X175769095Y-111154819D02*
X176102428Y-111154819D01*
X176102428Y-111154819D02*
X176197666Y-111202438D01*
X176197666Y-111202438D02*
X176245285Y-111250057D01*
X176245285Y-111250057D02*
X176292904Y-111345295D01*
X176292904Y-111345295D02*
X176292904Y-111440533D01*
X176292904Y-111440533D02*
X176245285Y-111535771D01*
X176245285Y-111535771D02*
X176197666Y-111583390D01*
X176197666Y-111583390D02*
X176102428Y-111631009D01*
X176102428Y-111631009D02*
X175769095Y-111631009D01*
X177245285Y-111154819D02*
X176769095Y-111154819D01*
X176769095Y-111154819D02*
X176721476Y-111631009D01*
X176721476Y-111631009D02*
X176769095Y-111583390D01*
X176769095Y-111583390D02*
X176864333Y-111535771D01*
X176864333Y-111535771D02*
X177102428Y-111535771D01*
X177102428Y-111535771D02*
X177197666Y-111583390D01*
X177197666Y-111583390D02*
X177245285Y-111631009D01*
X177245285Y-111631009D02*
X177292904Y-111726247D01*
X177292904Y-111726247D02*
X177292904Y-111964342D01*
X177292904Y-111964342D02*
X177245285Y-112059580D01*
X177245285Y-112059580D02*
X177197666Y-112107200D01*
X177197666Y-112107200D02*
X177102428Y-112154819D01*
X177102428Y-112154819D02*
X176864333Y-112154819D01*
X176864333Y-112154819D02*
X176769095Y-112107200D01*
X176769095Y-112107200D02*
X176721476Y-112059580D01*
X178150047Y-111488152D02*
X178150047Y-112154819D01*
X177911952Y-111107200D02*
X177673857Y-111821485D01*
X177673857Y-111821485D02*
X178292904Y-111821485D01*
D12*
X209157633Y-127295000D02*
X208824300Y-127528333D01*
X209157633Y-127695000D02*
X208457633Y-127695000D01*
X208457633Y-127695000D02*
X208457633Y-127428333D01*
X208457633Y-127428333D02*
X208490966Y-127361667D01*
X208490966Y-127361667D02*
X208524300Y-127328333D01*
X208524300Y-127328333D02*
X208590966Y-127295000D01*
X208590966Y-127295000D02*
X208690966Y-127295000D01*
X208690966Y-127295000D02*
X208757633Y-127328333D01*
X208757633Y-127328333D02*
X208790966Y-127361667D01*
X208790966Y-127361667D02*
X208824300Y-127428333D01*
X208824300Y-127428333D02*
X208824300Y-127695000D01*
X208524300Y-127028333D02*
X208490966Y-126995000D01*
X208490966Y-126995000D02*
X208457633Y-126928333D01*
X208457633Y-126928333D02*
X208457633Y-126761667D01*
X208457633Y-126761667D02*
X208490966Y-126695000D01*
X208490966Y-126695000D02*
X208524300Y-126661667D01*
X208524300Y-126661667D02*
X208590966Y-126628333D01*
X208590966Y-126628333D02*
X208657633Y-126628333D01*
X208657633Y-126628333D02*
X208757633Y-126661667D01*
X208757633Y-126661667D02*
X209157633Y-127061667D01*
X209157633Y-127061667D02*
X209157633Y-126628333D01*
X208457633Y-126395000D02*
X208457633Y-125928333D01*
X208457633Y-125928333D02*
X209157633Y-126228333D01*
X148818633Y-112540333D02*
X148118633Y-112540333D01*
X148751966Y-111807000D02*
X148785300Y-111840333D01*
X148785300Y-111840333D02*
X148818633Y-111940333D01*
X148818633Y-111940333D02*
X148818633Y-112007000D01*
X148818633Y-112007000D02*
X148785300Y-112107000D01*
X148785300Y-112107000D02*
X148718633Y-112173667D01*
X148718633Y-112173667D02*
X148651966Y-112207000D01*
X148651966Y-112207000D02*
X148518633Y-112240333D01*
X148518633Y-112240333D02*
X148418633Y-112240333D01*
X148418633Y-112240333D02*
X148285300Y-112207000D01*
X148285300Y-112207000D02*
X148218633Y-112173667D01*
X148218633Y-112173667D02*
X148151966Y-112107000D01*
X148151966Y-112107000D02*
X148118633Y-112007000D01*
X148118633Y-112007000D02*
X148118633Y-111940333D01*
X148118633Y-111940333D02*
X148151966Y-111840333D01*
X148151966Y-111840333D02*
X148185300Y-111807000D01*
X148418633Y-111407000D02*
X148385300Y-111473667D01*
X148385300Y-111473667D02*
X148351966Y-111507000D01*
X148351966Y-111507000D02*
X148285300Y-111540333D01*
X148285300Y-111540333D02*
X148251966Y-111540333D01*
X148251966Y-111540333D02*
X148185300Y-111507000D01*
X148185300Y-111507000D02*
X148151966Y-111473667D01*
X148151966Y-111473667D02*
X148118633Y-111407000D01*
X148118633Y-111407000D02*
X148118633Y-111273667D01*
X148118633Y-111273667D02*
X148151966Y-111207000D01*
X148151966Y-111207000D02*
X148185300Y-111173667D01*
X148185300Y-111173667D02*
X148251966Y-111140333D01*
X148251966Y-111140333D02*
X148285300Y-111140333D01*
X148285300Y-111140333D02*
X148351966Y-111173667D01*
X148351966Y-111173667D02*
X148385300Y-111207000D01*
X148385300Y-111207000D02*
X148418633Y-111273667D01*
X148418633Y-111273667D02*
X148418633Y-111407000D01*
X148418633Y-111407000D02*
X148451966Y-111473667D01*
X148451966Y-111473667D02*
X148485300Y-111507000D01*
X148485300Y-111507000D02*
X148551966Y-111540333D01*
X148551966Y-111540333D02*
X148685300Y-111540333D01*
X148685300Y-111540333D02*
X148751966Y-111507000D01*
X148751966Y-111507000D02*
X148785300Y-111473667D01*
X148785300Y-111473667D02*
X148818633Y-111407000D01*
X148818633Y-111407000D02*
X148818633Y-111273667D01*
X148818633Y-111273667D02*
X148785300Y-111207000D01*
X148785300Y-111207000D02*
X148751966Y-111173667D01*
X148751966Y-111173667D02*
X148685300Y-111140333D01*
X148685300Y-111140333D02*
X148551966Y-111140333D01*
X148551966Y-111140333D02*
X148485300Y-111173667D01*
X148485300Y-111173667D02*
X148451966Y-111207000D01*
X148451966Y-111207000D02*
X148418633Y-111273667D01*
X154098466Y-104571000D02*
X154131800Y-104604333D01*
X154131800Y-104604333D02*
X154165133Y-104704333D01*
X154165133Y-104704333D02*
X154165133Y-104771000D01*
X154165133Y-104771000D02*
X154131800Y-104871000D01*
X154131800Y-104871000D02*
X154065133Y-104937667D01*
X154065133Y-104937667D02*
X153998466Y-104971000D01*
X153998466Y-104971000D02*
X153865133Y-105004333D01*
X153865133Y-105004333D02*
X153765133Y-105004333D01*
X153765133Y-105004333D02*
X153631800Y-104971000D01*
X153631800Y-104971000D02*
X153565133Y-104937667D01*
X153565133Y-104937667D02*
X153498466Y-104871000D01*
X153498466Y-104871000D02*
X153465133Y-104771000D01*
X153465133Y-104771000D02*
X153465133Y-104704333D01*
X153465133Y-104704333D02*
X153498466Y-104604333D01*
X153498466Y-104604333D02*
X153531800Y-104571000D01*
X154165133Y-103904333D02*
X154165133Y-104304333D01*
X154165133Y-104104333D02*
X153465133Y-104104333D01*
X153465133Y-104104333D02*
X153565133Y-104171000D01*
X153565133Y-104171000D02*
X153631800Y-104237667D01*
X153631800Y-104237667D02*
X153665133Y-104304333D01*
X153465133Y-103304333D02*
X153465133Y-103437666D01*
X153465133Y-103437666D02*
X153498466Y-103504333D01*
X153498466Y-103504333D02*
X153531800Y-103537666D01*
X153531800Y-103537666D02*
X153631800Y-103604333D01*
X153631800Y-103604333D02*
X153765133Y-103637666D01*
X153765133Y-103637666D02*
X154031800Y-103637666D01*
X154031800Y-103637666D02*
X154098466Y-103604333D01*
X154098466Y-103604333D02*
X154131800Y-103571000D01*
X154131800Y-103571000D02*
X154165133Y-103504333D01*
X154165133Y-103504333D02*
X154165133Y-103371000D01*
X154165133Y-103371000D02*
X154131800Y-103304333D01*
X154131800Y-103304333D02*
X154098466Y-103271000D01*
X154098466Y-103271000D02*
X154031800Y-103237666D01*
X154031800Y-103237666D02*
X153865133Y-103237666D01*
X153865133Y-103237666D02*
X153798466Y-103271000D01*
X153798466Y-103271000D02*
X153765133Y-103304333D01*
X153765133Y-103304333D02*
X153731800Y-103371000D01*
X153731800Y-103371000D02*
X153731800Y-103504333D01*
X153731800Y-103504333D02*
X153765133Y-103571000D01*
X153765133Y-103571000D02*
X153798466Y-103604333D01*
X153798466Y-103604333D02*
X153865133Y-103637666D01*
X209215633Y-84095000D02*
X208882300Y-84328333D01*
X209215633Y-84495000D02*
X208515633Y-84495000D01*
X208515633Y-84495000D02*
X208515633Y-84228333D01*
X208515633Y-84228333D02*
X208548966Y-84161667D01*
X208548966Y-84161667D02*
X208582300Y-84128333D01*
X208582300Y-84128333D02*
X208648966Y-84095000D01*
X208648966Y-84095000D02*
X208748966Y-84095000D01*
X208748966Y-84095000D02*
X208815633Y-84128333D01*
X208815633Y-84128333D02*
X208848966Y-84161667D01*
X208848966Y-84161667D02*
X208882300Y-84228333D01*
X208882300Y-84228333D02*
X208882300Y-84495000D01*
X208582300Y-83828333D02*
X208548966Y-83795000D01*
X208548966Y-83795000D02*
X208515633Y-83728333D01*
X208515633Y-83728333D02*
X208515633Y-83561667D01*
X208515633Y-83561667D02*
X208548966Y-83495000D01*
X208548966Y-83495000D02*
X208582300Y-83461667D01*
X208582300Y-83461667D02*
X208648966Y-83428333D01*
X208648966Y-83428333D02*
X208715633Y-83428333D01*
X208715633Y-83428333D02*
X208815633Y-83461667D01*
X208815633Y-83461667D02*
X209215633Y-83861667D01*
X209215633Y-83861667D02*
X209215633Y-83428333D01*
X208815633Y-83028333D02*
X208782300Y-83095000D01*
X208782300Y-83095000D02*
X208748966Y-83128333D01*
X208748966Y-83128333D02*
X208682300Y-83161666D01*
X208682300Y-83161666D02*
X208648966Y-83161666D01*
X208648966Y-83161666D02*
X208582300Y-83128333D01*
X208582300Y-83128333D02*
X208548966Y-83095000D01*
X208548966Y-83095000D02*
X208515633Y-83028333D01*
X208515633Y-83028333D02*
X208515633Y-82895000D01*
X208515633Y-82895000D02*
X208548966Y-82828333D01*
X208548966Y-82828333D02*
X208582300Y-82795000D01*
X208582300Y-82795000D02*
X208648966Y-82761666D01*
X208648966Y-82761666D02*
X208682300Y-82761666D01*
X208682300Y-82761666D02*
X208748966Y-82795000D01*
X208748966Y-82795000D02*
X208782300Y-82828333D01*
X208782300Y-82828333D02*
X208815633Y-82895000D01*
X208815633Y-82895000D02*
X208815633Y-83028333D01*
X208815633Y-83028333D02*
X208848966Y-83095000D01*
X208848966Y-83095000D02*
X208882300Y-83128333D01*
X208882300Y-83128333D02*
X208948966Y-83161666D01*
X208948966Y-83161666D02*
X209082300Y-83161666D01*
X209082300Y-83161666D02*
X209148966Y-83128333D01*
X209148966Y-83128333D02*
X209182300Y-83095000D01*
X209182300Y-83095000D02*
X209215633Y-83028333D01*
X209215633Y-83028333D02*
X209215633Y-82895000D01*
X209215633Y-82895000D02*
X209182300Y-82828333D01*
X209182300Y-82828333D02*
X209148966Y-82795000D01*
X209148966Y-82795000D02*
X209082300Y-82761666D01*
X209082300Y-82761666D02*
X208948966Y-82761666D01*
X208948966Y-82761666D02*
X208882300Y-82795000D01*
X208882300Y-82795000D02*
X208848966Y-82828333D01*
X208848966Y-82828333D02*
X208815633Y-82895000D01*
X147617966Y-107373666D02*
X147651300Y-107406999D01*
X147651300Y-107406999D02*
X147684633Y-107506999D01*
X147684633Y-107506999D02*
X147684633Y-107573666D01*
X147684633Y-107573666D02*
X147651300Y-107673666D01*
X147651300Y-107673666D02*
X147584633Y-107740333D01*
X147584633Y-107740333D02*
X147517966Y-107773666D01*
X147517966Y-107773666D02*
X147384633Y-107806999D01*
X147384633Y-107806999D02*
X147284633Y-107806999D01*
X147284633Y-107806999D02*
X147151300Y-107773666D01*
X147151300Y-107773666D02*
X147084633Y-107740333D01*
X147084633Y-107740333D02*
X147017966Y-107673666D01*
X147017966Y-107673666D02*
X146984633Y-107573666D01*
X146984633Y-107573666D02*
X146984633Y-107506999D01*
X146984633Y-107506999D02*
X147017966Y-107406999D01*
X147017966Y-107406999D02*
X147051300Y-107373666D01*
X147051300Y-107106999D02*
X147017966Y-107073666D01*
X147017966Y-107073666D02*
X146984633Y-107006999D01*
X146984633Y-107006999D02*
X146984633Y-106840333D01*
X146984633Y-106840333D02*
X147017966Y-106773666D01*
X147017966Y-106773666D02*
X147051300Y-106740333D01*
X147051300Y-106740333D02*
X147117966Y-106706999D01*
X147117966Y-106706999D02*
X147184633Y-106706999D01*
X147184633Y-106706999D02*
X147284633Y-106740333D01*
X147284633Y-106740333D02*
X147684633Y-107140333D01*
X147684633Y-107140333D02*
X147684633Y-106706999D01*
X149920633Y-99080333D02*
X150420633Y-99080333D01*
X150420633Y-99080333D02*
X150520633Y-99113666D01*
X150520633Y-99113666D02*
X150587300Y-99180333D01*
X150587300Y-99180333D02*
X150620633Y-99280333D01*
X150620633Y-99280333D02*
X150620633Y-99347000D01*
X150620633Y-98747000D02*
X149920633Y-98747000D01*
X149920633Y-98747000D02*
X149920633Y-98480333D01*
X149920633Y-98480333D02*
X149953966Y-98413667D01*
X149953966Y-98413667D02*
X149987300Y-98380333D01*
X149987300Y-98380333D02*
X150053966Y-98347000D01*
X150053966Y-98347000D02*
X150153966Y-98347000D01*
X150153966Y-98347000D02*
X150220633Y-98380333D01*
X150220633Y-98380333D02*
X150253966Y-98413667D01*
X150253966Y-98413667D02*
X150287300Y-98480333D01*
X150287300Y-98480333D02*
X150287300Y-98747000D01*
X150620633Y-97680333D02*
X150620633Y-98080333D01*
X150620633Y-97880333D02*
X149920633Y-97880333D01*
X149920633Y-97880333D02*
X150020633Y-97947000D01*
X150020633Y-97947000D02*
X150087300Y-98013667D01*
X150087300Y-98013667D02*
X150120633Y-98080333D01*
X148818633Y-123524333D02*
X148118633Y-123524333D01*
X148751966Y-122791000D02*
X148785300Y-122824333D01*
X148785300Y-122824333D02*
X148818633Y-122924333D01*
X148818633Y-122924333D02*
X148818633Y-122991000D01*
X148818633Y-122991000D02*
X148785300Y-123091000D01*
X148785300Y-123091000D02*
X148718633Y-123157667D01*
X148718633Y-123157667D02*
X148651966Y-123191000D01*
X148651966Y-123191000D02*
X148518633Y-123224333D01*
X148518633Y-123224333D02*
X148418633Y-123224333D01*
X148418633Y-123224333D02*
X148285300Y-123191000D01*
X148285300Y-123191000D02*
X148218633Y-123157667D01*
X148218633Y-123157667D02*
X148151966Y-123091000D01*
X148151966Y-123091000D02*
X148118633Y-122991000D01*
X148118633Y-122991000D02*
X148118633Y-122924333D01*
X148118633Y-122924333D02*
X148151966Y-122824333D01*
X148151966Y-122824333D02*
X148185300Y-122791000D01*
X148118633Y-122557667D02*
X148118633Y-122091000D01*
X148118633Y-122091000D02*
X148818633Y-122391000D01*
X198575966Y-92539666D02*
X198609300Y-92572999D01*
X198609300Y-92572999D02*
X198642633Y-92672999D01*
X198642633Y-92672999D02*
X198642633Y-92739666D01*
X198642633Y-92739666D02*
X198609300Y-92839666D01*
X198609300Y-92839666D02*
X198542633Y-92906333D01*
X198542633Y-92906333D02*
X198475966Y-92939666D01*
X198475966Y-92939666D02*
X198342633Y-92972999D01*
X198342633Y-92972999D02*
X198242633Y-92972999D01*
X198242633Y-92972999D02*
X198109300Y-92939666D01*
X198109300Y-92939666D02*
X198042633Y-92906333D01*
X198042633Y-92906333D02*
X197975966Y-92839666D01*
X197975966Y-92839666D02*
X197942633Y-92739666D01*
X197942633Y-92739666D02*
X197942633Y-92672999D01*
X197942633Y-92672999D02*
X197975966Y-92572999D01*
X197975966Y-92572999D02*
X198009300Y-92539666D01*
X198175966Y-91939666D02*
X198642633Y-91939666D01*
X197909300Y-92106333D02*
X198409300Y-92272999D01*
X198409300Y-92272999D02*
X198409300Y-91839666D01*
X147617966Y-117685666D02*
X147651300Y-117718999D01*
X147651300Y-117718999D02*
X147684633Y-117818999D01*
X147684633Y-117818999D02*
X147684633Y-117885666D01*
X147684633Y-117885666D02*
X147651300Y-117985666D01*
X147651300Y-117985666D02*
X147584633Y-118052333D01*
X147584633Y-118052333D02*
X147517966Y-118085666D01*
X147517966Y-118085666D02*
X147384633Y-118118999D01*
X147384633Y-118118999D02*
X147284633Y-118118999D01*
X147284633Y-118118999D02*
X147151300Y-118085666D01*
X147151300Y-118085666D02*
X147084633Y-118052333D01*
X147084633Y-118052333D02*
X147017966Y-117985666D01*
X147017966Y-117985666D02*
X146984633Y-117885666D01*
X146984633Y-117885666D02*
X146984633Y-117818999D01*
X146984633Y-117818999D02*
X147017966Y-117718999D01*
X147017966Y-117718999D02*
X147051300Y-117685666D01*
X147684633Y-117018999D02*
X147684633Y-117418999D01*
X147684633Y-117218999D02*
X146984633Y-117218999D01*
X146984633Y-117218999D02*
X147084633Y-117285666D01*
X147084633Y-117285666D02*
X147151300Y-117352333D01*
X147151300Y-117352333D02*
X147184633Y-117418999D01*
X159432466Y-96697000D02*
X159465800Y-96730333D01*
X159465800Y-96730333D02*
X159499133Y-96830333D01*
X159499133Y-96830333D02*
X159499133Y-96897000D01*
X159499133Y-96897000D02*
X159465800Y-96997000D01*
X159465800Y-96997000D02*
X159399133Y-97063667D01*
X159399133Y-97063667D02*
X159332466Y-97097000D01*
X159332466Y-97097000D02*
X159199133Y-97130333D01*
X159199133Y-97130333D02*
X159099133Y-97130333D01*
X159099133Y-97130333D02*
X158965800Y-97097000D01*
X158965800Y-97097000D02*
X158899133Y-97063667D01*
X158899133Y-97063667D02*
X158832466Y-96997000D01*
X158832466Y-96997000D02*
X158799133Y-96897000D01*
X158799133Y-96897000D02*
X158799133Y-96830333D01*
X158799133Y-96830333D02*
X158832466Y-96730333D01*
X158832466Y-96730333D02*
X158865800Y-96697000D01*
X159499133Y-96030333D02*
X159499133Y-96430333D01*
X159499133Y-96230333D02*
X158799133Y-96230333D01*
X158799133Y-96230333D02*
X158899133Y-96297000D01*
X158899133Y-96297000D02*
X158965800Y-96363667D01*
X158965800Y-96363667D02*
X158999133Y-96430333D01*
X158799133Y-95397000D02*
X158799133Y-95730333D01*
X158799133Y-95730333D02*
X159132466Y-95763666D01*
X159132466Y-95763666D02*
X159099133Y-95730333D01*
X159099133Y-95730333D02*
X159065800Y-95663666D01*
X159065800Y-95663666D02*
X159065800Y-95497000D01*
X159065800Y-95497000D02*
X159099133Y-95430333D01*
X159099133Y-95430333D02*
X159132466Y-95397000D01*
X159132466Y-95397000D02*
X159199133Y-95363666D01*
X159199133Y-95363666D02*
X159365800Y-95363666D01*
X159365800Y-95363666D02*
X159432466Y-95397000D01*
X159432466Y-95397000D02*
X159465800Y-95430333D01*
X159465800Y-95430333D02*
X159499133Y-95497000D01*
X159499133Y-95497000D02*
X159499133Y-95663666D01*
X159499133Y-95663666D02*
X159465800Y-95730333D01*
X159465800Y-95730333D02*
X159432466Y-95763666D01*
X153160633Y-98983000D02*
X152827300Y-99216333D01*
X153160633Y-99383000D02*
X152460633Y-99383000D01*
X152460633Y-99383000D02*
X152460633Y-99116333D01*
X152460633Y-99116333D02*
X152493966Y-99049667D01*
X152493966Y-99049667D02*
X152527300Y-99016333D01*
X152527300Y-99016333D02*
X152593966Y-98983000D01*
X152593966Y-98983000D02*
X152693966Y-98983000D01*
X152693966Y-98983000D02*
X152760633Y-99016333D01*
X152760633Y-99016333D02*
X152793966Y-99049667D01*
X152793966Y-99049667D02*
X152827300Y-99116333D01*
X152827300Y-99116333D02*
X152827300Y-99383000D01*
X152527300Y-98716333D02*
X152493966Y-98683000D01*
X152493966Y-98683000D02*
X152460633Y-98616333D01*
X152460633Y-98616333D02*
X152460633Y-98449667D01*
X152460633Y-98449667D02*
X152493966Y-98383000D01*
X152493966Y-98383000D02*
X152527300Y-98349667D01*
X152527300Y-98349667D02*
X152593966Y-98316333D01*
X152593966Y-98316333D02*
X152660633Y-98316333D01*
X152660633Y-98316333D02*
X152760633Y-98349667D01*
X152760633Y-98349667D02*
X153160633Y-98749667D01*
X153160633Y-98749667D02*
X153160633Y-98316333D01*
X152460633Y-97716333D02*
X152460633Y-97849666D01*
X152460633Y-97849666D02*
X152493966Y-97916333D01*
X152493966Y-97916333D02*
X152527300Y-97949666D01*
X152527300Y-97949666D02*
X152627300Y-98016333D01*
X152627300Y-98016333D02*
X152760633Y-98049666D01*
X152760633Y-98049666D02*
X153027300Y-98049666D01*
X153027300Y-98049666D02*
X153093966Y-98016333D01*
X153093966Y-98016333D02*
X153127300Y-97983000D01*
X153127300Y-97983000D02*
X153160633Y-97916333D01*
X153160633Y-97916333D02*
X153160633Y-97783000D01*
X153160633Y-97783000D02*
X153127300Y-97716333D01*
X153127300Y-97716333D02*
X153093966Y-97683000D01*
X153093966Y-97683000D02*
X153027300Y-97649666D01*
X153027300Y-97649666D02*
X152860633Y-97649666D01*
X152860633Y-97649666D02*
X152793966Y-97683000D01*
X152793966Y-97683000D02*
X152760633Y-97716333D01*
X152760633Y-97716333D02*
X152727300Y-97783000D01*
X152727300Y-97783000D02*
X152727300Y-97916333D01*
X152727300Y-97916333D02*
X152760633Y-97983000D01*
X152760633Y-97983000D02*
X152793966Y-98016333D01*
X152793966Y-98016333D02*
X152860633Y-98049666D01*
X162595633Y-97805333D02*
X161895633Y-97805333D01*
X162528966Y-97072000D02*
X162562300Y-97105333D01*
X162562300Y-97105333D02*
X162595633Y-97205333D01*
X162595633Y-97205333D02*
X162595633Y-97272000D01*
X162595633Y-97272000D02*
X162562300Y-97372000D01*
X162562300Y-97372000D02*
X162495633Y-97438667D01*
X162495633Y-97438667D02*
X162428966Y-97472000D01*
X162428966Y-97472000D02*
X162295633Y-97505333D01*
X162295633Y-97505333D02*
X162195633Y-97505333D01*
X162195633Y-97505333D02*
X162062300Y-97472000D01*
X162062300Y-97472000D02*
X161995633Y-97438667D01*
X161995633Y-97438667D02*
X161928966Y-97372000D01*
X161928966Y-97372000D02*
X161895633Y-97272000D01*
X161895633Y-97272000D02*
X161895633Y-97205333D01*
X161895633Y-97205333D02*
X161928966Y-97105333D01*
X161928966Y-97105333D02*
X161962300Y-97072000D01*
X161895633Y-96472000D02*
X161895633Y-96605333D01*
X161895633Y-96605333D02*
X161928966Y-96672000D01*
X161928966Y-96672000D02*
X161962300Y-96705333D01*
X161962300Y-96705333D02*
X162062300Y-96772000D01*
X162062300Y-96772000D02*
X162195633Y-96805333D01*
X162195633Y-96805333D02*
X162462300Y-96805333D01*
X162462300Y-96805333D02*
X162528966Y-96772000D01*
X162528966Y-96772000D02*
X162562300Y-96738667D01*
X162562300Y-96738667D02*
X162595633Y-96672000D01*
X162595633Y-96672000D02*
X162595633Y-96538667D01*
X162595633Y-96538667D02*
X162562300Y-96472000D01*
X162562300Y-96472000D02*
X162528966Y-96438667D01*
X162528966Y-96438667D02*
X162462300Y-96405333D01*
X162462300Y-96405333D02*
X162295633Y-96405333D01*
X162295633Y-96405333D02*
X162228966Y-96438667D01*
X162228966Y-96438667D02*
X162195633Y-96472000D01*
X162195633Y-96472000D02*
X162162300Y-96538667D01*
X162162300Y-96538667D02*
X162162300Y-96672000D01*
X162162300Y-96672000D02*
X162195633Y-96738667D01*
X162195633Y-96738667D02*
X162228966Y-96772000D01*
X162228966Y-96772000D02*
X162295633Y-96805333D01*
X195703966Y-85908500D02*
X195737300Y-85941833D01*
X195737300Y-85941833D02*
X195770633Y-86041833D01*
X195770633Y-86041833D02*
X195770633Y-86108500D01*
X195770633Y-86108500D02*
X195737300Y-86208500D01*
X195737300Y-86208500D02*
X195670633Y-86275167D01*
X195670633Y-86275167D02*
X195603966Y-86308500D01*
X195603966Y-86308500D02*
X195470633Y-86341833D01*
X195470633Y-86341833D02*
X195370633Y-86341833D01*
X195370633Y-86341833D02*
X195237300Y-86308500D01*
X195237300Y-86308500D02*
X195170633Y-86275167D01*
X195170633Y-86275167D02*
X195103966Y-86208500D01*
X195103966Y-86208500D02*
X195070633Y-86108500D01*
X195070633Y-86108500D02*
X195070633Y-86041833D01*
X195070633Y-86041833D02*
X195103966Y-85941833D01*
X195103966Y-85941833D02*
X195137300Y-85908500D01*
X195770633Y-85241833D02*
X195770633Y-85641833D01*
X195770633Y-85441833D02*
X195070633Y-85441833D01*
X195070633Y-85441833D02*
X195170633Y-85508500D01*
X195170633Y-85508500D02*
X195237300Y-85575167D01*
X195237300Y-85575167D02*
X195270633Y-85641833D01*
X195070633Y-85008500D02*
X195070633Y-84575166D01*
X195070633Y-84575166D02*
X195337300Y-84808500D01*
X195337300Y-84808500D02*
X195337300Y-84708500D01*
X195337300Y-84708500D02*
X195370633Y-84641833D01*
X195370633Y-84641833D02*
X195403966Y-84608500D01*
X195403966Y-84608500D02*
X195470633Y-84575166D01*
X195470633Y-84575166D02*
X195637300Y-84575166D01*
X195637300Y-84575166D02*
X195703966Y-84608500D01*
X195703966Y-84608500D02*
X195737300Y-84641833D01*
X195737300Y-84641833D02*
X195770633Y-84708500D01*
X195770633Y-84708500D02*
X195770633Y-84908500D01*
X195770633Y-84908500D02*
X195737300Y-84975166D01*
X195737300Y-84975166D02*
X195703966Y-85008500D01*
X196893633Y-88280333D02*
X196193633Y-88280333D01*
X196826966Y-87547000D02*
X196860300Y-87580333D01*
X196860300Y-87580333D02*
X196893633Y-87680333D01*
X196893633Y-87680333D02*
X196893633Y-87747000D01*
X196893633Y-87747000D02*
X196860300Y-87847000D01*
X196860300Y-87847000D02*
X196793633Y-87913667D01*
X196793633Y-87913667D02*
X196726966Y-87947000D01*
X196726966Y-87947000D02*
X196593633Y-87980333D01*
X196593633Y-87980333D02*
X196493633Y-87980333D01*
X196493633Y-87980333D02*
X196360300Y-87947000D01*
X196360300Y-87947000D02*
X196293633Y-87913667D01*
X196293633Y-87913667D02*
X196226966Y-87847000D01*
X196226966Y-87847000D02*
X196193633Y-87747000D01*
X196193633Y-87747000D02*
X196193633Y-87680333D01*
X196193633Y-87680333D02*
X196226966Y-87580333D01*
X196226966Y-87580333D02*
X196260300Y-87547000D01*
X196893633Y-86880333D02*
X196893633Y-87280333D01*
X196893633Y-87080333D02*
X196193633Y-87080333D01*
X196193633Y-87080333D02*
X196293633Y-87147000D01*
X196293633Y-87147000D02*
X196360300Y-87213667D01*
X196360300Y-87213667D02*
X196393633Y-87280333D01*
D13*
X212224700Y-100542904D02*
X212272319Y-100400047D01*
X212272319Y-100400047D02*
X212272319Y-100161952D01*
X212272319Y-100161952D02*
X212224700Y-100066714D01*
X212224700Y-100066714D02*
X212177080Y-100019095D01*
X212177080Y-100019095D02*
X212081842Y-99971476D01*
X212081842Y-99971476D02*
X211986604Y-99971476D01*
X211986604Y-99971476D02*
X211891366Y-100019095D01*
X211891366Y-100019095D02*
X211843747Y-100066714D01*
X211843747Y-100066714D02*
X211796128Y-100161952D01*
X211796128Y-100161952D02*
X211748509Y-100352428D01*
X211748509Y-100352428D02*
X211700890Y-100447666D01*
X211700890Y-100447666D02*
X211653271Y-100495285D01*
X211653271Y-100495285D02*
X211558033Y-100542904D01*
X211558033Y-100542904D02*
X211462795Y-100542904D01*
X211462795Y-100542904D02*
X211367557Y-100495285D01*
X211367557Y-100495285D02*
X211319938Y-100447666D01*
X211319938Y-100447666D02*
X211272319Y-100352428D01*
X211272319Y-100352428D02*
X211272319Y-100114333D01*
X211272319Y-100114333D02*
X211319938Y-99971476D01*
X212272319Y-99542904D02*
X211272319Y-99542904D01*
X212272319Y-98971476D02*
X211700890Y-99400047D01*
X211272319Y-98971476D02*
X211843747Y-99542904D01*
X212272319Y-98019095D02*
X212272319Y-98590523D01*
X212272319Y-98304809D02*
X211272319Y-98304809D01*
X211272319Y-98304809D02*
X211415176Y-98400047D01*
X211415176Y-98400047D02*
X211510414Y-98495285D01*
X211510414Y-98495285D02*
X211558033Y-98590523D01*
D11*
X207667000Y-101135000D02*
X207667000Y-102085000D01*
X207217000Y-101135000D02*
X207667000Y-101135000D01*
X203697000Y-101135000D02*
X202047000Y-101135000D01*
X203247000Y-101135000D02*
X203247000Y-109355000D01*
X202047000Y-101135000D02*
X202047000Y-105245000D01*
X207667000Y-102085000D02*
X209157000Y-102085000D01*
X207667000Y-109355000D02*
X207667000Y-108405000D01*
X207217000Y-109355000D02*
X207667000Y-109355000D01*
X202047000Y-109355000D02*
X202047000Y-105245000D01*
X202047000Y-109355000D02*
X203697000Y-109355000D01*
X196052500Y-95995742D02*
X196052500Y-96470258D01*
X195007500Y-95995742D02*
X195007500Y-96470258D01*
X179796500Y-88629742D02*
X179796500Y-89104258D01*
X178751500Y-88629742D02*
X178751500Y-89104258D01*
X183352500Y-88629742D02*
X183352500Y-89104258D01*
X182307500Y-88629742D02*
X182307500Y-89104258D01*
X183352500Y-91931742D02*
X183352500Y-92406258D01*
X182307500Y-91931742D02*
X182307500Y-92406258D01*
X185892500Y-85327742D02*
X185892500Y-85802258D01*
X184847500Y-85327742D02*
X184847500Y-85802258D01*
X188432500Y-85327742D02*
X188432500Y-85802258D01*
X187387500Y-85327742D02*
X187387500Y-85802258D01*
X190972500Y-85327742D02*
X190972500Y-85802258D01*
X189927500Y-85327742D02*
X189927500Y-85802258D01*
X193512500Y-85327742D02*
X193512500Y-85802258D01*
X192467500Y-85327742D02*
X192467500Y-85802258D01*
X189927500Y-89104258D02*
X189927500Y-88629742D01*
X190972500Y-89104258D02*
X190972500Y-88629742D01*
X187387500Y-89104258D02*
X187387500Y-88629742D01*
X188432500Y-89104258D02*
X188432500Y-88629742D01*
X162256000Y-100316164D02*
X162256000Y-100531836D01*
X161536000Y-100316164D02*
X161536000Y-100531836D01*
X172776000Y-100189164D02*
X172776000Y-100404836D01*
X172056000Y-100189164D02*
X172056000Y-100404836D01*
X184847500Y-92406258D02*
X184847500Y-91931742D01*
X185892500Y-92406258D02*
X185892500Y-91931742D01*
X184847500Y-89104258D02*
X184847500Y-88629742D01*
X185892500Y-89104258D02*
X185892500Y-88629742D01*
X173315000Y-97757000D02*
X173315000Y-101207000D01*
X173315000Y-97757000D02*
X173315000Y-95807000D01*
X182185000Y-97757000D02*
X182185000Y-99707000D01*
X182185000Y-97757000D02*
X182185000Y-95807000D01*
X160457000Y-92545164D02*
X160457000Y-92760836D01*
X159737000Y-92545164D02*
X159737000Y-92760836D01*
X177256500Y-91931742D02*
X177256500Y-92406258D01*
X176211500Y-91931742D02*
X176211500Y-92406258D01*
X174716500Y-91931742D02*
X174716500Y-92406258D01*
X173671500Y-91931742D02*
X173671500Y-92406258D01*
X185380000Y-97757000D02*
X185380000Y-101207000D01*
X185380000Y-97757000D02*
X185380000Y-95807000D01*
X194250000Y-97757000D02*
X194250000Y-99707000D01*
X194250000Y-97757000D02*
X194250000Y-95807000D01*
X188432500Y-91931742D02*
X188432500Y-92406258D01*
X187387500Y-91931742D02*
X187387500Y-92406258D01*
X196040000Y-92028420D02*
X196040000Y-92309580D01*
X195020000Y-92028420D02*
X195020000Y-92309580D01*
X189927500Y-92406258D02*
X189927500Y-91931742D01*
X190972500Y-92406258D02*
X190972500Y-91931742D01*
X196033000Y-119620164D02*
X196033000Y-119835836D01*
X195313000Y-119620164D02*
X195313000Y-119835836D01*
X184622500Y-95741742D02*
X184622500Y-96216258D01*
X183577500Y-95741742D02*
X183577500Y-96216258D01*
X182307500Y-85802258D02*
X182307500Y-85327742D01*
X183352500Y-85802258D02*
X183352500Y-85327742D01*
X161133000Y-89883000D02*
X161133000Y-93333000D01*
X161133000Y-89883000D02*
X161133000Y-87933000D01*
X171253000Y-89883000D02*
X171253000Y-91833000D01*
X171253000Y-89883000D02*
X171253000Y-87933000D01*
X179796500Y-91931742D02*
X179796500Y-92406258D01*
X178751500Y-91931742D02*
X178751500Y-92406258D01*
X173671500Y-89104258D02*
X173671500Y-88629742D01*
X174716500Y-89104258D02*
X174716500Y-88629742D01*
X174929000Y-85303748D02*
X174929000Y-85826252D01*
X173459000Y-85303748D02*
X173459000Y-85826252D01*
X180009000Y-85303748D02*
X180009000Y-85826252D01*
X178539000Y-85303748D02*
X178539000Y-85826252D01*
X176211500Y-89104258D02*
X176211500Y-88629742D01*
X177256500Y-89104258D02*
X177256500Y-88629742D01*
X170242500Y-84749258D02*
X170242500Y-84274742D01*
X171287500Y-84749258D02*
X171287500Y-84274742D01*
X171525000Y-96119580D02*
X171525000Y-95838420D01*
X172545000Y-96119580D02*
X172545000Y-95838420D01*
X193512500Y-91931742D02*
X193512500Y-92406258D01*
X192467500Y-91931742D02*
X192467500Y-92406258D01*
X184841000Y-100189164D02*
X184841000Y-100404836D01*
X184121000Y-100189164D02*
X184121000Y-100404836D01*
X192467500Y-89104258D02*
X192467500Y-88629742D01*
X193512500Y-89104258D02*
X193512500Y-88629742D01*
X177469000Y-85303748D02*
X177469000Y-85826252D01*
X175999000Y-85303748D02*
X175999000Y-85826252D01*
X148792500Y-120063742D02*
X148792500Y-120538258D01*
X147747500Y-120063742D02*
X147747500Y-120538258D01*
X155878500Y-99513000D02*
X154203500Y-99513000D01*
X155878500Y-99513000D02*
X156528500Y-99513000D01*
X155878500Y-102633000D02*
X155228500Y-102633000D01*
X155878500Y-102633000D02*
X156528500Y-102633000D01*
D10*
X127775000Y-129029000D02*
X137775000Y-129029000D01*
X127775000Y-101029000D02*
X127775000Y-129029000D01*
X137475000Y-101029000D02*
X127775000Y-101029000D01*
D11*
X158285000Y-118187000D02*
X193965000Y-118187000D01*
X193965000Y-118187000D02*
X193965000Y-105267000D01*
X158285000Y-112727000D02*
X158285000Y-118187000D01*
X158285000Y-105267000D02*
X158285000Y-110727000D01*
X193965000Y-105267000D02*
X158285000Y-105267000D01*
X158285000Y-112727000D02*
G75*
G03*
X158285000Y-110727000I0J1000000D01*
G01*
X209749000Y-127572064D02*
X209749000Y-126117936D01*
X211569000Y-127572064D02*
X211569000Y-126117936D01*
X149315000Y-109317000D02*
X149315000Y-112917000D01*
X149315000Y-109317000D02*
X149315000Y-107117000D01*
X156085000Y-109317000D02*
X156085000Y-111517000D01*
X156085000Y-109317000D02*
X156085000Y-107117000D01*
X155617248Y-103386000D02*
X156139752Y-103386000D01*
X155617248Y-104856000D02*
X156139752Y-104856000D01*
X209807000Y-84372064D02*
X209807000Y-82917936D01*
X211627000Y-84372064D02*
X211627000Y-82917936D01*
X148742000Y-107149164D02*
X148742000Y-107364836D01*
X148022000Y-107149164D02*
X148022000Y-107364836D01*
X149302000Y-102397000D02*
X149302000Y-99597000D01*
X151302000Y-102397000D02*
X149302000Y-102397000D01*
X149302000Y-99597000D02*
X151302000Y-99597000D01*
X151302000Y-99597000D02*
X151302000Y-102397000D01*
X149315000Y-119855000D02*
X149315000Y-123455000D01*
X149315000Y-119855000D02*
X149315000Y-117655000D01*
X156085000Y-119855000D02*
X156085000Y-122055000D01*
X156085000Y-119855000D02*
X156085000Y-117655000D01*
X200094748Y-91688000D02*
X200617252Y-91688000D01*
X200094748Y-93158000D02*
X200617252Y-93158000D01*
X148742000Y-117461164D02*
X148742000Y-117676836D01*
X148022000Y-117461164D02*
X148022000Y-117676836D01*
X158445500Y-99302252D02*
X158445500Y-98779748D01*
X159915500Y-99302252D02*
X159915500Y-98779748D01*
X152319500Y-101234258D02*
X152319500Y-100759742D01*
X153364500Y-101234258D02*
X153364500Y-100759742D01*
X162969000Y-98265000D02*
X162969000Y-101865000D01*
X162969000Y-98265000D02*
X162969000Y-96065000D01*
X168189000Y-98265000D02*
X168189000Y-100465000D01*
X168189000Y-98265000D02*
X168189000Y-96065000D01*
X195981000Y-85566336D02*
X195981000Y-85350664D01*
X196701000Y-85566336D02*
X196701000Y-85350664D01*
X197415000Y-87597000D02*
X197415000Y-91047000D01*
X197415000Y-87597000D02*
X197415000Y-85647000D01*
X202535000Y-87597000D02*
X202535000Y-89547000D01*
X202535000Y-87597000D02*
X202535000Y-85647000D01*
X212769000Y-113345000D02*
X225769000Y-113345000D01*
X212769000Y-113345000D02*
X212769000Y-97145000D01*
X225769000Y-113345000D02*
X225769000Y-97145000D01*
X212769000Y-97145000D02*
X225769000Y-97145000D01*
M02*
